<svg width="586" height="612" viewBox="0 0 586 612" fill="none" xmlns="http://www.w3.org/2000/svg">
<path d="M423 509L431 512L438 513V514L424 517L419 518V528L422 529L420 531L409 534L405 537L404 532L396 534H391L390 531L381 534L382 540V548L374 552H371L370 545L364 547L365 554L357 556L352 558L347 561L333 565L325 572L319 574H306L300 577L295 575L296 570L299 565L290 562L285 557L286 552L287 550L294 548L300 549L309 550L322 548L328 546L336 545L338 547H343L349 539L356 540L361 529L364 526L373 525L375 520L379 517L388 519L394 516L398 513L408 514L415 516L423 509Z" fill="white"/>
<path d="M453 495H463L462 498L454 499L453 495Z" fill="white"/>
<path d="M490 462L495 463L500 466L506 465L508 463H515L517 467L514 470H504L501 472L497 471L493 468V473L490 476H480L472 483L466 487L465 481L468 480L473 475L478 472L480 470H487L490 462Z" fill="white"/>
<path d="M510 451L512 452L515 461L506 463L501 465L493 461L488 462L486 469L480 468L476 470V463L479 457H488L492 456L493 458L499 456L503 457L505 452L509 453L510 451Z" fill="white"/>
<path d="M527 444H532L535 447V450L528 453L525 456H519L514 454V451L522 452L525 449L527 444Z" fill="white"/>
<path d="M533 431L536 432L539 439L543 440L545 439L552 443L558 444L560 443H566L568 448L566 449L564 448H555L541 451L536 447L533 443H527L523 450L520 451L513 448V441L516 437L520 439H527L531 440V434L533 431Z" fill="white"/>
<path d="M32 420H36L40 427L46 425L53 430V428L61 421L65 422L80 437L82 438L81 442L78 444L74 443L70 441L65 446H58L54 452L57 455L56 461L57 464L51 478L48 479H41L35 472L36 468L41 464H43L41 459L44 458L40 451L34 450L25 460L23 463L19 462L21 458L30 448H32L34 444L35 440L26 427L27 423L32 420Z" fill="white"/>
<path d="M255 416L272 417L294 419L308 416H312L313 423H310L312 432L314 440L316 460L319 465L321 488L309 491L298 493H294V520L292 530L289 531H271L270 526L271 522L268 521L269 508L270 502H260L239 500L237 499L241 480L247 455L255 416Z" fill="white"/>
<path d="M375 401H393L397 404V406H399V408L403 407L405 404L408 405H415L421 404L422 430L412 427L410 426V435L408 445H405L406 462L411 468L412 478L423 481L427 476L452 474H468L467 479L464 481V491L463 493L457 494L452 493L453 503L450 508L446 509L441 504V502H438V509L437 511L429 510L423 508L417 512L415 514L408 513L398 512L393 515L388 518L379 516L374 519L372 524L362 526L359 530L356 539L348 538L342 546H339L338 544L325 545L319 548L304 549L298 547H290L291 544L292 531L294 525L295 521L296 495L309 492L323 490L320 464L317 460L316 439L328 434L334 436L336 437H351V430L378 424L388 423L385 417L375 403V401Z" fill="white"/>
<path d="M214 391L227 396L239 401L255 404L254 415L245 459L244 462L234 461L224 458L195 446L194 444L200 431L201 417L205 418L208 407L214 391Z" fill="white"/>
<path d="M186 379L199 384L212 390L209 401L204 415L202 416L200 415L199 430L193 443L192 447L197 448L229 461L243 464L242 472L236 496L233 512L229 528V532L232 533L235 540L231 542L242 564V575L238 576L236 570V567H232V564L204 566L203 563L201 562L204 570L216 575V577L202 581H194L181 574L180 569L182 564V557L178 536L174 535L171 526V517L164 518L159 516L160 508L164 497L163 493L159 491L155 482L154 479L155 472L151 468L152 459L155 450L159 448L162 416L170 403L175 405L178 407L180 397L185 380L186 379Z" fill="white"/>
<path d="M269 355H277L278 356L286 413V417L264 415L256 414L257 406L268 358L269 355Z" fill="white"/>
<path d="M304 347H311L312 352L313 383V398H307L310 408V414L294 418L288 417L284 391L280 362V355L292 354L304 347Z" fill="white"/>
<path d="M232 345L240 346L265 353L267 354L266 362L257 401L256 402L245 401L237 399L216 390L215 387L229 353L232 345Z" fill="white"/>
<path d="M312 339L350 341L377 343L409 344L415 342L417 339H422L421 342L420 359H429L435 360V371L411 369L410 372V380H401L406 385L410 390L412 398L402 406L398 404L393 400L372 399L377 408L385 419V421L374 424L350 429L349 435L345 436H337L330 433L325 434L317 437H314L313 425H315L310 404V400H315L313 348L312 339Z" fill="white"/>
<path d="M199 331L205 332L230 343L231 345L216 382L213 388L204 385L188 378L187 377V363L198 333L199 331Z" fill="white"/>
<path d="M163 286L170 292L175 297L184 296L208 290H211V296L200 325L186 362L185 377L180 376L160 367L161 363L170 349L163 343L141 342L149 321L152 320V302L153 300H161L162 290L163 286Z" fill="white"/>
<path d="M253 290H270L271 291L277 346V353L272 354L234 343L235 338L253 290Z" fill="white"/>
<path d="M213 290H217L218 292L233 293V290H251L250 295L242 316L233 340L231 342L205 331L201 329L203 320L212 296L213 290Z" fill="white"/>
<path d="M220 290H230V291H220V290Z" fill="white"/>
<path d="M290 281L294 282L298 297L304 314L308 337L311 342V345L303 346L292 353H279L272 289L290 281Z" fill="white"/>
<path d="M107 271L118 272L141 277L142 283H144L145 280L148 279L160 283L161 284L160 296L159 298H151L150 319L147 322L139 343L163 344L168 348L166 353L159 364L154 373L144 388L136 400L107 443L104 444L84 440L77 432L65 420L60 417L56 412L65 404L68 402L67 399L56 391L57 383L59 376V334L61 328L69 325L96 318L97 317L83 312L84 309L114 289L107 275V271Z" fill="white"/>
<path d="M422 259L448 260L480 262L491 268L493 272H495L497 278L503 282L519 284L525 287L529 292V294L538 296L539 297L549 299L551 302V307L550 308L541 310L536 313L527 314L515 309L510 310L507 313L496 314L486 322H476L465 317L464 320L456 321L452 324L440 325L429 335L424 337H416L414 341L412 342H376L343 339L342 338V331L353 308L359 275L364 260L369 261L376 264L410 265L420 268L422 259Z" fill="white"/>
<path d="M205 238H218L219 247L220 248V275L219 281L221 280H227L228 285L227 288L208 289L180 296L175 295L163 283L151 279L150 277H152L151 258L155 257L171 261H179L184 259V245L203 244V239L205 238Z" fill="white"/>
<path d="M139 226H154L163 230V227H174L181 228L182 229L183 258L178 260L168 259L140 252L139 241L137 240V227L139 226Z" fill="white"/>
<path d="M350 219L360 224L363 235L364 241V251L362 261L357 279L352 308L344 324L341 330L340 339L317 338L310 337L308 332L304 311L299 297L295 281L292 273L285 248V246L297 242H306L313 238L329 236L335 240L338 241L340 236L349 220L350 219Z" fill="white"/>
<path d="M399 211H407L408 217L420 215H430L440 219L450 222L456 227L461 232L464 235L465 243L476 253L478 257V260L452 259L421 258L418 266L406 263H380L372 261L365 258V240L362 225L352 218L350 217V215L355 214L382 213L399 211Z" fill="white"/>
<path d="M219 210L226 211L231 212V210L242 212L274 221L277 223L289 266L292 279L274 287L270 288H230L229 279H222L221 275L222 246H220V236H203V230L219 229L218 211L219 210Z" fill="white"/>
<path d="M159 187L163 188L168 193L162 224L161 227L156 226L154 225L137 224V214H123L121 213L110 212L104 209L101 206L100 209H94L86 200L84 196L81 194V191H92L93 192L102 191L106 189L150 188L156 189L159 187Z" fill="white"/>
<path d="M174 180L187 181L200 193L214 202L228 208L227 210L218 209L217 210V227L216 228H201V242L196 243H184L183 227L165 225L164 220L169 194V190L163 186L165 184L174 180Z" fill="white"/>
<path d="M307 179H317L316 184L315 190L323 194L328 198V200L332 202L344 213L348 217L346 223L337 239L331 236L326 235L312 237L306 241H303V239L287 244H284L278 222V213L281 207L283 199L286 197L292 195L300 187L303 182L307 179Z" fill="white"/>
<path d="M232 165H240L246 166L249 175L253 177V194L257 195L256 211L255 214L239 210L230 207L223 198L220 195L218 177L217 171L225 167L232 165Z" fill="white"/>
<path d="M191 139L199 140L206 156L215 172L217 178L219 196L227 204L224 205L208 197L200 191L189 181L184 179H174L168 182H161V185L155 188L151 187L105 188L99 191L81 189V176L91 166L98 158L113 143L120 145L124 151L136 152L142 157L148 155H163L168 152L176 153L178 149L184 141L191 139Z" fill="white"/>
<path d="M248 129L258 133L274 141L290 154L302 163L310 170V176L301 182L297 188L290 195L281 198L279 208L276 214V220L258 215L257 211L259 192H255V174H250L248 167L247 132L248 129Z" fill="white"/>
<path d="M190 112H212L245 127L246 131V163L242 164H232L222 167L215 169L203 147L190 115V112Z" fill="white"/>
<path d="M470 108L482 109L492 110V116L487 120L485 125V131L491 139L492 144V147L499 150L508 155L524 159L527 162L528 187L530 194L541 201L552 203L554 205L558 221V230L562 239L563 258L556 264L554 268L555 273L556 275V288L555 290H552L550 296L546 297L539 296L534 293L530 291L525 285L520 283L503 281L498 277L495 270L492 268V266L486 264L480 261L476 251L466 242L465 234L452 222L445 219L435 216L427 213L420 214H409L408 209L378 212L346 213L331 199L322 192L316 189L320 179L332 173L356 163L389 149L412 139L421 128L441 118L454 116L461 112L468 110L470 108Z" fill="white"/>
<path d="M74 104L81 110L95 124L101 132L111 140L110 144L97 157L90 165L81 174L80 176L79 196L83 197L91 208L98 211L101 212V210L107 212L109 213L121 214L123 215L135 216V241H137L138 245V254L147 255L149 256L150 264V275L143 280L142 276L106 268L103 259L97 258L92 259L89 266L84 269L80 268L74 265L64 264L62 268L53 267L44 264L43 262H36V270L33 273L26 272L23 269L20 262L21 256L24 251L26 250L24 245L25 238L27 235V225L32 223L31 216L40 212L48 210L49 207L55 208L56 204V193H60L56 145V128L57 125L74 123V104Z" fill="white"/>
<path d="M228 69L234 71L237 77L236 86L235 89L242 90L246 94L253 96L252 101L250 108H254L253 114L260 117L262 113L266 112L270 104L274 101H280L284 105V121L296 126L298 123L305 122V120H312L309 125L306 129L315 130V135L310 136L317 139L318 140L320 135L322 134L324 125L326 119V111L323 109L324 105L333 95L344 93L347 88L353 90L357 96H363L364 99L369 100L379 101L385 105L390 109V111H392V113L396 115L402 119L417 118H430L432 121L419 128L411 138L402 142L379 152L344 167L320 177H312V164L314 157L319 151L321 150V144L320 149L315 153L311 161L310 167L304 163L286 149L283 147V145L278 143L273 139L246 126L217 113L212 111L205 110L200 96V88H204L205 84L211 81L212 78L218 75L221 70H227L228 69Z" fill="white"/>
<path d="M169 34H180L184 37H191L193 36L199 40L208 43L209 48H206L207 50L213 52L214 64L215 69L208 72L203 82H201L200 87L199 88V97L203 108V110H188L190 118L197 135L196 137L190 138L182 141L175 151H168L163 154H145L141 155L139 151L133 149L132 150H125L123 148L122 144L115 141L103 132L100 129V127H98L97 123H99L100 119L105 113H107L108 100H114L116 91L118 87L127 84L126 81H133L135 83V88L140 90L142 91V81H149L150 86H161V81L151 68L141 55V52L166 45H168V38L169 34Z" fill="white"/>
<path d="M422 31H429L443 39L465 47L492 40L496 42L500 46V48L504 47L508 44H514L528 53L550 67L557 72L556 77L551 87L544 90L527 92V98L521 103L519 107L511 114L509 116L505 115V110H499V108L493 109L476 107H470L466 110L459 112L454 115L440 117L436 119L432 118L431 117H417L404 118L397 114L385 103L380 100L370 99L364 95H357V89L362 85L361 79L368 74H370L368 71V63L378 57L382 58L384 64L387 63L388 57L390 56L381 49L377 43L379 38L384 37L387 38V36H393L394 41L398 40L402 38L403 33L422 31Z" fill="white"/>
</svg>
