<svg width="190" height="188" viewBox="0 0 190 188" fill="none" xmlns="http://www.w3.org/2000/svg">
<path d="M128.174 4.79046C128.395 4.79016 128.616 4.78919 128.837 4.7876C130.196 4.77801 131.521 4.81997 132.871 4.98961C133.163 5.02597 133.456 5.05819 133.749 5.09039C134.68 5.19672 135.594 5.37498 136.51 5.57521C136.589 5.59244 136.667 5.60968 136.749 5.62743C137.587 5.81249 138.417 6.00239 139.233 6.27337C139.372 6.31578 139.512 6.35795 139.651 6.39991C140.687 6.71929 141.714 7.06588 142.723 7.46024C142.81 7.4939 142.81 7.4939 142.898 7.52825C143.084 7.60114 143.27 7.67457 143.456 7.74823C143.514 7.7709 143.572 7.79358 143.631 7.81694C143.99 7.96037 144.335 8.12101 144.678 8.29803C144.796 8.35621 144.796 8.35621 144.916 8.41557C145.151 8.53225 145.386 8.64987 145.62 8.76816C145.742 8.82993 145.865 8.89148 145.988 8.95286C148.206 10.0659 150.317 11.4052 152.252 12.9609C152.348 13.0372 152.443 13.1127 152.539 13.1881C153.247 13.7461 153.927 14.3369 154.588 14.9489C154.771 15.1184 154.956 15.2844 155.146 15.4454C155.345 15.6141 155.533 15.7853 155.709 15.9778C155.709 16.0239 155.709 16.0699 155.709 16.1174C155.755 16.1174 155.801 16.1174 155.849 16.1174C155.945 16.215 155.945 16.215 156.058 16.353C156.258 16.5885 156.467 16.8084 156.687 17.025C156.929 17.265 157.161 17.5077 157.383 17.7668C157.498 17.9016 157.614 18.0352 157.732 18.1683C158.185 18.6846 158.623 19.2076 159.034 19.7589C159.102 19.8503 159.171 19.9414 159.239 20.0324C160.102 21.1778 160.914 22.357 161.637 23.5966C161.719 23.7377 161.803 23.8782 161.887 24.0186C163.702 27.063 165 30.3589 165.902 33.7808C165.919 33.8436 165.935 33.9064 165.953 33.9711C166.117 34.5986 166.271 35.2183 166.356 35.8624C166.389 36.0742 166.436 36.2763 166.488 36.484C166.615 37.0244 166.691 37.5678 166.762 38.1176C166.783 38.2865 166.806 38.4552 166.83 38.6239C167.034 40.1583 167.036 41.6968 167.04 43.2423C167.041 43.4691 167.042 43.6958 167.044 43.9226C167.056 45.1775 167.029 46.4152 166.891 47.6636C166.886 47.7157 166.88 47.7679 166.874 47.8217C166.8 48.4811 166.698 49.1332 166.577 49.7857C166.535 50.0254 166.498 50.2649 166.465 50.5061C166.408 50.8887 166.32 51.2604 166.223 51.6344C166.147 51.9274 166.079 52.2208 166.017 52.5172C165.858 53.2758 165.634 54.0107 165.402 54.7496C165.345 54.9302 165.291 55.1113 165.237 55.2926C164.81 56.7209 164.81 56.7209 164.505 57.3661C164.418 57.5578 164.345 57.7533 164.27 57.9502C163.952 58.7846 163.586 59.5843 163.181 60.3791C163.111 60.5173 163.043 60.6561 162.974 60.7952C162.046 62.6874 160.93 64.4732 159.689 66.1754C159.657 66.2194 159.625 66.2633 159.592 66.3085C158.89 67.2666 158.151 68.1965 157.341 69.0665C157.209 69.2105 157.081 69.3563 156.953 69.5044C156.7 69.7945 156.434 70.0697 156.162 70.3423C156.113 70.3911 156.065 70.44 156.015 70.4903C155.912 70.5929 155.81 70.6954 155.708 70.7978C155.553 70.9524 155.399 71.1076 155.245 71.2628C154.772 71.7376 154.302 72.1997 153.773 72.6123C153.605 72.7459 153.448 72.8881 153.292 73.0348C152.848 73.4377 152.371 73.7941 151.892 74.1528C151.784 74.2335 151.676 74.3144 151.569 74.3956C150.357 75.311 149.091 76.1252 147.782 76.8954C147.612 76.9962 147.442 77.0982 147.272 77.2003C146.637 77.579 145.998 77.9062 145.319 78.1963C145.062 78.3061 144.816 78.4295 144.569 78.559C143.839 78.931 143.068 79.2138 142.304 79.5103C142.23 79.5393 142.156 79.5684 142.08 79.5983C140.74 80.1201 139.37 80.5546 137.976 80.9066C137.916 80.9217 137.857 80.9367 137.796 80.9523C137.368 81.0597 136.94 81.1596 136.51 81.2557C136.445 81.2703 136.38 81.285 136.313 81.3001C135.091 81.572 133.863 81.7406 132.619 81.8675C132.511 81.8788 132.402 81.8905 132.294 81.9027C131.09 82.0369 129.889 82.0476 128.679 82.0457C128.458 82.0453 128.237 82.0458 128.016 82.0471C125.303 82.0626 122.688 81.7508 120.033 81.1858C119.955 81.1692 119.955 81.1692 119.874 81.1521C119.53 81.0778 119.188 80.9945 118.846 80.9066C118.776 80.8883 118.705 80.8701 118.632 80.8513C114.937 79.8889 111.362 78.3884 108.135 76.3424C107.961 76.2328 107.787 76.1245 107.612 76.0167C106.486 75.3203 105.424 74.5459 104.394 73.7155C104.329 73.6626 104.263 73.6097 104.195 73.5552C104.005 73.4003 103.815 73.2441 103.626 73.0872C103.521 73.0004 103.521 73.0004 103.414 72.9118C102.496 72.1488 101.644 71.3202 100.799 70.4778C100.763 70.4418 100.726 70.4058 100.689 70.3687C100.28 69.9609 99.883 69.5471 99.5073 69.1077C99.4087 68.9998 99.3098 68.8922 99.2106 68.7848C98.8519 68.3876 98.5262 67.9672 98.1987 67.5443C98.0816 67.3945 97.961 67.2476 97.8405 67.1005C96.1887 65.0391 94.7238 62.7077 93.6345 60.3036C93.5355 60.0906 93.4273 59.8827 93.3199 59.6738C93.1089 59.2556 92.9315 58.831 92.7625 58.3948C92.6791 58.1817 92.5907 57.9723 92.4996 57.7626C92.0387 56.6659 91.6824 55.5155 91.3315 54.3793C91.3174 54.3337 91.3032 54.2882 91.2887 54.2413C91.2743 54.1949 91.26 54.1486 91.2452 54.1008C91.2142 54.0042 91.1817 53.908 91.148 53.8123C90.9957 53.379 90.9003 52.9416 90.8109 52.4915C90.7817 52.3475 90.7526 52.2035 90.7233 52.0595C90.7094 51.9903 90.6954 51.9212 90.6811 51.8499C90.6453 51.6759 90.6076 51.5027 90.5684 51.3295C90.3556 50.3816 90.2052 49.4217 90.0735 48.4596C90.0624 48.381 90.0513 48.3024 90.0399 48.2214C89.8334 46.6637 89.7782 45.1063 89.7809 43.5372C89.7812 43.3346 89.7807 43.132 89.7794 42.9294C89.7685 41.1617 89.8333 39.395 90.1746 37.6551C90.2196 37.4228 90.2528 37.192 90.2829 36.9575C90.4689 35.6252 90.7837 34.3116 91.1294 33.0129C91.1493 32.9375 91.1493 32.9375 91.1696 32.8607C91.5742 31.351 92.1026 29.8338 92.7352 28.405C92.7625 28.3425 92.7897 28.2799 92.8178 28.2155C93.1243 27.5273 93.456 26.8498 93.7824 26.1709C93.8191 26.0944 93.8559 26.0179 93.8937 25.9391C94.4586 24.7864 95.1057 23.6845 95.8071 22.6103C95.8455 22.5512 95.884 22.492 95.9236 22.4311C96.7697 21.1328 97.6754 19.8895 98.6695 18.7006C98.721 18.6387 98.721 18.6387 98.7736 18.5756C99.5872 17.6009 100.465 16.6893 101.359 15.789C101.438 15.7095 101.517 15.6299 101.596 15.5503C102.035 15.1063 102.478 14.6863 102.968 14.299C103.143 14.1581 103.309 14.0097 103.474 13.8571C103.901 13.4687 104.355 13.1171 104.813 12.7662C104.858 12.7321 104.902 12.698 104.948 12.6628C106.801 11.2455 108.787 9.9316 110.893 8.92167C111.084 8.82908 111.273 8.73308 111.463 8.63726C112.81 7.95699 114.204 7.38432 115.635 6.90171C115.706 6.87758 115.776 6.85345 115.849 6.82859C117.205 6.36596 118.545 5.9591 119.949 5.67661C120.297 5.60511 120.644 5.52651 120.99 5.44294C121.78 5.25727 122.58 5.14587 123.384 5.0385C123.468 5.02715 123.468 5.02715 123.553 5.01556C125.091 4.80722 126.624 4.7923 128.174 4.79046Z" fill="#EF8035"/>
<path d="M51.0551 6.48279C51.2211 6.73179 51.224 6.87389 51.2468 7.17058C51.2507 7.21825 51.2546 7.26592 51.2586 7.31504C51.2669 7.41761 51.275 7.5202 51.2828 7.6228C51.3036 7.89326 51.3265 8.16353 51.3494 8.43382C51.3562 8.51497 51.3562 8.51497 51.3631 8.59777C51.4793 9.96308 51.6228 11.3533 51.9761 12.6803C52.0336 12.9101 52.0819 13.1404 52.1289 13.3725C52.3457 14.4417 52.6538 15.4768 52.975 16.5188C53.0135 16.644 53.0135 16.644 53.0528 16.7717C53.2967 17.5552 53.5524 18.3279 53.901 19.0716C53.9901 19.265 54.0721 19.4604 54.1526 19.6575C55.3901 22.6788 57.019 25.5388 59.0141 28.1257C59.0584 28.1832 59.0584 28.1832 59.1035 28.2418C59.7124 29.0306 60.3468 29.7956 61.0181 30.5322C61.1177 30.642 61.2167 30.7522 61.3149 30.8633C61.7175 31.3179 62.1392 31.7502 62.5692 32.1786C62.6842 32.2932 62.7988 32.4082 62.9133 32.5232C63.3004 32.9106 63.6928 33.2869 64.1107 33.6412C64.1939 33.7141 64.277 33.7872 64.3599 33.8604C64.8979 34.332 65.4446 34.7876 66.0126 35.2225C66.1328 35.3148 66.252 35.4082 66.3712 35.5017C67.7892 36.601 69.3221 37.5765 70.8828 38.4585C70.942 38.4922 71.0011 38.5259 71.062 38.5606C72.1842 39.1981 73.3321 39.7534 74.5291 40.2355C74.7454 40.3231 74.9568 40.4181 75.1678 40.518C76.3916 41.0835 77.7068 41.4647 78.9946 41.8533C79.0393 41.8668 79.0841 41.8804 79.1303 41.8944C79.9215 42.1335 80.7138 42.3458 81.5254 42.5034C81.5845 42.515 81.6436 42.5265 81.7044 42.5384C81.8284 42.5626 81.9523 42.5867 82.0763 42.6108C82.2602 42.6469 82.4437 42.6845 82.6272 42.7224C83.3103 42.8612 83.9854 42.9655 84.6809 43.0186C84.9703 43.0413 85.2477 43.0751 85.5319 43.1351C86.1491 43.2529 86.7811 43.2574 87.4074 43.2845C87.5384 43.2905 87.6695 43.2966 87.8005 43.3028C88.1189 43.3176 88.4373 43.3318 88.7557 43.3456C88.7557 43.3917 88.7557 43.4377 88.7557 43.4852C88.7058 43.4859 88.6559 43.4865 88.6044 43.4872C86.4444 43.522 84.3077 43.733 82.193 44.1834C82.1046 44.202 82.0162 44.2207 81.9252 44.2399C80.8642 44.4651 79.8155 44.7146 78.7816 45.0446C78.6408 45.0884 78.4997 45.1288 78.3575 45.1676C76.7416 45.6113 75.1856 46.2519 73.6667 46.9532C73.4912 47.0342 73.3151 47.1141 73.1388 47.1934C71.4038 47.9814 69.7246 48.9616 68.16 50.0479C68.1137 50.0798 68.0675 50.1117 68.0198 50.1446C66.9858 50.8589 65.9802 51.6125 65.0183 52.4217C64.9812 52.4528 64.9441 52.484 64.9058 52.5162C64.783 52.6196 64.6606 52.7234 64.5383 52.8275C64.5022 52.858 64.4662 52.8885 64.429 52.9199C63.6835 53.5583 62.9787 54.2402 62.2863 54.9351C62.1634 55.0584 62.0402 55.1812 61.9169 55.304C61.5162 55.7045 61.1248 56.1073 60.7595 56.5408C60.6916 56.6189 60.6236 56.6969 60.5555 56.7748C58.3667 59.3014 56.43 62.1492 55.034 65.1903C54.9323 65.4068 54.8218 65.6183 54.7117 65.8307C54.499 66.2511 54.3273 66.6808 54.1608 67.121C54.0544 67.4019 53.943 67.6759 53.8128 67.947C53.544 68.5242 53.3512 69.1329 53.1496 69.736C53.1285 69.799 53.1074 69.8621 53.0856 69.927C52.8027 70.7783 52.5562 71.6328 52.3502 72.5059C52.3136 72.6608 52.276 72.8155 52.2382 72.9702C52.0546 73.7262 51.8977 74.487 51.7533 75.2515C51.7436 75.3019 51.734 75.3523 51.7241 75.4042C51.546 76.3507 51.4531 77.3057 51.3562 78.2633C51.34 78.4116 51.3192 78.5594 51.2959 78.7068C51.2456 79.0997 51.2385 79.4942 51.2253 79.8899C51.2223 79.9742 51.2193 80.0586 51.2161 80.1455C51.2088 80.3527 51.2017 80.5598 51.1947 80.7669C51.1487 80.7669 51.1026 80.7669 51.0551 80.7669C51.0523 80.7092 51.0496 80.6515 51.0467 80.592C50.9727 79.1045 50.8417 77.6342 50.6362 76.1591C50.626 76.0848 50.6157 76.0104 50.6052 75.9339C50.4771 75.0293 50.2864 74.1418 50.0777 73.253C50.066 73.2031 50.0543 73.1533 50.0422 73.1019C49.8043 72.0942 49.5183 71.1057 49.1892 70.1241C49.1395 69.976 49.0904 69.8277 49.0412 69.6794C48.8438 69.0867 48.6307 68.5024 48.4021 67.9208C48.3439 67.7666 48.2857 67.6124 48.2276 67.4583C48.0962 67.1168 47.9533 66.7839 47.7986 66.4525C47.7109 66.2604 47.6292 66.0664 47.5479 65.8716C47.2423 65.1472 46.8643 64.4654 46.4815 63.7795C46.3736 63.5853 46.2672 63.3903 46.1612 63.1951C45.0763 61.2042 43.7816 59.3272 42.3281 57.588C42.2937 57.5467 42.2593 57.5054 42.2239 57.4628C41.8553 57.0207 41.4803 56.5851 41.0926 56.1595C40.9913 56.0479 40.8905 55.9357 40.7904 55.823C40.3966 55.3797 39.9862 54.9563 39.566 54.538C39.5036 54.4753 39.4412 54.4126 39.3769 54.348C39.0221 53.9937 38.6594 53.6554 38.2788 53.3293C38.1666 53.2277 38.0545 53.1259 37.9428 53.0238C37.5765 52.6934 37.1968 52.3819 36.8127 52.0726C36.7608 52.0299 36.709 51.9873 36.6556 51.9433C33.9832 49.7627 30.9656 47.9986 27.8064 46.6269C27.7325 46.5945 27.6586 46.5621 27.5824 46.5287C26.6912 46.1389 25.8103 45.7759 24.8741 45.5099C24.6062 45.425 24.3401 45.3361 24.0772 45.2368C23.6186 45.0638 23.16 44.9305 22.6837 44.8161C22.6115 44.7984 22.5393 44.7808 22.465 44.7625C22.2442 44.7087 22.0232 44.6554 21.8022 44.6023C21.6688 44.5699 21.5353 44.5376 21.4019 44.5052C21.0986 44.4319 20.7949 44.3601 20.491 44.2894C20.3585 44.2584 20.2262 44.2267 20.0939 44.1948C18.1579 43.7492 16.1055 43.5569 14.1199 43.5116C13.718 43.4996 13.718 43.4996 13.564 43.3456C13.6067 43.3442 13.6494 43.3428 13.6934 43.3414C14.4822 43.3148 15.2693 43.2812 16.0555 43.2103C16.1146 43.2051 16.1736 43.1999 16.2345 43.1945C16.7206 43.1483 17.201 43.0732 17.6831 42.9965C17.8352 42.9731 17.9873 42.9499 18.1394 42.9267C18.2146 42.9152 18.2897 42.9037 18.3672 42.8918C18.5194 42.8685 18.6716 42.8452 18.8237 42.822C19.8532 42.6703 19.8532 42.6703 20.8685 42.4467C21.158 42.3714 21.447 42.2981 21.7401 42.2378C23.0494 41.9685 24.3195 41.5523 25.5679 41.0779C25.8086 40.9867 26.0512 40.9055 26.2966 40.8279C26.6626 40.7082 27.005 40.5535 27.3526 40.3885C27.624 40.261 27.8979 40.1401 28.1729 40.0206C28.3072 39.9623 28.4414 39.9039 28.5755 39.8453C28.669 39.8046 28.7627 39.7641 28.8565 39.7239C31.8753 38.4127 34.7289 36.5182 37.2245 34.3832C37.4288 34.209 37.6374 34.0406 37.8468 33.8724C38.1211 33.6494 38.3745 33.417 38.6178 33.1606C38.7479 33.0322 38.8809 32.914 39.0195 32.7949C39.3716 32.4891 39.6996 32.1607 40.0286 31.8303C40.0885 31.7706 40.1485 31.7109 40.2103 31.6494C40.521 31.3382 40.8217 31.0226 41.1082 30.6889C41.2379 30.5381 41.3728 30.3925 41.5078 30.2464C41.8249 29.8949 42.1157 29.5264 42.4056 29.1525C42.5757 28.9332 42.7495 28.7172 42.9242 28.5016C43.6173 27.6451 44.2398 26.7442 44.8415 25.8218C44.873 25.7739 44.9044 25.726 44.9368 25.6767C45.8249 24.3203 46.6215 22.9021 47.2903 21.4249C47.3499 21.2945 47.412 21.1653 47.4743 21.0361C48.056 19.8291 48.5584 18.574 48.9837 17.3035C49.0328 17.1578 49.0832 17.0126 49.1338 16.8674C49.5696 15.605 49.8923 14.316 50.1778 13.0123C50.2137 12.8523 50.2518 12.6931 50.2912 12.5339C50.5355 11.531 50.6511 10.508 50.7758 9.48487C50.7875 9.39137 50.7875 9.39137 50.7993 9.29598C50.9145 8.36101 50.9841 7.42198 51.0551 6.48279Z" fill="#D92735"/>
<path d="M128.411 5.5752C128.434 5.5752 128.457 5.5752 128.481 5.5752C128.482 5.64702 128.482 5.64702 128.484 5.7203C128.529 7.64421 128.697 9.54484 129.039 11.4397C129.055 11.5262 129.07 11.6126 129.086 11.7017C129.28 12.7859 129.507 13.8501 129.828 14.9044C129.893 15.1256 129.95 15.3485 130.006 15.5721C130.182 16.2721 130.408 16.947 130.655 17.6251C130.713 17.7872 130.769 17.9498 130.825 18.1129C131.003 18.6346 131.196 19.1366 131.435 19.6344C131.555 19.8915 131.665 20.1513 131.774 20.4129C132.063 21.1014 132.384 21.7597 132.742 22.4144C132.835 22.5878 132.92 22.7646 133.006 22.9419C133.577 24.0907 134.26 25.1761 134.974 26.2407C135.007 26.2903 135.04 26.3398 135.074 26.3909C135.752 27.4069 136.493 28.3763 137.278 29.3126C137.308 29.3486 137.338 29.3845 137.369 29.4216C137.794 29.93 138.227 30.4294 138.674 30.9184C138.735 30.9862 138.797 31.0541 138.86 31.124C139.259 31.5631 139.669 31.9903 140.088 32.4107C140.133 32.4563 140.178 32.502 140.225 32.549C140.495 32.8179 140.773 33.0737 141.061 33.3226C141.218 33.458 141.371 33.5975 141.523 33.7372C141.89 34.0675 142.269 34.3791 142.654 34.6884C142.733 34.753 142.812 34.8177 142.891 34.8823C145.079 36.663 147.517 38.2228 150.061 39.4422C150.197 39.5072 150.332 39.5731 150.467 39.6391C151.05 39.9212 151.643 40.18 152.24 40.4308C152.308 40.4596 152.377 40.4884 152.447 40.518C152.857 40.6883 153.27 40.8365 153.693 40.9737C153.88 41.0368 154.061 41.1067 154.243 41.1816C154.631 41.3399 155.026 41.4692 155.425 41.5958C155.502 41.6201 155.578 41.6444 155.657 41.6694C156.604 41.967 157.555 42.2136 158.527 42.4113C158.83 42.4729 159.128 42.5413 159.427 42.6213C159.824 42.7242 160.223 42.7746 160.63 42.8244C160.83 42.8509 161.023 42.884 161.22 42.9267C161.706 43.0286 162.198 43.0814 162.691 43.1362C162.745 43.1423 162.799 43.1484 162.855 43.1547C163.892 43.2696 164.929 43.3151 165.972 43.3456C165.773 43.5446 165.629 43.5092 165.35 43.5196C165.248 43.524 165.146 43.5285 165.043 43.5329C164.989 43.5351 164.935 43.5372 164.879 43.5395C163.942 43.5777 163.011 43.6449 162.08 43.7601C161.989 43.7711 161.899 43.7822 161.805 43.7935C161.252 43.8643 160.706 43.957 160.16 44.063C159.887 44.1158 159.613 44.1651 159.34 44.2139C158.821 44.3093 158.313 44.4344 157.803 44.5669C157.665 44.6019 157.528 44.635 157.39 44.6675C156.776 44.813 156.182 44.9962 155.585 45.2006C155.343 45.2835 155.099 45.359 154.854 45.4314C154.434 45.5588 154.022 45.7053 153.61 45.8546C153.548 45.8772 153.485 45.8999 153.42 45.9232C152.944 46.0974 152.476 46.2887 152.009 46.4873C151.906 46.5311 151.906 46.5311 151.8 46.5758C150.879 46.9692 149.977 47.3827 149.099 47.8646C148.931 47.9569 148.761 48.0477 148.591 48.1384C147.775 48.577 146.99 49.0533 146.214 49.5592C146.162 49.5931 146.109 49.6271 146.055 49.662C144.275 50.818 142.597 52.1168 141.042 53.5619C140.89 53.7009 140.737 53.8357 140.581 53.9696C140.218 54.2854 139.881 54.6253 139.542 54.9656C139.479 55.0286 139.416 55.0917 139.35 55.1566C139.032 55.4758 138.722 55.7986 138.429 56.141C138.288 56.3045 138.14 56.4615 137.993 56.6194C137.662 56.9829 137.358 57.3628 137.057 57.752C136.926 57.9219 136.792 58.0894 136.656 58.2554C136.137 58.8875 135.671 59.5463 135.217 60.2261C135.126 60.362 135.033 60.497 134.94 60.6316C133.944 62.0788 133.104 63.6277 132.321 65.198C132.276 65.2875 132.276 65.2875 132.23 65.3788C130.669 68.5118 129.68 71.8902 129.039 75.3213C129.027 75.3896 129.014 75.4579 129 75.5283C128.669 77.3209 128.547 79.1563 128.481 80.9764C128.341 80.8367 128.341 80.8367 128.325 80.6805C128.325 80.6146 128.325 80.5487 128.325 80.4808C128.324 80.4046 128.323 80.3284 128.322 80.2499C128.321 80.1657 128.32 80.0814 128.319 79.9946C128.3 79.0986 128.216 78.2176 128.106 77.3285C128.098 77.2687 128.091 77.2089 128.083 77.1472C127.893 75.6096 127.597 74.1019 127.224 72.5985C127.207 72.5297 127.19 72.4608 127.173 72.3899C126.681 70.4231 125.998 68.5266 125.2 66.6641C125.172 66.5997 125.144 66.5353 125.116 66.469C124.77 65.6647 124.385 64.8857 123.967 64.1159C123.868 63.9322 123.77 63.7478 123.672 63.5633C122.372 61.1305 120.766 58.7994 118.916 56.7503C118.866 56.6946 118.816 56.639 118.764 56.5817C118.662 56.4676 118.559 56.3536 118.456 56.2397C118.367 56.1405 118.278 56.0409 118.192 55.9392C117.814 55.4946 117.401 55.0849 116.987 54.6729C116.861 54.547 116.735 54.4206 116.609 54.2943C116.203 53.8879 115.795 53.4899 115.355 53.1198C115.278 53.0527 115.201 52.9856 115.124 52.9183C112.789 50.8986 110.221 49.1652 107.476 47.7524C107.334 47.6782 107.194 47.6018 107.053 47.5242C106.507 47.223 105.954 46.973 105.375 46.742C105.128 46.6429 104.888 46.5327 104.647 46.4175C103.297 45.786 101.836 45.3581 100.411 44.9339C100.333 44.9109 100.256 44.8879 100.177 44.8643C99.1043 44.5489 98.0209 44.3247 96.9241 44.1136C96.8594 44.1009 96.7947 44.0882 96.728 44.0751C94.7905 43.6974 92.8226 43.5132 90.8501 43.4852C90.8501 43.4392 90.8501 43.3931 90.8501 43.3456C90.8965 43.345 90.9429 43.3443 90.9908 43.3436C92.9867 43.3091 94.9622 43.0851 96.9241 42.7173C96.9879 42.7054 97.0517 42.6935 97.1174 42.6812C97.7273 42.5663 98.3327 42.4461 98.9294 42.2733C99.0778 42.2315 99.2253 42.1983 99.3764 42.1675C102.748 41.4307 106.175 39.9318 109.142 38.1792C109.204 38.1429 109.265 38.1066 109.329 38.0691C111.186 36.9693 112.938 35.7324 114.588 34.3394C114.63 34.3036 114.673 34.2678 114.717 34.2309C115.659 33.4412 116.545 32.5975 117.415 31.73C117.48 31.6652 117.545 31.6005 117.612 31.5338C117.968 31.1769 118.31 30.8132 118.637 30.4297C118.71 30.3465 118.783 30.2634 118.856 30.1804C119.328 29.6425 119.783 29.0958 120.218 28.5278C120.31 28.4076 120.404 28.2883 120.497 28.1691C121.511 26.862 122.444 25.4535 123.245 24.0066C123.277 23.9495 123.309 23.8924 123.341 23.8336C124.084 22.5038 124.78 21.1583 125.353 19.7459C125.426 19.5667 125.503 19.389 125.579 19.2111C126.234 17.6275 126.799 16.0061 127.168 14.3314C127.214 14.1343 127.268 13.9508 127.338 13.7611C127.452 13.4415 127.494 13.1161 127.541 12.781C127.599 12.3818 127.679 11.99 127.781 11.5998C127.86 11.2844 127.91 10.9673 127.957 10.6456C127.97 10.5653 127.97 10.5653 127.982 10.4833C128.147 9.3742 128.23 8.26994 128.276 7.15042C128.284 6.95683 128.292 6.76325 128.301 6.56968C128.306 6.45065 128.311 6.33162 128.316 6.21256C128.326 5.98527 128.339 5.79222 128.411 5.5752Z" fill="#FEFEFE"/>
<path d="M53.7778 4.80725C77.6234 4.80725 101.469 4.80725 126.037 4.80725C126.037 4.83029 126.037 4.85333 126.037 4.87707C125.917 4.88182 125.917 4.88182 125.794 4.88666C124.984 4.92192 124.187 4.99879 123.384 5.10833C123.326 5.11607 123.269 5.1238 123.209 5.13177C122.425 5.23692 121.651 5.35892 120.881 5.54144C120.653 5.59299 120.423 5.63589 120.194 5.67976C119.661 5.78209 119.14 5.89927 118.62 6.0563C118.423 6.11447 118.226 6.16864 118.027 6.21993C117.262 6.41829 116.512 6.64847 115.766 6.90609C115.64 6.94917 115.64 6.94917 115.513 6.99312C115.051 7.1543 114.599 7.329 114.15 7.51993C113.933 7.61067 113.715 7.69381 113.495 7.77591C112.883 8.00589 112.301 8.27576 111.721 8.57741C111.588 8.64555 111.455 8.71173 111.321 8.77721C108.728 10.0471 106.26 11.6071 104.045 13.4644C103.917 13.5677 103.789 13.671 103.661 13.7742C103.332 14.0431 103.017 14.3243 102.705 14.6126C102.603 14.7053 102.501 14.7977 102.396 14.8867C101.941 15.2741 101.522 15.6978 101.1 16.121C100.969 16.2524 100.838 16.3834 100.707 16.5144C100.292 16.9289 99.8864 17.3453 99.5072 17.793C99.4086 17.9009 99.3097 18.0085 99.2105 18.1159C98.8588 18.5062 98.5378 18.9171 98.2169 19.3327C98.109 19.4711 97.9992 19.6078 97.8889 19.7443C96.4194 21.5765 95.1256 23.6327 94.0735 25.729C93.9958 25.8836 93.9171 26.0375 93.838 26.1914C93.5403 26.7734 93.2678 27.3636 93.0129 27.9655C92.9391 28.1384 92.8637 28.3106 92.7883 28.4828C92.4216 29.3302 92.1012 30.1896 91.8013 31.0624C91.7837 31.1135 91.766 31.1646 91.7478 31.2173C91.5119 31.9027 91.3077 32.5892 91.1293 33.2921C91.1086 33.3718 91.0879 33.4515 91.0665 33.5336C90.6606 35.0965 90.3513 36.6471 90.1519 38.2491C90.1419 38.3284 90.1419 38.3284 90.1318 38.4094C90.0956 38.6993 90.0623 38.9895 90.0302 39.2799C90.0134 39.426 89.9949 39.5717 89.9761 39.7175C89.844 40.8018 89.8477 41.8883 89.8504 42.9788C89.8508 43.138 89.851 43.2971 89.8512 43.4563C89.8576 47.2849 90.3691 51.0004 91.47 54.6738C91.5164 54.8288 91.5623 54.984 91.6069 55.1396C91.6865 55.4158 91.7749 55.6827 91.8845 55.9485C92.0205 56.2849 92.1431 56.625 92.2636 56.9672C92.48 57.582 92.6971 58.1873 92.9827 58.7736C93.0807 58.9772 93.1703 59.1828 93.2587 59.3908C93.479 59.9079 93.7259 60.4028 93.9953 60.8959C94.1225 61.1294 94.2386 61.3673 94.354 61.6069C94.9136 62.7338 95.5969 63.8038 96.2957 64.8489C96.3268 64.8955 96.3579 64.9421 96.39 64.99C97.1385 66.1054 97.9502 67.1677 98.8091 68.2001C98.8436 68.2416 98.8782 68.2832 98.9137 68.326C99.7354 69.3101 100.623 70.2293 101.528 71.1367C101.562 71.1712 101.596 71.2056 101.631 71.2411C102.028 71.6391 102.43 72.0249 102.858 72.389C102.934 72.4553 103.01 72.5217 103.085 72.5881C103.666 73.0949 104.27 73.5663 104.885 74.0301C105.008 74.1229 105.128 74.2171 105.248 74.3125C106.861 75.5874 108.708 76.7634 110.551 77.6732C110.596 77.6954 110.641 77.7175 110.687 77.7403C110.847 77.8188 111.007 77.8966 111.167 77.9743C111.235 78.0076 111.303 78.0409 111.374 78.0752C111.601 78.1859 111.829 78.2962 112.057 78.4063C112.128 78.4411 112.2 78.476 112.274 78.5119C112.919 78.8216 113.571 79.1064 114.247 79.3401C114.52 79.4346 114.789 79.5344 115.056 79.6434C115.443 79.7994 115.836 79.9336 116.233 80.0644C116.306 80.0888 116.38 80.1132 116.456 80.1383C118.072 80.669 119.706 81.0623 121.377 81.3778C121.459 81.3934 121.459 81.3934 121.544 81.4093C122.592 81.6066 123.635 81.7632 124.698 81.8578C124.801 81.8673 124.905 81.8767 125.008 81.8862C125.258 81.909 125.508 81.9315 125.758 81.9538C125.758 81.9769 125.758 81.9999 125.758 82.0236C101.982 82.0236 78.205 82.0236 53.708 82.0236C53.708 82.0006 53.708 81.9776 53.708 81.9538C53.7887 81.947 53.8695 81.9401 53.9526 81.9331C55.725 81.7767 57.5312 81.5925 59.263 81.1733C59.4495 81.1288 59.6359 81.0864 59.8232 81.0457C59.8792 81.0335 59.9351 81.0213 59.9928 81.0087C60.1025 80.9849 60.2122 80.9612 60.322 80.9377C60.615 80.8736 60.8939 80.7935 61.1783 80.6971C61.3599 80.6507 61.5415 80.6056 61.7237 80.5619C62.1315 80.4616 62.5282 80.3503 62.9237 80.2084C63.0006 80.1823 63.0774 80.1562 63.1566 80.1293C65.0099 79.4959 66.871 78.7804 68.5913 77.8393C68.8322 77.7076 69.0775 77.5872 69.325 77.4682C70.8993 76.6855 72.4282 75.7124 73.8277 74.6493C73.9626 74.5473 74.0987 74.4468 74.235 74.3466C74.7626 73.9573 75.2733 73.555 75.7698 73.1267C75.9603 72.9638 76.1541 72.8069 76.3502 72.6509C77.1747 71.976 77.9264 71.2171 78.6817 70.4669C78.761 70.3881 78.8405 70.3094 78.9201 70.2308C79.3641 69.7918 79.7841 69.3488 80.1714 68.8583C80.3124 68.6832 80.4607 68.5178 80.6133 68.3528C81.0015 67.9251 81.3547 67.4725 81.7042 67.0132C81.741 66.9649 81.7778 66.9166 81.8157 66.8668C82.728 65.6631 83.5914 64.4133 84.3461 63.1042C84.4406 62.9404 84.536 62.7771 84.6313 62.6137C85.2061 61.6233 85.7235 60.6227 86.1818 59.5735C86.3136 59.2728 86.4529 58.9791 86.6044 58.6877C86.7865 58.3299 86.9222 57.9666 87.0519 57.587C87.1216 57.3848 87.1972 57.1858 87.2761 56.987C87.6692 55.9943 87.9764 54.9847 88.2669 53.9576C88.285 53.8941 88.3031 53.8305 88.3218 53.765C88.4225 53.411 88.522 53.0568 88.616 52.701C88.632 52.6414 88.648 52.5818 88.6645 52.5204C88.8205 51.9213 88.9315 51.316 89.0392 50.7068C89.0572 50.6062 89.0753 50.5055 89.0934 50.4048C89.1283 50.2103 89.1629 50.0157 89.1973 49.8211C89.2254 49.6647 89.2542 49.5084 89.2843 49.3523C89.3854 48.8292 89.4417 48.3047 89.493 47.7746C89.5018 47.6887 89.5106 47.6028 89.5196 47.5143C89.6507 46.1879 89.6763 44.8681 89.6761 43.536C89.6761 43.3403 89.6766 43.1445 89.6776 42.9488C89.6856 41.2697 89.6177 39.6093 89.3578 37.948C89.3423 37.8465 89.3269 37.7451 89.3115 37.6436C89.1922 36.8642 89.0576 36.0885 88.8952 35.3168C88.8838 35.2622 88.8724 35.2076 88.8606 35.1513C88.8262 34.9882 88.7911 34.8252 88.7556 34.6623C88.7457 34.6167 88.7358 34.5711 88.7256 34.5241C88.5137 33.5804 88.2352 32.656 87.944 31.7344C87.9258 31.6768 87.9076 31.6191 87.8889 31.5598C87.4654 30.222 87.0012 28.8993 86.3805 27.6384C86.3012 27.4752 86.2246 27.3107 86.1481 27.1462C84.7952 24.25 83.1331 21.5029 81.0758 19.0497C80.9725 18.9217 80.8693 18.7937 80.766 18.6657C80.4971 18.3368 80.216 18.0213 79.9277 17.7093C79.8354 17.6081 79.7433 17.5066 79.6548 17.4021C79.2583 16.9352 78.8229 16.507 78.3894 16.0749C78.253 15.9388 78.1169 15.8024 77.9809 15.6659C77.5582 15.243 77.1352 14.8271 76.6774 14.4418C76.5934 14.3681 76.5095 14.2942 76.4257 14.2201C75.9109 13.7682 75.3881 13.3346 74.8394 12.9241C74.72 12.8342 74.602 12.7427 74.484 12.6509C73.2173 11.6731 71.862 10.8012 70.4804 9.99567C70.3084 9.89454 70.138 9.79105 69.9675 9.68755C69.4958 9.40421 69.0035 9.16685 68.509 8.92639C68.4169 8.88135 68.4169 8.88135 68.3229 8.8354C67.0581 8.21794 65.781 7.66524 64.4597 7.18099C64.3678 7.14631 64.276 7.11158 64.1842 7.07681C63.1995 6.70725 62.1914 6.41399 61.1783 6.13375C61.108 6.11406 61.108 6.11406 61.0364 6.09397C60.4835 5.93918 59.927 5.80408 59.3675 5.67559C59.3076 5.66177 59.2478 5.64795 59.1861 5.63371C58.2132 5.41383 57.24 5.25524 56.2505 5.13485C56.0681 5.11262 55.8857 5.08979 55.7034 5.06688C55.0622 4.9872 54.4228 4.9177 53.7778 4.87707C53.7778 4.85403 53.7778 4.83099 53.7778 4.80725Z" fill="#D0D0D0"/>
<path d="M119.311 98C119.403 98.0001 119.495 98.0001 119.589 98.0002C120.418 98.0109 121.193 98.1328 121.996 98.3303C122.072 98.3474 122.149 98.3646 122.227 98.3822C123.568 98.7098 124.874 99.2661 125.969 100.109C126.012 100.142 126.055 100.175 126.099 100.209C126.478 100.513 126.748 100.836 126.92 101.294C126.893 101.742 126.651 102.043 126.403 102.407C126.356 102.48 126.308 102.552 126.259 102.627C126.004 103.013 125.74 103.392 125.469 103.766C125.178 103.663 124.962 103.53 124.719 103.341C123.893 102.731 123.031 102.307 122.071 101.954C122.011 101.93 121.951 101.906 121.889 101.881C120.545 101.375 118.914 101.472 117.542 101.803C117.475 101.818 117.408 101.832 117.339 101.847C116.387 102.088 115.54 102.661 114.824 103.313C114.77 103.36 114.717 103.407 114.662 103.456C112.481 105.496 111.702 109.015 111.585 111.872C111.508 114.471 111.538 117.066 112.408 119.545C112.425 119.595 112.442 119.645 112.459 119.696C113.151 121.716 114.312 123.391 116.258 124.377C118.276 125.283 120.695 125.219 122.745 124.45C123.682 124.079 124.523 123.56 125.318 122.943C125.579 123.051 125.703 123.176 125.867 123.404C125.912 123.465 125.957 123.527 126.004 123.591C126.05 123.656 126.096 123.721 126.144 123.787C126.19 123.851 126.235 123.914 126.283 123.979C126.373 124.104 126.462 124.228 126.551 124.353C126.631 124.464 126.712 124.574 126.795 124.683C127.057 125.029 127.057 125.029 127.031 125.321C126.365 126.701 124.421 127.492 123.057 127.98C121.067 128.658 118.693 128.908 116.639 128.415C116.474 128.376 116.309 128.341 116.144 128.306C113.681 127.751 111.511 126.177 110.152 124.059C108.82 121.932 108.132 119.604 107.802 117.129C107.788 117.038 107.775 116.946 107.76 116.851C107.616 115.81 107.621 114.767 107.623 113.718C107.623 113.62 107.623 113.523 107.623 113.423C107.625 111.99 107.675 110.611 107.953 109.202C107.98 109.053 108.007 108.903 108.034 108.754C108.5 106.292 109.465 103.789 111.124 101.879C111.179 101.816 111.233 101.754 111.289 101.689C111.458 101.498 111.63 101.31 111.804 101.124C111.88 101.04 111.88 101.04 111.958 100.954C113.175 99.6713 114.871 98.7484 116.588 98.3586C116.653 98.3432 116.718 98.3279 116.784 98.312C117.629 98.1154 118.442 97.9989 119.311 98Z" fill="white"/>
<path fill-rule="evenodd" clip-rule="evenodd" d="M91.4948 98.2548H87.2669C87.24 98.3087 87.2216 98.3454 87.205 98.3829C87.1696 98.4625 87.1419 98.5456 87.0555 98.8054L86.9992 98.9759C86.7573 99.7051 86.518 100.435 86.2793 101.165L86.0354 101.911C85.7489 102.787 85.4636 103.663 85.1813 104.54C84.9048 105.399 84.6264 106.258 84.344 107.116L84.2835 107.3C84.1329 107.757 83.9824 108.214 83.8314 108.671C83.728 108.985 83.6246 109.298 83.5215 109.611L83.4717 109.763C83.2728 110.368 83.0765 110.973 82.9005 111.586C82.771 112.038 82.6262 112.482 82.4702 112.926C82.0995 113.975 81.753 115.03 81.4157 116.09C81.0086 117.371 80.5981 118.65 80.1789 119.927C79.6465 121.547 79.1151 123.167 78.5895 124.789C78.5228 124.995 78.4561 125.201 78.389 125.406C78.3098 125.649 78.2307 125.892 78.152 126.136L78.0636 126.409C77.8257 127.136 77.6385 127.86 77.4522 128.605H80.9251C81.0006 128.454 81.0006 128.454 81.0585 128.277L81.1278 128.051L81.2071 127.793C81.4776 126.911 81.7528 126.031 82.0339 125.153L82.1369 124.831C82.276 124.396 82.4151 123.961 82.5547 123.526C82.6432 123.25 82.7316 122.975 82.8197 122.699L82.9205 122.383L83.0156 122.088L83.1051 121.807C83.161 121.633 83.2142 121.457 83.2656 121.282L83.4921 120.376L94.8167 120.451C94.8824 120.661 94.9484 120.871 95.0143 121.081C95.2718 121.901 95.5293 122.722 95.7699 123.547C95.9533 124.178 96.162 124.801 96.3718 125.424C96.5322 125.9 96.6912 126.376 96.85 126.852C96.9093 127.031 96.9501 127.153 96.991 127.276C97.0809 127.546 97.1709 127.816 97.4592 128.68H101.385C101.257 128.252 101.128 127.825 100.993 127.399L100.933 127.212C100.864 126.993 100.794 126.775 100.724 126.557L100.649 126.321C100.079 124.539 99.4965 122.76 98.9102 120.983L98.6867 120.306C98.6348 120.148 98.5829 119.991 98.5309 119.833C98.3667 119.337 98.205 118.84 98.0515 118.34L98.0494 118.333C97.9729 118.083 97.8965 117.832 97.8165 117.583L97.5158 116.657C97.2 115.686 96.8819 114.715 96.5622 113.745L96.0389 112.156C95.5426 110.649 95.0478 109.142 94.5665 107.631C94.1128 106.205 93.6527 104.781 93.1863 103.36L93.1369 103.209C92.5945 101.556 92.0472 99.9047 91.4948 98.2548ZM89.3061 102.46C89.2298 102.256 89.2298 102.256 89.0788 102.181C88.9313 102.726 88.7705 103.264 88.5895 103.799C88.3817 104.41 88.1863 105.022 88.0124 105.644C87.8864 106.095 87.7559 106.541 87.6066 106.984C87.4213 107.528 87.2475 108.074 87.0757 108.622C87.0225 108.792 86.9692 108.962 86.9153 109.132C86.7439 109.669 86.5792 110.208 86.4266 110.752C86.2558 111.361 86.074 111.963 85.8701 112.562C85.6897 113.091 85.525 113.622 85.3746 114.161C85.234 114.667 85.0823 115.166 84.9122 115.662C84.7328 116.172 84.6059 116.675 84.4734 117.205H93.8351C93.8351 117.008 93.8351 116.939 93.8235 116.873C93.8173 116.837 93.8078 116.802 93.7932 116.749L93.7354 116.587L93.6726 116.407C93.6316 116.289 93.5919 116.172 93.5536 116.053L93.4468 115.715L93.1556 114.789C93.0067 114.314 92.8578 113.84 92.7117 113.365C92.5379 112.799 92.3623 112.233 92.1849 111.668L92.1364 111.514C91.8865 110.718 91.635 109.923 91.3821 109.128L90.8458 107.442C90.8199 107.361 90.7941 107.28 90.7683 107.199C90.4784 106.289 90.1886 105.379 89.9102 104.466L89.8273 104.193C89.7315 103.878 89.6358 103.563 89.542 103.248C89.5073 103.132 89.4725 103.015 89.4374 102.899L89.3896 102.74L89.3061 102.46Z" fill="white"/>
<path d="M97.629 144.969C97.7275 144.967 97.826 144.965 97.9275 144.963C98.2512 144.991 98.4042 145.023 98.6671 145.215C99.1313 145.856 99.454 146.617 99.8058 147.323C99.8709 147.454 99.9361 147.584 100.001 147.715C100.137 147.986 100.273 148.258 100.408 148.53C100.582 148.879 100.756 149.227 100.93 149.575C101.064 149.844 101.198 150.113 101.332 150.381C101.397 150.51 101.461 150.638 101.525 150.767C101.615 150.946 101.704 151.125 101.793 151.304C101.819 151.357 101.846 151.41 101.873 151.465C101.975 151.67 102.068 151.867 102.14 152.085C102.14 152 102.141 151.916 102.141 151.829C102.144 151.033 102.148 150.238 102.154 149.443C102.157 149.034 102.159 148.625 102.16 148.216C102.162 147.821 102.164 147.427 102.168 147.032C102.169 146.882 102.17 146.731 102.17 146.58C102.17 146.37 102.172 146.159 102.174 145.948C102.174 145.854 102.174 145.854 102.173 145.759C102.178 145.487 102.191 145.323 102.354 145.1C102.578 144.946 102.738 144.948 103.008 144.95C103.093 144.949 103.178 144.949 103.265 144.948C103.55 144.997 103.623 145.068 103.801 145.29C103.839 145.473 103.839 145.473 103.839 145.682C103.84 145.761 103.84 145.84 103.841 145.921C103.84 146.008 103.84 146.094 103.839 146.183C103.839 146.32 103.839 146.32 103.84 146.46C103.841 146.711 103.84 146.961 103.839 147.211C103.838 147.474 103.839 147.736 103.839 147.998C103.839 148.439 103.838 148.879 103.836 149.32C103.834 149.829 103.834 150.338 103.835 150.846C103.836 151.336 103.835 151.826 103.834 152.316C103.834 152.524 103.834 152.733 103.834 152.941C103.835 153.232 103.833 153.523 103.831 153.814C103.832 153.9 103.832 153.987 103.833 154.075C103.829 154.496 103.825 154.824 103.574 155.18C103.304 155.361 103.161 155.361 102.838 155.369C102.748 155.373 102.659 155.377 102.566 155.381C102.196 155.314 102.015 155.151 101.763 154.878C101.606 154.646 101.483 154.4 101.36 154.148C101.322 154.074 101.285 153.999 101.246 153.922C101.139 153.71 101.033 153.497 100.927 153.284C100.801 153.029 100.672 152.776 100.544 152.523C100.231 151.901 99.9197 151.279 99.6088 150.656C99.4903 150.419 99.3716 150.182 99.2529 149.945C99.1381 149.715 99.0235 149.486 98.9088 149.256C98.8544 149.147 98.7999 149.039 98.7453 148.93C98.6699 148.779 98.5946 148.628 98.5195 148.477C98.4768 148.392 98.4341 148.306 98.3901 148.218C98.2896 148.008 98.2896 148.008 98.2141 147.781C98.2137 147.873 98.2132 147.964 98.2128 148.058C98.2085 148.917 98.203 149.775 98.1963 150.634C98.193 151.076 98.19 151.517 98.188 151.959C98.186 152.385 98.183 152.811 98.1792 153.236C98.1779 153.399 98.177 153.562 98.1766 153.725C98.1758 153.952 98.1737 154.179 98.1713 154.407C98.1714 154.474 98.1715 154.542 98.1716 154.612C98.1707 154.674 98.1697 154.736 98.1687 154.799C98.1684 154.853 98.168 154.907 98.1677 154.963C98.1296 155.149 98.0618 155.216 97.9121 155.331C97.6859 155.364 97.6859 155.364 97.4261 155.364C97.2978 155.366 97.2978 155.366 97.1669 155.369C96.8791 155.323 96.8082 155.254 96.6287 155.029C96.5907 154.843 96.5907 154.843 96.5903 154.631C96.5895 154.551 96.5886 154.47 96.5877 154.387C96.5884 154.299 96.589 154.211 96.5896 154.121C96.5891 154.028 96.5885 153.935 96.588 153.839C96.5869 153.584 96.5872 153.33 96.5881 153.075C96.5889 152.808 96.5882 152.541 96.5877 152.275C96.5871 151.827 96.5879 151.379 96.5893 150.931C96.5909 150.413 96.5904 149.895 96.5888 149.378C96.5874 148.933 96.5872 148.488 96.588 148.044C96.5884 147.778 96.5885 147.513 96.5875 147.247C96.5865 146.951 96.5879 146.655 96.5896 146.359C96.589 146.271 96.5884 146.184 96.5877 146.093C96.594 145.499 96.594 145.499 96.7727 145.2C97.0555 144.956 97.2594 144.974 97.629 144.969Z" fill="white"/>
<path d="M62.9754 144.969C63.0739 144.967 63.1724 144.965 63.2739 144.963C63.5976 144.991 63.7506 145.023 64.0135 145.215C64.4777 145.856 64.8004 146.617 65.1522 147.323C65.2174 147.454 65.2825 147.584 65.3477 147.715C65.4835 147.986 65.6191 148.258 65.7545 148.53C65.9282 148.879 66.1023 149.227 66.2765 149.575C66.4107 149.844 66.5448 150.113 66.6789 150.381C66.743 150.51 66.8073 150.638 66.8715 150.767C66.9609 150.946 67.0501 151.125 67.1393 151.304C67.1658 151.357 67.1924 151.41 67.2197 151.465C67.3215 151.67 67.414 151.867 67.4864 152.085C67.4867 152 67.487 151.916 67.4873 151.829C67.4901 151.033 67.4944 150.238 67.5003 149.443C67.5033 149.034 67.5057 148.625 67.5069 148.216C67.508 147.821 67.5106 147.427 67.5142 147.032C67.5154 146.882 67.516 146.731 67.516 146.58C67.5162 146.37 67.5182 146.159 67.5207 145.948C67.5201 145.854 67.5201 145.854 67.5196 145.759C67.5245 145.487 67.5378 145.323 67.7009 145.1C67.9248 144.946 68.0847 144.948 68.3547 144.95C68.4395 144.949 68.5244 144.949 68.6118 144.948C68.8961 144.997 68.9691 145.068 69.1474 145.29C69.1852 145.473 69.1852 145.473 69.1852 145.682C69.186 145.761 69.1867 145.84 69.1875 145.921C69.1867 146.008 69.186 146.094 69.1853 146.183C69.1859 146.32 69.1859 146.32 69.1865 146.46C69.1873 146.711 69.1867 146.961 69.1855 147.211C69.1844 147.474 69.1849 147.736 69.1852 147.998C69.1854 148.439 69.1844 148.879 69.1826 149.32C69.1806 149.829 69.1805 150.338 69.1814 150.846C69.1822 151.336 69.1817 151.826 69.1806 152.316C69.1802 152.524 69.1802 152.733 69.1806 152.941C69.181 153.232 69.1795 153.523 69.1779 153.814C69.1782 153.9 69.1786 153.987 69.1789 154.075C69.175 154.496 69.1711 154.824 68.9209 155.18C68.6503 155.361 68.5069 155.361 68.1848 155.369C68.0949 155.373 68.0049 155.377 67.9123 155.381C67.5423 155.314 67.3609 155.151 67.1089 154.878C66.952 154.646 66.8296 154.4 66.7064 154.148C66.6688 154.074 66.6311 153.999 66.5924 153.922C66.4853 153.71 66.3792 153.497 66.2735 153.284C66.147 153.029 66.0188 152.776 65.8908 152.523C65.5774 151.901 65.2661 151.279 64.9552 150.656C64.8368 150.419 64.7181 150.182 64.5994 149.945C64.4845 149.715 64.3699 149.486 64.2553 149.256C64.2008 149.147 64.1463 149.039 64.0917 148.93C64.0163 148.779 63.941 148.628 63.8659 148.477C63.8232 148.392 63.7805 148.306 63.7365 148.218C63.636 148.008 63.636 148.008 63.5605 147.781C63.5601 147.873 63.5597 147.964 63.5592 148.058C63.5549 148.917 63.5494 149.775 63.5427 150.634C63.5394 151.076 63.5364 151.517 63.5344 151.959C63.5324 152.385 63.5294 152.811 63.5256 153.236C63.5243 153.399 63.5234 153.562 63.523 153.725C63.5222 153.952 63.5201 154.179 63.5177 154.407C63.5178 154.474 63.5179 154.542 63.518 154.612C63.5171 154.674 63.5161 154.736 63.5151 154.799C63.5148 154.853 63.5144 154.907 63.5141 154.963C63.476 155.149 63.4082 155.216 63.2585 155.331C63.0323 155.364 63.0323 155.364 62.7725 155.364C62.6442 155.366 62.6442 155.366 62.5133 155.369C62.2255 155.323 62.1546 155.254 61.9751 155.029C61.9371 154.843 61.9371 154.843 61.9367 154.631C61.9359 154.551 61.935 154.47 61.9342 154.387C61.9348 154.299 61.9354 154.211 61.936 154.121C61.9355 154.028 61.9349 153.935 61.9344 153.839C61.9333 153.584 61.9336 153.33 61.9345 153.075C61.9353 152.808 61.9346 152.541 61.9341 152.275C61.9335 151.827 61.9343 151.379 61.9357 150.931C61.9374 150.413 61.9368 149.895 61.9352 149.378C61.9338 148.933 61.9336 148.488 61.9344 148.044C61.9349 147.778 61.9349 147.513 61.9339 147.247C61.9329 146.951 61.9343 146.655 61.936 146.359C61.9354 146.271 61.9348 146.184 61.9342 146.093C61.9404 145.499 61.9404 145.499 62.1191 145.2C62.4019 144.956 62.6058 144.974 62.9754 144.969Z" fill="white"/>
<path d="M81.0864 145.553C81.353 145.77 81.4366 145.966 81.4736 146.304C81.4893 146.682 81.4725 146.946 81.2271 147.253C80.904 147.233 80.694 147.19 80.4249 147.008C79.5268 146.42 78.5723 146.262 77.5262 146.467C76.799 146.715 76.2792 147.265 75.9422 147.937C75.6043 148.646 75.5389 149.252 75.5411 150.028C75.5399 150.111 75.5387 150.194 75.5374 150.28C75.5369 151.27 75.7809 152.113 76.3339 152.934C76.9217 153.509 77.5636 153.773 78.3723 153.769C78.4327 153.771 78.4931 153.772 78.5553 153.773C79.0586 153.773 79.3539 153.674 79.8681 153.519C79.8681 152.647 79.8681 151.775 79.8681 150.877C79.1826 150.889 79.1826 150.889 78.4971 150.904C78.4118 150.905 78.3266 150.906 78.2387 150.906C78.1076 150.909 78.1076 150.909 77.9739 150.911C77.7542 150.877 77.7542 150.877 77.6123 150.736C77.5106 150.543 77.4998 150.415 77.5041 150.197C77.5044 150.134 77.5047 150.07 77.505 150.004C77.5291 149.808 77.5738 149.684 77.6787 149.518C77.8485 149.433 77.9434 149.432 78.1319 149.429C78.2253 149.428 78.2253 149.428 78.3205 149.426C78.3879 149.426 78.4553 149.425 78.5248 149.424C78.594 149.424 78.6633 149.423 78.7347 149.423C78.8815 149.422 79.0283 149.421 79.1751 149.42C79.3993 149.419 79.6234 149.416 79.8476 149.412C79.9902 149.411 80.1328 149.411 80.2754 149.41C80.3758 149.408 80.3758 149.408 80.4782 149.406C80.7932 149.407 80.9573 149.415 81.2299 149.586C81.4606 149.833 81.4639 149.976 81.4681 150.307C81.4693 150.394 81.4705 150.48 81.4718 150.569C81.4751 150.963 81.4783 151.358 81.48 151.753C81.481 151.961 81.4831 152.169 81.4862 152.378C81.4906 152.678 81.492 152.977 81.4931 153.277C81.4956 153.417 81.4956 153.417 81.4983 153.559C81.4965 154.28 81.4965 154.28 81.2735 154.556C80.4097 155.306 79.0959 155.491 77.9867 155.42C76.786 155.319 75.7769 154.872 74.9607 153.972C73.8447 152.52 73.6533 150.714 73.8631 148.942C74.057 147.652 74.6625 146.523 75.6523 145.673C77.2182 144.529 79.4631 144.475 81.0864 145.553Z" fill="white"/>
<path d="M118.146 163.787C118.333 163.875 118.455 163.945 118.599 164.089C118.606 164.303 118.609 164.515 118.609 164.729C118.61 164.83 118.61 164.83 118.61 164.932C118.611 165.079 118.611 165.225 118.611 165.372C118.612 165.604 118.613 165.837 118.614 166.069C118.618 166.73 118.622 167.391 118.623 168.052C118.624 168.456 118.626 168.86 118.629 169.264C118.63 169.417 118.631 169.571 118.63 169.725C118.617 171.03 118.617 171.03 119.146 172.2C119.632 172.653 120.063 172.74 120.722 172.731C121.284 172.707 121.587 172.572 121.982 172.186C122.381 171.592 122.46 170.992 122.459 170.291C122.459 170.224 122.459 170.157 122.459 170.089C122.459 169.945 122.459 169.8 122.459 169.656C122.46 169.35 122.461 169.043 122.463 168.737C122.466 168.167 122.468 167.597 122.468 167.026C122.468 166.629 122.47 166.232 122.473 165.836C122.473 165.684 122.473 165.533 122.473 165.382C122.472 165.17 122.474 164.959 122.476 164.748C122.475 164.685 122.474 164.623 122.474 164.558C122.479 164.259 122.495 164.121 122.703 163.899C122.93 163.771 123.063 163.751 123.322 163.759C123.392 163.76 123.462 163.761 123.535 163.762C123.736 163.788 123.864 163.829 124.034 163.938C124.157 164.184 124.122 164.454 124.123 164.725C124.124 164.79 124.124 164.856 124.125 164.924C124.126 165.143 124.127 165.362 124.128 165.581C124.128 165.656 124.129 165.731 124.129 165.808C124.13 166.206 124.132 166.604 124.132 167.002C124.133 167.41 124.136 167.818 124.139 168.227C124.141 168.543 124.141 168.859 124.142 169.174C124.142 169.325 124.143 169.475 124.144 169.625C124.156 170.989 124.056 172.355 123.077 173.399C122.349 174.089 121.55 174.308 120.566 174.3C120.459 174.301 120.459 174.301 120.349 174.302C119.455 174.299 118.679 174.064 118.013 173.446C116.998 172.362 116.978 171.008 116.983 169.612C116.983 169.453 116.983 169.294 116.982 169.135C116.982 168.804 116.983 168.472 116.984 168.141C116.985 167.716 116.984 167.291 116.983 166.866C116.982 166.539 116.982 166.211 116.983 165.884C116.983 165.727 116.983 165.57 116.982 165.414C116.982 165.195 116.983 164.977 116.984 164.759C116.983 164.694 116.983 164.629 116.982 164.562C116.987 164.12 116.987 164.12 117.119 163.962C117.421 163.713 117.772 163.752 118.146 163.787Z" fill="white"/>
<path d="M89.6074 163.787C89.7947 163.875 89.9165 163.945 90.0604 164.089C90.0682 164.303 90.0712 164.515 90.0711 164.729C90.0715 164.83 90.0715 164.83 90.0719 164.932C90.0724 165.079 90.0728 165.225 90.0731 165.372C90.0736 165.604 90.0748 165.837 90.0762 166.069C90.0802 166.73 90.0838 167.391 90.085 168.052C90.0857 168.456 90.088 168.86 90.0911 169.264C90.092 169.417 90.0924 169.571 90.0923 169.725C90.0784 171.03 90.0784 171.03 90.6077 172.2C91.094 172.653 91.5253 172.74 92.1841 172.731C92.7453 172.707 93.049 172.572 93.4436 172.186C93.8433 171.592 93.9221 170.992 93.9203 170.291C93.9204 170.224 93.9206 170.157 93.9207 170.089C93.921 169.945 93.9212 169.8 93.9212 169.656C93.9215 169.35 93.9231 169.043 93.9246 168.737C93.9275 168.167 93.9298 167.597 93.9297 167.026C93.9296 166.629 93.9314 166.232 93.9344 165.836C93.9351 165.684 93.9353 165.533 93.9347 165.382C93.934 165.17 93.9355 164.959 93.9377 164.748C93.9369 164.685 93.9361 164.623 93.9353 164.558C93.9408 164.259 93.9565 164.121 94.1651 163.899C94.3921 163.771 94.5249 163.751 94.7837 163.759C94.8539 163.76 94.9241 163.761 94.9963 163.762C95.1981 163.788 95.3256 163.829 95.4962 163.938C95.6191 164.184 95.5842 164.454 95.5851 164.725C95.5856 164.79 95.5861 164.856 95.5866 164.924C95.5881 165.143 95.589 165.362 95.5897 165.581C95.59 165.656 95.5903 165.731 95.5906 165.808C95.5922 166.206 95.5933 166.604 95.594 167.002C95.5948 167.41 95.5974 167.818 95.6004 168.227C95.6024 168.543 95.603 168.859 95.6033 169.174C95.6037 169.325 95.6045 169.475 95.606 169.625C95.618 170.989 95.5175 172.355 94.5383 173.399C93.8106 174.089 93.012 174.308 92.028 174.3C91.9204 174.301 91.9204 174.301 91.8105 174.302C90.9163 174.299 90.1412 174.064 89.4753 173.446C88.4594 172.362 88.4401 171.008 88.4448 169.612C88.4447 169.453 88.4445 169.294 88.4442 169.135C88.4438 168.804 88.4443 168.472 88.4454 168.141C88.4467 167.716 88.4459 167.291 88.4446 166.866C88.4438 166.539 88.444 166.211 88.4446 165.884C88.4448 165.727 88.4446 165.57 88.444 165.414C88.4435 165.195 88.4443 164.977 88.4456 164.759C88.4451 164.694 88.4447 164.629 88.4442 164.562C88.449 164.12 88.449 164.12 88.5805 163.962C88.8823 163.713 89.2335 163.752 89.6074 163.787Z" fill="white"/>
<path d="M54.8942 163.816C54.9872 163.815 55.0802 163.815 55.1759 163.814C55.2767 163.815 55.3774 163.816 55.4781 163.818C55.582 163.818 55.6859 163.818 55.7897 163.818C56.0069 163.818 56.224 163.819 56.4412 163.822C56.7196 163.825 56.9978 163.825 57.2762 163.824C57.4905 163.824 57.7047 163.825 57.9189 163.826C58.0216 163.827 58.1242 163.827 58.2269 163.827C58.3702 163.827 58.5135 163.829 58.6568 163.831C58.779 163.832 58.779 163.832 58.9038 163.833C59.1062 163.863 59.1062 163.863 59.2455 163.964C59.3827 164.161 59.3654 164.338 59.3657 164.575C59.3672 164.661 59.3686 164.746 59.3701 164.834C59.3327 165.07 59.3327 165.07 59.2276 165.234C58.9207 165.45 58.6237 165.41 58.258 165.402C58.183 165.402 58.108 165.401 58.0308 165.401C57.7915 165.399 57.5523 165.395 57.3131 165.391C57.1508 165.39 56.9885 165.388 56.8262 165.387C56.4285 165.384 56.031 165.378 55.6333 165.372C55.6333 166.269 55.6333 167.166 55.6333 168.09C55.8486 168.087 56.064 168.083 56.2859 168.08C56.4943 168.077 56.7027 168.076 56.9111 168.074C57.056 168.072 57.2009 168.07 57.3458 168.068C57.5541 168.064 57.7622 168.062 57.9705 168.061C58.0678 168.059 58.0678 168.059 58.1671 168.056C58.6155 168.056 58.6155 168.056 58.8071 168.231C58.8976 168.432 58.9124 168.587 58.9127 168.808C58.9142 168.878 58.9156 168.949 58.9171 169.022C58.8669 169.291 58.7982 169.363 58.5777 169.525C58.3529 169.567 58.1321 169.56 57.9041 169.554C57.8465 169.554 57.7889 169.554 57.7296 169.553C57.5153 169.552 57.3009 169.548 57.0866 169.544C56.607 169.538 56.1274 169.531 55.6333 169.525C55.6333 170.571 55.6333 171.618 55.6333 172.696C55.8868 172.692 56.1403 172.689 56.4015 172.685C56.6466 172.683 56.8917 172.681 57.1369 172.679C57.3074 172.678 57.478 172.676 57.6485 172.673C57.8935 172.669 58.1384 172.668 58.3833 172.666C58.498 172.664 58.498 172.664 58.615 172.662C58.7215 172.662 58.7215 172.662 58.8302 172.662C58.8928 172.661 58.9553 172.66 59.0197 172.659C59.1817 172.696 59.1817 172.696 59.3148 172.835C59.4375 173.049 59.4409 173.206 59.4412 173.451C59.4426 173.529 59.4441 173.606 59.4456 173.687C59.3983 173.961 59.3226 174.035 59.1062 174.206C58.8976 174.244 58.8976 174.244 58.6551 174.245C58.5187 174.246 58.5187 174.246 58.3795 174.248C58.2815 174.247 58.1835 174.246 58.0825 174.246C57.9806 174.246 57.8787 174.246 57.7768 174.247C57.5633 174.247 57.3499 174.247 57.1365 174.245C56.8635 174.243 56.5906 174.244 56.3175 174.246C56.1071 174.247 55.8967 174.247 55.6862 174.246C55.5368 174.246 55.3874 174.247 55.238 174.248C55.1012 174.246 55.1012 174.246 54.9616 174.245C54.8815 174.245 54.8015 174.244 54.719 174.244C54.4472 174.196 54.3205 174.093 54.1233 173.904C54.029 173.715 54.0375 173.587 54.0362 173.376C54.0355 173.296 54.0349 173.217 54.0342 173.134C54.0339 173.047 54.0336 172.959 54.0332 172.868C54.0326 172.776 54.032 172.684 54.0314 172.589C54.0295 172.283 54.0282 171.977 54.0272 171.67C54.0268 171.565 54.0264 171.46 54.0259 171.354C54.0243 170.916 54.0229 170.477 54.022 170.039C54.0208 169.411 54.0183 168.782 54.014 168.154C54.0111 167.712 54.0096 167.27 54.0092 166.829C54.0089 166.565 54.008 166.301 54.0056 166.037C54.0029 165.743 54.0032 165.448 54.0038 165.154C54.0025 165.066 54.0013 164.979 54 164.889C54.0046 164.305 54.0046 164.305 54.21 163.997C54.4613 163.84 54.5994 163.816 54.8942 163.816Z" fill="white"/>
<path d="M116.576 144.942C116.669 144.941 116.762 144.94 116.858 144.939C116.959 144.941 117.059 144.942 117.16 144.943C117.264 144.943 117.368 144.943 117.472 144.943C117.689 144.943 117.906 144.945 118.123 144.947C118.401 144.95 118.68 144.95 118.958 144.95C119.172 144.95 119.387 144.951 119.601 144.952C119.703 144.952 119.806 144.953 119.909 144.953C120.052 144.953 120.195 144.954 120.339 144.956C120.461 144.957 120.461 144.957 120.586 144.958C120.788 144.988 120.788 144.988 120.927 145.089C121.065 145.287 121.047 145.464 121.048 145.701C121.049 145.786 121.05 145.872 121.052 145.96C121.015 146.196 121.015 146.196 120.909 146.36C120.603 146.575 120.306 146.535 119.94 146.527C119.865 146.527 119.79 146.527 119.713 146.526C119.473 146.524 119.234 146.521 118.995 146.517C118.833 146.515 118.67 146.514 118.508 146.513C118.11 146.51 117.713 146.504 117.315 146.498C117.315 147.395 117.315 148.292 117.315 149.216C117.531 149.212 117.746 149.209 117.968 149.205C118.176 149.203 118.385 149.201 118.593 149.199C118.738 149.198 118.883 149.196 119.028 149.193C119.236 149.189 119.444 149.188 119.652 149.186C119.75 149.184 119.75 149.184 119.849 149.182C120.297 149.182 120.297 149.182 120.489 149.356C120.579 149.558 120.594 149.712 120.595 149.933C120.596 150.004 120.597 150.075 120.599 150.148C120.549 150.417 120.48 150.488 120.26 150.65C120.035 150.692 119.814 150.686 119.586 150.68C119.528 150.68 119.471 150.679 119.411 150.679C119.197 150.677 118.983 150.673 118.768 150.669C118.289 150.663 117.809 150.657 117.315 150.65C117.315 151.697 117.315 152.743 117.315 153.821C117.569 153.818 117.822 153.814 118.083 153.811C118.328 153.808 118.574 153.806 118.819 153.805C118.989 153.803 119.16 153.801 119.33 153.799C119.575 153.795 119.82 153.793 120.065 153.792C120.18 153.789 120.18 153.789 120.297 153.787C120.403 153.787 120.403 153.787 120.512 153.787C120.575 153.786 120.637 153.786 120.702 153.785C120.864 153.821 120.864 153.821 120.997 153.961C121.119 154.174 121.123 154.331 121.123 154.576C121.125 154.654 121.126 154.732 121.127 154.812C121.08 155.086 121.004 155.16 120.788 155.331C120.579 155.37 120.579 155.37 120.337 155.37C120.201 155.372 120.201 155.372 120.061 155.373C119.963 155.373 119.865 155.372 119.764 155.371C119.662 155.372 119.561 155.372 119.459 155.372C119.245 155.373 119.032 155.372 118.818 155.371C118.545 155.369 118.272 155.37 117.999 155.372C117.789 155.373 117.579 155.372 117.368 155.372C117.219 155.371 117.069 155.372 116.92 155.373C116.783 155.372 116.783 155.372 116.643 155.37C116.563 155.37 116.483 155.37 116.401 155.37C116.129 155.322 116.002 155.218 115.805 155.029C115.711 154.841 115.719 154.713 115.718 154.502C115.717 154.422 115.717 154.342 115.716 154.26C115.716 154.172 115.715 154.084 115.715 153.994C115.714 153.902 115.714 153.809 115.713 153.714C115.711 153.408 115.71 153.102 115.709 152.796C115.709 152.69 115.708 152.585 115.708 152.48C115.706 152.041 115.705 151.603 115.704 151.164C115.703 150.536 115.7 149.908 115.696 149.279C115.693 148.838 115.691 148.396 115.691 147.954C115.691 147.69 115.69 147.426 115.687 147.163C115.685 146.868 115.685 146.574 115.686 146.279C115.684 146.192 115.683 146.105 115.682 146.015C115.686 145.43 115.686 145.43 115.892 145.123C116.143 144.966 116.281 144.941 116.576 144.942Z" fill="white"/>
<path d="M87.3584 144.942C87.4513 144.941 87.5443 144.94 87.6401 144.939C87.7408 144.941 87.8415 144.942 87.9423 144.943C88.0461 144.943 88.15 144.943 88.2539 144.943C88.471 144.943 88.6882 144.945 88.9053 144.947C89.1837 144.95 89.462 144.95 89.7403 144.95C89.9546 144.95 90.1688 144.951 90.3831 144.952C90.4857 144.952 90.5884 144.953 90.691 144.953C90.8343 144.953 90.9776 144.954 91.1209 144.956C91.2432 144.957 91.2432 144.957 91.3679 144.958C91.5703 144.988 91.5703 144.988 91.7096 145.089C91.8468 145.287 91.8296 145.464 91.8298 145.701C91.8313 145.786 91.8327 145.872 91.8342 145.96C91.7968 146.196 91.7968 146.196 91.6917 146.36C91.3848 146.575 91.0879 146.535 90.7221 146.527C90.6471 146.527 90.5722 146.527 90.4949 146.526C90.2556 146.524 90.0165 146.521 89.7772 146.517C89.6149 146.515 89.4526 146.514 89.2903 146.513C88.8926 146.51 88.4951 146.504 88.0974 146.498C88.0974 147.395 88.0974 148.292 88.0974 149.216C88.3128 149.212 88.5281 149.209 88.75 149.205C88.9584 149.203 89.1668 149.201 89.3752 149.199C89.5201 149.198 89.6651 149.196 89.81 149.193C90.0182 149.189 90.2263 149.188 90.4346 149.186C90.5319 149.184 90.5319 149.184 90.6312 149.182C91.0796 149.182 91.0796 149.182 91.2712 149.356C91.3617 149.558 91.3765 149.712 91.3768 149.933C91.3783 150.004 91.3798 150.075 91.3813 150.148C91.3311 150.417 91.2623 150.488 91.0418 150.65C90.817 150.692 90.5962 150.686 90.3682 150.68C90.3107 150.68 90.2531 150.679 90.1938 150.679C89.9794 150.677 89.7651 150.673 89.5507 150.669C89.0711 150.663 88.5915 150.657 88.0974 150.65C88.0974 151.697 88.0974 152.743 88.0974 153.821C88.3509 153.818 88.6044 153.814 88.8656 153.811C89.1108 153.808 89.3559 153.806 89.601 153.805C89.7716 153.803 89.9421 153.801 90.1127 153.799C90.3576 153.795 90.6025 153.793 90.8475 153.792C90.9621 153.789 90.9621 153.789 91.0791 153.787C91.1857 153.787 91.1857 153.787 91.2943 153.787C91.3569 153.786 91.4194 153.786 91.4838 153.785C91.6458 153.821 91.6458 153.821 91.779 153.961C91.9016 154.174 91.905 154.331 91.9053 154.576C91.9068 154.654 91.9082 154.732 91.9097 154.812C91.8624 155.086 91.7867 155.16 91.5703 155.331C91.3617 155.37 91.3617 155.37 91.1192 155.37C90.9828 155.372 90.9828 155.372 90.8436 155.373C90.7456 155.373 90.6476 155.372 90.5467 155.371C90.4447 155.372 90.3428 155.372 90.2409 155.372C90.0275 155.373 89.8141 155.372 89.6006 155.371C89.3276 155.369 89.0547 155.37 88.7817 155.372C88.5712 155.373 88.3608 155.372 88.1504 155.372C88.001 155.371 87.8515 155.372 87.7021 155.373C87.5653 155.372 87.5653 155.372 87.4257 155.37C87.3457 155.37 87.2656 155.37 87.1831 155.37C86.9113 155.322 86.7846 155.218 86.5874 155.029C86.4932 154.841 86.5016 154.713 86.5003 154.502C86.4997 154.422 86.499 154.342 86.4983 154.26C86.498 154.172 86.4977 154.084 86.4974 153.994C86.4968 153.902 86.4961 153.809 86.4955 153.714C86.4936 153.408 86.4924 153.102 86.4913 152.796C86.4909 152.69 86.4905 152.585 86.4901 152.48C86.4884 152.041 86.487 151.603 86.4862 151.164C86.4849 150.536 86.4824 149.908 86.4781 149.279C86.4752 148.838 86.4737 148.396 86.4733 147.954C86.4731 147.69 86.4722 147.426 86.4697 147.163C86.467 146.868 86.4673 146.574 86.4679 146.279C86.4666 146.192 86.4654 146.105 86.4641 146.015C86.4687 145.43 86.4687 145.43 86.6741 145.123C86.9254 144.966 87.0635 144.941 87.3584 144.942Z" fill="white"/>
<path d="M66.958 164.316C67.1466 164.504 67.1825 164.601 67.2146 164.87C67.214 164.963 67.2134 165.055 67.2128 165.151C67.2137 165.29 67.2137 165.29 67.2146 165.432C67.1845 165.674 67.1845 165.674 67.093 165.82C66.9053 165.932 66.7964 165.931 66.5805 165.901C66.3917 165.807 66.3917 165.807 66.203 165.684C65.5997 165.294 65.1089 165.229 64.391 165.297C64.1212 165.388 63.9809 165.549 63.7965 165.764C63.6345 166.169 63.65 166.566 63.8201 166.967C64.1801 167.582 64.8633 167.894 65.4811 168.194C66.4675 168.692 67.2196 169.276 67.6386 170.332C67.8728 171.119 67.728 172.039 67.3776 172.772C66.9563 173.488 66.3855 173.936 65.6037 174.215C64.7187 174.443 63.536 174.431 62.7301 173.979C62.6435 173.932 62.6435 173.932 62.5552 173.883C62.2241 173.688 61.9496 173.525 61.8241 173.149C61.8132 173 61.8075 172.85 61.8052 172.701C61.8023 172.583 61.8023 172.583 61.7993 172.463C61.8268 172.219 61.8873 172.119 62.0506 171.941C62.4127 171.98 62.6492 172.083 62.9566 172.276C63.647 172.706 64.2761 172.774 65.0705 172.696C65.4127 172.577 65.6077 172.409 65.8208 172.12C66.0365 171.638 66.0576 171.177 65.8727 170.681C65.4853 170.112 64.796 169.836 64.2023 169.534C63.3988 169.125 62.6304 168.608 62.263 167.746C62.2263 167.662 62.2263 167.662 62.1889 167.576C61.9449 166.935 61.9064 165.985 62.1827 165.354C62.2365 165.258 62.2929 165.163 62.3526 165.07C62.3962 164.993 62.4398 164.915 62.4847 164.835C62.9867 164.193 63.5378 163.922 64.3203 163.73C65.2331 163.653 66.2047 163.74 66.958 164.316Z" fill="white"/>
<path d="M105.065 164.408C105.288 164.582 105.436 164.732 105.537 164.995C105.56 165.212 105.56 165.212 105.561 165.448C105.562 165.526 105.564 165.604 105.565 165.684C105.533 165.933 105.5 166.037 105.311 166.203C105.047 166.244 104.908 166.232 104.675 166.098C104.617 166.052 104.559 166.005 104.499 165.958C103.799 165.444 103.166 165.259 102.291 165.372C101.733 165.537 101.322 165.867 101.008 166.354C100.572 167.215 100.453 167.975 100.455 168.93C100.454 169.023 100.453 169.116 100.452 169.212C100.451 170.186 100.553 171.293 101.245 172.04C101.871 172.62 102.385 172.673 103.21 172.654C103.832 172.616 104.292 172.316 104.773 171.946C105.009 171.79 105.009 171.79 105.264 171.795C105.462 171.865 105.462 171.865 105.537 172.016C105.549 172.175 105.554 172.334 105.556 172.493C105.558 172.578 105.56 172.664 105.562 172.752C105.529 173.079 105.419 173.267 105.189 173.498C104.191 174.253 103.121 174.354 101.914 174.281C101.64 174.24 101.41 174.17 101.159 174.055C101.09 174.024 101.021 173.992 100.95 173.96C99.9174 173.444 99.3485 172.598 98.9833 171.521C98.7306 170.747 98.6423 169.998 98.6483 169.185C98.6477 169.106 98.6471 169.026 98.6465 168.945C98.6478 168.417 98.7077 167.926 98.8181 167.411C98.8332 167.331 98.8483 167.251 98.8639 167.169C99.0826 166.19 99.5341 165.39 100.253 164.693C100.296 164.649 100.339 164.605 100.384 164.559C101.635 163.377 103.708 163.455 105.065 164.408Z" fill="white"/>
<path d="M107.926 163.816C108.043 163.814 108.16 163.814 108.276 163.816C108.34 163.816 108.404 163.815 108.47 163.815C108.681 163.814 108.891 163.816 109.102 163.818C109.249 163.818 109.395 163.818 109.542 163.818C109.848 163.818 110.155 163.819 110.462 163.822C110.856 163.825 111.25 163.825 111.644 163.824C111.946 163.824 112.248 163.825 112.551 163.826C112.696 163.827 112.841 163.827 112.986 163.827C113.189 163.827 113.392 163.829 113.595 163.831C113.685 163.83 113.685 163.83 113.777 163.83C114.181 163.836 114.181 163.836 114.37 163.964C114.491 164.164 114.476 164.344 114.474 164.575C114.475 164.703 114.475 164.703 114.476 164.834C114.442 165.101 114.414 165.19 114.22 165.372C114.02 165.399 113.852 165.408 113.653 165.402C113.598 165.402 113.543 165.401 113.486 165.401C113.311 165.399 113.135 165.395 112.96 165.391C112.841 165.39 112.722 165.388 112.603 165.387C112.311 165.384 112.02 165.379 111.728 165.372C111.729 165.417 111.729 165.461 111.729 165.506C111.738 166.58 111.744 167.654 111.748 168.727C111.75 169.247 111.752 169.766 111.757 170.285C111.761 170.786 111.763 171.286 111.764 171.787C111.765 171.979 111.766 172.17 111.768 172.361C111.771 172.629 111.771 172.896 111.771 173.163C111.772 173.243 111.774 173.323 111.775 173.405C111.774 173.604 111.77 173.785 111.728 173.979C111.468 174.217 111.239 174.238 110.893 174.239C110.777 174.241 110.777 174.241 110.659 174.243C110.445 174.206 110.445 174.206 110.283 174.103C110.06 173.785 110.103 173.465 110.109 173.086C110.108 173.003 110.108 172.92 110.108 172.834C110.109 172.559 110.111 172.283 110.113 172.008C110.114 171.817 110.114 171.626 110.115 171.436C110.116 170.984 110.118 170.533 110.121 170.082C110.124 169.569 110.126 169.055 110.128 168.542C110.131 167.485 110.136 166.429 110.143 165.372C110.069 165.374 109.994 165.376 109.918 165.378C109.642 165.385 109.366 165.39 109.091 165.393C108.971 165.395 108.852 165.398 108.733 165.401C108.561 165.406 108.39 165.408 108.218 165.409C108.138 165.412 108.138 165.412 108.057 165.415C107.906 165.415 107.906 165.415 107.651 165.372C107.449 165.126 107.394 164.934 107.397 164.618C107.396 164.555 107.395 164.493 107.395 164.429C107.455 164.053 107.537 163.882 107.926 163.816Z" fill="white"/>
<path d="M70.0264 163.816C70.1431 163.814 70.2598 163.814 70.3764 163.816C70.4402 163.816 70.5039 163.815 70.5696 163.815C70.7805 163.814 70.9914 163.816 71.2023 163.818C71.3487 163.818 71.4951 163.818 71.6415 163.818C71.9485 163.818 72.2554 163.819 72.5623 163.822C72.9561 163.825 73.3498 163.825 73.7436 163.824C74.046 163.824 74.3483 163.825 74.6506 163.826C74.7958 163.827 74.941 163.827 75.0862 163.827C75.2891 163.827 75.4918 163.829 75.6946 163.831C75.785 163.83 75.785 163.83 75.8772 163.83C76.2808 163.836 76.2808 163.836 76.4701 163.964C76.5915 164.164 76.5761 164.344 76.5745 164.575C76.5754 164.703 76.5754 164.703 76.5763 164.834C76.5423 165.101 76.5142 165.19 76.3197 165.372C76.1198 165.399 75.9518 165.408 75.7526 165.402C75.6976 165.402 75.6426 165.401 75.586 165.401C75.4105 165.399 75.2352 165.395 75.0598 165.391C74.9408 165.39 74.8218 165.388 74.7028 165.387C74.4113 165.384 74.1198 165.379 73.8283 165.372C73.8286 165.417 73.829 165.461 73.8293 165.506C73.8376 166.58 73.8439 167.654 73.8478 168.727C73.8498 169.247 73.8524 169.766 73.8567 170.285C73.8609 170.786 73.8631 171.286 73.8641 171.787C73.8648 171.979 73.8661 172.17 73.8682 172.361C73.8709 172.629 73.8713 172.896 73.8711 173.163C73.8725 173.243 73.8738 173.323 73.8752 173.405C73.8738 173.604 73.8699 173.785 73.8283 173.979C73.5684 174.217 73.339 174.238 72.9931 174.239C72.8773 174.241 72.8773 174.241 72.7592 174.243C72.5448 174.206 72.5448 174.206 72.3825 174.103C72.1599 173.785 72.2033 173.465 72.2085 173.086C72.2085 173.003 72.2084 172.92 72.2084 172.834C72.2086 172.559 72.2109 172.283 72.2133 172.008C72.2139 171.817 72.2143 171.626 72.2146 171.436C72.2156 170.984 72.218 170.533 72.2211 170.082C72.2244 169.569 72.2261 169.055 72.2276 168.542C72.2308 167.485 72.2361 166.429 72.2428 165.372C72.1685 165.374 72.0942 165.376 72.0177 165.378C71.7421 165.385 71.4665 165.39 71.1908 165.393C71.0715 165.395 70.9522 165.398 70.8329 165.401C70.6614 165.406 70.49 165.408 70.3185 165.409C70.2385 165.412 70.2385 165.412 70.1569 165.415C70.0058 165.415 70.0058 165.415 69.7514 165.372C69.5493 165.126 69.4936 164.934 69.4966 164.618C69.496 164.555 69.4954 164.493 69.4948 164.429C69.5546 164.053 69.6371 163.882 70.0264 163.816Z" fill="white"/>
<path d="M148.274 163.853C148.42 163.938 148.42 163.938 148.496 164.089C148.503 164.203 148.505 164.317 148.505 164.431C148.505 164.503 148.505 164.575 148.505 164.649C148.505 164.728 148.505 164.808 148.504 164.889C148.504 164.973 148.504 165.056 148.504 165.142C148.504 165.418 148.504 165.694 148.503 165.97C148.503 166.161 148.503 166.352 148.503 166.543C148.503 166.995 148.502 167.447 148.501 167.9C148.5 168.414 148.5 168.929 148.5 169.444C148.499 170.503 148.497 171.561 148.496 172.62C148.59 172.618 148.685 172.616 148.782 172.614C149.133 172.607 149.483 172.603 149.834 172.6C149.986 172.598 150.137 172.595 150.289 172.592C150.507 172.587 150.725 172.585 150.944 172.583C151.011 172.581 151.079 172.58 151.149 172.578C151.62 172.577 151.62 172.577 151.86 172.801C152.025 173.101 152.019 173.344 151.969 173.677C151.811 174.062 151.811 174.062 151.667 174.206C151.534 174.214 151.402 174.218 151.269 174.219C151.184 174.22 151.099 174.221 151.012 174.222C150.873 174.223 150.873 174.223 150.731 174.224C150.637 174.224 150.542 174.225 150.445 174.226C150.244 174.227 150.044 174.227 149.843 174.228C149.587 174.229 149.33 174.231 149.074 174.234C148.829 174.237 148.584 174.237 148.339 174.238C148.247 174.239 148.155 174.241 148.06 174.242C147.974 174.242 147.888 174.241 147.8 174.241C147.687 174.242 147.687 174.242 147.572 174.243C147.306 174.196 147.179 174.088 146.986 173.904C146.891 173.714 146.9 173.582 146.899 173.37C146.898 173.289 146.897 173.208 146.897 173.124C146.896 173.035 146.896 172.945 146.896 172.853C146.895 172.76 146.894 172.666 146.894 172.569C146.892 172.258 146.891 171.946 146.89 171.635C146.889 171.528 146.889 171.42 146.888 171.313C146.887 170.867 146.885 170.422 146.885 169.976C146.883 169.337 146.881 168.698 146.876 168.059C146.874 167.61 146.872 167.16 146.872 166.711C146.871 166.443 146.87 166.174 146.868 165.906C146.865 165.607 146.866 165.307 146.866 165.008C146.865 164.919 146.864 164.83 146.862 164.738C146.867 164.139 146.867 164.139 147.09 163.883C147.474 163.697 147.871 163.738 148.274 163.853Z" fill="white"/>
<path d="M137.591 144.884C137.661 144.885 137.731 144.886 137.804 144.887C138.005 144.913 138.133 144.954 138.304 145.064C138.4 145.256 138.389 145.391 138.391 145.607C138.391 145.69 138.392 145.773 138.393 145.858C138.393 145.95 138.393 146.042 138.394 146.136C138.394 146.232 138.395 146.328 138.395 146.427C138.397 146.746 138.399 147.066 138.4 147.385C138.4 147.495 138.4 147.604 138.401 147.714C138.403 148.171 138.404 148.627 138.405 149.084C138.406 149.739 138.409 150.393 138.413 151.048C138.416 151.508 138.417 151.969 138.418 152.429C138.418 152.704 138.419 152.979 138.421 153.254C138.424 153.56 138.424 153.867 138.423 154.174C138.424 154.265 138.426 154.356 138.427 154.451C138.426 154.534 138.426 154.617 138.425 154.703C138.425 154.776 138.425 154.848 138.426 154.923C138.379 155.105 138.379 155.105 138.201 155.241C137.969 155.346 137.799 155.364 137.544 155.364C137.467 155.366 137.389 155.367 137.31 155.369C137.039 155.321 136.964 155.242 136.794 155.029C136.755 154.84 136.755 154.84 136.755 154.622C136.754 154.54 136.753 154.457 136.752 154.372C136.752 154.282 136.753 154.192 136.753 154.099C136.753 154.004 136.752 153.908 136.751 153.81C136.75 153.549 136.75 153.288 136.751 153.027C136.751 152.809 136.75 152.591 136.75 152.373C136.749 151.858 136.749 151.344 136.75 150.83C136.751 150.299 136.75 149.769 136.748 149.238C136.746 148.782 136.745 148.327 136.746 147.871C136.746 147.599 136.746 147.327 136.744 147.055C136.743 146.752 136.744 146.448 136.746 146.145C136.745 146.055 136.744 145.965 136.743 145.872C136.75 145.265 136.75 145.265 136.972 145.008C137.197 144.9 137.343 144.877 137.591 144.884Z" fill="white"/>
<path d="M109.732 144.884C109.802 144.885 109.873 144.886 109.945 144.887C110.147 144.913 110.274 144.954 110.445 145.064C110.541 145.256 110.531 145.391 110.532 145.607C110.533 145.69 110.533 145.773 110.534 145.858C110.534 145.95 110.535 146.042 110.535 146.136C110.536 146.232 110.536 146.328 110.537 146.427C110.539 146.746 110.54 147.066 110.541 147.385C110.541 147.495 110.542 147.604 110.542 147.714C110.544 148.171 110.545 148.627 110.546 149.084C110.547 149.739 110.55 150.393 110.554 151.048C110.557 151.508 110.559 151.969 110.559 152.429C110.559 152.704 110.56 152.979 110.563 153.254C110.565 153.56 110.565 153.867 110.564 154.174C110.566 154.265 110.567 154.356 110.568 154.451C110.568 154.534 110.567 154.617 110.566 154.703C110.566 154.776 110.567 154.848 110.567 154.923C110.52 155.105 110.52 155.105 110.343 155.241C110.11 155.346 109.94 155.364 109.685 155.364C109.608 155.366 109.531 155.367 109.451 155.369C109.18 155.321 109.106 155.242 108.935 155.029C108.897 154.84 108.897 154.84 108.896 154.622C108.895 154.54 108.894 154.457 108.893 154.372C108.894 154.282 108.894 154.192 108.895 154.099C108.894 154.004 108.893 153.908 108.893 153.81C108.891 153.549 108.891 153.288 108.892 153.027C108.892 152.809 108.892 152.591 108.891 152.373C108.89 151.858 108.89 151.344 108.891 150.83C108.893 150.299 108.891 149.769 108.889 149.238C108.887 148.782 108.886 148.327 108.887 147.871C108.887 147.599 108.887 147.327 108.886 147.055C108.884 146.752 108.886 146.448 108.887 146.145C108.886 146.055 108.885 145.965 108.885 145.872C108.892 145.265 108.892 145.265 109.114 145.008C109.338 144.9 109.484 144.877 109.732 144.884Z" fill="white"/>
<path d="M55.9778 144.884C56.0479 144.885 56.1181 144.886 56.1904 144.887C56.3921 144.913 56.5197 144.954 56.6903 145.064C56.7864 145.256 56.7761 145.391 56.7774 145.607C56.778 145.69 56.7787 145.773 56.7794 145.858C56.7797 145.95 56.78 146.042 56.7803 146.136C56.781 146.232 56.7816 146.328 56.7822 146.427C56.7842 146.746 56.7853 147.066 56.7864 147.385C56.7868 147.495 56.7872 147.604 56.7876 147.714C56.7893 148.171 56.7907 148.627 56.7915 149.084C56.7928 149.739 56.7953 150.393 56.7996 151.048C56.8025 151.508 56.804 151.969 56.8044 152.429C56.8046 152.704 56.8055 152.979 56.808 153.254C56.8107 153.56 56.8104 153.867 56.8098 154.174C56.8111 154.265 56.8123 154.356 56.8136 154.451C56.813 154.534 56.8123 154.617 56.8117 154.703C56.8119 154.776 56.8122 154.848 56.8124 154.923C56.7658 155.105 56.7658 155.105 56.5882 155.241C56.3554 155.346 56.1853 155.364 55.9306 155.364C55.8534 155.366 55.7762 155.367 55.6967 155.369C55.4257 155.321 55.3511 155.242 55.1803 155.029C55.1421 154.84 55.1421 154.84 55.1415 154.622C55.1405 154.54 55.1395 154.457 55.1385 154.372C55.139 154.282 55.1395 154.192 55.14 154.099C55.1394 154.004 55.1387 153.908 55.1381 153.81C55.1364 153.549 55.1366 153.288 55.1373 153.027C55.1376 152.809 55.1371 152.591 55.1365 152.373C55.1353 151.858 55.1355 151.344 55.1368 150.83C55.1381 150.299 55.1369 149.769 55.1344 149.238C55.1324 148.782 55.1319 148.327 55.1325 147.871C55.1329 147.599 55.1327 147.327 55.1312 147.055C55.1295 146.752 55.1309 146.448 55.1327 146.145C55.1318 146.055 55.1309 145.965 55.13 145.872C55.137 145.265 55.137 145.265 55.359 145.008C55.5836 144.9 55.7297 144.877 55.9778 144.884Z" fill="white"/>
<path fill-rule="evenodd" clip-rule="evenodd" d="M128.917 163.824L128.735 163.823C128.418 163.813 128.182 163.816 127.908 163.996C127.822 164.116 127.77 164.189 127.738 164.27C127.689 164.394 127.688 164.536 127.684 164.897L127.686 165.165C127.685 165.464 127.683 165.762 127.685 166.06C127.686 166.328 127.686 166.596 127.686 166.863C127.685 167.311 127.686 167.759 127.688 168.208C127.69 168.729 127.692 169.251 127.69 169.773C127.689 170.279 127.689 170.785 127.69 171.291C127.691 171.505 127.691 171.72 127.691 171.934C127.69 172.191 127.69 172.448 127.692 172.704L127.694 172.988L127.692 173.257L127.695 173.503C127.695 173.616 127.696 173.669 127.701 173.722C127.706 173.769 127.716 173.815 127.734 173.904C127.905 174.116 127.979 174.196 128.25 174.243L128.484 174.239C128.738 174.238 128.909 174.22 129.142 174.116C129.237 174.043 129.281 174.009 129.308 173.965C129.332 173.926 129.344 173.879 129.365 173.792L129.362 173.565L129.362 173.309L129.356 173.032C129.355 172.74 129.352 172.448 129.348 172.156C129.344 171.902 129.341 171.648 129.339 171.393C129.335 170.899 129.329 170.405 129.322 169.91L129.319 169.751L129.526 169.765L129.796 169.784C130.059 169.803 130.277 169.819 130.527 169.902C131.005 170.45 131.248 170.729 131.423 171.046C131.603 171.374 131.711 171.742 131.929 172.493C131.993 172.678 132.057 172.863 132.122 173.048L132.184 173.223C132.287 173.526 132.386 173.785 132.565 174.052C132.635 174.123 132.673 174.161 132.718 174.186C132.77 174.215 132.833 174.226 132.967 174.251L133.245 174.243L133.524 174.241C133.789 174.204 133.906 174.187 134.076 173.979C134.102 173.638 134.066 173.362 133.951 173.04L133.896 172.894L133.779 172.574C133.718 172.41 133.657 172.245 133.597 172.08C133.554 171.963 133.512 171.843 133.469 171.721C133.213 170.994 132.939 170.214 132.48 169.617C132.352 169.465 132.269 169.328 132.188 169.147C132.391 169.035 132.566 168.921 132.741 168.768C133.279 168.204 133.531 167.646 133.567 166.864C133.586 165.975 133.433 165.287 132.816 164.615C131.941 163.872 130.958 163.849 129.871 163.837C129.743 163.837 129.616 163.835 129.489 163.834L129.488 163.834C129.297 163.83 129.107 163.826 128.917 163.824ZM130.074 165.354L129.319 165.372V168.317C129.469 168.317 129.611 168.32 129.746 168.323C130.459 168.34 130.994 168.352 131.584 167.864C131.798 167.597 131.879 167.35 131.907 167.01C131.913 166.456 131.904 166.091 131.509 165.674C131.123 165.405 130.774 165.34 130.308 165.345L130.074 165.354Z" fill="white"/>
<path fill-rule="evenodd" clip-rule="evenodd" d="M80.296 163.824L80.1146 163.823C79.7974 163.813 79.5611 163.816 79.2868 163.996C79.2012 164.116 79.1493 164.189 79.1175 164.27C79.0687 164.394 79.067 164.536 79.0628 164.897L79.0654 165.165C79.0637 165.464 79.0623 165.762 79.0639 166.06C79.0655 166.328 79.0657 166.596 79.0653 166.863C79.0647 167.311 79.0652 167.759 79.0672 168.208C79.0697 168.729 79.0708 169.251 79.0696 169.773C79.0683 170.279 79.068 170.785 79.0693 171.291C79.0699 171.505 79.0704 171.72 79.07 171.934C79.0694 172.191 79.0694 172.448 79.0708 172.704L79.0728 172.988L79.0713 173.257L79.0742 173.503C79.0746 173.616 79.0747 173.669 79.0804 173.722C79.0855 173.769 79.095 173.815 79.1131 173.904C79.284 174.116 79.3586 174.196 79.6295 174.243L79.8634 174.239C80.1177 174.238 80.2884 174.22 80.5212 174.116C80.6158 174.043 80.6599 174.009 80.6874 173.965C80.7115 173.926 80.7228 173.879 80.7439 173.792L80.7414 173.565L80.7413 173.309L80.7354 173.032C80.7337 172.74 80.7316 172.448 80.727 172.156C80.7227 171.902 80.7201 171.648 80.7181 171.393C80.7144 170.899 80.7087 170.405 80.7011 169.91L80.6985 169.751L80.9053 169.765L81.1751 169.784C81.4381 169.803 81.6562 169.819 81.9065 169.902C82.3842 170.45 82.6273 170.729 82.8018 171.046C82.9826 171.374 83.0898 171.742 83.3079 172.493C83.3719 172.678 83.436 172.863 83.501 173.048L83.563 173.223C83.6657 173.526 83.7652 173.785 83.9438 174.052C84.0143 174.123 84.0521 174.161 84.0973 174.186C84.1496 174.215 84.2118 174.226 84.346 174.251L84.6244 174.243L84.9028 174.241C85.1681 174.204 85.2849 174.187 85.4549 173.979C85.4815 173.638 85.445 173.362 85.3303 173.04L85.2753 172.894L85.1587 172.574C85.0972 172.41 85.0358 172.245 84.9759 172.08C84.9334 171.963 84.8911 171.843 84.8484 171.721C84.5922 170.994 84.3178 170.214 83.8596 169.617C83.7314 169.465 83.6479 169.328 83.5675 169.147C83.77 169.035 83.9452 168.921 84.1198 168.768C84.6586 168.204 84.9105 167.646 84.9465 166.864C84.9648 165.975 84.812 165.287 84.195 164.615C83.3199 163.872 82.3371 163.849 81.2497 163.837C81.1226 163.837 80.9955 163.835 80.8684 163.834L80.8669 163.834C80.6766 163.83 80.4864 163.826 80.296 163.824ZM81.4535 165.354L80.6985 165.372V168.317C80.8482 168.317 80.9899 168.32 81.1252 168.323C81.8384 168.34 82.3729 168.352 82.9634 167.864C83.1768 167.597 83.2578 167.35 83.2864 167.01C83.2919 166.456 83.2837 166.091 82.8879 165.674C82.5019 165.405 82.1528 165.34 81.6876 165.345L81.4535 165.354Z" fill="white"/>
<path fill-rule="evenodd" clip-rule="evenodd" d="M127.029 144.95L126.848 144.949C126.531 144.939 126.294 144.942 126.02 145.122C125.934 145.242 125.883 145.315 125.851 145.395C125.802 145.519 125.8 145.662 125.796 146.022L125.799 146.291C125.797 146.589 125.796 146.887 125.797 147.186C125.799 147.453 125.799 147.721 125.799 147.989C125.798 148.437 125.799 148.885 125.801 149.333C125.803 149.855 125.804 150.377 125.803 150.898C125.802 151.404 125.801 151.91 125.803 152.416C125.803 152.631 125.804 152.845 125.803 153.06C125.803 153.316 125.803 153.573 125.804 153.83L125.806 154.114L125.805 154.383L125.808 154.629C125.808 154.741 125.808 154.795 125.814 154.847C125.819 154.894 125.828 154.941 125.846 155.029C126.017 155.241 126.092 155.321 126.363 155.369L126.597 155.364C126.851 155.364 127.022 155.346 127.254 155.242C127.349 155.169 127.393 155.135 127.421 155.09C127.445 155.051 127.456 155.005 127.477 154.917L127.475 154.691L127.475 154.434L127.469 154.158C127.467 153.866 127.465 153.573 127.46 153.281C127.456 153.027 127.453 152.773 127.451 152.519C127.448 152.025 127.442 151.53 127.434 151.036L127.432 150.877L127.639 150.891L127.908 150.91C128.171 150.928 128.39 150.944 128.64 151.028C129.118 151.576 129.361 151.855 129.535 152.171C129.716 152.499 129.823 152.868 130.041 153.618C130.105 153.803 130.169 153.988 130.234 154.173L130.296 154.349C130.399 154.651 130.499 154.911 130.677 155.178C130.748 155.249 130.785 155.287 130.831 155.312C130.883 155.341 130.945 155.352 131.079 155.376L131.358 155.369L131.636 155.367C131.901 155.329 132.018 155.312 132.188 155.105C132.215 154.764 132.178 154.488 132.064 154.166L132.009 154.019L131.892 153.699C131.831 153.535 131.769 153.371 131.709 153.206C131.667 153.088 131.624 152.968 131.582 152.847C131.326 152.119 131.051 151.34 130.593 150.743C130.465 150.59 130.381 150.454 130.301 150.273C130.503 150.161 130.679 150.046 130.853 149.894C131.392 149.33 131.644 148.772 131.68 147.989C131.698 147.101 131.545 146.413 130.928 145.74C130.053 144.998 129.07 144.975 127.983 144.963C127.856 144.962 127.729 144.961 127.602 144.96L127.6 144.96C127.41 144.955 127.22 144.951 127.029 144.95ZM128.187 146.479L127.432 146.498V149.442C127.582 149.442 127.723 149.446 127.859 149.449C128.572 149.465 129.106 149.477 129.697 148.989C129.91 148.723 129.991 148.476 130.02 148.136C130.025 147.582 130.017 147.216 129.621 146.8C129.235 146.531 128.886 146.465 128.421 146.471L128.187 146.479Z" fill="white"/>
<path fill-rule="evenodd" clip-rule="evenodd" d="M141.618 165.365C141.469 164.817 141.297 164.188 140.913 163.853C140.464 163.743 139.942 163.698 139.496 163.84C139.388 163.918 139.319 163.968 139.265 164.032C139.169 164.146 139.124 164.304 138.999 164.748C138.968 164.86 138.937 164.971 138.906 165.083L138.855 165.258C138.743 165.65 138.615 166.035 138.485 166.422C138.394 166.692 138.303 166.963 138.213 167.234C138.076 167.642 137.94 168.051 137.803 168.459C137.599 169.066 137.396 169.674 137.194 170.281L137.169 170.356C137.081 170.62 136.994 170.883 136.906 171.146C136.812 171.425 136.718 171.703 136.625 171.983L136.521 172.298C136.506 172.342 136.491 172.385 136.476 172.428C136.292 172.967 136.118 173.474 136.19 174.055C136.312 174.137 136.369 174.174 136.431 174.195C136.483 174.212 136.539 174.218 136.642 174.228L136.902 174.229C137.037 174.231 137.102 174.232 137.166 174.229C137.226 174.226 137.285 174.219 137.398 174.206C137.7 173.979 137.7 173.979 138.002 173.224L138.455 171.639H141.852L142.215 172.795L142.328 173.159L142.42 173.445C142.423 173.455 142.426 173.465 142.429 173.474C142.5 173.708 142.567 173.926 142.716 174.124C142.771 174.163 142.807 174.188 142.847 174.204C142.92 174.233 143.004 174.233 143.245 174.233L143.4 174.229C143.408 174.229 143.416 174.229 143.424 174.229C143.726 174.231 143.926 174.232 144.192 174.055C144.277 173.652 144.176 173.247 144.05 172.863L143.988 172.683C143.923 172.484 143.857 172.286 143.79 172.088C143.721 171.886 143.654 171.684 143.586 171.482L143.455 171.088C143.347 170.769 143.24 170.451 143.141 170.129C142.982 169.611 142.82 169.095 142.652 168.58L142.309 167.531C142.223 167.267 142.136 167.003 142.05 166.739C141.982 166.531 141.914 166.323 141.846 166.115L141.748 165.815C141.704 165.678 141.662 165.525 141.618 165.365ZM140.416 166.731C140.351 166.502 140.294 166.306 140.116 166.127C140.088 166.155 140.07 166.173 140.056 166.193C140.032 166.227 140.018 166.269 139.98 166.382C139.855 166.801 139.728 167.219 139.595 167.636C139.546 167.792 139.496 167.948 139.447 168.104L139.346 168.421C139.295 168.581 139.244 168.741 139.193 168.902L139.145 169.055C139.027 169.424 138.963 169.738 138.908 170.129H141.399C141.399 169.902 141.352 169.729 141.284 169.514C141.25 169.409 141.216 169.303 141.182 169.198L141.129 169.031C141.061 168.817 140.993 168.603 140.926 168.389L140.833 168.09L140.821 168.051C140.744 167.807 140.667 167.563 140.593 167.318L140.542 167.147L140.441 166.816C140.432 166.787 140.424 166.759 140.416 166.731Z" fill="white"/>
<path fill-rule="evenodd" clip-rule="evenodd" d="M148.111 146.491C147.961 145.942 147.79 145.314 147.406 144.979C146.957 144.868 146.435 144.823 145.988 144.966C145.881 145.044 145.811 145.094 145.758 145.157C145.662 145.272 145.617 145.43 145.492 145.873C145.461 145.985 145.43 146.097 145.398 146.208L145.348 146.384C145.236 146.775 145.108 147.161 144.978 147.547C144.887 147.817 144.796 148.088 144.706 148.359C144.569 148.768 144.433 149.176 144.296 149.585C144.092 150.192 143.888 150.799 143.686 151.407L143.661 151.482C143.574 151.745 143.487 152.008 143.398 152.271C143.304 152.55 143.211 152.829 143.118 153.108L143.014 153.423C142.999 153.467 142.984 153.511 142.969 153.554C142.785 154.092 142.611 154.6 142.682 155.18C142.805 155.262 142.861 155.3 142.923 155.32C142.975 155.338 143.032 155.344 143.135 155.354L143.395 155.355C143.53 155.357 143.595 155.358 143.659 155.354C143.718 155.351 143.777 155.344 143.89 155.331C144.192 155.105 144.192 155.105 144.494 154.35L144.947 152.764H148.345L148.708 153.92L148.821 154.284L148.912 154.571C148.915 154.58 148.918 154.59 148.921 154.6C148.993 154.833 149.059 155.051 149.208 155.25C149.264 155.288 149.3 155.313 149.34 155.329C149.412 155.359 149.497 155.359 149.738 155.359L149.892 155.355C149.9 155.355 149.908 155.355 149.916 155.355C150.218 155.357 150.419 155.358 150.685 155.18C150.77 154.777 150.668 154.372 150.543 153.989L150.481 153.808C150.415 153.61 150.35 153.411 150.282 153.213C150.214 153.012 150.146 152.81 150.079 152.607L149.948 152.213C149.84 151.895 149.733 151.576 149.634 151.255C149.475 150.737 149.313 150.22 149.145 149.705L148.802 148.657C148.715 148.393 148.629 148.129 148.543 147.865C148.475 147.656 148.407 147.448 148.339 147.24L148.241 146.941C148.196 146.804 148.155 146.651 148.111 146.491ZM146.909 147.856C146.843 147.628 146.787 147.432 146.608 147.253C146.58 147.281 146.563 147.298 146.549 147.318C146.525 147.353 146.511 147.394 146.473 147.507C146.348 147.926 146.221 148.344 146.088 148.761C146.038 148.917 145.989 149.073 145.94 149.229L145.839 149.546C145.788 149.706 145.737 149.867 145.686 150.027L145.638 150.18C145.52 150.55 145.456 150.864 145.4 151.254H147.892C147.892 151.028 147.845 150.854 147.777 150.64C147.743 150.534 147.709 150.429 147.675 150.323L147.622 150.156C147.553 149.943 147.485 149.728 147.418 149.514L147.326 149.216L147.313 149.177C147.237 148.933 147.16 148.689 147.086 148.444L147.034 148.273L146.934 147.942C146.925 147.913 146.917 147.884 146.909 147.856Z" fill="white"/>
<path d="M139.129 141.945C139.206 141.943 139.283 141.942 139.363 141.941C139.615 141.972 139.758 142.05 139.964 142.195C139.94 142.62 139.765 142.816 139.464 143.091C139.381 143.17 139.298 143.25 139.215 143.329C139.175 143.367 139.135 143.406 139.094 143.445C138.95 143.586 138.82 143.735 138.69 143.889C138.448 144.173 138.189 144.441 137.851 144.611C137.712 144.62 137.574 144.624 137.435 144.625C137.361 144.626 137.287 144.627 137.211 144.628C137.02 144.611 137.02 144.611 136.869 144.46C136.825 144.227 136.829 144.073 136.953 143.867C137.073 143.712 137.198 143.564 137.327 143.417C137.417 143.31 137.508 143.203 137.598 143.096C137.642 143.045 137.685 142.994 137.73 142.941C137.92 142.715 138.095 142.479 138.268 142.24C138.519 141.966 138.77 141.946 139.129 141.945Z" fill="white"/>
<path d="M51.0552 6.48279C51.2174 6.72612 51.2304 6.91773 51.2518 7.20004C51.2561 7.25028 51.2604 7.30051 51.2648 7.35228C51.2784 7.5133 51.2911 7.67438 51.3039 7.83547C51.3127 7.9412 51.3215 8.04692 51.3305 8.15264C51.3813 8.75939 51.4281 9.36645 51.4741 9.97358C51.451 9.97358 51.428 9.97358 51.4042 9.97358C51.1997 9.41449 51.1852 8.88627 51.1948 8.298C51.1487 8.298 51.1026 8.298 51.0552 8.298C51.0552 8.43624 51.0552 8.57447 51.0552 8.7169C50.986 8.75146 50.986 8.75146 50.9155 8.78671C50.9254 8.53362 50.9357 8.28054 50.9461 8.02746C50.9488 7.95673 50.9516 7.88599 50.9544 7.81311C50.973 7.36754 51.0051 6.92594 51.0552 6.48279Z" fill="#DB3542"/>
<path d="M16.566 43.206C16.566 43.229 16.566 43.2521 16.566 43.2758C16.4048 43.2989 16.2435 43.3219 16.0773 43.3456C16.0773 43.3687 16.0773 43.3917 16.0773 43.4155C16.2617 43.4385 16.446 43.4615 16.6359 43.4853C16.6359 43.5313 16.6359 43.5774 16.6359 43.6249C16.5026 43.6186 16.5026 43.6186 16.3667 43.6121C16.2786 43.6079 16.2786 43.6079 16.1888 43.6036C16.0582 43.5974 15.9275 43.5911 15.7969 43.5847C15.4483 43.5677 15.0997 43.5522 14.7508 43.5398C14.651 43.536 14.651 43.536 14.5491 43.532C14.4204 43.5271 14.2917 43.5227 14.1629 43.5188C14.1047 43.5165 14.0464 43.5141 13.9864 43.5117C13.9094 43.5091 13.9094 43.5091 13.8308 43.5064C13.7036 43.4853 13.7036 43.4853 13.564 43.3456C13.6111 43.3439 13.6582 43.3421 13.7067 43.3403C13.9238 43.3321 14.141 43.3236 14.3581 43.3151C14.4322 43.3123 14.5063 43.3096 14.5826 43.3068C14.9873 43.2906 15.3878 43.2639 15.7905 43.2205C16.0499 43.195 16.3057 43.2018 16.566 43.206Z" fill="#DD404D"/>
<path d="M51.1945 8.29803C51.2406 8.29803 51.2867 8.29803 51.3342 8.29803C51.3578 8.48563 51.381 8.67325 51.404 8.86093C51.4106 8.91344 51.4173 8.96595 51.4242 9.02006C51.463 9.34068 51.4807 9.65066 51.4738 9.97362C51.4508 9.97362 51.4277 9.97362 51.404 9.97362C51.1994 9.41452 51.185 8.88631 51.1945 8.29803Z" fill="#DF4B57"/>
<path d="M127.922 76.3685C127.991 76.4031 127.991 76.4031 128.062 76.4383C128.134 76.7901 128.138 77.1286 128.132 77.4856C128.086 77.4625 128.04 77.4395 127.992 77.4158C127.906 77.0694 127.915 76.7229 127.922 76.3685Z" fill="#F18C48"/>
<path d="M89.8028 45.5797C89.8259 45.5797 89.8489 45.5797 89.8727 45.5797C89.8855 46.4643 89.8855 46.4643 89.8028 46.8364C89.6632 46.6968 89.6632 46.6968 89.6458 46.5222C89.6687 46.2011 89.7334 45.8936 89.8028 45.5797Z" fill="#D4C7BE"/>
<path d="M127.434 73.7156C127.48 73.7156 127.526 73.7156 127.573 73.7156C127.597 73.9229 127.62 74.1303 127.643 74.3439C127.597 74.3439 127.551 74.3439 127.504 74.3439C127.481 74.1366 127.458 73.9292 127.434 73.7156Z" fill="#F18F4D"/>
</svg>
