<svg width="159" height="170" viewBox="0 0 159 170" fill="none" xmlns="http://www.w3.org/2000/svg">
<path d="M117.174 4.79046C117.395 4.79016 117.616 4.78919 117.837 4.7876C119.196 4.77801 120.521 4.81997 121.871 4.98961C122.163 5.02597 122.456 5.05819 122.749 5.09039C123.68 5.19672 124.594 5.37498 125.51 5.57521C125.589 5.59244 125.667 5.60968 125.749 5.62743C126.587 5.81249 127.417 6.00239 128.233 6.27337C128.372 6.31578 128.512 6.35795 128.651 6.39991C129.687 6.71929 130.714 7.06588 131.723 7.46024C131.81 7.4939 131.81 7.4939 131.898 7.52825C132.084 7.60114 132.27 7.67457 132.456 7.74823C132.514 7.7709 132.572 7.79358 132.631 7.81694C132.99 7.96037 133.335 8.12101 133.678 8.29803C133.796 8.35621 133.796 8.35621 133.916 8.41557C134.151 8.53225 134.386 8.64987 134.62 8.76816C134.742 8.82993 134.865 8.89148 134.988 8.95286C137.206 10.0659 139.317 11.4052 141.252 12.9609C141.348 13.0372 141.443 13.1127 141.539 13.1881C142.247 13.7461 142.927 14.3369 143.588 14.9489C143.771 15.1184 143.956 15.2844 144.146 15.4454C144.345 15.6141 144.533 15.7853 144.709 15.9778C144.709 16.0239 144.709 16.0699 144.709 16.1174C144.755 16.1174 144.801 16.1174 144.849 16.1174C144.945 16.215 144.945 16.215 145.058 16.353C145.258 16.5885 145.467 16.8084 145.687 17.025C145.929 17.265 146.161 17.5077 146.383 17.7668C146.498 17.9016 146.614 18.0352 146.732 18.1683C147.185 18.6846 147.623 19.2076 148.034 19.7589C148.102 19.8503 148.171 19.9414 148.239 20.0324C149.102 21.1778 149.914 22.357 150.637 23.5966C150.719 23.7377 150.803 23.8782 150.887 24.0186C152.702 27.063 154 30.3589 154.902 33.7808C154.919 33.8436 154.935 33.9064 154.953 33.9711C155.117 34.5986 155.271 35.2183 155.356 35.8624C155.389 36.0742 155.436 36.2763 155.488 36.484C155.615 37.0244 155.691 37.5678 155.762 38.1176C155.783 38.2865 155.806 38.4552 155.83 38.6239C156.034 40.1583 156.036 41.6968 156.04 43.2423C156.041 43.4691 156.042 43.6958 156.044 43.9226C156.056 45.1775 156.029 46.4152 155.891 47.6636C155.886 47.7157 155.88 47.7679 155.874 47.8217C155.8 48.4811 155.698 49.1332 155.577 49.7857C155.535 50.0254 155.498 50.2649 155.465 50.5061C155.408 50.8887 155.32 51.2604 155.223 51.6344C155.147 51.9274 155.079 52.2208 155.017 52.5172C154.858 53.2758 154.634 54.0107 154.402 54.7496C154.345 54.9302 154.291 55.1113 154.237 55.2926C153.81 56.7209 153.81 56.7209 153.505 57.3661C153.418 57.5578 153.345 57.7533 153.27 57.9502C152.952 58.7846 152.586 59.5843 152.181 60.3791C152.111 60.5173 152.043 60.6561 151.974 60.7952C151.046 62.6874 149.93 64.4732 148.689 66.1754C148.657 66.2194 148.625 66.2633 148.592 66.3085C147.89 67.2666 147.151 68.1965 146.341 69.0665C146.209 69.2105 146.081 69.3563 145.953 69.5044C145.7 69.7945 145.434 70.0697 145.162 70.3423C145.113 70.3911 145.065 70.44 145.015 70.4903C144.912 70.5929 144.81 70.6954 144.708 70.7978C144.553 70.9524 144.399 71.1076 144.245 71.2628C143.772 71.7376 143.302 72.1997 142.773 72.6123C142.605 72.7459 142.448 72.8881 142.292 73.0348C141.848 73.4377 141.371 73.7941 140.892 74.1528C140.784 74.2335 140.676 74.3144 140.569 74.3956C139.357 75.311 138.091 76.1252 136.782 76.8954C136.612 76.9962 136.442 77.0982 136.272 77.2003C135.637 77.579 134.998 77.9062 134.319 78.1963C134.062 78.3061 133.816 78.4295 133.569 78.559C132.839 78.931 132.068 79.2138 131.304 79.5103C131.23 79.5393 131.156 79.5684 131.08 79.5983C129.74 80.1201 128.37 80.5546 126.976 80.9066C126.916 80.9217 126.857 80.9367 126.796 80.9523C126.368 81.0597 125.94 81.1596 125.51 81.2557C125.445 81.2703 125.38 81.285 125.313 81.3001C124.091 81.572 122.863 81.7406 121.619 81.8675C121.511 81.8788 121.402 81.8905 121.294 81.9027C120.09 82.0369 118.889 82.0476 117.679 82.0457C117.458 82.0453 117.237 82.0458 117.016 82.0471C114.303 82.0626 111.688 81.7508 109.033 81.1858C108.955 81.1692 108.955 81.1692 108.874 81.1521C108.53 81.0778 108.188 80.9945 107.846 80.9066C107.776 80.8883 107.705 80.8701 107.632 80.8513C103.937 79.8889 100.362 78.3884 97.1349 76.3424C96.9612 76.2328 96.7866 76.1245 96.6117 76.0167C95.4864 75.3203 94.4243 74.5459 93.3944 73.7155C93.3287 73.6626 93.263 73.6097 93.1954 73.5552C93.0048 73.4003 92.8154 73.2441 92.6265 73.0872C92.5213 73.0004 92.5213 73.0004 92.414 72.9118C91.4959 72.1488 90.6438 71.3202 89.7989 70.4778C89.7627 70.4418 89.7265 70.4058 89.6892 70.3687C89.2798 69.9609 88.883 69.5471 88.5073 69.1077C88.4087 68.9998 88.3098 68.8922 88.2106 68.7848C87.8519 68.3876 87.5262 67.9672 87.1987 67.5443C87.0816 67.3945 86.961 67.2476 86.8405 67.1005C85.1887 65.0391 83.7238 62.7077 82.6345 60.3036C82.5355 60.0906 82.4273 59.8827 82.3199 59.6738C82.1089 59.2556 81.9315 58.831 81.7625 58.3948C81.6791 58.1817 81.5907 57.9723 81.4996 57.7626C81.0387 56.6659 80.6824 55.5155 80.3315 54.3793C80.3174 54.3337 80.3032 54.2882 80.2887 54.2413C80.2743 54.1949 80.26 54.1486 80.2452 54.1008C80.2142 54.0042 80.1817 53.908 80.148 53.8123C79.9957 53.379 79.9003 52.9416 79.8109 52.4915C79.7817 52.3475 79.7526 52.2035 79.7233 52.0595C79.7094 51.9903 79.6954 51.9212 79.6811 51.8499C79.6453 51.6759 79.6076 51.5027 79.5684 51.3295C79.3556 50.3816 79.2052 49.4217 79.0735 48.4596C79.0624 48.381 79.0513 48.3024 79.0399 48.2214C78.8334 46.6637 78.7782 45.1063 78.7809 43.5372C78.7812 43.3346 78.7807 43.132 78.7794 42.9294C78.7685 41.1617 78.8333 39.395 79.1746 37.6551C79.2196 37.4228 79.2528 37.192 79.2829 36.9575C79.4689 35.6252 79.7837 34.3116 80.1294 33.0129C80.1493 32.9375 80.1493 32.9375 80.1696 32.8607C80.5742 31.351 81.1026 29.8338 81.7352 28.405C81.7625 28.3425 81.7897 28.2799 81.8178 28.2155C82.1243 27.5273 82.456 26.8498 82.7824 26.1709C82.8191 26.0944 82.8559 26.0179 82.8937 25.9391C83.4586 24.7864 84.1057 23.6845 84.8071 22.6103C84.8455 22.5512 84.884 22.492 84.9236 22.4311C85.7697 21.1328 86.6754 19.8895 87.6695 18.7006C87.721 18.6387 87.721 18.6387 87.7736 18.5756C88.5872 17.6009 89.4651 16.6893 90.3595 15.789C90.4384 15.7095 90.5172 15.6299 90.5959 15.5503C91.0348 15.1063 91.4777 14.6863 91.9682 14.299C92.1434 14.1581 92.3087 14.0097 92.4737 13.8571C92.9012 13.4687 93.355 13.1171 93.8133 12.7662C93.8578 12.7321 93.9023 12.698 93.9482 12.6628C95.801 11.2455 97.787 9.9316 99.8925 8.92167C100.084 8.82908 100.273 8.73308 100.463 8.63726C101.81 7.95699 103.204 7.38432 104.635 6.90171C104.706 6.87758 104.776 6.85345 104.849 6.82859C106.205 6.36596 107.545 5.9591 108.949 5.67661C109.297 5.60511 109.644 5.52651 109.99 5.44294C110.78 5.25727 111.58 5.14587 112.384 5.0385C112.468 5.02715 112.468 5.02715 112.553 5.01556C114.091 4.80722 115.624 4.7923 117.174 4.79046Z" fill="#EF8035"/>
<path d="M40.0551 6.48279C40.2211 6.73179 40.224 6.87389 40.2468 7.17058C40.2507 7.21825 40.2546 7.26592 40.2586 7.31504C40.2669 7.41761 40.275 7.5202 40.2828 7.6228C40.3036 7.89326 40.3265 8.16353 40.3494 8.43382C40.3562 8.51497 40.3562 8.51497 40.3631 8.59777C40.4793 9.96308 40.6228 11.3533 40.9761 12.6803C41.0336 12.9101 41.0819 13.1404 41.1289 13.3725C41.3457 14.4417 41.6538 15.4768 41.975 16.5188C42.0135 16.644 42.0135 16.644 42.0528 16.7717C42.2967 17.5552 42.5524 18.3279 42.901 19.0716C42.9901 19.265 43.0721 19.4604 43.1526 19.6575C44.3901 22.6788 46.019 25.5388 48.0141 28.1257C48.0584 28.1832 48.0584 28.1832 48.1035 28.2418C48.7124 29.0306 49.3468 29.7956 50.0181 30.5322C50.1177 30.642 50.2167 30.7522 50.3149 30.8633C50.7175 31.3179 51.1392 31.7502 51.5692 32.1786C51.6842 32.2932 51.7988 32.4082 51.9133 32.5232C52.3004 32.9106 52.6928 33.2869 53.1107 33.6412C53.1939 33.7141 53.277 33.7872 53.3599 33.8604C53.8979 34.332 54.4446 34.7876 55.0126 35.2225C55.1328 35.3148 55.252 35.4082 55.3712 35.5017C56.7892 36.601 58.3221 37.5765 59.8828 38.4585C59.942 38.4922 60.0011 38.5259 60.062 38.5606C61.1842 39.1981 62.3321 39.7534 63.5291 40.2355C63.7454 40.3231 63.9568 40.4181 64.1678 40.518C65.3916 41.0835 66.7068 41.4647 67.9946 41.8533C68.0393 41.8668 68.0841 41.8804 68.1303 41.8944C68.9215 42.1335 69.7138 42.3458 70.5254 42.5034C70.5845 42.515 70.6436 42.5265 70.7044 42.5384C70.8284 42.5626 70.9523 42.5867 71.0763 42.6108C71.2602 42.6469 71.4437 42.6845 71.6272 42.7224C72.3103 42.8612 72.9854 42.9655 73.6809 43.0186C73.9703 43.0413 74.2477 43.0751 74.5319 43.1351C75.1491 43.2529 75.7811 43.2574 76.4074 43.2845C76.5384 43.2905 76.6695 43.2966 76.8005 43.3028C77.1189 43.3176 77.4373 43.3318 77.7557 43.3456C77.7557 43.3917 77.7557 43.4377 77.7557 43.4852C77.7058 43.4859 77.6559 43.4865 77.6044 43.4872C75.4444 43.522 73.3077 43.733 71.193 44.1834C71.1046 44.202 71.0162 44.2207 70.9252 44.2399C69.8642 44.4651 68.8155 44.7146 67.7816 45.0446C67.6408 45.0884 67.4997 45.1288 67.3575 45.1676C65.7416 45.6113 64.1856 46.2519 62.6667 46.9532C62.4912 47.0342 62.3151 47.1141 62.1388 47.1934C60.4038 47.9814 58.7246 48.9616 57.16 50.0479C57.1137 50.0798 57.0675 50.1117 57.0198 50.1446C55.9858 50.8589 54.9802 51.6125 54.0183 52.4217C53.9812 52.4528 53.9441 52.484 53.9058 52.5162C53.783 52.6196 53.6606 52.7234 53.5383 52.8275C53.5022 52.858 53.4662 52.8885 53.429 52.9199C52.6835 53.5583 51.9787 54.2402 51.2863 54.9351C51.1634 55.0584 51.0402 55.1812 50.9169 55.304C50.5162 55.7045 50.1248 56.1073 49.7595 56.5408C49.6916 56.6189 49.6236 56.6969 49.5555 56.7748C47.3667 59.3014 45.43 62.1492 44.034 65.1903C43.9323 65.4068 43.8218 65.6183 43.7117 65.8307C43.499 66.2511 43.3273 66.6808 43.1608 67.121C43.0544 67.4019 42.943 67.6759 42.8128 67.947C42.544 68.5242 42.3512 69.1329 42.1496 69.736C42.1285 69.799 42.1074 69.8621 42.0856 69.927C41.8027 70.7783 41.5562 71.6328 41.3502 72.5059C41.3136 72.6608 41.276 72.8155 41.2382 72.9702C41.0546 73.7262 40.8977 74.487 40.7533 75.2515C40.7436 75.3019 40.734 75.3523 40.7241 75.4042C40.546 76.3507 40.4531 77.3057 40.3562 78.2633C40.34 78.4116 40.3192 78.5594 40.2959 78.7068C40.2456 79.0997 40.2385 79.4942 40.2253 79.8899C40.2223 79.9742 40.2193 80.0586 40.2161 80.1455C40.2088 80.3527 40.2017 80.5598 40.1947 80.7669C40.1487 80.7669 40.1026 80.7669 40.0551 80.7669C40.0523 80.7092 40.0496 80.6515 40.0467 80.592C39.9727 79.1045 39.8417 77.6342 39.6362 76.1591C39.626 76.0848 39.6157 76.0104 39.6052 75.9339C39.4771 75.0293 39.2864 74.1418 39.0777 73.253C39.066 73.2031 39.0543 73.1533 39.0422 73.1019C38.8043 72.0942 38.5183 71.1057 38.1892 70.1241C38.1395 69.976 38.0904 69.8277 38.0412 69.6794C37.8438 69.0867 37.6307 68.5024 37.4021 67.9208C37.3439 67.7666 37.2857 67.6124 37.2276 67.4583C37.0962 67.1168 36.9533 66.7839 36.7986 66.4525C36.7109 66.2604 36.6292 66.0664 36.5479 65.8716C36.2423 65.1472 35.8643 64.4654 35.4815 63.7795C35.3736 63.5853 35.2672 63.3903 35.1612 63.1951C34.0763 61.2042 32.7816 59.3272 31.3281 57.588C31.2937 57.5467 31.2593 57.5054 31.2239 57.4628C30.8553 57.0207 30.4803 56.5851 30.0926 56.1595C29.9913 56.0479 29.8905 55.9357 29.7904 55.823C29.3966 55.3797 28.9862 54.9563 28.566 54.538C28.5036 54.4753 28.4412 54.4126 28.3769 54.348C28.0221 53.9937 27.6594 53.6554 27.2788 53.3293C27.1666 53.2277 27.0545 53.1259 26.9428 53.0238C26.5765 52.6934 26.1968 52.3819 25.8127 52.0726C25.7608 52.0299 25.709 51.9873 25.6556 51.9433C22.9832 49.7627 19.9656 47.9986 16.8064 46.6269C16.7325 46.5945 16.6586 46.5621 16.5824 46.5287C15.6912 46.1389 14.8103 45.7759 13.8741 45.5099C13.6062 45.425 13.3401 45.3361 13.0772 45.2368C12.6186 45.0638 12.16 44.9305 11.6837 44.8161C11.6115 44.7984 11.5393 44.7808 11.465 44.7625C11.2442 44.7087 11.0232 44.6554 10.8022 44.6023C10.6688 44.5699 10.5353 44.5376 10.4019 44.5052C10.0986 44.4319 9.79493 44.3601 9.49101 44.2894C9.35852 44.2584 9.22621 44.2267 9.09393 44.1948C7.15787 43.7492 5.10551 43.5569 3.11994 43.5116C2.71802 43.4996 2.71802 43.4996 2.56396 43.3456C2.60668 43.3442 2.64939 43.3428 2.6934 43.3414C3.48221 43.3148 4.26931 43.2812 5.05552 43.2103C5.11457 43.2051 5.17362 43.1999 5.23446 43.1945C5.72056 43.1483 6.20101 43.0732 6.6831 42.9965C6.83517 42.9731 6.98726 42.9499 7.13936 42.9267C7.21455 42.9152 7.28975 42.9037 7.36722 42.8918C7.51939 42.8685 7.67157 42.8452 7.82375 42.822C8.85322 42.6703 8.85322 42.6703 9.86845 42.4467C10.158 42.3714 10.447 42.2981 10.7401 42.2378C12.0494 41.9685 13.3195 41.5523 14.5679 41.0779C14.8086 40.9867 15.0512 40.9055 15.2966 40.8279C15.6626 40.7082 16.005 40.5535 16.3526 40.3885C16.624 40.261 16.8979 40.1401 17.1729 40.0206C17.3072 39.9623 17.4414 39.9039 17.5755 39.8453C17.669 39.8046 17.7627 39.7641 17.8565 39.7239C20.8753 38.4127 23.7289 36.5182 26.2245 34.3832C26.4288 34.209 26.6374 34.0406 26.8468 33.8724C27.1211 33.6494 27.3745 33.417 27.6178 33.1606C27.7479 33.0322 27.8809 32.914 28.0195 32.7949C28.3716 32.4891 28.6996 32.1607 29.0286 31.8303C29.0885 31.7706 29.1485 31.7109 29.2103 31.6494C29.521 31.3382 29.8217 31.0226 30.1082 30.6889C30.2379 30.5381 30.3728 30.3925 30.5078 30.2464C30.8249 29.8949 31.1157 29.5264 31.4056 29.1525C31.5757 28.9332 31.7495 28.7172 31.9242 28.5016C32.6173 27.6451 33.2398 26.7442 33.8415 25.8218C33.873 25.7739 33.9044 25.726 33.9368 25.6767C34.8249 24.3203 35.6215 22.9021 36.2903 21.4249C36.3499 21.2945 36.412 21.1653 36.4743 21.0361C37.056 19.8291 37.5584 18.574 37.9837 17.3035C38.0328 17.1578 38.0832 17.0126 38.1338 16.8674C38.5696 15.605 38.8923 14.316 39.1778 13.0123C39.2137 12.8523 39.2518 12.6931 39.2912 12.5339C39.5355 11.531 39.6511 10.508 39.7758 9.48487C39.7875 9.39137 39.7875 9.39137 39.7993 9.29598C39.9145 8.36101 39.9841 7.42198 40.0551 6.48279Z" fill="#D92735"/>
<path d="M117.411 5.5752C117.434 5.5752 117.457 5.5752 117.481 5.5752C117.482 5.64702 117.482 5.64702 117.484 5.7203C117.529 7.64421 117.697 9.54484 118.039 11.4397C118.055 11.5262 118.07 11.6126 118.086 11.7017C118.28 12.7859 118.507 13.8501 118.828 14.9044C118.893 15.1256 118.95 15.3485 119.006 15.5721C119.182 16.2721 119.408 16.947 119.655 17.6251C119.713 17.7872 119.769 17.9498 119.825 18.1129C120.003 18.6346 120.196 19.1366 120.435 19.6344C120.555 19.8915 120.665 20.1513 120.774 20.4129C121.063 21.1014 121.384 21.7597 121.742 22.4144C121.835 22.5878 121.92 22.7646 122.006 22.9419C122.577 24.0907 123.26 25.1761 123.974 26.2407C124.007 26.2903 124.04 26.3398 124.074 26.3909C124.752 27.4069 125.493 28.3763 126.278 29.3126C126.308 29.3486 126.338 29.3845 126.369 29.4216C126.794 29.93 127.227 30.4294 127.674 30.9184C127.735 30.9862 127.797 31.0541 127.86 31.124C128.259 31.5631 128.669 31.9903 129.088 32.4107C129.133 32.4563 129.178 32.502 129.225 32.549C129.495 32.8179 129.773 33.0737 130.061 33.3226C130.218 33.458 130.371 33.5975 130.523 33.7372C130.89 34.0675 131.269 34.3791 131.654 34.6884C131.733 34.753 131.812 34.8177 131.891 34.8823C134.079 36.663 136.517 38.2228 139.061 39.4422C139.197 39.5072 139.332 39.5731 139.467 39.6391C140.05 39.9212 140.643 40.18 141.24 40.4308C141.308 40.4596 141.377 40.4884 141.447 40.518C141.857 40.6883 142.27 40.8365 142.693 40.9737C142.88 41.0368 143.061 41.1067 143.243 41.1816C143.631 41.3399 144.026 41.4692 144.425 41.5958C144.502 41.6201 144.578 41.6444 144.657 41.6694C145.604 41.967 146.555 42.2136 147.527 42.4113C147.83 42.4729 148.128 42.5413 148.427 42.6213C148.824 42.7242 149.223 42.7746 149.63 42.8244C149.83 42.8509 150.023 42.884 150.22 42.9267C150.706 43.0286 151.198 43.0814 151.691 43.1362C151.745 43.1423 151.799 43.1484 151.855 43.1547C152.892 43.2696 153.929 43.3151 154.972 43.3456C154.773 43.5446 154.629 43.5092 154.35 43.5196C154.248 43.524 154.146 43.5285 154.043 43.5329C153.989 43.5351 153.935 43.5372 153.879 43.5395C152.942 43.5777 152.011 43.6449 151.08 43.7601C150.989 43.7711 150.899 43.7822 150.805 43.7935C150.252 43.8643 149.706 43.957 149.16 44.063C148.887 44.1158 148.613 44.1651 148.34 44.2139C147.821 44.3093 147.313 44.4344 146.803 44.5669C146.665 44.6019 146.528 44.635 146.39 44.6675C145.776 44.813 145.182 44.9962 144.585 45.2006C144.343 45.2835 144.099 45.359 143.854 45.4314C143.434 45.5588 143.022 45.7053 142.61 45.8546C142.548 45.8772 142.485 45.8999 142.42 45.9232C141.944 46.0974 141.476 46.2887 141.009 46.4873C140.906 46.5311 140.906 46.5311 140.8 46.5758C139.879 46.9692 138.977 47.3827 138.099 47.8646C137.931 47.9569 137.761 48.0477 137.591 48.1384C136.775 48.577 135.99 49.0533 135.214 49.5592C135.162 49.5931 135.109 49.6271 135.055 49.662C133.275 50.818 131.597 52.1168 130.042 53.5619C129.89 53.7009 129.737 53.8357 129.581 53.9696C129.218 54.2854 128.881 54.6253 128.542 54.9656C128.479 55.0286 128.416 55.0917 128.35 55.1566C128.032 55.4758 127.722 55.7986 127.429 56.141C127.288 56.3045 127.14 56.4615 126.993 56.6194C126.662 56.9829 126.358 57.3628 126.057 57.752C125.926 57.9219 125.792 58.0894 125.656 58.2554C125.137 58.8875 124.671 59.5463 124.217 60.2261C124.126 60.362 124.033 60.497 123.94 60.6316C122.944 62.0788 122.104 63.6277 121.321 65.198C121.276 65.2875 121.276 65.2875 121.23 65.3788C119.669 68.5118 118.68 71.8902 118.039 75.3213C118.027 75.3896 118.014 75.4579 118 75.5283C117.669 77.3209 117.547 79.1563 117.481 80.9764C117.341 80.8367 117.341 80.8367 117.325 80.6805C117.325 80.6146 117.325 80.5487 117.325 80.4808C117.324 80.4046 117.323 80.3284 117.322 80.2499C117.321 80.1657 117.32 80.0814 117.319 79.9946C117.3 79.0986 117.216 78.2176 117.106 77.3285C117.098 77.2687 117.091 77.2089 117.083 77.1472C116.893 75.6096 116.597 74.1019 116.224 72.5985C116.207 72.5297 116.19 72.4608 116.173 72.3899C115.681 70.4231 114.998 68.5266 114.2 66.6641C114.172 66.5997 114.144 66.5353 114.116 66.469C113.77 65.6647 113.385 64.8857 112.967 64.1159C112.868 63.9322 112.77 63.7478 112.672 63.5633C111.372 61.1305 109.766 58.7994 107.916 56.7503C107.866 56.6946 107.816 56.639 107.764 56.5817C107.662 56.4676 107.559 56.3536 107.456 56.2397C107.367 56.1405 107.278 56.0409 107.192 55.9392C106.814 55.4946 106.401 55.0849 105.987 54.6729C105.861 54.547 105.735 54.4206 105.609 54.2943C105.203 53.8879 104.795 53.4899 104.355 53.1198C104.278 53.0527 104.201 52.9856 104.124 52.9183C101.789 50.8986 99.2214 49.1652 96.4765 47.7524C96.3343 47.6782 96.1935 47.6018 96.0531 47.5242C95.5071 47.223 94.9542 46.973 94.3751 46.742C94.1278 46.6429 93.8877 46.5327 93.6475 46.4175C92.2973 45.786 90.836 45.3581 89.4105 44.9339C89.3333 44.9109 89.2562 44.8879 89.1767 44.8643C88.1043 44.5489 87.0209 44.3247 85.9241 44.1136C85.8594 44.1009 85.7947 44.0882 85.728 44.0751C83.7905 43.6974 81.8226 43.5132 79.8501 43.4852C79.8501 43.4392 79.8501 43.3931 79.8501 43.3456C79.8965 43.345 79.9429 43.3443 79.9908 43.3436C81.9867 43.3091 83.9622 43.0851 85.9241 42.7173C85.9879 42.7054 86.0517 42.6935 86.1174 42.6812C86.7273 42.5663 87.3327 42.4461 87.9294 42.2733C88.0778 42.2315 88.2253 42.1983 88.3764 42.1675C91.7476 41.4307 95.1752 39.9318 98.1419 38.1792C98.2035 38.1429 98.2652 38.1066 98.3287 38.0691C100.186 36.9693 101.938 35.7324 103.588 34.3394C103.63 34.3036 103.673 34.2678 103.717 34.2309C104.659 33.4412 105.545 32.5975 106.415 31.73C106.48 31.6652 106.545 31.6005 106.612 31.5338C106.968 31.1769 107.31 30.8132 107.637 30.4297C107.71 30.3465 107.783 30.2634 107.856 30.1804C108.328 29.6425 108.783 29.0958 109.218 28.5278C109.31 28.4076 109.404 28.2883 109.497 28.1691C110.511 26.862 111.444 25.4535 112.245 24.0066C112.277 23.9495 112.309 23.8924 112.341 23.8336C113.084 22.5038 113.78 21.1583 114.353 19.7459C114.426 19.5667 114.503 19.389 114.579 19.2111C115.234 17.6275 115.799 16.0061 116.168 14.3314C116.214 14.1343 116.268 13.9508 116.338 13.7611C116.452 13.4415 116.494 13.1161 116.541 12.781C116.599 12.3818 116.679 11.99 116.781 11.5998C116.86 11.2844 116.91 10.9673 116.957 10.6456C116.97 10.5653 116.97 10.5653 116.982 10.4833C117.147 9.3742 117.23 8.26994 117.276 7.15042C117.284 6.95683 117.292 6.76325 117.301 6.56968C117.306 6.45065 117.311 6.33162 117.316 6.21256C117.326 5.98527 117.339 5.79222 117.411 5.5752Z" fill="#FEFEFE"/>
<path d="M42.7778 4.80725C66.6234 4.80725 90.4691 4.80725 115.037 4.80725C115.037 4.83029 115.037 4.85333 115.037 4.87707C114.917 4.88182 114.917 4.88182 114.794 4.88666C113.984 4.92192 113.187 4.99879 112.384 5.10833C112.326 5.11607 112.269 5.1238 112.209 5.13177C111.425 5.23692 110.651 5.35892 109.881 5.54144C109.653 5.59299 109.423 5.63589 109.194 5.67976C108.661 5.78209 108.14 5.89927 107.62 6.0563C107.423 6.11447 107.226 6.16864 107.027 6.21993C106.262 6.41829 105.512 6.64847 104.766 6.90609C104.64 6.94917 104.64 6.94917 104.513 6.99312C104.051 7.1543 103.599 7.329 103.15 7.51993C102.933 7.61067 102.715 7.69381 102.495 7.77591C101.883 8.00589 101.301 8.27576 100.721 8.57741C100.588 8.64555 100.455 8.71173 100.321 8.77721C97.7278 10.0471 95.26 11.6071 93.0453 13.4644C92.9173 13.5677 92.7893 13.671 92.6613 13.7742C92.3323 14.0431 92.0169 14.3243 91.7049 14.6126C91.6032 14.7053 91.5013 14.7977 91.3964 14.8867C90.9409 15.2741 90.5221 15.6978 90.1003 16.121C89.9693 16.2524 89.8379 16.3834 89.7065 16.5144C89.2918 16.9289 88.8864 17.3453 88.5072 17.793C88.4086 17.9009 88.3097 18.0085 88.2105 18.1159C87.8588 18.5062 87.5378 18.9171 87.2169 19.3327C87.109 19.4711 86.9992 19.6078 86.8889 19.7443C85.4194 21.5765 84.1256 23.6327 83.0735 25.729C82.9958 25.8836 82.9171 26.0375 82.838 26.1914C82.5403 26.7734 82.2678 27.3636 82.0129 27.9655C81.9391 28.1384 81.8637 28.3106 81.7883 28.4828C81.4216 29.3302 81.1012 30.1896 80.8013 31.0624C80.7837 31.1135 80.766 31.1646 80.7478 31.2173C80.5119 31.9027 80.3077 32.5892 80.1293 33.2921C80.1086 33.3718 80.0879 33.4515 80.0665 33.5336C79.6606 35.0965 79.3513 36.6471 79.1519 38.2491C79.1419 38.3284 79.1419 38.3284 79.1318 38.4094C79.0956 38.6993 79.0623 38.9895 79.0302 39.2799C79.0134 39.426 78.9949 39.5717 78.9761 39.7175C78.844 40.8018 78.8477 41.8883 78.8504 42.9788C78.8508 43.138 78.851 43.2971 78.8512 43.4563C78.8576 47.2849 79.3691 51.0004 80.47 54.6738C80.5164 54.8288 80.5623 54.984 80.6069 55.1396C80.6865 55.4158 80.7749 55.6827 80.8845 55.9485C81.0205 56.2849 81.1431 56.625 81.2636 56.9672C81.48 57.582 81.6971 58.1873 81.9827 58.7736C82.0807 58.9772 82.1703 59.1828 82.2587 59.3908C82.479 59.9079 82.7259 60.4028 82.9953 60.8959C83.1225 61.1294 83.2386 61.3673 83.354 61.6069C83.9136 62.7338 84.5969 63.8038 85.2957 64.8489C85.3268 64.8955 85.3579 64.9421 85.39 64.99C86.1385 66.1054 86.9502 67.1677 87.8091 68.2001C87.8436 68.2416 87.8782 68.2832 87.9137 68.326C88.7354 69.3101 89.6229 70.2293 90.5275 71.1367C90.5618 71.1712 90.596 71.2056 90.6313 71.2411C91.0278 71.6391 91.4303 72.0249 91.8584 72.389C91.934 72.4553 92.0096 72.5217 92.085 72.5881C92.6662 73.0949 93.2696 73.5663 93.8854 74.0301C94.0075 74.1229 94.1282 74.2171 94.2482 74.3125C95.8611 75.5874 97.7083 76.7634 99.5513 77.6732C99.596 77.6954 99.6408 77.7175 99.687 77.7403C99.8466 77.8188 100.007 77.8966 100.167 77.9743C100.235 78.0076 100.303 78.0409 100.374 78.0752C100.601 78.1859 100.829 78.2962 101.057 78.4063C101.128 78.4411 101.2 78.476 101.274 78.5119C101.919 78.8216 102.571 79.1064 103.247 79.3401C103.52 79.4346 103.789 79.5344 104.056 79.6434C104.443 79.7994 104.836 79.9336 105.233 80.0644C105.306 80.0888 105.38 80.1132 105.456 80.1383C107.072 80.669 108.706 81.0623 110.377 81.3778C110.459 81.3934 110.459 81.3934 110.544 81.4093C111.592 81.6066 112.635 81.7632 113.698 81.8578C113.801 81.8673 113.905 81.8767 114.008 81.8862C114.258 81.909 114.508 81.9315 114.758 81.9538C114.758 81.9769 114.758 81.9999 114.758 82.0236C90.9815 82.0236 67.205 82.0236 42.708 82.0236C42.708 82.0006 42.708 81.9776 42.708 81.9538C42.7887 81.947 42.8695 81.9401 42.9526 81.9331C44.725 81.7767 46.5312 81.5925 48.263 81.1733C48.4495 81.1288 48.6359 81.0864 48.8232 81.0457C48.8792 81.0335 48.9351 81.0213 48.9928 81.0087C49.1025 80.9849 49.2122 80.9612 49.322 80.9377C49.615 80.8736 49.8939 80.7935 50.1783 80.6971C50.3599 80.6507 50.5415 80.6056 50.7237 80.5619C51.1315 80.4616 51.5282 80.3503 51.9237 80.2084C52.0006 80.1823 52.0774 80.1562 52.1566 80.1293C54.0099 79.4959 55.871 78.7804 57.5913 77.8393C57.8322 77.7076 58.0775 77.5872 58.325 77.4682C59.8993 76.6855 61.4282 75.7124 62.8277 74.6493C62.9626 74.5473 63.0987 74.4468 63.235 74.3466C63.7626 73.9573 64.2733 73.555 64.7698 73.1267C64.9603 72.9638 65.1541 72.8069 65.3502 72.6509C66.1747 71.976 66.9264 71.2171 67.6817 70.4669C67.761 70.3881 67.8405 70.3094 67.9201 70.2308C68.3641 69.7918 68.7841 69.3488 69.1714 68.8583C69.3124 68.6832 69.4607 68.5178 69.6133 68.3528C70.0015 67.9251 70.3547 67.4725 70.7042 67.0132C70.741 66.9649 70.7778 66.9166 70.8157 66.8668C71.728 65.6631 72.5914 64.4133 73.3461 63.1042C73.4406 62.9404 73.536 62.7771 73.6313 62.6137C74.2061 61.6233 74.7235 60.6227 75.1818 59.5735C75.3136 59.2728 75.4529 58.9791 75.6044 58.6877C75.7865 58.3299 75.9222 57.9666 76.0519 57.587C76.1216 57.3848 76.1972 57.1858 76.2761 56.987C76.6692 55.9943 76.9764 54.9847 77.2669 53.9576C77.285 53.8941 77.3031 53.8305 77.3218 53.765C77.4225 53.411 77.522 53.0568 77.616 52.701C77.632 52.6414 77.648 52.5818 77.6645 52.5204C77.8205 51.9213 77.9315 51.316 78.0392 50.7068C78.0572 50.6062 78.0753 50.5055 78.0934 50.4048C78.1283 50.2103 78.1629 50.0157 78.1973 49.8211C78.2254 49.6647 78.2542 49.5084 78.2843 49.3523C78.3854 48.8292 78.4417 48.3047 78.493 47.7746C78.5018 47.6887 78.5106 47.6028 78.5196 47.5143C78.6507 46.1879 78.6763 44.8681 78.6761 43.536C78.6761 43.3403 78.6766 43.1445 78.6776 42.9488C78.6856 41.2697 78.6177 39.6093 78.3578 37.948C78.3423 37.8465 78.3269 37.7451 78.3115 37.6436C78.1922 36.8642 78.0576 36.0885 77.8952 35.3168C77.8838 35.2622 77.8724 35.2076 77.8606 35.1513C77.8262 34.9882 77.7911 34.8252 77.7556 34.6623C77.7457 34.6167 77.7358 34.5711 77.7256 34.5241C77.5137 33.5804 77.2352 32.656 76.944 31.7344C76.9258 31.6768 76.9076 31.6191 76.8889 31.5598C76.4654 30.222 76.0012 28.8993 75.3805 27.6384C75.3012 27.4752 75.2246 27.3107 75.1481 27.1462C73.7952 24.25 72.1331 21.5029 70.0758 19.0497C69.9725 18.9217 69.8693 18.7937 69.766 18.6657C69.4971 18.3368 69.216 18.0213 68.9277 17.7093C68.8354 17.6081 68.7433 17.5066 68.6548 17.4021C68.2583 16.9352 67.8229 16.507 67.3894 16.0749C67.253 15.9388 67.1169 15.8024 66.9809 15.6659C66.5582 15.243 66.1352 14.8271 65.6774 14.4418C65.5934 14.3681 65.5095 14.2942 65.4257 14.2201C64.9109 13.7682 64.3881 13.3346 63.8394 12.9241C63.72 12.8342 63.602 12.7427 63.484 12.6509C62.2173 11.6731 60.862 10.8012 59.4804 9.99567C59.3084 9.89454 59.138 9.79105 58.9675 9.68755C58.4958 9.40421 58.0035 9.16685 57.509 8.92639C57.4169 8.88135 57.4169 8.88135 57.3229 8.8354C56.0581 8.21794 54.781 7.66524 53.4597 7.18099C53.3678 7.14631 53.276 7.11158 53.1842 7.07681C52.1995 6.70725 51.1914 6.41399 50.1783 6.13375C50.108 6.11406 50.108 6.11406 50.0364 6.09397C49.4835 5.93918 48.927 5.80408 48.3675 5.67559C48.3076 5.66177 48.2478 5.64795 48.1861 5.63371C47.2132 5.41383 46.24 5.25524 45.2505 5.13485C45.0681 5.11262 44.8857 5.08979 44.7034 5.06688C44.0622 4.9872 43.4228 4.9177 42.7778 4.87707C42.7778 4.85403 42.7778 4.83099 42.7778 4.80725Z" fill="#D0D0D0"/>
<path d="M93.6345 95.821C93.7193 95.8211 93.8041 95.8211 93.8915 95.8212C94.6578 95.8311 95.3751 95.9438 96.1173 96.1264C96.188 96.1423 96.2586 96.1581 96.3314 96.1744C97.5714 96.4773 98.7783 96.9918 99.7914 97.7715C99.8311 97.8018 99.8707 97.8322 99.9116 97.8634C100.262 98.1453 100.511 98.4436 100.671 98.8667C100.646 99.2811 100.422 99.5597 100.193 99.8965C100.149 99.9635 100.105 100.03 100.059 100.099C99.8237 100.456 99.5799 100.807 99.3288 101.153C99.0595 101.058 98.8605 100.935 98.6351 100.76C97.8712 100.196 97.0745 99.8041 96.1871 99.4776C96.1314 99.4554 96.0757 99.4331 96.0183 99.4102C94.7757 98.9416 93.2674 99.0317 91.9982 99.338C91.9364 99.3515 91.8745 99.365 91.8108 99.3789C90.9305 99.6015 90.1472 100.131 89.4848 100.734C89.4356 100.778 89.3863 100.821 89.3356 100.866C87.3182 102.753 86.5982 106.007 86.4903 108.649C86.4186 111.052 86.446 113.452 87.2507 115.745C87.2663 115.791 87.282 115.837 87.2981 115.884C87.9377 117.753 89.0114 119.301 90.8113 120.213C92.6769 121.051 94.9147 120.991 96.8098 120.281C97.6767 119.937 98.4544 119.458 99.1892 118.886C99.4304 118.986 99.5456 119.102 99.6973 119.313C99.7389 119.37 99.7805 119.427 99.8234 119.486C99.8661 119.546 99.9088 119.606 99.9528 119.667C99.9953 119.726 100.038 119.785 100.081 119.845C100.165 119.96 100.248 120.075 100.33 120.191C100.404 120.294 100.479 120.395 100.555 120.496C100.797 120.816 100.797 120.816 100.773 121.086C100.158 122.362 98.3594 123.093 97.0988 123.545C95.2582 124.172 93.0627 124.403 91.1633 123.947C91.0112 123.911 90.8584 123.879 90.7055 123.846C88.4285 123.333 86.4214 121.877 85.1644 119.919C83.9334 117.951 83.2972 115.799 82.9919 113.511C82.9791 113.426 82.9662 113.341 82.953 113.253C82.8194 112.291 82.8247 111.326 82.8261 110.356C82.8261 110.266 82.8261 110.176 82.8262 110.083C82.8283 108.758 82.8737 107.483 83.1316 106.18C83.1563 106.042 83.181 105.904 83.2057 105.765C83.6366 103.489 84.5294 101.174 86.0638 99.4078C86.114 99.3499 86.1643 99.292 86.216 99.2324C86.3723 99.0558 86.5315 98.8823 86.6922 98.7096C86.7628 98.6321 86.7628 98.6321 86.8348 98.5531C87.9602 97.3665 89.5282 96.513 91.1168 96.1526C91.1765 96.1384 91.2363 96.1242 91.2978 96.1095C92.079 95.9277 92.8311 95.8199 93.6345 95.821Z" fill="white"/>
<path fill-rule="evenodd" clip-rule="evenodd" d="M67.9117 96.0566H64.002C63.9771 96.1065 63.9601 96.1404 63.9447 96.1751C63.912 96.2487 63.8864 96.3255 63.8065 96.5658L63.7544 96.7234C63.5307 97.3977 63.3095 98.0729 63.0887 98.7482L62.8632 99.438C62.5982 100.248 62.3344 101.058 62.0734 101.869C61.8176 102.663 61.5602 103.458 61.2991 104.251L61.2431 104.421C61.1039 104.844 60.9646 105.266 60.8251 105.689C60.7294 105.979 60.6338 106.269 60.5385 106.558L60.4924 106.699C60.3085 107.258 60.127 107.818 59.9642 108.384C59.8445 108.802 59.7105 109.213 59.5663 109.623C59.2235 110.593 58.903 111.569 58.5912 112.55C58.2147 113.734 57.8351 114.917 57.4474 116.097C56.9551 117.595 56.4637 119.094 55.9776 120.594C55.9159 120.784 55.8543 120.974 55.7923 121.165C55.719 121.389 55.6459 121.614 55.5731 121.839L55.4913 122.092C55.2713 122.764 55.0982 123.434 54.926 124.123H58.1375C58.2073 123.983 58.2073 123.983 58.2609 123.819L58.3249 123.61L58.3982 123.372C58.6484 122.557 58.9029 121.743 59.1628 120.931L59.258 120.633C59.3867 120.231 59.5153 119.828 59.6444 119.426C59.7262 119.171 59.808 118.916 59.8895 118.661L59.9827 118.369L60.0706 118.096L60.1534 117.836C60.2051 117.675 60.2543 117.513 60.3018 117.35L60.5112 116.513L70.9836 116.582C71.0443 116.777 71.1053 116.971 71.1663 117.165C71.4044 117.924 71.6425 118.682 71.865 119.445C72.0347 120.029 72.2276 120.604 72.4217 121.181C72.57 121.621 72.717 122.061 72.8638 122.502C72.9187 122.667 72.9564 122.78 72.9942 122.893C73.0774 123.143 73.1606 123.393 73.4272 124.192H77.0576C76.9388 123.797 76.8202 123.402 76.6951 123.008L76.6398 122.834C76.5755 122.632 76.5111 122.43 76.4466 122.229L76.3769 122.011C75.8502 120.362 75.3111 118.718 74.769 117.075L74.5623 116.448C74.5144 116.302 74.4664 116.157 74.4182 116.011C74.2664 115.552 74.1168 115.093 73.9749 114.63L73.9729 114.624C73.9023 114.392 73.8316 114.161 73.7576 113.93L73.4795 113.074C73.1875 112.176 72.8933 111.278 72.5977 110.381L72.1138 108.911C71.6549 107.518 71.1973 106.125 70.7522 104.727C70.3327 103.408 69.9072 102.092 69.4759 100.777L69.4302 100.638C68.9286 99.1095 68.4225 97.5823 67.9117 96.0566ZM65.8877 99.9449C65.8171 99.7569 65.8171 99.7569 65.6775 99.6871C65.5411 100.191 65.3924 100.689 65.225 101.183C65.0329 101.749 64.8522 102.315 64.6913 102.89C64.5748 103.306 64.4542 103.719 64.3161 104.129C64.1447 104.632 63.984 105.137 63.8252 105.643C63.776 105.801 63.7267 105.958 63.6768 106.115C63.5183 106.612 63.366 107.11 63.2249 107.613C63.067 108.176 62.8988 108.733 62.7103 109.287C62.5434 109.776 62.3911 110.268 62.2521 110.766C62.1221 111.233 61.9818 111.695 61.8245 112.154C61.6586 112.626 61.5412 113.09 61.4187 113.58H70.0759C70.0759 113.398 70.0759 113.335 70.0652 113.274C70.0594 113.241 70.0506 113.208 70.0371 113.159L69.9837 113.009L69.9255 112.842C69.8877 112.734 69.8509 112.625 69.8155 112.516L69.7168 112.203L69.4475 111.346C69.3098 110.908 69.1721 110.469 69.037 110.029C68.8763 109.506 68.7139 108.983 68.5498 108.461L68.505 108.318C68.2739 107.582 68.0414 106.846 67.8075 106.111L67.3115 104.552C67.2876 104.477 67.2637 104.402 67.2399 104.327C66.9718 103.486 66.7038 102.645 66.4463 101.8L66.3697 101.548C66.2811 101.257 66.1926 100.966 66.1058 100.674C66.0738 100.566 66.0416 100.459 66.0091 100.351L65.9649 100.205L65.8877 99.9449Z" fill="white"/>
<path d="M73.5842 139.255C73.6753 139.253 73.7664 139.252 73.8602 139.25C74.1596 139.276 74.3011 139.305 74.5442 139.482C74.9734 140.075 75.2718 140.779 75.5972 141.432C75.6574 141.553 75.7177 141.674 75.778 141.794C75.9036 142.045 76.029 142.297 76.1542 142.548C76.3148 142.87 76.4758 143.193 76.6369 143.515C76.761 143.763 76.885 144.012 77.009 144.26C77.0683 144.379 77.1277 144.498 77.1871 144.617C77.2698 144.782 77.3523 144.948 77.4347 145.113C77.4593 145.162 77.4838 145.211 77.5091 145.262C77.6032 145.452 77.6887 145.634 77.7557 145.835C77.756 145.757 77.7563 145.679 77.7565 145.599C77.7591 144.863 77.7631 144.128 77.7686 143.392C77.7713 143.014 77.7736 142.636 77.7747 142.258C77.7757 141.893 77.7781 141.528 77.7815 141.163C77.7825 141.024 77.783 140.884 77.7831 140.745C77.7833 140.55 77.7852 140.355 77.7874 140.16C77.7869 140.074 77.7869 140.074 77.7864 139.985C77.791 139.734 77.8032 139.582 77.9541 139.377C78.1612 139.234 78.309 139.235 78.5586 139.238C78.6371 139.237 78.7156 139.236 78.7964 139.236C79.0593 139.281 79.1268 139.346 79.2917 139.552C79.3266 139.721 79.3266 139.721 79.3267 139.914C79.3274 139.987 79.3281 140.06 79.3288 140.136C79.3281 140.216 79.3274 140.296 79.3267 140.378C79.3273 140.505 79.3273 140.505 79.3279 140.634C79.3286 140.866 79.3281 141.097 79.3269 141.329C79.3259 141.571 79.3264 141.814 79.3266 142.056C79.3268 142.464 79.3259 142.871 79.3243 143.279C79.3224 143.749 79.3223 144.22 79.3231 144.69C79.3239 145.143 79.3234 145.596 79.3224 146.049C79.322 146.242 79.322 146.434 79.3224 146.627C79.3228 146.896 79.3214 147.165 79.3199 147.435C79.3202 147.514 79.3205 147.594 79.3209 147.676C79.3172 148.065 79.3136 148.368 79.0822 148.698C78.832 148.865 78.6995 148.865 78.4015 148.872C78.3184 148.876 78.2352 148.88 78.1495 148.883C77.8074 148.822 77.6397 148.671 77.4067 148.419C77.2615 148.203 77.1483 147.976 77.0344 147.743C76.9996 147.674 76.9648 147.606 76.929 147.535C76.8299 147.338 76.7319 147.141 76.6341 146.944C76.5171 146.709 76.3986 146.475 76.2802 146.24C75.9904 145.666 75.7025 145.09 75.415 144.514C75.3055 144.295 75.1957 144.075 75.086 143.856C74.9798 143.644 74.8737 143.432 74.7677 143.22C74.7174 143.119 74.667 143.018 74.6165 142.918C74.5468 142.778 74.4772 142.639 74.4077 142.499C74.3682 142.42 74.3287 142.341 74.288 142.26C74.1951 142.065 74.1951 142.065 74.1253 141.856C74.1249 141.94 74.1245 142.025 74.1241 142.112C74.1201 142.906 74.115 143.7 74.1089 144.494C74.1057 144.902 74.103 145.311 74.1011 145.719C74.0993 146.113 74.0965 146.506 74.093 146.9C74.0918 147.051 74.091 147.201 74.0906 147.352C74.0899 147.562 74.0879 147.772 74.0857 147.983C74.0858 148.045 74.0859 148.108 74.086 148.172C74.0851 148.229 74.0842 148.287 74.0833 148.346C74.083 148.395 74.0827 148.445 74.0824 148.496C74.0471 148.669 73.9845 148.731 73.8461 148.837C73.6369 148.868 73.6369 148.868 73.3966 148.868C73.278 148.87 73.278 148.87 73.1569 148.872C72.8908 148.83 72.8252 148.766 72.6592 148.558C72.624 148.386 72.624 148.386 72.6237 148.19C72.6229 148.116 72.6221 148.041 72.6213 147.965C72.6219 147.883 72.6225 147.802 72.623 147.718C72.6226 147.632 72.6221 147.546 72.6216 147.458C72.6205 147.222 72.6208 146.987 72.6217 146.751C72.6224 146.504 72.6217 146.258 72.6213 146.011C72.6208 145.597 72.6214 145.182 72.6228 144.768C72.6243 144.289 72.6238 143.811 72.6223 143.332C72.621 142.921 72.6208 142.51 72.6215 142.098C72.622 141.853 72.622 141.607 72.6211 141.362C72.6202 141.088 72.6215 140.814 72.623 140.541C72.6225 140.459 72.6219 140.378 72.6213 140.295C72.6271 139.745 72.6271 139.745 72.7923 139.468C73.0539 139.243 73.2424 139.259 73.5842 139.255Z" fill="white"/>
<path d="M41.5387 139.255C41.6298 139.253 41.7209 139.252 41.8147 139.25C42.114 139.276 42.2556 139.305 42.4987 139.482C42.9279 140.075 43.2263 140.779 43.5516 141.432C43.6119 141.553 43.6722 141.674 43.7325 141.794C43.858 142.045 43.9834 142.297 44.1086 142.548C44.2692 142.87 44.4302 143.193 44.5913 143.515C44.7155 143.763 44.8395 144.012 44.9634 144.26C45.0228 144.379 45.0821 144.498 45.1416 144.617C45.2242 144.782 45.3067 144.948 45.3892 145.113C45.4137 145.162 45.4383 145.211 45.4636 145.262C45.5577 145.452 45.6432 145.634 45.7102 145.835C45.7105 145.757 45.7107 145.679 45.711 145.599C45.7136 144.863 45.7176 144.128 45.723 143.392C45.7258 143.014 45.728 142.636 45.7291 142.258C45.7302 141.893 45.7326 141.528 45.7359 141.163C45.737 141.024 45.7375 140.884 45.7376 140.745C45.7377 140.55 45.7396 140.355 45.7419 140.16C45.7414 140.074 45.7414 140.074 45.7408 139.985C45.7454 139.734 45.7577 139.582 45.9085 139.377C46.1156 139.234 46.2634 139.235 46.5131 139.238C46.5916 139.237 46.67 139.236 46.7509 139.236C47.0138 139.281 47.0813 139.346 47.2462 139.552C47.2811 139.721 47.2811 139.721 47.2811 139.914C47.2818 139.987 47.2825 140.06 47.2832 140.136C47.2826 140.216 47.2819 140.296 47.2812 140.378C47.2817 140.505 47.2817 140.505 47.2823 140.634C47.283 140.866 47.2825 141.097 47.2814 141.329C47.2804 141.571 47.2809 141.814 47.2811 142.056C47.2813 142.464 47.2803 142.871 47.2787 143.279C47.2769 143.749 47.2767 144.22 47.2776 144.69C47.2783 145.143 47.2779 145.596 47.2769 146.049C47.2765 146.242 47.2765 146.434 47.2768 146.627C47.2772 146.896 47.2759 147.165 47.2744 147.435C47.2747 147.514 47.275 147.594 47.2753 147.676C47.2717 148.065 47.2681 148.368 47.0367 148.698C46.7865 148.865 46.6539 148.865 46.356 148.872C46.2728 148.876 46.1897 148.88 46.104 148.883C45.7619 148.822 45.5942 148.671 45.3611 148.419C45.216 148.203 45.1028 147.976 44.9889 147.743C44.9541 147.674 44.9193 147.606 44.8834 147.535C44.7844 147.338 44.6863 147.141 44.5886 146.944C44.4716 146.709 44.353 146.475 44.2347 146.24C43.9448 145.666 43.657 145.09 43.3695 144.514C43.2599 144.295 43.1502 144.075 43.0404 143.856C42.9342 143.644 42.8282 143.432 42.7222 143.22C42.6718 143.119 42.6214 143.018 42.571 142.918C42.5012 142.778 42.4316 142.639 42.3621 142.499C42.3226 142.42 42.2831 142.341 42.2425 142.26C42.1496 142.065 42.1496 142.065 42.0798 141.856C42.0794 141.94 42.079 142.025 42.0785 142.112C42.0745 142.906 42.0695 143.7 42.0633 144.494C42.0602 144.902 42.0575 145.311 42.0556 145.719C42.0538 146.113 42.051 146.506 42.0474 146.9C42.0463 147.051 42.0455 147.201 42.045 147.352C42.0444 147.562 42.0424 147.772 42.0401 147.983C42.0402 148.045 42.0403 148.108 42.0404 148.172C42.0396 148.229 42.0387 148.287 42.0378 148.346C42.0375 148.395 42.0372 148.445 42.0368 148.496C42.0016 148.669 41.9389 148.731 41.8005 148.837C41.5913 148.868 41.5913 148.868 41.3511 148.868C41.2324 148.87 41.2324 148.87 41.1114 148.872C40.8452 148.83 40.7796 148.766 40.6136 148.558C40.5785 148.386 40.5785 148.386 40.5782 148.19C40.5774 148.116 40.5766 148.041 40.5758 147.965C40.5764 147.883 40.5769 147.802 40.5775 147.718C40.577 147.632 40.5765 147.546 40.576 147.458C40.575 147.222 40.5752 146.987 40.5761 146.751C40.5768 146.504 40.5762 146.258 40.5757 146.011C40.5752 145.597 40.5759 145.182 40.5772 144.768C40.5788 144.289 40.5783 143.811 40.5767 143.332C40.5755 142.921 40.5753 142.51 40.576 142.098C40.5764 141.853 40.5765 141.607 40.5756 141.362C40.5746 141.088 40.5759 140.814 40.5775 140.541C40.5769 140.459 40.5764 140.378 40.5758 140.295C40.5816 139.745 40.5816 139.745 40.7468 139.468C41.0083 139.243 41.1969 139.259 41.5387 139.255Z" fill="white"/>
<path d="M58.2866 139.795C58.5331 139.996 58.6105 140.177 58.6447 140.489C58.6592 140.839 58.6437 141.083 58.4167 141.367C58.1179 141.348 57.9237 141.309 57.6749 141.14C56.8444 140.597 55.9617 140.45 54.9944 140.641C54.3219 140.869 53.8412 141.378 53.5296 142C53.2171 142.656 53.1566 143.216 53.1587 143.933C53.1576 144.01 53.1564 144.087 53.1553 144.166C53.1548 145.082 53.3804 145.861 53.8918 146.621C54.4354 147.152 55.029 147.396 55.7768 147.393C55.8326 147.394 55.8885 147.395 55.946 147.397C56.4114 147.397 56.6846 147.305 57.16 147.162C57.16 146.355 57.16 145.549 57.16 144.718C56.5261 144.729 56.5261 144.729 55.8922 144.743C55.8134 144.744 55.7345 144.745 55.6533 144.746C55.5321 144.748 55.5321 144.748 55.4084 144.75C55.2052 144.718 55.2052 144.718 55.074 144.588C54.98 144.409 54.9699 144.291 54.9739 144.09C54.9742 144.031 54.9745 143.972 54.9747 143.911C54.997 143.73 55.0384 143.615 55.1354 143.462C55.2924 143.383 55.3802 143.382 55.5545 143.379C55.6408 143.378 55.6408 143.378 55.7289 143.377C55.7913 143.376 55.8536 143.376 55.9178 143.375C55.9818 143.375 56.0459 143.374 56.1119 143.373C56.2477 143.372 56.3834 143.372 56.5192 143.371C56.7265 143.37 56.9338 143.367 57.1411 143.364C57.2729 143.363 57.4048 143.363 57.5366 143.362C57.6295 143.36 57.6295 143.36 57.7242 143.358C58.0155 143.359 58.1672 143.367 58.4194 143.525C58.6326 143.753 58.6357 143.886 58.6396 144.192C58.6407 144.271 58.6419 144.351 58.643 144.433C58.6461 144.798 58.649 145.163 58.6506 145.528C58.6515 145.721 58.6535 145.913 58.6563 146.106C58.6604 146.383 58.6617 146.661 58.6627 146.938C58.6651 147.067 58.6651 147.067 58.6675 147.199C58.6659 147.865 58.6659 147.865 58.4597 148.12C57.6609 148.814 56.4459 148.986 55.4202 148.92C54.3099 148.826 53.3767 148.413 52.622 147.581C51.5899 146.238 51.413 144.567 51.6069 142.929C51.7863 141.736 52.3462 140.692 53.2615 139.906C54.7095 138.849 56.7855 138.798 58.2866 139.795Z" fill="white"/>
<path d="M92.5567 156.657C92.7299 156.738 92.8426 156.803 92.9756 156.936C92.9829 157.134 92.9857 157.33 92.9855 157.528C92.9859 157.621 92.9859 157.621 92.9863 157.716C92.9868 157.852 92.9872 157.987 92.9874 158.122C92.9879 158.337 92.989 158.552 92.9903 158.767C92.994 159.378 92.9973 159.99 92.9984 160.601C92.9991 160.974 93.0012 161.348 93.0041 161.721C93.0049 161.863 93.0053 162.005 93.0051 162.147C92.9923 163.355 92.9923 163.355 93.4818 164.437C93.9315 164.856 94.3303 164.936 94.9395 164.928C95.4585 164.906 95.7394 164.781 96.1043 164.424C96.4738 163.875 96.5467 163.319 96.545 162.671C96.5452 162.609 96.5453 162.548 96.5454 162.484C96.5457 162.351 96.5459 162.218 96.5459 162.084C96.5461 161.801 96.5476 161.518 96.549 161.234C96.5517 160.707 96.5539 160.18 96.5537 159.652C96.5537 159.285 96.5553 158.918 96.558 158.551C96.5588 158.411 96.5589 158.271 96.5584 158.132C96.5577 157.936 96.5592 157.741 96.5611 157.545C96.5604 157.488 96.5597 157.43 96.559 157.37C96.564 157.094 96.5786 156.965 96.7714 156.76C96.9814 156.642 97.1041 156.623 97.3435 156.631C97.4084 156.632 97.4733 156.632 97.5401 156.633C97.7266 156.657 97.8446 156.696 98.0024 156.796C98.116 157.024 98.0837 157.274 98.0845 157.524C98.085 157.585 98.0855 157.646 98.0859 157.708C98.0873 157.911 98.0881 158.113 98.0888 158.316C98.0891 158.385 98.0894 158.454 98.0897 158.526C98.0911 158.894 98.0921 159.262 98.0928 159.629C98.0936 160.007 98.096 160.385 98.0987 160.762C98.1006 161.054 98.1012 161.347 98.1014 161.639C98.1017 161.778 98.1025 161.917 98.1039 162.056C98.115 163.317 98.022 164.58 97.1166 165.545C96.4436 166.183 95.7051 166.386 94.7952 166.379C94.6956 166.38 94.6957 166.38 94.5941 166.38C93.7672 166.378 93.0504 166.16 92.4346 165.589C91.4951 164.586 91.4773 163.335 91.4817 162.043C91.4815 161.896 91.4813 161.749 91.4811 161.602C91.4808 161.296 91.4812 160.99 91.4822 160.683C91.4834 160.29 91.4827 159.897 91.4814 159.504C91.4807 159.201 91.4809 158.899 91.4815 158.596C91.4816 158.451 91.4814 158.306 91.4809 158.161C91.4804 157.959 91.4812 157.757 91.4824 157.555C91.482 157.495 91.4815 157.436 91.4811 157.374C91.4855 156.965 91.4855 156.965 91.6072 156.819C91.8863 156.589 92.211 156.625 92.5567 156.657Z" fill="white"/>
<path d="M66.1663 156.657C66.3395 156.738 66.4522 156.803 66.5852 156.936C66.5925 157.134 66.5952 157.33 66.5951 157.528C66.5955 157.621 66.5955 157.621 66.5959 157.716C66.5964 157.852 66.5967 157.987 66.597 158.122C66.5975 158.337 66.5986 158.552 66.5999 158.767C66.6035 159.378 66.6069 159.99 66.608 160.601C66.6087 160.974 66.6107 161.348 66.6136 161.721C66.6145 161.863 66.6149 162.005 66.6147 162.147C66.6019 163.355 66.6019 163.355 67.0914 164.437C67.5411 164.856 67.9399 164.936 68.5491 164.928C69.0681 164.906 69.3489 164.781 69.7138 164.424C70.0834 163.875 70.1563 163.319 70.1546 162.671C70.1548 162.609 70.1549 162.548 70.155 162.484C70.1553 162.351 70.1554 162.218 70.1555 162.084C70.1557 161.801 70.1572 161.518 70.1586 161.234C70.1613 160.707 70.1635 160.18 70.1633 159.652C70.1633 159.285 70.1649 158.918 70.1676 158.551C70.1684 158.411 70.1685 158.271 70.1679 158.132C70.1673 157.936 70.1687 157.741 70.1707 157.545C70.17 157.488 70.1693 157.43 70.1686 157.37C70.1736 157.094 70.1881 156.965 70.381 156.76C70.5909 156.642 70.7137 156.623 70.9531 156.631C71.018 156.632 71.0828 156.632 71.1497 156.633C71.3362 156.657 71.4542 156.696 71.612 156.796C71.7256 157.024 71.6933 157.274 71.6941 157.524C71.6946 157.585 71.6951 157.646 71.6955 157.708C71.6969 157.911 71.6977 158.113 71.6984 158.316C71.6987 158.385 71.699 158.454 71.6993 158.526C71.7007 158.894 71.7017 159.262 71.7024 159.629C71.7032 160.007 71.7055 160.385 71.7083 160.762C71.7102 161.054 71.7107 161.347 71.711 161.639C71.7113 161.778 71.7121 161.917 71.7134 162.056C71.7245 163.317 71.6316 164.58 70.7262 165.545C70.0532 166.183 69.3147 166.386 68.4048 166.379C68.3052 166.38 68.3052 166.38 68.2037 166.38C67.3768 166.378 66.66 166.16 66.0441 165.589C65.1047 164.586 65.0869 163.335 65.0913 162.043C65.0911 161.896 65.0909 161.749 65.0907 161.602C65.0903 161.296 65.0908 160.99 65.0918 160.683C65.093 160.29 65.0923 159.897 65.091 159.504C65.0903 159.201 65.0905 158.899 65.0911 158.596C65.0912 158.451 65.091 158.306 65.0905 158.161C65.09 157.959 65.0908 157.757 65.092 157.555C65.0916 157.495 65.0911 157.436 65.0907 157.374C65.0951 156.965 65.0951 156.965 65.2167 156.819C65.4958 156.589 65.8206 156.625 66.1663 156.657Z" fill="white"/>
<path d="M34.0657 156.684C34.1517 156.683 34.2376 156.682 34.3262 156.682C34.4194 156.683 34.5125 156.684 34.6057 156.685C34.7017 156.685 34.7978 156.685 34.8938 156.685C35.0946 156.685 35.2954 156.687 35.4963 156.689C35.7537 156.692 36.011 156.692 36.2684 156.691C36.4665 156.691 36.6646 156.692 36.8628 156.693C36.9577 156.694 37.0526 156.694 37.1475 156.694C37.28 156.694 37.4126 156.696 37.5451 156.697C37.6581 156.698 37.6581 156.698 37.7735 156.699C37.9606 156.727 37.9606 156.727 38.0894 156.82C38.2164 157.003 38.2004 157.167 38.2006 157.386C38.202 157.465 38.2033 157.544 38.2047 157.625C38.1701 157.844 38.1701 157.844 38.073 157.995C37.7891 158.194 37.5145 158.157 37.1763 158.15C37.107 158.15 37.0376 158.149 36.9662 158.149C36.7449 158.147 36.5238 158.144 36.3025 158.14C36.1524 158.139 36.0023 158.138 35.8523 158.137C35.4845 158.134 35.1169 158.128 34.7491 158.123C34.7491 158.952 34.7491 159.782 34.7491 160.636C34.9483 160.633 35.1474 160.63 35.3526 160.627C35.5453 160.624 35.738 160.623 35.9307 160.621C36.0648 160.62 36.1988 160.618 36.3328 160.615C36.5253 160.612 36.7178 160.61 36.9104 160.609C37.0004 160.607 37.0004 160.607 37.0922 160.605C37.5069 160.605 37.5069 160.605 37.684 160.766C37.7678 160.953 37.7815 161.095 37.7817 161.3C37.7831 161.365 37.7844 161.431 37.7858 161.498C37.7394 161.747 37.6758 161.813 37.4719 161.963C37.264 162.001 37.0599 161.995 36.849 161.99C36.7958 161.99 36.7426 161.99 36.6877 161.989C36.4895 161.988 36.2913 161.984 36.0931 161.98C35.6496 161.975 35.2061 161.969 34.7491 161.963C34.7491 162.93 34.7491 163.898 34.7491 164.895C34.9836 164.892 35.218 164.889 35.4595 164.885C35.6862 164.883 35.9129 164.881 36.1395 164.88C36.2973 164.878 36.455 164.876 36.6127 164.874C36.8392 164.871 37.0657 164.869 37.2922 164.868C37.3983 164.866 37.3983 164.866 37.5064 164.863C37.605 164.863 37.605 164.863 37.7055 164.863C37.7633 164.863 37.8211 164.862 37.8807 164.862C38.0305 164.895 38.0305 164.895 38.1536 165.024C38.267 165.222 38.2702 165.367 38.2705 165.593C38.2718 165.665 38.2732 165.737 38.2745 165.811C38.2308 166.065 38.1608 166.133 37.9606 166.291C37.7677 166.327 37.7677 166.327 37.5435 166.328C37.4174 166.329 37.4174 166.329 37.2886 166.33C37.198 166.33 37.1074 166.329 37.014 166.329C36.9198 166.329 36.8255 166.329 36.7313 166.329C36.5339 166.33 36.3366 166.329 36.1392 166.328C35.8867 166.326 35.6344 166.327 35.3819 166.329C35.1873 166.33 34.9927 166.33 34.7981 166.329C34.6599 166.329 34.5218 166.329 34.3836 166.33C34.2571 166.329 34.2571 166.329 34.128 166.328C34.054 166.327 33.9799 166.327 33.9037 166.327C33.6523 166.283 33.5351 166.187 33.3528 166.012C33.2656 165.838 33.2734 165.719 33.2722 165.524C33.2716 165.45 33.271 165.377 33.2704 165.301C33.2701 165.22 33.2698 165.138 33.2695 165.055C33.2689 164.969 33.2684 164.884 33.2678 164.796C33.266 164.513 33.2649 164.23 33.2639 163.947C33.2635 163.849 33.2631 163.752 33.2628 163.654C33.2613 163.249 33.2599 162.844 33.2592 162.438C33.258 161.857 33.2557 161.276 33.2517 160.695C33.249 160.287 33.2477 159.878 33.2473 159.47C33.247 159.226 33.2462 158.982 33.2439 158.737C33.2414 158.465 33.2417 158.193 33.2422 157.921C33.2411 157.84 33.2399 157.759 33.2388 157.676C33.243 157.136 33.243 157.136 33.433 156.851C33.6653 156.706 33.793 156.683 34.0657 156.684Z" fill="white"/>
<path d="M91.1054 139.23C91.1913 139.229 91.2773 139.228 91.3658 139.228C91.459 139.229 91.5522 139.23 91.6453 139.231C91.7414 139.231 91.8374 139.231 91.9335 139.231C92.1343 139.231 92.3351 139.233 92.5359 139.235C92.7933 139.238 93.0506 139.238 93.308 139.237C93.5062 139.237 93.7043 139.238 93.9024 139.239C93.9973 139.24 94.0923 139.24 94.1872 139.24C94.3197 139.24 94.4522 139.242 94.5847 139.243C94.6978 139.244 94.6978 139.244 94.8131 139.245C95.0003 139.273 95.0003 139.273 95.1291 139.366C95.256 139.549 95.24 139.713 95.2403 139.932C95.2416 140.011 95.243 140.09 95.2444 140.171C95.2097 140.39 95.2097 140.39 95.1126 140.541C94.8288 140.74 94.5542 140.703 94.216 140.696C94.1466 140.696 94.0773 140.695 94.0058 140.695C93.7846 140.693 93.5634 140.69 93.3422 140.686C93.1921 140.685 93.042 140.684 92.8919 140.683C92.5241 140.68 92.1565 140.674 91.7888 140.669C91.7888 141.498 91.7888 142.328 91.7888 143.182C91.9879 143.179 92.1871 143.176 92.3923 143.173C92.585 143.17 92.7777 143.169 92.9704 143.167C93.1044 143.166 93.2384 143.164 93.3725 143.161C93.565 143.158 93.7575 143.156 93.9501 143.155C94.0401 143.153 94.0401 143.153 94.1319 143.151C94.5465 143.151 94.5465 143.151 94.7237 143.312C94.8074 143.499 94.8211 143.641 94.8214 143.846C94.8227 143.911 94.8241 143.977 94.8255 144.044C94.7791 144.293 94.7155 144.359 94.5116 144.509C94.3037 144.547 94.0995 144.541 93.8887 144.536C93.8354 144.536 93.7822 144.536 93.7273 144.535C93.5291 144.534 93.3309 144.53 93.1327 144.526C92.6892 144.521 92.2457 144.515 91.7888 144.509C91.7888 145.477 91.7888 146.444 91.7888 147.441C92.0232 147.438 92.2576 147.435 92.4992 147.431C92.7259 147.429 92.9525 147.427 93.1792 147.426C93.3369 147.424 93.4947 147.422 93.6524 147.42C93.8789 147.417 94.1053 147.415 94.3319 147.414C94.4379 147.412 94.4379 147.412 94.5461 147.409C94.6446 147.409 94.6446 147.409 94.7451 147.409C94.8029 147.409 94.8608 147.408 94.9204 147.408C95.0701 147.441 95.0701 147.441 95.1933 147.57C95.3067 147.768 95.3098 147.913 95.3101 148.139C95.3115 148.211 95.3128 148.283 95.3142 148.357C95.2704 148.611 95.2004 148.679 95.0003 148.837C94.8074 148.873 94.8074 148.873 94.5832 148.874C94.457 148.875 94.457 148.875 94.3283 148.876C94.2377 148.876 94.1471 148.875 94.0537 148.875C93.9594 148.875 93.8652 148.875 93.7709 148.875C93.5736 148.876 93.3762 148.875 93.1789 148.874C92.9264 148.872 92.674 148.873 92.4216 148.875C92.2269 148.876 92.0324 148.876 91.8378 148.875C91.6996 148.875 91.5614 148.875 91.4232 148.876C91.2967 148.875 91.2967 148.875 91.1677 148.874C91.0936 148.873 91.0196 148.873 90.9433 148.873C90.692 148.829 90.5748 148.733 90.3924 148.558C90.3053 148.384 90.3131 148.265 90.3119 148.07C90.3113 147.996 90.3107 147.923 90.3101 147.847C90.3098 147.766 90.3095 147.684 90.3092 147.601C90.3086 147.515 90.308 147.43 90.3074 147.342C90.3057 147.059 90.3045 146.776 90.3035 146.493C90.3032 146.395 90.3028 146.298 90.3024 146.2C90.3009 145.795 90.2996 145.39 90.2988 144.984C90.2977 144.403 90.2954 143.822 90.2914 143.241C90.2887 142.833 90.2873 142.424 90.2869 142.016C90.2867 141.772 90.2859 141.528 90.2836 141.284C90.2811 141.011 90.2814 140.739 90.2819 140.467C90.2807 140.386 90.2796 140.305 90.2784 140.222C90.2826 139.682 90.2826 139.682 90.4726 139.397C90.705 139.252 90.8327 139.229 91.1054 139.23Z" fill="white"/>
<path d="M64.0866 139.23C64.1725 139.229 64.2585 139.228 64.3471 139.228C64.4402 139.229 64.5334 139.23 64.6265 139.231C64.7226 139.231 64.8186 139.231 64.9147 139.231C65.1155 139.231 65.3163 139.233 65.5171 139.235C65.7745 139.238 66.0318 139.238 66.2893 139.237C66.4874 139.237 66.6855 139.238 66.8836 139.239C66.9785 139.24 67.0735 139.24 67.1684 139.24C67.3009 139.24 67.4334 139.242 67.5659 139.243C67.679 139.244 67.679 139.244 67.7943 139.245C67.9815 139.273 67.9815 139.273 68.1103 139.366C68.2372 139.549 68.2212 139.713 68.2215 139.932C68.2228 140.011 68.2242 140.09 68.2256 140.171C68.1909 140.39 68.1909 140.39 68.0938 140.541C67.81 140.74 67.5354 140.703 67.1972 140.696C67.1278 140.696 67.0585 140.695 66.987 140.695C66.7658 140.693 66.5446 140.69 66.3234 140.686C66.1733 140.685 66.0232 140.684 65.8731 140.683C65.5053 140.68 65.1377 140.674 64.77 140.669C64.77 141.498 64.77 142.328 64.77 143.182C64.9691 143.179 65.1683 143.176 65.3735 143.173C65.5662 143.17 65.7589 143.169 65.9516 143.167C66.0856 143.166 66.2197 143.164 66.3537 143.161C66.5462 143.158 66.7387 143.156 66.9313 143.155C67.0213 143.153 67.0213 143.153 67.1131 143.151C67.5277 143.151 67.5277 143.151 67.7049 143.312C67.7886 143.499 67.8023 143.641 67.8026 143.846C67.8039 143.911 67.8053 143.977 67.8067 144.044C67.7603 144.293 67.6967 144.359 67.4928 144.509C67.2849 144.547 67.0807 144.541 66.8699 144.536C66.8167 144.536 66.7634 144.536 66.7086 144.535C66.5103 144.534 66.3121 144.53 66.1139 144.526C65.6704 144.521 65.2269 144.515 64.77 144.509C64.77 145.477 64.77 146.444 64.77 147.441C65.0044 147.438 65.2389 147.435 65.4804 147.431C65.7071 147.429 65.9337 147.427 66.1604 147.426C66.3181 147.424 66.4759 147.422 66.6336 147.42C66.8601 147.417 67.0865 147.415 67.3131 147.414C67.4191 147.412 67.4191 147.412 67.5273 147.409C67.6258 147.409 67.6258 147.409 67.7263 147.409C67.7841 147.409 67.842 147.408 67.9016 147.408C68.0513 147.441 68.0513 147.441 68.1745 147.57C68.2879 147.768 68.291 147.913 68.2913 148.139C68.2927 148.211 68.294 148.283 68.2954 148.357C68.2516 148.611 68.1817 148.679 67.9815 148.837C67.7886 148.873 67.7886 148.873 67.5644 148.874C67.4382 148.875 67.4382 148.875 67.3095 148.876C67.2189 148.876 67.1283 148.875 67.0349 148.875C66.9406 148.875 66.8464 148.875 66.7522 148.875C66.5548 148.876 66.3574 148.875 66.1601 148.874C65.9076 148.872 65.6552 148.873 65.4028 148.875C65.2082 148.876 65.0136 148.876 64.819 148.875C64.6808 148.875 64.5426 148.875 64.4044 148.876C64.2779 148.875 64.2779 148.875 64.1489 148.874C64.0748 148.873 64.0008 148.873 63.9245 148.873C63.6732 148.829 63.556 148.733 63.3737 148.558C63.2865 148.384 63.2943 148.265 63.2931 148.07C63.2925 147.996 63.2919 147.923 63.2913 147.847C63.291 147.766 63.2907 147.684 63.2904 147.601C63.2898 147.515 63.2892 147.43 63.2886 147.342C63.2869 147.059 63.2857 146.776 63.2847 146.493C63.2844 146.395 63.284 146.298 63.2836 146.2C63.2821 145.795 63.2808 145.39 63.28 144.984C63.2789 144.403 63.2766 143.822 63.2726 143.241C63.2699 142.833 63.2685 142.424 63.2682 142.016C63.2679 141.772 63.2671 141.528 63.2648 141.284C63.2623 141.011 63.2626 140.739 63.2631 140.467C63.262 140.386 63.2608 140.305 63.2596 140.222C63.2639 139.682 63.2639 139.682 63.4538 139.397C63.6862 139.252 63.8139 139.229 64.0866 139.23Z" fill="white"/>
<path d="M45.2215 157.146C45.3959 157.32 45.4292 157.41 45.4588 157.659C45.4582 157.744 45.4577 157.83 45.4572 157.918C45.458 158.047 45.458 158.047 45.4588 158.178C45.431 158.402 45.431 158.402 45.3464 158.537C45.1728 158.641 45.0721 158.64 44.8724 158.612C44.6979 158.525 44.6979 158.525 44.5234 158.411C43.9654 158.05 43.5116 157.99 42.8478 158.053C42.5982 158.137 42.4685 158.286 42.298 158.485C42.1482 158.86 42.1625 159.226 42.3198 159.598C42.6527 160.166 43.2844 160.455 43.8557 160.732C44.7679 161.192 45.4635 161.732 45.851 162.709C46.0675 163.437 45.9336 164.288 45.6096 164.966C45.2199 165.628 44.6921 166.042 43.9692 166.3C43.1508 166.511 42.0571 166.5 41.3118 166.082C41.2318 166.038 41.2318 166.038 41.1501 165.993C40.8439 165.812 40.5901 165.662 40.474 165.314C40.464 165.176 40.4586 165.038 40.4566 164.899C40.4539 164.791 40.4539 164.791 40.4511 164.679C40.4765 164.454 40.5324 164.362 40.6835 164.197C41.0183 164.233 41.237 164.329 41.5213 164.507C42.1597 164.905 42.7415 164.968 43.4761 164.895C43.7925 164.785 43.9728 164.63 44.1699 164.363C44.3694 163.917 44.3889 163.491 44.2179 163.032C43.8597 162.506 43.2222 162.25 42.6732 161.972C41.9302 161.593 41.2196 161.115 40.8798 160.318C40.846 160.24 40.846 160.24 40.8114 160.16C40.5857 159.568 40.5502 158.69 40.8057 158.106C40.8554 158.017 40.9075 157.929 40.9628 157.844C41.0031 157.772 41.0434 157.7 41.0849 157.626C41.5492 157.032 42.0588 156.782 42.7823 156.604C43.6265 156.533 44.525 156.613 45.2215 157.146Z" fill="white"/>
<path d="M80.4606 157.231C80.6669 157.392 80.8036 157.53 80.8975 157.774C80.9185 157.975 80.9185 157.975 80.9193 158.193C80.9205 158.265 80.9216 158.337 80.9228 158.411C80.8938 158.641 80.8628 158.738 80.688 158.891C80.4437 158.929 80.3153 158.917 80.1001 158.794C80.0464 158.751 79.9928 158.708 79.9375 158.664C79.29 158.189 78.7045 158.018 77.8954 158.123C77.379 158.275 76.9991 158.581 76.7085 159.031C76.3055 159.827 76.1957 160.53 76.198 161.413C76.1969 161.499 76.1957 161.585 76.1946 161.673C76.1941 162.575 76.2885 163.598 76.9283 164.289C77.5067 164.825 77.982 164.874 78.7455 164.857C79.32 164.821 79.7455 164.544 80.1906 164.201C80.4088 164.057 80.4088 164.057 80.6444 164.062C80.8277 164.127 80.8277 164.127 80.8975 164.267C80.9079 164.413 80.9129 164.56 80.9149 164.707C80.9167 164.786 80.9185 164.865 80.9204 164.947C80.8899 165.25 80.7881 165.423 80.5749 165.637C79.6528 166.335 78.6633 166.428 77.5463 166.361C77.2929 166.323 77.0806 166.258 76.8482 166.152C76.7846 166.123 76.7211 166.094 76.6556 166.064C75.7004 165.587 75.1743 164.804 74.8366 163.809C74.6029 163.093 74.5212 162.4 74.5268 161.649C74.5262 161.575 74.5257 161.502 74.5251 161.426C74.5263 160.939 74.5818 160.484 74.6839 160.008C74.6978 159.934 74.7118 159.86 74.7261 159.784C74.9284 158.879 75.346 158.139 76.0104 157.495C76.0505 157.454 76.0906 157.413 76.132 157.371C77.2891 156.278 79.2055 156.35 80.4606 157.231Z" fill="white"/>
<path d="M83.1067 156.683C83.2145 156.682 83.3225 156.682 83.4303 156.684C83.4893 156.683 83.5482 156.683 83.6089 156.683C83.804 156.682 83.999 156.683 84.1941 156.685C84.3295 156.685 84.4648 156.685 84.6002 156.685C84.884 156.685 85.1678 156.687 85.4517 156.689C85.8158 156.692 86.1799 156.692 86.5441 156.691C86.8237 156.691 87.1032 156.692 87.3828 156.693C87.5171 156.694 87.6514 156.694 87.7857 156.694C87.9732 156.694 88.1607 156.695 88.3483 156.697C88.4318 156.697 88.4318 156.697 88.5171 156.697C88.8903 156.703 88.8903 156.703 89.0654 156.82C89.1776 157.005 89.1634 157.172 89.1619 157.386C89.1627 157.504 89.1627 157.504 89.1635 157.625C89.1321 157.872 89.1061 157.954 88.9263 158.123C88.7415 158.148 88.5861 158.156 88.4018 158.15C88.351 158.15 88.3002 158.149 88.2478 158.149C88.0856 158.147 87.9234 158.144 87.7612 158.14C87.6512 158.139 87.5411 158.138 87.4311 158.137C87.1615 158.134 86.8919 158.129 86.6224 158.123C86.6227 158.164 86.623 158.205 86.6233 158.247C86.631 159.24 86.6368 160.232 86.6404 161.225C86.6422 161.705 86.6447 162.186 86.6487 162.666C86.6525 163.129 86.6546 163.592 86.6555 164.055C86.6561 164.232 86.6574 164.409 86.6593 164.586C86.6618 164.833 86.6621 165.08 86.662 165.328C86.6632 165.401 86.6645 165.475 86.6658 165.551C86.6645 165.735 86.6609 165.902 86.6224 166.082C86.382 166.302 86.1699 166.322 85.85 166.322C85.743 166.324 85.743 166.324 85.6338 166.326C85.4355 166.291 85.4355 166.291 85.2854 166.197C85.0796 165.903 85.1197 165.607 85.1245 165.256C85.1245 165.179 85.1244 165.102 85.1244 165.023C85.1246 164.768 85.1268 164.514 85.129 164.259C85.1295 164.083 85.1299 163.906 85.1302 163.73C85.1311 163.313 85.1333 162.895 85.1361 162.478C85.1392 162.003 85.1408 161.528 85.1422 161.054C85.1451 160.077 85.15 159.1 85.1562 158.123C85.0875 158.125 85.0188 158.127 84.9481 158.129C84.6932 158.135 84.4383 158.139 84.1834 158.142C84.0731 158.144 83.9627 158.146 83.8524 158.149C83.6939 158.154 83.5354 158.156 83.3767 158.157C83.3028 158.16 83.3028 158.16 83.2273 158.163C83.0876 158.163 83.0876 158.163 82.8523 158.123C82.6654 157.895 82.6139 157.717 82.6167 157.425C82.6161 157.367 82.6156 157.31 82.615 157.25C82.6703 156.903 82.7466 156.745 83.1067 156.683Z" fill="white"/>
<path d="M48.0591 156.683C48.1669 156.682 48.2748 156.682 48.3827 156.684C48.4416 156.683 48.5006 156.683 48.5613 156.683C48.7564 156.682 48.9514 156.683 49.1465 156.685C49.2818 156.685 49.4172 156.685 49.5526 156.685C49.8364 156.685 50.1202 156.687 50.4041 156.689C50.7682 156.692 51.1323 156.692 51.4965 156.691C51.776 156.691 52.0556 156.692 52.3352 156.693C52.4695 156.694 52.6038 156.694 52.738 156.694C52.9256 156.694 53.1131 156.695 53.3006 156.697C53.3842 156.697 53.3842 156.697 53.4695 156.697C53.8427 156.703 53.8427 156.703 54.0178 156.82C54.13 157.005 54.1157 157.172 54.1143 157.386C54.1151 157.504 54.1151 157.504 54.1159 157.625C54.0845 157.872 54.0585 157.954 53.8787 158.123C53.6939 158.148 53.5385 158.156 53.3542 158.15C53.3034 158.15 53.2525 158.149 53.2002 158.149C53.0379 158.147 52.8758 158.144 52.7136 158.14C52.6036 158.139 52.4935 158.138 52.3835 158.137C52.1139 158.134 51.8443 158.129 51.5747 158.123C51.5751 158.164 51.5754 158.205 51.5757 158.247C51.5834 159.24 51.5892 160.232 51.5928 161.225C51.5946 161.705 51.5971 162.186 51.6011 162.666C51.6049 163.129 51.607 163.592 51.6079 164.055C51.6085 164.232 51.6098 164.409 51.6116 164.586C51.6142 164.833 51.6145 165.08 51.6144 165.328C51.6156 165.401 51.6169 165.475 51.6182 165.551C51.6169 165.735 51.6133 165.902 51.5747 166.082C51.3344 166.302 51.1223 166.322 50.8024 166.322C50.6954 166.324 50.6953 166.324 50.5861 166.326C50.3879 166.291 50.3879 166.291 50.2378 166.197C50.032 165.903 50.0721 165.607 50.0769 165.256C50.0769 165.179 50.0768 165.102 50.0768 165.023C50.077 164.768 50.0791 164.514 50.0813 164.259C50.0819 164.083 50.0823 163.906 50.0825 163.73C50.0835 163.313 50.0857 162.895 50.0885 162.478C50.0916 162.003 50.0932 161.528 50.0946 161.054C50.0975 160.077 50.1024 159.1 50.1086 158.123C50.0399 158.125 49.9712 158.127 49.9004 158.129C49.6456 158.135 49.3907 158.139 49.1358 158.142C49.0254 158.144 48.9151 158.146 48.8048 158.149C48.6462 158.154 48.4878 158.156 48.3291 158.157C48.2551 158.16 48.2551 158.16 48.1797 158.163C48.04 158.163 48.04 158.163 47.8047 158.123C47.6178 157.895 47.5663 157.717 47.5691 157.425C47.5685 157.367 47.568 157.31 47.5674 157.25C47.6227 156.903 47.699 156.745 48.0591 156.683Z" fill="white"/>
<path d="M120.418 156.718C120.553 156.796 120.553 156.796 120.623 156.936C120.629 157.041 120.631 157.147 120.631 157.252C120.631 157.319 120.631 157.386 120.631 157.454C120.631 157.527 120.631 157.601 120.631 157.676C120.631 157.753 120.631 157.83 120.631 157.909C120.631 158.165 120.63 158.42 120.63 158.675C120.629 158.852 120.629 159.029 120.629 159.206C120.629 159.624 120.628 160.042 120.628 160.46C120.627 160.936 120.627 161.412 120.626 161.888C120.625 162.867 120.624 163.846 120.623 164.825C120.71 164.823 120.797 164.822 120.887 164.82C121.212 164.813 121.536 164.809 121.86 164.806C122 164.804 122.141 164.802 122.281 164.799C122.483 164.795 122.684 164.793 122.886 164.791C122.949 164.789 123.012 164.788 123.076 164.786C123.512 164.786 123.512 164.786 123.734 164.992C123.887 165.27 123.881 165.494 123.834 165.803C123.688 166.158 123.688 166.158 123.555 166.291C123.433 166.299 123.31 166.303 123.187 166.304C123.109 166.305 123.03 166.306 122.949 166.306C122.821 166.307 122.821 166.307 122.69 166.308C122.602 166.309 122.515 166.309 122.425 166.31C122.24 166.311 122.054 166.312 121.869 166.312C121.631 166.313 121.394 166.315 121.157 166.318C120.931 166.32 120.704 166.321 120.478 166.321C120.393 166.322 120.308 166.324 120.22 166.325C120.141 166.325 120.061 166.324 119.979 166.324C119.875 166.325 119.875 166.325 119.768 166.325C119.522 166.282 119.405 166.182 119.226 166.012C119.139 165.836 119.147 165.715 119.146 165.518C119.145 165.443 119.145 165.368 119.144 165.291C119.144 165.209 119.143 165.126 119.143 165.041C119.143 164.954 119.142 164.867 119.141 164.778C119.14 164.49 119.138 164.202 119.137 163.914C119.137 163.815 119.137 163.716 119.136 163.617C119.135 163.204 119.134 162.792 119.133 162.38C119.132 161.789 119.129 161.198 119.125 160.607C119.123 160.192 119.121 159.776 119.121 159.361C119.121 159.113 119.12 158.865 119.118 158.616C119.115 158.34 119.115 158.063 119.116 157.786C119.115 157.704 119.114 157.621 119.112 157.536C119.117 156.982 119.117 156.982 119.323 156.745C119.678 156.573 120.045 156.611 120.418 156.718Z" fill="white"/>
<path d="M110.539 139.177C110.604 139.178 110.668 139.178 110.735 139.179C110.922 139.203 111.04 139.242 111.198 139.342C111.286 139.52 111.277 139.646 111.278 139.845C111.279 139.922 111.279 139.998 111.28 140.078C111.28 140.162 111.281 140.247 111.281 140.334C111.281 140.423 111.282 140.512 111.283 140.604C111.284 140.899 111.285 141.194 111.286 141.489C111.287 141.591 111.287 141.692 111.288 141.794C111.289 142.216 111.29 142.638 111.291 143.06C111.292 143.666 111.295 144.271 111.299 144.877C111.301 145.302 111.303 145.728 111.303 146.153C111.303 146.408 111.304 146.662 111.306 146.916C111.309 147.2 111.309 147.483 111.308 147.767C111.309 147.851 111.31 147.936 111.312 148.023C111.311 148.1 111.31 148.177 111.31 148.257C111.31 148.324 111.31 148.391 111.311 148.46C111.267 148.628 111.267 148.628 111.103 148.754C110.888 148.851 110.731 148.868 110.495 148.868C110.424 148.869 110.352 148.871 110.279 148.872C110.028 148.828 109.959 148.755 109.801 148.558C109.766 148.383 109.766 148.383 109.765 148.182C109.764 148.106 109.764 148.029 109.763 147.951C109.763 147.867 109.764 147.784 109.764 147.698C109.763 147.61 109.763 147.522 109.762 147.431C109.761 147.189 109.761 146.948 109.761 146.706C109.762 146.505 109.761 146.303 109.761 146.102C109.76 145.626 109.76 145.15 109.761 144.675C109.762 144.184 109.761 143.693 109.759 143.203C109.757 142.781 109.756 142.36 109.757 141.939C109.757 141.687 109.757 141.436 109.756 141.184C109.754 140.903 109.756 140.623 109.757 140.343C109.756 140.259 109.756 140.176 109.755 140.09C109.761 139.528 109.761 139.528 109.967 139.291C110.174 139.191 110.309 139.17 110.539 139.177Z" fill="white"/>
<path d="M84.7766 139.177C84.8415 139.178 84.9064 139.178 84.9733 139.179C85.1598 139.203 85.2777 139.242 85.4355 139.342C85.5244 139.52 85.5149 139.646 85.5161 139.845C85.5167 139.922 85.5173 139.998 85.5179 140.078C85.5182 140.162 85.5185 140.247 85.5188 140.334C85.5194 140.423 85.5199 140.512 85.5205 140.604C85.5224 140.899 85.5234 141.194 85.5244 141.489C85.5248 141.591 85.5252 141.692 85.5256 141.794C85.5271 142.216 85.5284 142.638 85.5292 143.06C85.5303 143.666 85.5326 144.271 85.5366 144.877C85.5393 145.302 85.5406 145.728 85.541 146.153C85.5413 146.408 85.5421 146.662 85.5444 146.916C85.5469 147.2 85.5466 147.483 85.5461 147.767C85.5472 147.851 85.5484 147.936 85.5495 148.023C85.549 148.1 85.5484 148.177 85.5478 148.257C85.548 148.324 85.5482 148.391 85.5485 148.46C85.5053 148.628 85.5053 148.628 85.3411 148.754C85.1258 148.851 84.9686 148.868 84.733 148.868C84.6616 148.869 84.5903 148.871 84.5167 148.872C84.2661 148.828 84.1972 148.755 84.0392 148.558C84.0039 148.383 84.0039 148.383 84.0033 148.182C84.0024 148.106 84.0015 148.029 84.0006 147.951C84.001 147.867 84.0015 147.784 84.002 147.698C84.0014 147.61 84.0008 147.522 84.0001 147.431C83.9986 147.189 83.9988 146.948 83.9994 146.706C83.9997 146.505 83.9992 146.303 83.9987 146.102C83.9975 145.626 83.9978 145.15 83.999 144.675C84.0001 144.184 83.999 143.693 83.9968 143.203C83.9949 142.781 83.9944 142.36 83.995 141.939C83.9953 141.687 83.9952 141.436 83.9938 141.184C83.9922 140.903 83.9936 140.623 83.9951 140.343C83.9943 140.259 83.9935 140.176 83.9927 140.09C83.9992 139.528 83.9992 139.528 84.2045 139.291C84.4121 139.191 84.5473 139.17 84.7766 139.177Z" fill="white"/>
<path d="M35.0677 139.177C35.1326 139.178 35.1975 139.178 35.2643 139.179C35.4508 139.203 35.5688 139.242 35.7266 139.342C35.8154 139.52 35.806 139.646 35.8071 139.845C35.8077 139.922 35.8083 139.998 35.809 140.078C35.8092 140.162 35.8095 140.247 35.8099 140.334C35.8104 140.423 35.811 140.512 35.8116 140.604C35.8134 140.899 35.8145 141.194 35.8155 141.489C35.8159 141.591 35.8162 141.692 35.8166 141.794C35.8181 142.216 35.8194 142.638 35.8202 143.06C35.8213 143.666 35.8237 144.271 35.8276 144.877C35.8303 145.302 35.8317 145.728 35.8321 146.153C35.8323 146.408 35.8332 146.662 35.8354 146.916C35.8379 147.2 35.8376 147.483 35.8371 147.767C35.8383 147.851 35.8394 147.936 35.8406 148.023C35.84 148.1 35.8394 148.177 35.8388 148.257C35.8391 148.324 35.8393 148.391 35.8395 148.46C35.7964 148.628 35.7964 148.628 35.6322 148.754C35.4169 148.851 35.2596 148.868 35.024 148.868C34.9527 148.869 34.8813 148.871 34.8078 148.872C34.5571 148.828 34.4882 148.755 34.3303 148.558C34.2949 148.383 34.2949 148.383 34.2943 148.182C34.2934 148.106 34.2925 148.029 34.2916 147.951C34.2921 147.867 34.2925 147.784 34.293 147.698C34.2924 147.61 34.2918 147.522 34.2912 147.431C34.2896 147.189 34.2898 146.948 34.2904 146.706C34.2908 146.505 34.2903 146.303 34.2898 146.102C34.2886 145.626 34.2888 145.15 34.29 144.675C34.2912 144.184 34.2901 143.693 34.2878 143.203C34.286 142.781 34.2855 142.36 34.2861 141.939C34.2864 141.687 34.2862 141.436 34.2848 141.184C34.2833 140.903 34.2846 140.623 34.2862 140.343C34.2854 140.259 34.2846 140.176 34.2837 140.09C34.2902 139.528 34.2902 139.528 34.4955 139.291C34.7032 139.191 34.8383 139.17 35.0677 139.177Z" fill="white"/>
<path fill-rule="evenodd" clip-rule="evenodd" d="M102.517 156.691L102.35 156.69C102.056 156.681 101.838 156.684 101.584 156.85C101.505 156.961 101.457 157.029 101.427 157.103C101.382 157.218 101.381 157.349 101.377 157.683L101.379 157.931C101.378 158.207 101.376 158.483 101.378 158.759C101.379 159.007 101.38 159.254 101.379 159.501C101.379 159.916 101.379 160.33 101.381 160.745C101.383 161.227 101.384 161.71 101.383 162.192C101.382 162.66 101.382 163.128 101.383 163.596C101.383 163.794 101.384 163.993 101.384 164.191C101.383 164.428 101.383 164.666 101.384 164.903L101.386 165.166L101.385 165.414L101.387 165.642C101.388 165.746 101.388 165.795 101.393 165.844C101.398 165.887 101.407 165.93 101.423 166.012C101.581 166.208 101.65 166.282 101.901 166.326L102.117 166.322C102.352 166.322 102.51 166.305 102.725 166.209C102.813 166.141 102.854 166.11 102.879 166.068C102.901 166.033 102.912 165.989 102.931 165.908L102.929 165.699L102.929 165.462L102.924 165.206C102.922 164.936 102.92 164.666 102.916 164.396C102.912 164.161 102.909 163.926 102.908 163.691C102.904 163.234 102.899 162.776 102.892 162.319L102.89 162.172L103.081 162.185L103.33 162.203C103.573 162.22 103.775 162.235 104.007 162.312C104.448 162.819 104.673 163.076 104.834 163.369C105.002 163.673 105.101 164.013 105.303 164.707C105.362 164.879 105.421 165.05 105.481 165.22L105.538 165.383C105.633 165.663 105.725 165.903 105.89 166.149C105.956 166.215 105.991 166.25 106.032 166.274C106.081 166.3 106.138 166.311 106.262 166.333L106.52 166.326L106.777 166.324C107.023 166.289 107.131 166.274 107.288 166.082C107.313 165.767 107.279 165.511 107.173 165.213L107.122 165.078L107.014 164.782C106.957 164.63 106.9 164.478 106.845 164.326C106.806 164.217 106.767 164.106 106.727 163.994C106.49 163.321 106.236 162.6 105.813 162.048C105.694 161.907 105.617 161.781 105.543 161.614C105.73 161.51 105.892 161.404 106.053 161.263C106.552 160.741 106.785 160.226 106.818 159.502C106.835 158.68 106.693 158.044 106.123 157.422C105.314 156.736 104.405 156.714 103.399 156.703C103.282 156.703 103.164 156.702 103.047 156.7L103.045 156.7C102.869 156.696 102.693 156.693 102.517 156.691ZM103.588 158.106L102.889 158.123V160.846C103.028 160.846 103.159 160.849 103.284 160.852C103.944 160.867 104.438 160.878 104.984 160.427C105.181 160.18 105.256 159.952 105.283 159.638C105.288 159.125 105.28 158.787 104.914 158.402C104.557 158.153 104.234 158.093 103.804 158.098L103.588 158.106Z" fill="white"/>
<path fill-rule="evenodd" clip-rule="evenodd" d="M57.5557 156.691L57.388 156.69C57.0946 156.681 56.8761 156.684 56.6225 156.85C56.5433 156.961 56.4953 157.029 56.4659 157.103C56.4208 157.218 56.4192 157.349 56.4153 157.683L56.4178 157.931C56.4162 158.207 56.4149 158.483 56.4164 158.759C56.4178 159.007 56.418 159.254 56.4176 159.501C56.417 159.916 56.4175 160.33 56.4194 160.745C56.4217 161.227 56.4228 161.71 56.4216 162.192C56.4204 162.66 56.4202 163.128 56.4214 163.596C56.4219 163.794 56.4224 163.993 56.422 164.191C56.4214 164.428 56.4215 164.666 56.4228 164.903L56.4246 165.166L56.4232 165.414L56.4259 165.642C56.4262 165.746 56.4264 165.795 56.4316 165.844C56.4363 165.887 56.4451 165.93 56.4618 166.012C56.6199 166.208 56.6888 166.282 56.9394 166.326L57.1556 166.322C57.3908 166.322 57.5487 166.305 57.7639 166.209C57.8514 166.141 57.8923 166.11 57.9177 166.068C57.9399 166.033 57.9504 165.989 57.9699 165.908L57.9676 165.699L57.9675 165.462L57.9621 165.206C57.9605 164.936 57.9585 164.666 57.9543 164.396C57.9503 164.161 57.9479 163.926 57.9461 163.691C57.9426 163.234 57.9373 162.776 57.9303 162.319L57.928 162.172L58.1191 162.185L58.3687 162.203C58.6119 162.22 58.8136 162.235 59.045 162.312C59.4868 162.819 59.7116 163.076 59.8729 163.369C60.0401 163.673 60.1392 164.013 60.341 164.707C60.4001 164.879 60.4594 165.05 60.5195 165.22L60.5769 165.383C60.6718 165.663 60.7638 165.903 60.9289 166.149C60.9941 166.215 61.0291 166.25 61.0709 166.274C61.1193 166.3 61.1768 166.311 61.3009 166.333L61.5584 166.326L61.8158 166.324C62.0611 166.289 62.1692 166.274 62.3264 166.082C62.351 165.767 62.3172 165.511 62.2112 165.213L62.1603 165.078L62.0524 164.782C61.9956 164.63 61.9388 164.478 61.8834 164.326C61.8441 164.217 61.805 164.106 61.7655 163.994C61.5286 163.321 61.2749 162.6 60.8511 162.048C60.7325 161.907 60.6553 161.781 60.581 161.614C60.7682 161.51 60.9303 161.404 61.0918 161.263C61.59 160.741 61.823 160.226 61.8562 159.502C61.8731 158.68 61.7319 158.044 61.1613 157.422C60.352 156.736 59.4432 156.714 58.4377 156.703C58.3201 156.703 58.2026 156.702 58.0851 156.7L58.0837 156.7C57.9077 156.696 57.7318 156.693 57.5557 156.691ZM58.6261 158.106L57.9279 158.123V160.846C58.0664 160.846 58.1974 160.849 58.3225 160.852C58.982 160.867 59.4763 160.878 60.0224 160.427C60.2197 160.18 60.2946 159.952 60.321 159.638C60.3262 159.125 60.3186 158.787 59.9526 158.402C59.5956 158.153 59.2728 158.093 58.8426 158.098L58.6261 158.106Z" fill="white"/>
<path fill-rule="evenodd" clip-rule="evenodd" d="M100.772 139.237L100.604 139.236C100.311 139.227 100.092 139.23 99.8386 139.396C99.7594 139.507 99.7115 139.575 99.6821 139.649C99.6369 139.764 99.6354 139.895 99.6314 140.229L99.6339 140.477C99.6323 140.753 99.631 141.029 99.6325 141.305C99.634 141.553 99.6341 141.8 99.6338 142.047C99.6332 142.462 99.6337 142.876 99.6356 143.291C99.6378 143.773 99.6389 144.256 99.6377 144.738C99.6366 145.206 99.6363 145.674 99.6375 146.142C99.638 146.34 99.6385 146.539 99.6382 146.737C99.6376 146.974 99.6376 147.212 99.6389 147.449L99.6407 147.712L99.6394 147.96L99.642 148.188C99.6424 148.292 99.6425 148.341 99.6478 148.39C99.6525 148.433 99.6613 148.477 99.678 148.558C99.836 148.754 99.905 148.828 100.156 148.872L100.372 148.868C100.607 148.868 100.765 148.851 100.98 148.755C101.068 148.687 101.108 148.656 101.134 148.615C101.156 148.579 101.167 148.535 101.186 148.454L101.184 148.245L101.184 148.008L101.178 147.752C101.177 147.482 101.175 147.212 101.17 146.942C101.166 146.707 101.164 146.472 101.162 146.237C101.159 145.78 101.153 145.322 101.146 144.865L101.144 144.718L101.335 144.731L101.585 144.749C101.828 144.766 102.03 144.781 102.261 144.858C102.703 145.365 102.928 145.622 103.089 145.915C103.256 146.219 103.355 146.559 103.557 147.254C103.616 147.425 103.676 147.596 103.736 147.766L103.793 147.929C103.888 148.209 103.98 148.449 104.145 148.695C104.21 148.761 104.245 148.796 104.287 148.82C104.335 148.846 104.393 148.857 104.517 148.879L104.775 148.872L105.032 148.87C105.277 148.835 105.385 148.82 105.543 148.628C105.567 148.313 105.533 148.058 105.427 147.76L105.376 147.624L105.269 147.328C105.212 147.176 105.155 147.024 105.1 146.872C105.06 146.763 105.021 146.652 104.982 146.54C104.745 145.867 104.491 145.147 104.067 144.594C103.949 144.453 103.871 144.327 103.797 144.16C103.984 144.056 104.146 143.95 104.308 143.809C104.806 143.287 105.039 142.772 105.072 142.048C105.089 141.226 104.948 140.59 104.377 139.968C103.568 139.282 102.659 139.26 101.654 139.249C101.536 139.249 101.419 139.248 101.301 139.246L101.3 139.246C101.124 139.243 100.948 139.239 100.772 139.237ZM101.842 140.652L101.144 140.669V143.392C101.283 143.392 101.414 143.395 101.539 143.398C102.198 143.413 102.692 143.424 103.239 142.973C103.436 142.726 103.511 142.498 103.537 142.184C103.542 141.671 103.535 141.333 103.169 140.948C102.812 140.699 102.489 140.639 102.059 140.644L101.842 140.652Z" fill="white"/>
<path fill-rule="evenodd" clip-rule="evenodd" d="M114.263 158.116C114.124 157.609 113.966 157.028 113.611 156.718C113.195 156.616 112.713 156.574 112.3 156.706C112.2 156.778 112.136 156.825 112.087 156.883C111.998 156.989 111.956 157.135 111.841 157.545C111.812 157.649 111.784 157.752 111.754 157.855L111.708 158.017C111.604 158.379 111.486 158.736 111.366 159.093C111.281 159.343 111.197 159.593 111.114 159.844C110.987 160.222 110.861 160.6 110.734 160.978C110.546 161.539 110.358 162.1 110.171 162.662L110.148 162.732C110.067 162.975 109.986 163.219 109.905 163.462C109.818 163.72 109.731 163.977 109.646 164.236L109.549 164.527C109.536 164.568 109.522 164.608 109.508 164.648C109.337 165.146 109.176 165.615 109.243 166.152C109.356 166.228 109.408 166.262 109.466 166.281C109.514 166.298 109.566 166.303 109.661 166.312L109.902 166.313C110.027 166.315 110.086 166.316 110.146 166.313C110.201 166.31 110.255 166.304 110.36 166.291C110.639 166.082 110.639 166.082 110.918 165.384L111.337 163.918H114.479L114.815 164.987L114.92 165.323L115.004 165.588C115.007 165.597 115.009 165.606 115.012 165.615C115.078 165.831 115.14 166.032 115.277 166.216C115.329 166.252 115.362 166.275 115.399 166.29C115.466 166.317 115.545 166.317 115.767 166.317L115.91 166.313C115.918 166.313 115.925 166.313 115.932 166.313C116.211 166.315 116.397 166.316 116.643 166.152C116.722 165.779 116.628 165.404 116.512 165.05L116.454 164.883C116.394 164.699 116.333 164.516 116.271 164.333C116.207 164.146 116.145 163.96 116.083 163.773L115.961 163.408C115.862 163.114 115.763 162.819 115.671 162.522C115.524 162.043 115.374 161.565 115.219 161.089L114.902 160.119C114.822 159.875 114.742 159.631 114.662 159.387C114.6 159.194 114.537 159.002 114.474 158.809L114.383 158.532C114.342 158.406 114.303 158.264 114.263 158.116ZM113.151 159.379C113.091 159.168 113.038 158.986 112.873 158.821C112.847 158.847 112.831 158.863 112.818 158.882C112.796 158.913 112.783 158.952 112.748 159.056C112.632 159.444 112.515 159.83 112.392 160.216C112.346 160.36 112.3 160.504 112.255 160.649L112.162 160.942C112.115 161.09 112.067 161.238 112.02 161.386L111.976 161.528C111.867 161.87 111.808 162.16 111.756 162.521H114.06C114.06 162.312 114.017 162.151 113.954 161.953C113.922 161.856 113.891 161.758 113.86 161.66L113.811 161.506C113.747 161.308 113.684 161.11 113.622 160.912L113.536 160.636L113.525 160.6C113.454 160.375 113.383 160.149 113.315 159.922L113.267 159.764L113.174 159.458C113.166 159.431 113.159 159.405 113.151 159.379Z" fill="white"/>
<path fill-rule="evenodd" clip-rule="evenodd" d="M120.267 140.662C120.129 140.155 119.97 139.574 119.615 139.264C119.199 139.162 118.717 139.12 118.304 139.252C118.204 139.324 118.14 139.371 118.091 139.429C118.002 139.535 117.961 139.681 117.845 140.091C117.816 140.195 117.788 140.298 117.758 140.401L117.712 140.563C117.608 140.925 117.49 141.282 117.37 141.639C117.285 141.889 117.201 142.14 117.118 142.39C116.992 142.768 116.865 143.146 116.739 143.524C116.55 144.085 116.362 144.646 116.175 145.208L116.152 145.278C116.071 145.521 115.991 145.765 115.909 146.008C115.822 146.266 115.735 146.523 115.65 146.782L115.553 147.073C115.54 147.114 115.526 147.154 115.512 147.194C115.341 147.692 115.18 148.161 115.247 148.698C115.36 148.774 115.412 148.808 115.47 148.827C115.518 148.844 115.57 148.849 115.665 148.858L115.906 148.859C116.031 148.861 116.091 148.862 116.15 148.859C116.205 148.856 116.259 148.85 116.364 148.837C116.643 148.628 116.643 148.628 116.922 147.93L117.341 146.464H120.483L120.819 147.533L120.924 147.869L121.008 148.134C121.011 148.143 121.014 148.152 121.016 148.161C121.082 148.377 121.144 148.578 121.282 148.762C121.333 148.798 121.366 148.821 121.403 148.836C121.47 148.863 121.549 148.863 121.771 148.863L121.914 148.859C121.922 148.859 121.929 148.859 121.936 148.859C122.216 148.861 122.401 148.862 122.647 148.698C122.726 148.325 122.632 147.951 122.516 147.596L122.459 147.429C122.398 147.246 122.337 147.062 122.275 146.879C122.212 146.692 122.149 146.506 122.087 146.319L121.966 145.954C121.866 145.66 121.767 145.365 121.675 145.068C121.528 144.589 121.378 144.111 121.223 143.635L120.906 142.665C120.826 142.421 120.746 142.177 120.666 141.933C120.604 141.74 120.541 141.548 120.478 141.355L120.387 141.078C120.346 140.952 120.307 140.81 120.267 140.662ZM119.155 141.925C119.095 141.714 119.043 141.532 118.877 141.367C118.852 141.393 118.835 141.409 118.822 141.428C118.8 141.459 118.787 141.498 118.752 141.602C118.637 141.99 118.519 142.376 118.396 142.762C118.35 142.906 118.305 143.05 118.259 143.195L118.166 143.488C118.119 143.636 118.071 143.784 118.024 143.932L117.98 144.074C117.871 144.416 117.812 144.706 117.76 145.067H120.064C120.064 144.858 120.021 144.697 119.958 144.499C119.926 144.402 119.895 144.304 119.864 144.206L119.815 144.052C119.751 143.854 119.688 143.656 119.626 143.458L119.541 143.182L119.529 143.146C119.458 142.921 119.388 142.695 119.319 142.468L119.271 142.31L119.178 142.004C119.17 141.977 119.163 141.951 119.155 141.925Z" fill="white"/>
<path d="M111.961 136.458C112.032 136.457 112.104 136.456 112.177 136.455C112.41 136.483 112.542 136.556 112.733 136.689C112.711 137.083 112.549 137.264 112.271 137.519C112.194 137.592 112.117 137.665 112.041 137.739C112.004 137.774 111.967 137.809 111.928 137.846C111.796 137.976 111.675 138.114 111.555 138.256C111.331 138.519 111.092 138.767 110.779 138.924C110.651 138.932 110.523 138.936 110.395 138.937C110.326 138.938 110.258 138.939 110.187 138.94C110.011 138.924 110.011 138.924 109.871 138.784C109.83 138.569 109.834 138.426 109.949 138.236C110.059 138.093 110.175 137.956 110.294 137.82C110.378 137.721 110.462 137.622 110.545 137.523C110.586 137.476 110.626 137.429 110.668 137.38C110.843 137.171 111.005 136.952 111.165 136.731C111.397 136.478 111.629 136.459 111.961 136.458Z" fill="white"/>
<path d="M40.0552 6.48279C40.2174 6.72612 40.2304 6.91773 40.2518 7.20004C40.2561 7.25028 40.2604 7.30051 40.2648 7.35228C40.2784 7.5133 40.2911 7.67438 40.3039 7.83547C40.3127 7.9412 40.3215 8.04692 40.3305 8.15264C40.3813 8.75939 40.4281 9.36645 40.4741 9.97358C40.451 9.97358 40.428 9.97358 40.4042 9.97358C40.1997 9.41449 40.1852 8.88627 40.1948 8.298C40.1487 8.298 40.1026 8.298 40.0552 8.298C40.0552 8.43624 40.0552 8.57447 40.0552 8.7169C39.986 8.75146 39.986 8.75146 39.9155 8.78671C39.9254 8.53362 39.9357 8.28054 39.9461 8.02746C39.9488 7.95673 39.9516 7.88599 39.9544 7.81311C39.973 7.36754 40.0051 6.92594 40.0552 6.48279Z" fill="#DB3542"/>
<path d="M5.56605 43.206C5.56605 43.229 5.56605 43.2521 5.56605 43.2758C5.40477 43.2989 5.2435 43.3219 5.07734 43.3456C5.07734 43.3687 5.07734 43.3917 5.07734 43.4155C5.26165 43.4385 5.44597 43.4615 5.63586 43.4853C5.63586 43.5313 5.63586 43.5774 5.63586 43.6249C5.50262 43.6186 5.50262 43.6186 5.36669 43.6121C5.27865 43.6079 5.27865 43.6079 5.18883 43.6036C5.05818 43.5974 4.92754 43.5911 4.7969 43.5847C4.44826 43.5677 4.09967 43.5522 3.75084 43.5398C3.65096 43.536 3.65096 43.536 3.54907 43.532C3.42038 43.5271 3.29167 43.5227 3.16294 43.5188C3.10468 43.5165 3.04643 43.5141 2.98641 43.5117C2.90937 43.5091 2.90937 43.5091 2.83077 43.5064C2.7036 43.4853 2.7036 43.4853 2.56396 43.3456C2.61107 43.3439 2.65817 43.3421 2.7067 43.3403C2.92385 43.3321 3.14098 43.3236 3.35812 43.3151C3.43219 43.3123 3.50626 43.3096 3.58257 43.3068C3.98731 43.2906 4.38784 43.2639 4.79054 43.2205C5.04994 43.195 5.30572 43.2018 5.56605 43.206Z" fill="#DD404D"/>
<path d="M40.1945 8.29803C40.2406 8.29803 40.2867 8.29803 40.3342 8.29803C40.3578 8.48563 40.381 8.67325 40.404 8.86093C40.4106 8.91344 40.4173 8.96595 40.4242 9.02006C40.463 9.34068 40.4807 9.65066 40.4738 9.97362C40.4508 9.97362 40.4277 9.97362 40.404 9.97362C40.1994 9.41452 40.185 8.88631 40.1945 8.29803Z" fill="#DF4B57"/>
<path d="M116.922 76.3685C116.991 76.4031 116.991 76.4031 117.062 76.4383C117.134 76.7901 117.138 77.1286 117.132 77.4856C117.086 77.4625 117.04 77.4395 116.992 77.4158C116.906 77.0694 116.915 76.7229 116.922 76.3685Z" fill="#F18C48"/>
<path d="M78.8028 45.5797C78.8259 45.5797 78.8489 45.5797 78.8727 45.5797C78.8855 46.4643 78.8855 46.4643 78.8028 46.8364C78.6632 46.6968 78.6632 46.6968 78.6458 46.5222C78.6687 46.2011 78.7334 45.8936 78.8028 45.5797Z" fill="#D4C7BE"/>
<path d="M116.434 73.7156C116.48 73.7156 116.526 73.7156 116.573 73.7156C116.597 73.9229 116.62 74.1303 116.643 74.3439C116.597 74.3439 116.551 74.3439 116.504 74.3439C116.481 74.1366 116.458 73.9292 116.434 73.7156Z" fill="#F18F4D"/>
</svg>
