<svg width="222" height="220" viewBox="0 0 222 220" fill="none" xmlns="http://www.w3.org/2000/svg">
<g clip-path="url(#clip0_16_75)">
<path d="M153.703 25.9337C153.944 25.9334 154.185 25.9324 154.426 25.9306C155.907 25.9202 157.352 25.9659 158.824 26.1508C159.142 26.1905 159.461 26.2256 159.78 26.2607C160.796 26.3766 161.792 26.5709 162.79 26.7892C162.876 26.808 162.962 26.8268 163.05 26.8461C163.964 27.0479 164.87 27.2549 165.758 27.5502C165.91 27.5965 166.063 27.6424 166.215 27.6882C167.344 28.0363 168.463 28.4142 169.563 28.844C169.658 28.8807 169.658 28.8807 169.754 28.9182C169.957 28.9976 170.16 29.0777 170.363 29.158C170.425 29.1827 170.488 29.2074 170.553 29.2329C170.944 29.3892 171.32 29.5644 171.694 29.7573C171.823 29.8207 171.823 29.8207 171.953 29.8854C172.21 30.0126 172.466 30.1409 172.721 30.2698C172.855 30.3371 172.988 30.4042 173.122 30.4711C175.54 31.6845 177.841 33.1445 179.951 34.8402C180.055 34.9234 180.159 35.0058 180.264 35.088C181.035 35.6962 181.776 36.3403 182.497 37.0074C182.696 37.1921 182.898 37.3731 183.106 37.5486C183.322 37.7325 183.527 37.9192 183.719 38.1289C183.719 38.1792 183.719 38.2294 183.719 38.2811C183.769 38.2811 183.82 38.2811 183.871 38.2811C183.976 38.3876 183.976 38.3876 184.1 38.538C184.317 38.7947 184.545 39.0343 184.785 39.2705C185.049 39.5321 185.302 39.7967 185.543 40.0791C185.669 40.2261 185.796 40.3717 185.924 40.5167C186.419 41.0796 186.896 41.6497 187.344 42.2507C187.418 42.3503 187.493 42.4496 187.567 42.5488C188.508 43.7974 189.393 45.0829 190.181 46.4341C190.271 46.588 190.362 46.7411 190.454 46.8942C192.432 50.2128 193.847 53.8057 194.831 57.5359C194.849 57.6043 194.867 57.6727 194.885 57.7432C195.065 58.4272 195.233 59.1028 195.326 59.8049C195.361 60.0358 195.412 60.2561 195.469 60.4826C195.607 61.0716 195.69 61.6639 195.767 62.2633C195.791 62.4474 195.816 62.6313 195.841 62.8152C196.065 64.4879 196.067 66.165 196.071 67.8497C196.071 68.0969 196.073 68.3441 196.075 68.5913C196.089 69.9592 196.059 71.3085 195.909 72.6693C195.903 72.7261 195.896 72.783 195.89 72.8416C195.809 73.5604 195.698 74.2713 195.567 74.9826C195.52 75.2439 195.48 75.5049 195.444 75.7679C195.382 76.185 195.286 76.5901 195.18 76.9978C195.097 77.3173 195.023 77.6371 194.956 77.9602C194.782 78.7871 194.538 79.5882 194.285 80.3937C194.223 80.5906 194.164 80.7879 194.105 80.9856C193.64 82.5425 193.64 82.5425 193.308 83.2459C193.213 83.4549 193.133 83.668 193.052 83.8827C192.704 84.7922 192.306 85.6639 191.864 86.5303C191.788 86.681 191.713 86.8323 191.639 86.984C190.626 89.0466 189.411 90.9933 188.057 92.8489C188.022 92.8967 187.987 92.9446 187.951 92.994C187.186 94.0383 186.38 95.052 185.498 96.0004C185.354 96.1573 185.214 96.3163 185.075 96.4777C184.799 96.7939 184.509 97.0939 184.213 97.3911C184.16 97.4444 184.107 97.4976 184.052 97.5525C183.941 97.6643 183.829 97.776 183.717 97.8877C183.549 98.0562 183.381 98.2254 183.213 98.3946C182.698 98.9121 182.185 99.4159 181.609 99.8657C181.425 100.011 181.255 100.166 181.084 100.326C180.601 100.765 180.08 101.154 179.558 101.545C179.44 101.633 179.323 101.721 179.206 101.81C177.885 102.807 176.504 103.695 175.078 104.535C174.892 104.644 174.707 104.756 174.522 104.867C173.83 105.28 173.134 105.636 172.392 105.953C172.113 106.072 171.845 106.207 171.576 106.348C170.78 106.754 169.939 107.062 169.107 107.385C169.026 107.417 168.945 107.448 168.862 107.481C167.401 108.05 165.908 108.523 164.388 108.907C164.323 108.924 164.259 108.94 164.192 108.957C163.726 109.074 163.259 109.183 162.79 109.288C162.719 109.304 162.648 109.32 162.575 109.336C161.244 109.633 159.905 109.816 158.549 109.955C158.431 109.967 158.313 109.98 158.195 109.993C156.882 110.139 155.573 110.151 154.254 110.149C154.013 110.148 153.772 110.149 153.531 110.15C150.574 110.167 147.723 109.827 144.829 109.212C144.743 109.193 144.743 109.193 144.656 109.175C144.28 109.094 143.908 109.003 143.535 108.907C143.458 108.887 143.381 108.867 143.301 108.847C139.274 107.798 135.377 106.162 131.859 103.932C131.67 103.812 131.479 103.694 131.289 103.577C130.062 102.818 128.904 101.973 127.782 101.068C127.71 101.011 127.638 100.953 127.564 100.893C127.357 100.725 127.15 100.554 126.944 100.383C126.83 100.289 126.83 100.289 126.713 100.192C125.712 99.3604 124.783 98.4571 123.862 97.5389C123.823 97.4996 123.783 97.4603 123.742 97.4198C123.296 96.9753 122.864 96.5243 122.454 96.0453C122.347 95.9277 122.239 95.8104 122.131 95.6933C121.74 95.2603 121.385 94.802 121.028 94.3411C120.9 94.1777 120.768 94.0176 120.637 93.8572C118.837 91.6102 117.24 89.0687 116.052 86.448C115.944 86.2158 115.826 85.9892 115.709 85.7615C115.479 85.3057 115.286 84.8427 115.102 84.3672C115.011 84.135 114.914 83.9068 114.815 83.6781C114.313 82.4826 113.924 81.2286 113.542 79.99C113.526 79.9403 113.511 79.8907 113.495 79.8396C113.479 79.789 113.464 79.7385 113.448 79.6864C113.414 79.5811 113.378 79.4763 113.342 79.3719C113.176 78.8996 113.072 78.4228 112.974 77.9322C112.942 77.7752 112.911 77.6182 112.879 77.4613C112.864 77.3858 112.848 77.3104 112.833 77.2327C112.794 77.0431 112.753 76.8542 112.71 76.6654C112.478 75.6322 112.314 74.5858 112.17 73.5371C112.158 73.4513 112.146 73.3656 112.134 73.2773C111.909 71.5793 111.848 69.8816 111.851 68.1711C111.852 67.9503 111.851 67.7295 111.85 67.5086C111.838 65.5816 111.909 63.6558 112.281 61.7591C112.33 61.506 112.366 61.2544 112.399 60.9987C112.601 59.5463 112.945 58.1144 113.321 56.6987C113.343 56.6166 113.343 56.6166 113.365 56.5328C113.806 54.8872 114.382 53.2332 115.072 51.6757C115.102 51.6075 115.131 51.5394 115.162 51.4691C115.496 50.7189 115.858 49.9804 116.213 49.2403C116.253 49.157 116.294 49.0736 116.335 48.9876C116.951 47.7311 117.656 46.5299 118.421 45.359C118.462 45.2945 118.504 45.23 118.548 45.1636C119.47 43.7484 120.457 42.393 121.541 41.097C121.597 41.0296 121.597 41.0296 121.654 40.9608C122.541 39.8983 123.498 38.9046 124.473 37.9231C124.559 37.8365 124.645 37.7498 124.731 37.6629C125.209 37.179 125.692 36.7211 126.227 36.2989C126.418 36.1453 126.598 35.9835 126.778 35.8172C127.244 35.3938 127.739 35.0105 128.238 34.6281C128.287 34.5909 128.335 34.5536 128.385 34.5153C130.405 32.9703 132.57 31.5381 134.865 30.4371C135.073 30.3362 135.28 30.2316 135.486 30.1271C136.956 29.3855 138.475 28.7613 140.035 28.2352C140.112 28.2089 140.189 28.1826 140.268 28.1555C141.746 27.6512 143.206 27.2077 144.738 26.8997C145.117 26.8218 145.495 26.7361 145.872 26.645C146.734 26.4426 147.606 26.3212 148.482 26.2041C148.573 26.1918 148.573 26.1918 148.666 26.1791C150.343 25.952 152.014 25.9357 153.703 25.9337Z" fill="#EF8035"/>
<path d="M69.6368 27.7786C69.8177 28.05 69.8209 28.2049 69.8458 28.5283C69.85 28.5803 69.8542 28.6323 69.8586 28.6858C69.8676 28.7976 69.8764 28.9094 69.885 29.0213C69.9076 29.3161 69.9326 29.6107 69.9575 29.9054C69.965 29.9938 69.965 29.9938 69.9726 30.0841C70.0992 31.5724 70.2556 33.0879 70.6407 34.5344C70.7034 34.7849 70.7561 35.0359 70.8073 35.2889C71.0436 36.4545 71.3795 37.5828 71.7297 38.7187C71.7716 38.8552 71.7716 38.8552 71.8145 38.9944C72.0803 39.8484 72.359 40.6908 72.739 41.5015C72.8362 41.7124 72.9256 41.9253 73.0134 42.1402C74.3623 45.4336 76.1379 48.5513 78.3128 51.3713C78.361 51.4339 78.361 51.4339 78.4102 51.4978C79.074 52.3577 79.7655 53.1916 80.4973 53.9945C80.6059 54.1142 80.7138 54.2344 80.8208 54.3555C81.2597 54.851 81.7194 55.3224 82.1881 55.7893C82.3135 55.9142 82.4384 56.0395 82.5633 56.1649C82.9853 56.5872 83.4129 56.9974 83.8685 57.3836C83.9592 57.4632 84.0498 57.5428 84.1402 57.6227C84.7266 58.1367 85.3226 58.6333 85.9418 59.1074C86.0728 59.208 86.2028 59.3098 86.3327 59.4117C87.8784 60.6101 89.5494 61.6735 91.2508 62.6349C91.3152 62.6717 91.3797 62.7084 91.4461 62.7462C92.6694 63.4412 93.9207 64.0465 95.2255 64.5721C95.4613 64.6675 95.6918 64.7711 95.9217 64.88C97.2558 65.4964 98.6894 65.912 100.093 66.3356C100.142 66.3503 100.191 66.3651 100.241 66.3804C101.104 66.641 101.967 66.8724 102.852 67.0443C102.917 67.0569 102.981 67.0695 103.047 67.0825C103.182 67.1088 103.317 67.1351 103.453 67.1613C103.653 67.2007 103.853 67.2417 104.053 67.283C104.798 67.4343 105.534 67.5479 106.292 67.6059C106.607 67.6306 106.91 67.6675 107.22 67.7328C107.892 67.8612 108.581 67.8662 109.264 67.8957C109.407 67.9023 109.55 67.909 109.693 67.9156C110.04 67.9318 110.387 67.9472 110.734 67.9623C110.734 68.0125 110.734 68.0628 110.734 68.1145C110.679 68.1152 110.625 68.116 110.569 68.1167C108.214 68.1546 105.885 68.3846 103.58 68.8756C103.484 68.8959 103.387 68.9163 103.288 68.9372C102.131 69.1827 100.988 69.4547 99.8611 69.8144C99.7077 69.8621 99.5538 69.9061 99.3988 69.9485C97.6374 70.4322 95.9411 71.1305 94.2855 71.8949C94.0941 71.9833 93.9022 72.0703 93.7099 72.1567C91.8187 73.0158 89.9882 74.0843 88.2826 75.2685C88.2322 75.3032 88.1818 75.338 88.1298 75.3738C87.0027 76.1525 85.9065 76.974 84.8579 77.856C84.8174 77.89 84.777 77.924 84.7353 77.9591C84.6014 78.0718 84.468 78.185 84.3347 78.2984C84.2954 78.3317 84.256 78.3649 84.2155 78.3992C83.4029 79.0951 82.6346 79.8384 81.8797 80.596C81.7458 80.7303 81.6115 80.8642 81.4771 80.9981C81.0403 81.4346 80.6136 81.8737 80.2154 82.3463C80.1414 82.4314 80.0673 82.5164 79.9931 82.6013C77.6071 85.3556 75.4958 88.4599 73.9741 91.775C73.8632 92.0111 73.7428 92.2415 73.6228 92.4731C73.3909 92.9314 73.2037 93.3998 73.0222 93.8796C72.9062 94.1859 72.7849 94.4846 72.6429 94.78C72.3499 95.4092 72.1397 96.0728 71.9199 96.7302C71.8969 96.7989 71.8739 96.8677 71.8502 96.9384C71.5418 97.8665 71.2731 98.7979 71.0485 99.7497C71.0086 99.9186 70.9676 100.087 70.9264 100.256C70.7264 101.08 70.5553 101.909 70.3978 102.743C70.3873 102.798 70.3768 102.852 70.366 102.909C70.1719 103.941 70.0706 104.982 69.965 106.026C69.9473 106.187 69.9246 106.349 69.8993 106.509C69.8444 106.937 69.8366 107.368 69.8223 107.799C69.819 107.891 69.8157 107.983 69.8123 108.078C69.8043 108.303 69.7965 108.529 69.789 108.755C69.7387 108.755 69.6885 108.755 69.6368 108.755C69.6338 108.692 69.6307 108.629 69.6276 108.564C69.547 106.943 69.4041 105.34 69.1801 103.732C69.169 103.651 69.1578 103.57 69.1463 103.486C69.0066 102.5 68.7988 101.533 68.5713 100.564C68.5585 100.51 68.5458 100.455 68.5326 100.399C68.2732 99.3009 67.9615 98.2234 67.6027 97.1533C67.5486 96.9918 67.495 96.8302 67.4414 96.6685C67.2263 96.0224 66.994 95.3854 66.7448 94.7515C66.6813 94.5834 66.6179 94.4154 66.5545 94.2473C66.4113 93.8751 66.2555 93.5121 66.0869 93.1509C65.9913 92.9415 65.9022 92.7301 65.8136 92.5177C65.4804 91.7281 65.0684 90.9848 64.6511 90.2371C64.5335 90.0254 64.4176 89.8129 64.3019 89.6001C63.1194 87.4298 61.708 85.3837 60.1236 83.4879C60.0861 83.4428 60.0486 83.3978 60.0099 83.3514C59.6081 82.8694 59.1994 82.3945 58.7768 81.9306C58.6663 81.8089 58.5564 81.6867 58.4474 81.5638C58.0181 81.0805 57.5706 80.619 57.1126 80.163C57.0446 80.0947 56.9766 80.0263 56.9065 79.9559C56.5197 79.5698 56.1243 79.201 55.7094 78.8454C55.5871 78.7347 55.465 78.6238 55.3432 78.5125C54.9439 78.1523 54.53 77.8127 54.1112 77.4755C54.0547 77.429 53.9982 77.3825 53.94 77.3346C51.0269 74.9576 47.7374 73.0346 44.2936 71.5393C44.213 71.5039 44.1324 71.4686 44.0494 71.4322C43.0779 71.0073 42.1177 70.6116 41.0972 70.3216C40.8051 70.2291 40.515 70.1321 40.2284 70.0239C39.7285 69.8353 39.2286 69.69 38.7094 69.5653C38.6307 69.546 38.552 69.5268 38.471 69.5069C38.2303 69.4482 37.9894 69.3901 37.7485 69.3322C37.6031 69.2969 37.4576 69.2617 37.3121 69.2264C36.9815 69.1465 36.6505 69.0683 36.3192 68.9912C36.1747 68.9574 36.0305 68.9228 35.8863 68.8881C33.7758 68.4022 31.5386 68.1927 29.3741 68.1433C28.936 68.1303 28.936 68.1303 28.7681 67.9623C28.8146 67.9608 28.8612 67.9593 28.9092 67.9577C29.769 67.9288 30.627 67.8922 31.4841 67.8149C31.5485 67.8092 31.6128 67.8035 31.6791 67.7977C32.209 67.7473 32.7328 67.6654 33.2583 67.5818C33.4241 67.5563 33.5899 67.5309 33.7557 67.5057C33.8376 67.4931 33.9196 67.4806 34.004 67.4676C34.1699 67.4422 34.3358 67.4168 34.5017 67.3915C35.6239 67.2262 35.6239 67.2262 36.7306 66.9825C37.0462 66.9003 37.3613 66.8204 37.6807 66.7547C39.108 66.4611 40.4926 66.0075 41.8535 65.4904C42.1158 65.3909 42.3803 65.3024 42.6478 65.2178C43.0468 65.0874 43.42 64.9187 43.7989 64.7388C44.0948 64.5998 44.3933 64.4681 44.6932 64.3378C44.8395 64.2742 44.9858 64.2106 45.132 64.1467C45.234 64.1023 45.336 64.0582 45.4383 64.0144C48.729 62.5851 51.8397 60.5198 54.5601 58.1926C54.7828 58.0026 55.0103 57.819 55.2385 57.6357C55.5375 57.3926 55.8138 57.1393 56.079 56.8598C56.2208 56.7198 56.3658 56.5909 56.5169 56.4612C56.9007 56.1278 57.2583 55.7698 57.6168 55.4097C57.6822 55.3446 57.7476 55.2795 57.815 55.2124C58.1537 54.8732 58.4815 54.5291 58.7938 54.1654C58.9351 54.001 59.0822 53.8423 59.2293 53.683C59.5751 53.2998 59.892 52.8982 60.208 52.4906C60.3935 52.2516 60.5829 52.016 60.7734 51.781C61.5289 50.8473 62.2075 49.8653 62.8634 48.8598C62.8977 48.8076 62.932 48.7554 62.9673 48.7016C63.9354 47.223 64.8037 45.6771 65.5328 44.0668C65.5978 43.9247 65.6655 43.7838 65.7334 43.643C66.3674 42.3273 66.9151 40.9591 67.3788 39.5741C67.4322 39.4152 67.4872 39.257 67.5424 39.0987C68.0174 37.7226 68.3692 36.3174 68.6804 34.8964C68.7195 34.7219 68.7611 34.5483 68.8041 34.3748C69.0703 33.2816 69.1964 32.1664 69.3323 31.0511C69.345 30.9492 69.345 30.9492 69.3579 30.8452C69.4835 29.826 69.5594 28.8024 69.6368 27.7786Z" fill="#D92735"/>
<path d="M153.961 26.7892C153.987 26.7892 154.012 26.7892 154.038 26.7892C154.039 26.8675 154.039 26.8675 154.041 26.9474C154.09 29.0446 154.273 31.1165 154.646 33.1821C154.663 33.2763 154.68 33.3705 154.697 33.4676C154.909 34.6495 155.156 35.8095 155.506 36.9589C155.577 37.2 155.639 37.443 155.7 37.6867C155.891 38.4498 156.138 39.1855 156.407 39.9246C156.471 40.1013 156.532 40.2786 156.592 40.4564C156.787 41.0251 156.997 41.5724 157.258 42.1149C157.388 42.3952 157.508 42.6785 157.628 42.9636C157.942 43.7142 158.292 44.4318 158.682 45.1454C158.784 45.3344 158.877 45.5272 158.97 45.7205C159.593 46.9728 160.338 48.1559 161.115 49.3164C161.151 49.3705 161.187 49.4245 161.224 49.4802C161.964 50.5876 162.772 51.6444 163.627 52.6651C163.66 52.7043 163.692 52.7435 163.726 52.7839C164.189 53.3381 164.661 53.8825 165.149 54.4155C165.216 54.4895 165.283 54.5635 165.352 54.6397C165.787 55.1183 166.234 55.584 166.69 56.0423C166.739 56.092 166.789 56.1418 166.84 56.193C167.134 56.4862 167.437 56.765 167.751 57.0364C167.922 57.184 168.088 57.336 168.255 57.4883C168.654 57.8483 169.068 58.1881 169.487 58.5252C169.573 58.5956 169.659 58.6661 169.746 58.7366C172.131 60.6776 174.789 62.378 177.562 63.7072C177.71 63.7781 177.857 63.85 178.004 63.9219C178.64 64.2294 179.286 64.5116 179.937 64.7849C180.012 64.8163 180.086 64.8477 180.163 64.88C180.61 65.0656 181.06 65.2272 181.521 65.3767C181.724 65.4456 181.922 65.5217 182.121 65.6033C182.543 65.776 182.974 65.9168 183.41 66.0549C183.493 66.0814 183.576 66.1078 183.662 66.1351C184.694 66.4596 185.73 66.7283 186.79 66.9438C187.12 67.011 187.446 67.0856 187.771 67.1727C188.204 67.2849 188.639 67.3398 189.083 67.3942C189.301 67.423 189.512 67.4591 189.726 67.5057C190.256 67.6167 190.792 67.6743 191.329 67.734C191.388 67.7407 191.448 67.7474 191.509 67.7542C192.639 67.8795 193.769 67.9291 194.906 67.9623C194.689 68.1793 194.532 68.1407 194.228 68.152C194.117 68.1568 194.005 68.1617 193.894 68.1665C193.835 68.1689 193.776 68.1712 193.715 68.1736C192.693 68.2154 191.679 68.2885 190.663 68.4142C190.565 68.4262 190.466 68.4382 190.364 68.4506C189.761 68.5278 189.166 68.6288 188.57 68.7444C188.273 68.8019 187.975 68.8556 187.676 68.9089C187.111 69.0128 186.557 69.1492 186.001 69.2936C185.851 69.3318 185.701 69.3679 185.551 69.4033C184.881 69.562 184.234 69.7616 183.583 69.9845C183.319 70.0748 183.054 70.1571 182.786 70.236C182.329 70.3749 181.88 70.5346 181.431 70.6974C181.362 70.722 181.294 70.7467 181.224 70.7721C180.704 70.962 180.194 71.1706 179.685 71.3871C179.573 71.4348 179.573 71.4348 179.458 71.4835C178.454 71.9123 177.471 72.3632 176.513 72.8884C176.33 72.9891 176.145 73.088 175.96 73.1868C175.07 73.665 174.214 74.1842 173.368 74.7357C173.311 74.7727 173.254 74.8097 173.195 74.8477C171.254 76.1079 169.425 77.5237 167.73 79.099C167.565 79.2505 167.397 79.3974 167.227 79.5434C166.833 79.8876 166.465 80.2582 166.095 80.6291C166.026 80.6979 165.957 80.7666 165.886 80.8374C165.539 81.1853 165.202 81.5372 164.882 81.9104C164.728 82.0887 164.567 82.2599 164.407 82.4319C164.046 82.8281 163.714 83.2423 163.387 83.6665C163.243 83.8517 163.098 84.0344 162.949 84.2153C162.384 84.9044 161.875 85.6225 161.381 86.3635C161.281 86.5117 161.18 86.6589 161.079 86.8056C159.993 88.3831 159.077 90.0716 158.223 91.7834C158.174 91.8809 158.174 91.8809 158.124 91.9805C156.422 95.3958 155.345 99.0784 154.646 102.819C154.632 102.893 154.618 102.968 154.604 103.044C154.243 104.998 154.11 106.999 154.038 108.983C153.885 108.831 153.885 108.831 153.867 108.661C153.867 108.589 153.867 108.517 153.867 108.443C153.866 108.36 153.865 108.277 153.864 108.191C153.863 108.099 153.862 108.008 153.862 107.913C153.84 106.936 153.749 105.976 153.628 105.007C153.62 104.941 153.612 104.876 153.604 104.809C153.397 103.133 153.074 101.489 152.668 99.8506C152.649 99.7755 152.631 99.7005 152.611 99.6232C152.075 97.4792 151.331 95.4118 150.461 93.3816C150.431 93.3114 150.401 93.2412 150.37 93.1689C149.992 92.2921 149.572 91.4429 149.117 90.6038C149.009 90.4035 148.902 90.2025 148.795 90.0014C147.378 87.3494 145.628 84.8083 143.611 82.5746C143.556 82.514 143.502 82.4533 143.446 82.3909C143.334 82.2664 143.222 82.1422 143.109 82.0181C143.012 81.9099 142.916 81.8014 142.822 81.6905C142.409 81.2058 141.959 80.7592 141.509 80.3101C141.371 80.1728 141.234 80.0351 141.096 79.8974C140.654 79.4544 140.209 79.0205 139.73 78.6171C139.645 78.544 139.561 78.4707 139.477 78.3974C136.932 76.1957 134.133 74.3062 131.141 72.7661C130.986 72.6852 130.832 72.602 130.679 72.5173C130.084 72.189 129.481 71.9165 128.85 71.6647C128.581 71.5567 128.319 71.4366 128.057 71.311C126.585 70.6226 124.992 70.1561 123.438 69.6937C123.354 69.6687 123.27 69.6436 123.183 69.6178C122.014 69.274 120.833 69.0296 119.638 68.7995C119.567 68.7856 119.497 68.7718 119.424 68.7575C117.312 68.3458 115.167 68.145 113.017 68.1145C113.017 68.0643 113.017 68.0141 113.017 67.9623C113.067 67.9616 113.118 67.9609 113.17 67.9602C115.346 67.9225 117.499 67.6783 119.638 67.2774C119.707 67.2644 119.777 67.2514 119.848 67.2381C120.513 67.1128 121.173 66.9818 121.824 66.7934C121.986 66.7479 122.146 66.7116 122.311 66.678C125.986 65.8749 129.722 64.241 132.956 62.3305C133.023 62.2909 133.091 62.2513 133.16 62.2105C135.185 61.0115 137.095 59.6632 138.893 58.1447C138.939 58.1057 138.986 58.0666 139.034 58.0264C140.061 57.1656 141.026 56.2459 141.975 55.3002C142.046 55.2297 142.117 55.1591 142.19 55.0864C142.578 54.6973 142.95 54.3008 143.307 53.8828C143.386 53.7921 143.466 53.7015 143.546 53.6111C144.06 53.0247 144.556 52.4287 145.03 51.8095C145.131 51.6785 145.233 51.5485 145.335 51.4186C146.439 49.9937 147.457 48.4583 148.33 46.8811C148.364 46.8188 148.399 46.7566 148.435 46.6925C149.245 45.2429 150.004 43.7762 150.628 42.2366C150.707 42.0411 150.791 41.8475 150.874 41.6536C151.588 39.9273 152.204 38.1599 152.607 36.3342C152.657 36.1194 152.716 35.9194 152.791 35.7126C152.916 35.3642 152.961 35.0094 153.013 34.6441C153.076 34.209 153.163 33.7819 153.274 33.3566C153.361 33.0127 153.416 32.667 153.467 32.3164C153.48 32.2288 153.48 32.2288 153.494 32.1395C153.673 30.9304 153.764 29.7267 153.814 28.5063C153.823 28.2953 153.832 28.0843 153.841 27.8733C153.847 27.7435 153.852 27.6138 153.857 27.484C153.868 27.2362 153.883 27.0258 153.961 26.7892Z" fill="#FEFEFE"/>
<path d="M72.6049 25.952C98.5988 25.952 124.593 25.952 151.374 25.952C151.374 25.9771 151.374 26.0023 151.374 26.0281C151.243 26.0333 151.243 26.0333 151.109 26.0386C150.226 26.077 149.357 26.1608 148.482 26.2802C148.419 26.2887 148.356 26.2971 148.291 26.3058C147.436 26.4204 146.593 26.5534 145.753 26.7524C145.505 26.8086 145.255 26.8553 145.005 26.9031C144.424 27.0147 143.856 27.1424 143.289 27.3136C143.074 27.377 142.86 27.4361 142.643 27.492C141.809 27.7082 140.991 27.9591 140.177 28.24C140.041 28.2869 140.041 28.2869 139.901 28.3348C139.399 28.5105 138.906 28.701 138.416 28.9091C138.18 29.008 137.942 29.0986 137.702 29.1881C137.034 29.4388 136.401 29.733 135.768 30.0618C135.624 30.1361 135.478 30.2083 135.333 30.2796C132.505 31.664 129.815 33.3645 127.401 35.3891C127.261 35.5017 127.122 35.6143 126.982 35.7268C126.624 36.02 126.28 36.3265 125.94 36.6407C125.829 36.7418 125.718 36.8425 125.604 36.9396C125.107 37.3619 124.65 37.8237 124.191 38.2851C124.048 38.4283 123.905 38.5711 123.761 38.7138C123.309 39.1657 122.867 39.6196 122.454 40.1077C122.347 40.2252 122.239 40.3426 122.131 40.4597C121.747 40.8851 121.397 41.333 121.048 41.786C120.93 41.9369 120.81 42.0859 120.69 42.2348C119.088 44.232 117.678 46.4735 116.531 48.7586C116.446 48.9271 116.36 49.0949 116.274 49.2626C115.95 49.8971 115.653 50.5405 115.375 51.1966C115.294 51.3851 115.212 51.5727 115.13 51.7604C114.73 52.6842 114.381 53.621 114.054 54.5725C114.035 54.6282 114.015 54.6839 113.996 54.7413C113.738 55.4884 113.516 56.2369 113.321 57.0031C113.299 57.09 113.276 57.1768 113.253 57.2663C112.81 58.97 112.473 60.6603 112.256 62.4066C112.245 62.4931 112.245 62.4931 112.234 62.5813C112.195 62.8974 112.158 63.2137 112.123 63.5303C112.105 63.6895 112.085 63.8484 112.064 64.0073C111.92 65.1893 111.924 66.3737 111.927 67.5625C111.928 67.7359 111.928 67.9094 111.928 68.0829C111.935 72.2565 112.493 76.3067 113.693 80.311C113.743 80.48 113.793 80.6492 113.842 80.8188C113.929 81.1199 114.025 81.4108 114.145 81.7006C114.293 82.0673 114.427 82.438 114.558 82.8111C114.794 83.4812 115.03 84.1411 115.342 84.7802C115.449 85.0022 115.546 85.2263 115.643 85.4529C115.883 86.0166 116.152 86.5562 116.446 87.0937C116.584 87.3482 116.711 87.6075 116.837 87.8687C117.447 89.0972 118.191 90.2636 118.953 91.4028C118.987 91.4536 119.021 91.5043 119.056 91.5566C119.872 92.7725 120.757 93.9305 121.693 95.0559C121.731 95.1012 121.768 95.1465 121.807 95.1932C122.703 96.2659 123.67 97.2679 124.656 98.2571C124.694 98.2946 124.731 98.3322 124.769 98.3708C125.202 98.8048 125.64 99.2253 126.107 99.6222C126.19 99.6945 126.272 99.7668 126.354 99.8393C126.988 100.392 127.645 100.906 128.317 101.411C128.45 101.512 128.581 101.615 128.712 101.719C130.47 103.109 132.484 104.391 134.493 105.382C134.542 105.407 134.591 105.431 134.641 105.456C134.815 105.541 134.989 105.626 135.164 105.711C135.238 105.747 135.313 105.783 135.389 105.821C135.637 105.941 135.886 106.062 136.134 106.182C136.212 106.22 136.291 106.258 136.371 106.297C137.074 106.634 137.785 106.945 138.522 107.2C138.819 107.303 139.112 107.411 139.403 107.53C139.825 107.7 140.254 107.846 140.686 107.989C140.767 108.016 140.847 108.042 140.93 108.07C142.691 108.648 144.473 109.077 146.294 109.421C146.384 109.438 146.384 109.438 146.476 109.455C147.619 109.67 148.755 109.841 149.914 109.944C150.027 109.954 150.14 109.965 150.252 109.975C150.525 110 150.797 110.024 151.07 110.049C151.07 110.074 151.07 110.099 151.07 110.125C125.151 110.125 99.2327 110.125 72.5288 110.125C72.5288 110.1 72.5288 110.075 72.5288 110.049C72.6168 110.041 72.7048 110.034 72.7955 110.026C74.7275 109.856 76.6964 109.655 78.5843 109.198C78.7875 109.149 78.9907 109.103 79.1949 109.059C79.2559 109.045 79.3169 109.032 79.3798 109.018C79.4994 108.992 79.619 108.967 79.7386 108.941C80.0581 108.871 80.362 108.784 80.6721 108.679C80.8701 108.628 81.068 108.579 81.2667 108.531C81.7112 108.422 82.1436 108.301 82.5747 108.146C82.6585 108.118 82.7423 108.089 82.8286 108.06C84.8488 107.369 86.8776 106.589 88.753 105.564C89.0156 105.42 89.2829 105.289 89.5527 105.159C91.2688 104.306 92.9355 103.245 94.461 102.086C94.6082 101.975 94.7565 101.865 94.905 101.756C95.4802 101.332 96.0369 100.893 96.5782 100.426C96.7858 100.249 96.9971 100.078 97.2108 99.9076C98.1095 99.1719 98.929 98.3447 99.7523 97.5269C99.8389 97.441 99.9255 97.3552 100.012 97.2695C100.496 96.791 100.954 96.3081 101.376 95.7734C101.53 95.5825 101.692 95.4023 101.858 95.2224C102.281 94.7561 102.666 94.2628 103.047 93.7621C103.087 93.7094 103.127 93.6568 103.169 93.6025C104.163 92.2904 105.104 90.928 105.927 89.5009C106.03 89.3223 106.134 89.1443 106.238 88.9663C106.865 87.8866 107.429 86.7959 107.928 85.6521C108.072 85.3244 108.224 85.0042 108.389 84.6865C108.587 84.2965 108.735 83.9004 108.877 83.4867C108.953 83.2663 109.035 83.0493 109.121 82.8326C109.55 81.7505 109.884 80.6499 110.201 79.5304C110.221 79.4611 110.241 79.3917 110.261 79.3203C110.371 78.9345 110.479 78.5483 110.582 78.1605C110.599 78.0955 110.616 78.0306 110.634 77.9636C110.805 77.3105 110.926 76.6507 111.043 75.9867C111.063 75.8769 111.082 75.7672 111.102 75.6574C111.14 75.4454 111.178 75.2333 111.215 75.0212C111.246 74.8507 111.277 74.6802 111.31 74.5101C111.42 73.9399 111.482 73.3681 111.538 72.7903C111.547 72.6966 111.557 72.603 111.567 72.5065C111.71 71.0607 111.738 69.6219 111.737 68.1698C111.737 67.9565 111.738 67.7431 111.739 67.5298C111.748 65.6994 111.674 63.8893 111.39 62.0784C111.373 61.9678 111.357 61.8572 111.34 61.7466C111.21 60.897 111.063 60.0513 110.886 59.2102C110.874 59.1506 110.861 59.0911 110.848 59.0298C110.811 58.8519 110.773 58.6743 110.734 58.4967C110.723 58.447 110.712 58.3973 110.701 58.3461C110.47 57.3174 110.167 56.3097 109.849 55.305C109.829 55.2422 109.809 55.1794 109.789 55.1147C109.327 53.6563 108.821 52.2145 108.145 50.84C108.058 50.6621 107.975 50.4828 107.891 50.3034C106.417 47.1463 104.605 44.1518 102.362 41.4776C102.25 41.3381 102.137 41.1986 102.024 41.059C101.731 40.7004 101.425 40.3566 101.111 40.0164C101.01 39.9061 100.91 39.7954 100.813 39.6815C100.381 39.1726 99.9063 38.7058 99.4337 38.2348C99.285 38.0865 99.1367 37.9377 98.9884 37.789C98.5277 37.328 98.0665 36.8745 97.5675 36.4546C97.4759 36.3742 97.3844 36.2937 97.2932 36.2129C96.7319 35.7203 96.1621 35.2476 95.5639 34.8002C95.4338 34.7021 95.3051 34.6024 95.1765 34.5023C93.7957 33.4364 92.3182 32.486 90.8122 31.6079C90.6247 31.4976 90.439 31.3848 90.2531 31.272C89.7389 30.9631 89.2023 30.7044 88.6632 30.4423C88.5628 30.3932 88.5628 30.3932 88.4604 30.3431C87.0816 29.67 85.6894 29.0675 84.2491 28.5396C84.149 28.5018 84.0489 28.464 83.9488 28.4261C82.8754 28.0232 81.7765 27.7035 80.6721 27.398C80.5955 27.3766 80.5955 27.3766 80.5174 27.3547C79.9147 27.1859 79.308 27.0387 78.6981 26.8986C78.6329 26.8835 78.5676 26.8685 78.5004 26.8529C77.4399 26.6133 76.379 26.4404 75.3004 26.3091C75.1015 26.2849 74.9027 26.26 74.7039 26.235C74.005 26.1482 73.308 26.0724 72.6049 26.0281C72.6049 26.003 72.6049 25.9779 72.6049 25.952Z" fill="#D0D0D0"/>
<path d="M128.043 125.165C128.135 125.165 128.228 125.165 128.323 125.165C129.158 125.176 129.94 125.299 130.749 125.498C130.826 125.515 130.903 125.533 130.983 125.55C132.334 125.881 133.65 126.441 134.754 127.291C134.798 127.324 134.841 127.358 134.885 127.392C135.267 127.699 135.539 128.024 135.713 128.485C135.686 128.937 135.442 129.241 135.192 129.608C135.144 129.681 135.096 129.754 135.047 129.829C134.789 130.218 134.524 130.6 134.25 130.978C133.956 130.874 133.74 130.74 133.494 130.55C132.661 129.934 131.793 129.507 130.825 129.151C130.765 129.127 130.704 129.103 130.641 129.078C129.287 128.567 127.643 128.665 126.259 128.999C126.192 129.014 126.124 129.028 126.055 129.044C125.095 129.286 124.241 129.863 123.519 130.521C123.466 130.569 123.412 130.616 123.357 130.665C121.157 132.722 120.373 136.268 120.255 139.149C120.177 141.768 120.207 144.385 121.084 146.884C121.101 146.934 121.118 146.984 121.136 147.036C121.833 149.073 123.003 150.76 124.965 151.755C126.999 152.668 129.438 152.603 131.504 151.828C132.449 151.454 133.297 150.931 134.098 150.309C134.361 150.417 134.486 150.544 134.652 150.773C134.697 150.836 134.742 150.898 134.789 150.962C134.836 151.027 134.882 151.093 134.93 151.16C134.977 151.224 135.023 151.288 135.07 151.353C135.161 151.479 135.252 151.605 135.341 151.731C135.422 151.843 135.503 151.953 135.587 152.063C135.851 152.412 135.851 152.412 135.825 152.706C135.154 154.098 133.193 154.894 131.819 155.387C129.813 156.07 127.419 156.322 125.349 155.825C125.183 155.786 125.017 155.75 124.85 155.715C122.368 155.156 120.18 153.569 118.81 151.434C117.468 149.289 116.774 146.944 116.441 144.448C116.427 144.356 116.413 144.263 116.399 144.168C116.253 143.119 116.259 142.067 116.261 141.009C116.261 140.911 116.261 140.813 116.261 140.712C116.263 139.267 116.313 137.878 116.594 136.457C116.621 136.307 116.648 136.156 116.674 136.005C117.144 133.524 118.117 131 119.79 129.075C119.845 129.012 119.9 128.949 119.956 128.884C120.126 128.691 120.3 128.502 120.475 128.314C120.552 128.23 120.552 128.23 120.63 128.143C121.857 126.85 123.566 125.92 125.298 125.527C125.363 125.511 125.428 125.496 125.496 125.48C126.347 125.281 127.167 125.164 128.043 125.165Z" fill="white"/>
<path fill-rule="evenodd" clip-rule="evenodd" d="M100.003 125.422H95.7407C95.7135 125.476 95.6951 125.513 95.6783 125.551C95.6426 125.631 95.6147 125.715 95.5276 125.977L95.4708 126.149C95.2269 126.884 94.9858 127.62 94.7451 128.356L94.4993 129.108C94.2105 129.991 93.9229 130.874 93.6384 131.758C93.3595 132.624 93.079 133.49 92.7943 134.354L92.7323 134.543C92.5808 135.003 92.4294 135.463 92.2776 135.922C92.1733 136.238 92.0691 136.554 91.9652 136.87L91.9149 137.023C91.7144 137.633 91.5166 138.243 91.3391 138.86C91.2086 139.316 91.0626 139.764 90.9054 140.211C90.5317 141.268 90.1824 142.332 89.8424 143.401C89.432 144.692 89.0182 145.981 88.5956 147.268C88.059 148.901 87.5233 150.534 86.9934 152.17C86.9262 152.377 86.8589 152.585 86.7914 152.792C86.7115 153.037 86.6318 153.282 86.5524 153.527L86.4633 153.803C86.2235 154.536 86.0348 155.265 85.847 156.016H89.3479C89.424 155.864 89.424 155.864 89.4824 155.686L89.5521 155.458L89.6321 155.198C89.9048 154.309 90.1822 153.422 90.4656 152.537L90.5694 152.212C90.7096 151.774 90.8498 151.335 90.9905 150.897C91.0798 150.619 91.1689 150.341 91.2577 150.063L91.3593 149.745L91.4552 149.447L91.5454 149.164C91.6017 148.988 91.6553 148.811 91.7071 148.634L91.9355 147.721L103.351 147.797C103.418 148.009 103.484 148.221 103.55 148.432C103.81 149.259 104.07 150.086 104.312 150.917C104.497 151.554 104.707 152.181 104.919 152.81C105.081 153.289 105.241 153.769 105.401 154.25C105.59 154.816 105.592 154.825 105.996 156.034L106.015 156.093H109.972C109.843 155.661 109.714 155.23 109.577 154.801L109.517 154.612C109.447 154.392 109.377 154.172 109.306 153.952L109.23 153.714C108.656 151.917 108.069 150.125 107.478 148.333L107.252 147.65C107.2 147.492 107.148 147.333 107.095 147.174C106.93 146.674 106.767 146.173 106.612 145.669L106.61 145.663C106.533 145.41 106.456 145.157 106.375 144.906L106.072 143.973C105.754 142.993 105.433 142.015 105.111 141.037L104.583 139.435C104.083 137.916 103.584 136.397 103.099 134.874C102.642 133.436 102.178 132.001 101.708 130.568L101.658 130.416C101.111 128.75 100.559 127.085 100.003 125.422ZM97.7 129.461C97.6724 129.432 97.6348 129.413 97.5671 129.38C97.4184 129.929 97.2563 130.471 97.0739 131.01C96.8644 131.627 96.6675 132.244 96.4921 132.871C96.3651 133.325 96.2336 133.775 96.083 134.222C95.8963 134.769 95.7211 135.32 95.5479 135.873C95.4943 136.044 95.4405 136.215 95.3862 136.386C95.2134 136.928 95.0474 137.472 94.8936 138.02C94.7214 138.633 94.5381 139.24 94.3326 139.844C94.1507 140.378 93.9847 140.913 93.8332 141.457C93.6914 141.966 93.5385 142.469 93.367 142.969C93.1862 143.484 93.0582 143.99 92.9247 144.525H102.362C102.362 144.22 102.362 144.22 102.319 144.065L102.261 143.902L102.198 143.72C102.157 143.602 102.117 143.483 102.078 143.364L101.97 143.023L101.677 142.089C101.527 141.611 101.377 141.133 101.229 140.654C101.054 140.083 100.877 139.513 100.698 138.943L100.649 138.788C100.397 137.986 100.144 137.184 99.889 136.382L99.3483 134.683C99.3223 134.601 99.2963 134.519 99.2702 134.438C98.9781 133.521 98.6859 132.604 98.4052 131.683L98.3217 131.408C98.2252 131.091 98.1286 130.774 98.034 130.456C97.9991 130.338 97.964 130.221 97.9286 130.103L97.8804 129.944L97.7963 129.661C97.7535 129.547 97.7345 129.496 97.7 129.461Z" fill="white"/>
<path d="M106.186 172.512C106.285 172.51 106.385 172.508 106.487 172.506C106.813 172.535 106.968 172.566 107.233 172.76C107.701 173.406 108.026 174.173 108.38 174.886C108.446 175.017 108.512 175.149 108.578 175.28C108.714 175.554 108.851 175.828 108.988 176.102C109.163 176.453 109.338 176.805 109.514 177.156C109.649 177.426 109.784 177.697 109.919 177.968C109.984 178.098 110.049 178.227 110.114 178.357C110.204 178.537 110.294 178.718 110.384 178.898C110.41 178.952 110.437 179.005 110.465 179.06C110.567 179.267 110.66 179.466 110.733 179.685C110.734 179.6 110.734 179.515 110.734 179.427C110.737 178.626 110.742 177.824 110.747 177.022C110.75 176.61 110.753 176.197 110.754 175.785C110.755 175.387 110.758 174.99 110.762 174.592C110.763 174.44 110.763 174.288 110.763 174.136C110.763 173.924 110.766 173.712 110.768 173.499C110.767 173.405 110.767 173.405 110.767 173.308C110.772 173.034 110.785 172.869 110.95 172.645C111.175 172.489 111.337 172.491 111.609 172.493C111.694 172.493 111.78 172.492 111.868 172.491C112.155 172.54 112.228 172.612 112.408 172.836C112.446 173.021 112.446 173.021 112.446 173.231C112.447 173.31 112.447 173.39 112.448 173.472C112.447 173.559 112.447 173.647 112.446 173.736C112.447 173.875 112.447 173.875 112.447 174.015C112.448 174.268 112.447 174.52 112.446 174.773C112.445 175.037 112.446 175.301 112.446 175.566C112.446 176.01 112.445 176.454 112.443 176.898C112.441 177.411 112.441 177.924 112.442 178.437C112.443 178.931 112.442 179.425 112.441 179.918C112.441 180.128 112.441 180.338 112.441 180.548C112.442 180.842 112.44 181.135 112.439 181.429C112.439 181.516 112.439 181.602 112.44 181.692C112.436 182.116 112.432 182.446 112.179 182.806C111.907 182.987 111.762 182.988 111.437 182.996C111.347 183 111.256 183.004 111.163 183.008C110.79 182.941 110.607 182.776 110.353 182.501C110.195 182.267 110.071 182.019 109.947 181.765C109.909 181.69 109.871 181.615 109.832 181.538C109.724 181.323 109.617 181.109 109.511 180.894C109.383 180.637 109.254 180.382 109.125 180.127C108.809 179.5 108.495 178.873 108.182 178.245C108.062 178.006 107.943 177.767 107.823 177.528C107.707 177.297 107.592 177.065 107.476 176.834C107.421 176.724 107.366 176.614 107.311 176.505C107.235 176.353 107.16 176.201 107.084 176.049C107.041 175.963 106.998 175.877 106.953 175.788C106.852 175.576 106.852 175.576 106.776 175.347C106.776 175.439 106.775 175.531 106.775 175.626C106.77 176.492 106.765 177.357 106.758 178.223C106.755 178.668 106.752 179.113 106.75 179.558C106.748 179.988 106.745 180.417 106.741 180.846C106.739 181.01 106.739 181.174 106.738 181.338C106.737 181.567 106.735 181.797 106.733 182.026C106.733 182.094 106.733 182.162 106.733 182.233C106.732 182.295 106.731 182.358 106.73 182.422C106.73 182.476 106.73 182.53 106.729 182.586C106.691 182.774 106.622 182.842 106.472 182.958C106.244 182.991 106.244 182.991 105.982 182.991C105.852 182.993 105.852 182.993 105.72 182.996C105.43 182.95 105.359 182.88 105.178 182.653C105.139 182.466 105.139 182.466 105.139 182.252C105.138 182.171 105.137 182.09 105.137 182.006C105.137 181.918 105.138 181.829 105.138 181.738C105.138 181.644 105.137 181.55 105.137 181.454C105.136 181.197 105.136 180.94 105.137 180.683C105.138 180.414 105.137 180.146 105.136 179.877C105.136 179.425 105.137 178.973 105.138 178.522C105.14 178 105.139 177.478 105.138 176.956C105.136 176.508 105.136 176.06 105.137 175.612C105.137 175.344 105.137 175.077 105.136 174.809C105.135 174.511 105.137 174.212 105.138 173.914C105.138 173.825 105.137 173.737 105.137 173.645C105.143 173.047 105.143 173.047 105.323 172.745C105.608 172.499 105.814 172.517 106.186 172.512Z" fill="white"/>
<path d="M71.2537 172.512C71.3529 172.51 71.4522 172.508 71.5545 172.506C71.8808 172.535 72.0351 172.566 72.3001 172.76C72.768 173.406 73.0933 174.173 73.4479 174.886C73.5136 175.017 73.5793 175.149 73.6451 175.28C73.782 175.554 73.9186 175.828 74.0551 176.102C74.2302 176.453 74.4057 176.805 74.5813 177.156C74.7166 177.426 74.8518 177.697 74.9869 177.968C75.0516 178.098 75.1163 178.227 75.1811 178.357C75.2712 178.537 75.3611 178.718 75.451 178.898C75.4778 178.952 75.5045 179.005 75.5321 179.06C75.6347 179.267 75.7279 179.466 75.801 179.685C75.8013 179.6 75.8015 179.515 75.8018 179.427C75.8046 178.626 75.809 177.824 75.815 177.022C75.818 176.61 75.8204 176.197 75.8216 175.785C75.8227 175.387 75.8254 174.99 75.829 174.592C75.8301 174.44 75.8307 174.288 75.8308 174.136C75.831 173.924 75.833 173.712 75.8355 173.499C75.835 173.405 75.835 173.405 75.8344 173.308C75.8394 173.034 75.8528 172.869 76.0172 172.645C76.2429 172.489 76.404 172.491 76.6762 172.493C76.7617 172.493 76.8473 172.492 76.9354 172.491C77.222 172.54 77.2956 172.612 77.4753 172.836C77.5134 173.021 77.5134 173.021 77.5134 173.231C77.5142 173.31 77.5149 173.39 77.5157 173.472C77.515 173.559 77.5142 173.647 77.5135 173.736C77.5141 173.875 77.5141 173.875 77.5147 174.015C77.5155 174.268 77.5149 174.52 77.5137 174.773C77.5126 175.037 77.5131 175.301 77.5134 175.566C77.5136 176.01 77.5126 176.454 77.5108 176.898C77.5088 177.411 77.5086 177.924 77.5095 178.437C77.5104 178.931 77.5099 179.425 77.5088 179.918C77.5084 180.128 77.5084 180.338 77.5087 180.548C77.5092 180.842 77.5077 181.135 77.506 181.429C77.5064 181.516 77.5067 181.602 77.5071 181.692C77.5031 182.116 77.4992 182.446 77.247 182.806C76.9742 182.987 76.8297 182.988 76.505 182.996C76.4143 183 76.3237 183.004 76.2303 183.008C75.8573 182.941 75.6745 182.776 75.4204 182.501C75.2622 182.267 75.1388 182.019 75.0146 181.765C74.9767 181.69 74.9388 181.615 74.8997 181.538C74.7917 181.323 74.6849 181.109 74.5783 180.894C74.4508 180.637 74.3215 180.382 74.1925 180.127C73.8765 179.5 73.5628 178.873 73.2494 178.245C73.13 178.006 73.0103 177.767 72.8907 177.528C72.7749 177.297 72.6593 177.065 72.5438 176.834C72.4889 176.724 72.4339 176.614 72.3789 176.505C72.3029 176.353 72.2271 176.201 72.1513 176.049C72.1082 175.963 72.0652 175.877 72.0208 175.788C71.9196 175.576 71.9196 175.576 71.8435 175.347C71.843 175.439 71.8426 175.531 71.8421 175.626C71.8378 176.492 71.8322 177.357 71.8255 178.223C71.8221 178.668 71.8191 179.113 71.8171 179.558C71.8151 179.988 71.8121 180.417 71.8082 180.846C71.807 181.01 71.8061 181.174 71.8056 181.338C71.8049 181.567 71.8028 181.797 71.8003 182.026C71.8004 182.094 71.8005 182.162 71.8006 182.233C71.7997 182.295 71.7987 182.358 71.7977 182.422C71.7974 182.476 71.797 182.53 71.7967 182.586C71.7583 182.774 71.69 182.842 71.5391 182.958C71.311 182.991 71.311 182.991 71.0491 182.991C70.9198 182.993 70.9198 182.993 70.7878 182.996C70.4977 182.95 70.4262 182.88 70.2453 182.653C70.207 182.466 70.207 182.466 70.2066 182.252C70.2058 182.171 70.2049 182.09 70.204 182.006C70.2046 181.918 70.2052 181.829 70.2059 181.738C70.2053 181.644 70.2048 181.55 70.2043 181.454C70.2031 181.197 70.2034 180.94 70.2044 180.683C70.2051 180.414 70.2044 180.146 70.204 179.877C70.2034 179.425 70.2041 178.973 70.2056 178.522C70.2072 178 70.2067 177.478 70.205 176.956C70.2036 176.508 70.2034 176.06 70.2042 175.612C70.2047 175.344 70.2048 175.077 70.2038 174.809C70.2027 174.511 70.2042 174.212 70.2059 173.914C70.2053 173.825 70.2046 173.737 70.204 173.645C70.2103 173.047 70.2103 173.047 70.3904 172.745C70.6755 172.499 70.881 172.517 71.2537 172.512Z" fill="white"/>
<path d="M89.5105 173.101C89.7792 173.32 89.8635 173.517 89.9008 173.858C89.9166 174.239 89.8997 174.505 89.6523 174.815C89.3266 174.794 89.1149 174.751 88.8436 174.567C87.9383 173.975 86.9761 173.815 85.9216 174.023C85.1886 174.272 84.6646 174.826 84.3249 175.504C83.9842 176.219 83.9183 176.83 83.9206 177.611C83.9193 177.695 83.9181 177.779 83.9168 177.866C83.9163 178.864 84.1623 179.713 84.7197 180.542C85.3123 181.121 85.9593 181.387 86.7745 181.383C86.8354 181.385 86.8963 181.386 86.959 181.387C87.4663 181.388 87.7641 181.287 88.2824 181.131C88.2824 180.252 88.2824 179.373 88.2824 178.468C87.5913 178.48 87.5913 178.48 86.9003 178.495C86.8144 178.496 86.7284 178.497 86.6398 178.497C86.5077 178.5 86.5077 178.5 86.3729 178.502C86.1514 178.468 86.1514 178.468 86.0084 178.325C85.9059 178.131 85.895 178.002 85.8993 177.783C85.8996 177.718 85.8999 177.654 85.9002 177.588C85.9245 177.391 85.9696 177.265 86.0753 177.098C86.2465 177.012 86.3422 177.011 86.5322 177.008C86.6263 177.007 86.6263 177.007 86.7223 177.005C86.7903 177.005 86.8582 177.004 86.9282 177.003C86.998 177.003 87.0679 177.002 87.1398 177.002C87.2878 177.001 87.4358 177 87.5838 176.999C87.8098 176.998 88.0357 176.995 88.2617 176.991C88.4054 176.99 88.5492 176.99 88.6929 176.989C88.7941 176.987 88.7941 176.987 88.8974 176.985C89.2149 176.986 89.3803 176.994 89.6551 177.166C89.8876 177.415 89.891 177.56 89.8953 177.893C89.8965 177.98 89.8977 178.067 89.899 178.157C89.9023 178.555 89.9055 178.953 89.9072 179.351C89.9082 179.561 89.9104 179.77 89.9135 179.98C89.9179 180.283 89.9193 180.585 89.9204 180.888C89.923 181.028 89.923 181.028 89.9256 181.172C89.9238 181.898 89.9238 181.898 89.6991 182.176C88.8283 182.932 87.5039 183.119 86.3858 183.047C85.1754 182.945 84.1582 182.495 83.3355 181.588C82.2105 180.124 82.0176 178.303 82.229 176.517C82.4245 175.217 83.0349 174.078 84.0326 173.222C85.6111 172.069 87.8741 172.014 89.5105 173.101Z" fill="white"/>
<path d="M126.868 191.482C127.057 191.57 127.179 191.641 127.324 191.786C127.332 192.002 127.335 192.216 127.335 192.431C127.336 192.533 127.336 192.533 127.336 192.636C127.337 192.784 127.337 192.932 127.337 193.079C127.338 193.314 127.339 193.548 127.34 193.782C127.344 194.448 127.348 195.115 127.349 195.781C127.35 196.188 127.352 196.595 127.355 197.003C127.356 197.157 127.357 197.312 127.357 197.467C127.343 198.783 127.343 198.783 127.876 199.963C128.366 200.419 128.801 200.507 129.465 200.498C130.031 200.474 130.337 200.337 130.735 199.948C131.138 199.35 131.217 198.744 131.215 198.038C131.216 197.97 131.216 197.903 131.216 197.834C131.216 197.689 131.216 197.544 131.216 197.398C131.217 197.089 131.218 196.78 131.22 196.472C131.223 195.897 131.225 195.322 131.225 194.747C131.225 194.347 131.227 193.947 131.23 193.547C131.23 193.394 131.231 193.242 131.23 193.089C131.229 192.876 131.231 192.663 131.233 192.45C131.232 192.387 131.231 192.324 131.231 192.259C131.236 191.958 131.252 191.818 131.462 191.595C131.691 191.466 131.825 191.445 132.086 191.453C132.157 191.454 132.227 191.455 132.3 191.456C132.504 191.482 132.632 191.524 132.804 191.634C132.928 191.882 132.893 192.155 132.894 192.427C132.894 192.493 132.895 192.56 132.895 192.628C132.897 192.849 132.898 193.069 132.898 193.29C132.899 193.365 132.899 193.441 132.899 193.519C132.901 193.92 132.902 194.321 132.903 194.722C132.904 195.134 132.906 195.545 132.909 195.957C132.911 196.275 132.912 196.594 132.912 196.913C132.912 197.064 132.913 197.216 132.915 197.367C132.927 198.742 132.826 200.119 131.839 201.171C131.105 201.866 130.3 202.087 129.308 202.079C129.199 202.08 129.199 202.08 129.089 202.081C128.187 202.079 127.406 201.841 126.735 201.218C125.711 200.126 125.691 198.761 125.696 197.353C125.696 197.193 125.696 197.033 125.695 196.873C125.695 196.539 125.695 196.205 125.697 195.871C125.698 195.442 125.697 195.014 125.696 194.586C125.695 194.256 125.695 193.926 125.696 193.595C125.696 193.437 125.696 193.279 125.695 193.121C125.695 192.901 125.695 192.681 125.697 192.461C125.696 192.396 125.696 192.331 125.695 192.263C125.7 191.818 125.7 191.818 125.833 191.658C126.137 191.407 126.491 191.447 126.868 191.482Z" fill="white"/>
<path d="M98.0999 191.482C98.2887 191.57 98.4115 191.641 98.5566 191.786C98.5645 192.002 98.5675 192.216 98.5674 192.431C98.5678 192.533 98.5678 192.533 98.5682 192.636C98.5687 192.784 98.5691 192.932 98.5694 193.079C98.57 193.314 98.5712 193.548 98.5726 193.782C98.5766 194.448 98.5802 195.115 98.5814 195.781C98.5822 196.188 98.5844 196.595 98.5876 197.003C98.5885 197.157 98.5889 197.312 98.5887 197.467C98.5747 198.783 98.5747 198.783 99.1083 199.963C99.5985 200.419 100.033 200.507 100.697 200.498C101.263 200.474 101.569 200.337 101.967 199.948C102.37 199.35 102.449 198.744 102.448 198.038C102.448 197.97 102.448 197.903 102.448 197.834C102.448 197.689 102.448 197.544 102.448 197.398C102.449 197.089 102.45 196.78 102.452 196.472C102.455 195.897 102.457 195.322 102.457 194.747C102.457 194.347 102.459 193.947 102.462 193.547C102.463 193.394 102.463 193.242 102.462 193.089C102.461 192.876 102.463 192.663 102.465 192.45C102.464 192.387 102.464 192.324 102.463 192.259C102.468 191.958 102.484 191.818 102.694 191.595C102.923 191.466 103.057 191.445 103.318 191.453C103.389 191.454 103.459 191.455 103.532 191.456C103.736 191.482 103.864 191.524 104.036 191.634C104.16 191.882 104.125 192.155 104.126 192.427C104.126 192.493 104.127 192.56 104.127 192.628C104.129 192.849 104.13 193.069 104.13 193.29C104.131 193.365 104.131 193.441 104.131 193.519C104.133 193.92 104.134 194.321 104.135 194.722C104.136 195.134 104.138 195.545 104.141 195.957C104.143 196.275 104.144 196.594 104.144 196.913C104.145 197.064 104.145 197.216 104.147 197.367C104.159 198.742 104.058 200.119 103.071 201.171C102.337 201.866 101.532 202.087 100.54 202.079C100.432 202.08 100.432 202.08 100.321 202.081C99.4194 202.079 98.6381 201.841 97.9668 201.218C96.9427 200.126 96.9233 198.761 96.928 197.353C96.9279 197.193 96.9277 197.033 96.9274 196.873C96.927 196.539 96.9275 196.205 96.9286 195.871C96.9299 195.442 96.9291 195.014 96.9278 194.586C96.927 194.256 96.9272 193.926 96.9278 193.595C96.928 193.437 96.9278 193.279 96.9272 193.121C96.9267 192.901 96.9275 192.681 96.9288 192.461C96.9284 192.396 96.9279 192.331 96.9274 192.263C96.9322 191.818 96.9322 191.818 97.0648 191.658C97.3691 191.407 97.7231 191.447 98.0999 191.482Z" fill="white"/>
<path d="M63.1075 191.511C63.2012 191.51 63.2949 191.51 63.3914 191.509C63.493 191.51 63.5945 191.511 63.6961 191.513C63.8008 191.513 63.9055 191.513 64.0102 191.513C64.2291 191.513 64.448 191.514 64.6669 191.517C64.9475 191.52 65.228 191.52 65.5086 191.519C65.7246 191.519 65.9406 191.52 66.1565 191.521C66.26 191.522 66.3635 191.522 66.467 191.522C66.6114 191.522 66.7559 191.524 66.9003 191.526C67.0235 191.527 67.0235 191.527 67.1493 191.528C67.3533 191.558 67.3533 191.558 67.4937 191.66C67.6321 191.859 67.6147 192.037 67.6149 192.276C67.6164 192.362 67.6179 192.448 67.6194 192.537C67.5816 192.775 67.5816 192.775 67.4757 192.941C67.1663 193.158 66.867 193.118 66.4983 193.11C66.4227 193.109 66.3472 193.109 66.2693 193.108C66.0281 193.107 65.787 193.103 65.5458 193.099C65.3822 193.097 65.2186 193.096 65.055 193.095C64.6541 193.092 64.2534 193.086 63.8525 193.08C63.8525 193.984 63.8525 194.888 63.8525 195.82C64.0696 195.816 64.2867 195.813 64.5104 195.809C64.7204 195.807 64.9305 195.805 65.1406 195.803C65.2867 195.801 65.4327 195.799 65.5788 195.797C65.7887 195.793 65.9985 195.791 66.2085 195.79C66.3066 195.788 66.3066 195.788 66.4067 195.785C66.8587 195.785 66.8587 195.785 67.0518 195.961C67.1431 196.164 67.158 196.32 67.1583 196.543C67.1598 196.614 67.1612 196.686 67.1628 196.759C67.1122 197.03 67.0429 197.102 66.8206 197.266C66.5939 197.308 66.3714 197.301 66.1416 197.295C66.0835 197.295 66.0255 197.295 65.9657 197.295C65.7496 197.293 65.5336 197.289 65.3175 197.285C64.834 197.278 64.3506 197.272 63.8525 197.266C63.8525 198.321 63.8525 199.375 63.8525 200.462C64.108 200.459 64.3636 200.455 64.6269 200.451C64.874 200.449 65.1211 200.447 65.3682 200.445C65.5401 200.444 65.712 200.442 65.884 200.439C66.1309 200.435 66.3777 200.434 66.6247 200.432C66.7403 200.43 66.7403 200.43 66.8582 200.428C66.9656 200.428 66.9656 200.428 67.0752 200.428C67.1382 200.427 67.2012 200.426 67.2662 200.426C67.4294 200.462 67.4294 200.462 67.5637 200.603C67.6873 200.818 67.6907 200.976 67.691 201.223C67.6925 201.302 67.694 201.38 67.6955 201.461C67.6478 201.737 67.5715 201.812 67.3533 201.984C67.143 202.023 67.143 202.023 66.8986 202.024C66.7611 202.025 66.7611 202.025 66.6208 202.027C66.522 202.026 66.4232 202.025 66.3214 202.025C66.2187 202.025 66.116 202.025 66.0132 202.026C65.7981 202.026 65.5829 202.025 65.3678 202.024C65.0926 202.022 64.8175 202.023 64.5423 202.025C64.3301 202.026 64.118 202.026 63.9059 202.025C63.7552 202.025 63.6046 202.026 63.454 202.027C63.3161 202.025 63.3161 202.025 63.1754 202.024C63.0947 202.023 63.014 202.023 62.9308 202.023C62.6569 201.975 62.5291 201.871 62.3304 201.68C62.2353 201.49 62.2438 201.361 62.2425 201.148C62.2419 201.067 62.2412 200.987 62.2405 200.904C62.2402 200.816 62.2399 200.727 62.2396 200.636C62.2389 200.543 62.2383 200.45 62.2377 200.354C62.2358 200.046 62.2345 199.737 62.2334 199.428C62.233 199.322 62.2326 199.216 62.2322 199.11C62.2306 198.668 62.2291 198.226 62.2283 197.784C62.227 197.151 62.2245 196.517 62.2202 195.884C62.2172 195.438 62.2157 194.993 62.2153 194.548C62.2151 194.282 62.2142 194.016 62.2117 193.75C62.209 193.453 62.2093 193.156 62.2098 192.859C62.2086 192.771 62.2073 192.683 62.2061 192.593C62.2107 192.004 62.2107 192.004 62.4177 191.693C62.671 191.535 62.8103 191.51 63.1075 191.511Z" fill="white"/>
<path d="M125.286 172.485C125.379 172.484 125.473 172.483 125.57 172.482C125.671 172.484 125.773 172.485 125.874 172.486C125.979 172.486 126.084 172.486 126.188 172.486C126.407 172.486 126.626 172.488 126.845 172.49C127.126 172.493 127.406 172.493 127.687 172.493C127.903 172.493 128.119 172.494 128.335 172.495C128.438 172.495 128.542 172.496 128.645 172.496C128.79 172.496 128.934 172.498 129.079 172.499C129.202 172.5 129.202 172.5 129.328 172.501C129.532 172.531 129.532 172.531 129.672 172.633C129.81 172.832 129.793 173.011 129.793 173.25C129.795 173.336 129.796 173.422 129.798 173.511C129.76 173.749 129.76 173.749 129.654 173.914C129.345 174.131 129.045 174.091 128.677 174.083C128.601 174.083 128.525 174.082 128.448 174.082C128.206 174.08 127.965 174.076 127.724 174.073C127.56 174.071 127.397 174.07 127.233 174.068C126.832 174.065 126.432 174.059 126.031 174.053C126.031 174.958 126.031 175.862 126.031 176.793C126.248 176.79 126.465 176.786 126.689 176.783C126.899 176.78 127.109 176.778 127.319 176.777C127.465 176.775 127.611 176.773 127.757 176.77C127.967 176.767 128.177 176.765 128.387 176.764C128.485 176.761 128.485 176.761 128.585 176.759C129.037 176.759 129.037 176.759 129.23 176.935C129.321 177.138 129.336 177.294 129.337 177.516C129.338 177.588 129.339 177.659 129.341 177.733C129.29 178.004 129.221 178.076 128.999 178.239C128.772 178.281 128.55 178.275 128.32 178.269C128.262 178.269 128.204 178.268 128.144 178.268C127.928 178.267 127.712 178.262 127.496 178.258C127.012 178.252 126.529 178.246 126.031 178.239C126.031 179.294 126.031 180.349 126.031 181.436C126.286 181.432 126.542 181.429 126.805 181.425C127.052 181.423 127.299 181.421 127.546 181.419C127.718 181.417 127.89 181.415 128.062 181.413C128.309 181.409 128.556 181.407 128.803 181.406C128.918 181.404 128.918 181.404 129.036 181.401C129.144 181.401 129.144 181.401 129.253 181.401C129.316 181.401 129.379 181.4 129.444 181.399C129.608 181.436 129.608 181.436 129.742 181.576C129.866 181.792 129.869 181.95 129.869 182.197C129.871 182.275 129.872 182.354 129.874 182.435C129.826 182.711 129.75 182.785 129.532 182.958C129.321 182.997 129.321 182.997 129.077 182.997C128.939 182.999 128.939 182.999 128.799 183C128.7 183 128.601 182.999 128.5 182.998C128.397 182.998 128.294 182.999 128.191 182.999C127.976 183 127.761 182.999 127.546 182.998C127.271 182.996 126.996 182.997 126.72 182.999C126.508 183 126.296 182.999 126.084 182.999C125.933 182.998 125.783 182.999 125.632 183C125.494 182.999 125.494 182.999 125.354 182.997C125.273 182.997 125.192 182.997 125.109 182.997C124.835 182.948 124.707 182.844 124.509 182.653C124.414 182.463 124.422 182.334 124.421 182.121C124.42 182.041 124.419 181.961 124.419 181.878C124.418 181.789 124.418 181.701 124.418 181.61C124.417 181.517 124.417 181.424 124.416 181.328C124.414 181.019 124.413 180.711 124.412 180.402C124.411 180.296 124.411 180.19 124.41 180.083C124.409 179.641 124.407 179.199 124.407 178.758C124.405 178.124 124.403 177.491 124.398 176.857C124.395 176.412 124.394 175.967 124.394 175.521C124.393 175.255 124.392 174.989 124.39 174.723C124.387 174.427 124.388 174.13 124.388 173.833C124.387 173.745 124.386 173.657 124.384 173.566C124.389 172.977 124.389 172.977 124.596 172.667C124.849 172.509 124.988 172.484 125.286 172.485Z" fill="white"/>
<path d="M95.8329 172.485C95.9266 172.484 96.0203 172.483 96.1168 172.482C96.2184 172.484 96.3199 172.485 96.4215 172.486C96.5262 172.486 96.6309 172.486 96.7356 172.486C96.9545 172.486 97.1734 172.488 97.3923 172.49C97.6729 172.493 97.9534 172.493 98.234 172.493C98.45 172.493 98.666 172.494 98.8819 172.495C98.9854 172.495 99.0889 172.496 99.1924 172.496C99.3368 172.496 99.4813 172.498 99.6257 172.499C99.7489 172.5 99.749 172.5 99.8747 172.501C100.079 172.531 100.079 172.531 100.219 172.633C100.358 172.832 100.34 173.011 100.34 173.25C100.342 173.336 100.343 173.422 100.345 173.511C100.307 173.749 100.307 173.749 100.201 173.914C99.8917 174.131 99.5924 174.091 99.2237 174.083C99.1481 174.083 99.0726 174.082 98.9947 174.082C98.7535 174.08 98.5124 174.076 98.2712 174.073C98.1076 174.071 97.944 174.07 97.7804 174.068C97.3795 174.065 96.9788 174.059 96.5779 174.053C96.5779 174.958 96.5779 175.862 96.5779 176.793C96.795 176.79 97.0121 176.786 97.2358 176.783C97.4458 176.78 97.6559 176.778 97.866 176.777C98.0121 176.775 98.1582 176.773 98.3042 176.77C98.5141 176.767 98.724 176.765 98.9339 176.764C99.032 176.761 99.032 176.761 99.1321 176.759C99.5841 176.759 99.5841 176.759 99.7772 176.935C99.8685 177.138 99.8834 177.294 99.8837 177.516C99.8852 177.588 99.8866 177.659 99.8882 177.733C99.8376 178.004 99.7683 178.076 99.546 178.239C99.3193 178.281 99.0968 178.275 98.867 178.269C98.8089 178.269 98.7509 178.268 98.6911 178.268C98.475 178.267 98.259 178.262 98.0429 178.258C97.5594 178.252 97.076 178.246 96.5779 178.239C96.5779 179.294 96.5779 180.349 96.5779 181.436C96.8334 181.432 97.089 181.429 97.3523 181.425C97.5994 181.423 97.8465 181.421 98.0936 181.419C98.2655 181.417 98.4374 181.415 98.6094 181.413C98.8563 181.409 99.1031 181.407 99.3501 181.406C99.4657 181.404 99.4657 181.404 99.5836 181.401C99.691 181.401 99.691 181.401 99.8006 181.401C99.8636 181.401 99.9266 181.4 99.9916 181.399C100.155 181.436 100.155 181.436 100.289 181.576C100.413 181.792 100.416 181.95 100.416 182.197C100.418 182.275 100.419 182.354 100.421 182.435C100.373 182.711 100.297 182.785 100.079 182.958C99.8684 182.997 99.8684 182.997 99.624 182.997C99.4865 182.999 99.4865 182.999 99.3462 183C99.2474 183 99.1486 182.999 99.0468 182.998C98.9441 182.998 98.8414 182.999 98.7386 182.999C98.5235 183 98.3083 182.999 98.0932 182.998C97.818 182.996 97.5429 182.997 97.2677 182.999C97.0555 183 96.8434 182.999 96.6313 182.999C96.4806 182.998 96.33 182.999 96.1794 183C96.0415 182.999 96.0415 182.999 95.9008 182.997C95.8201 182.997 95.7394 182.997 95.6562 182.997C95.3823 182.948 95.2545 182.844 95.0558 182.653C94.9607 182.463 94.9692 182.334 94.9679 182.121C94.9673 182.041 94.9666 181.961 94.966 181.878C94.9656 181.789 94.9653 181.701 94.965 181.61C94.9643 181.517 94.9637 181.424 94.9631 181.328C94.9612 181.019 94.9599 180.711 94.9588 180.402C94.9584 180.296 94.958 180.19 94.9576 180.083C94.956 179.641 94.9545 179.199 94.9537 178.758C94.9524 178.124 94.9499 177.491 94.9456 176.857C94.9426 176.412 94.9412 175.967 94.9408 175.521C94.9405 175.255 94.9396 174.989 94.9371 174.723C94.9344 174.427 94.9347 174.13 94.9352 173.833C94.934 173.745 94.9327 173.657 94.9315 173.566C94.9361 172.977 94.9361 172.977 95.1431 172.667C95.3964 172.509 95.5357 172.484 95.8329 172.485Z" fill="white"/>
<path d="M75.2683 192.014C75.4584 192.205 75.4947 192.303 75.5269 192.574C75.5263 192.667 75.5258 192.76 75.5252 192.856C75.526 192.997 75.526 192.997 75.5269 193.14C75.4966 193.384 75.4966 193.384 75.4045 193.531C75.2152 193.644 75.1055 193.643 74.8878 193.613C74.6975 193.518 74.6975 193.518 74.5072 193.394C73.899 193 73.4043 192.935 72.6807 193.004C72.4087 193.096 72.2673 193.258 72.0814 193.475C71.9181 193.883 71.9337 194.283 72.1052 194.688C72.4681 195.307 73.1567 195.622 73.7795 195.924C74.7738 196.426 75.5321 197.014 75.9544 198.079C76.1905 198.873 76.0445 199.801 75.6913 200.539C75.2666 201.261 74.6912 201.713 73.9032 201.993C73.011 202.223 71.8188 202.211 71.0064 201.756C70.9191 201.708 70.9191 201.708 70.8301 201.659C70.4963 201.462 70.2196 201.298 70.0931 200.919C70.0821 200.768 70.0763 200.618 70.0741 200.467C70.0711 200.348 70.0711 200.348 70.0681 200.227C70.0958 199.981 70.1568 199.881 70.3214 199.701C70.6864 199.741 70.9248 199.845 71.2347 200.039C71.9307 200.473 72.5649 200.541 73.3657 200.462C73.7106 200.342 73.9071 200.173 74.122 199.882C74.3394 199.396 74.3607 198.931 74.1743 198.431C73.7837 197.858 73.0889 197.579 72.4904 197.275C71.6805 196.862 70.9059 196.342 70.5355 195.472C70.4985 195.388 70.4985 195.388 70.4609 195.301C70.2149 194.655 70.1761 193.698 70.4546 193.061C70.5088 192.964 70.5657 192.869 70.6259 192.775C70.6698 192.697 70.7138 192.619 70.759 192.538C71.2651 191.891 71.8206 191.618 72.6094 191.425C73.5296 191.346 74.509 191.434 75.2683 192.014Z" fill="white"/>
<path d="M113.682 192.107C113.907 192.283 114.056 192.434 114.158 192.699C114.181 192.918 114.181 192.918 114.182 193.156C114.183 193.234 114.185 193.313 114.186 193.394C114.154 193.645 114.12 193.75 113.93 193.917C113.664 193.959 113.524 193.946 113.289 193.811C113.23 193.765 113.172 193.718 113.112 193.67C112.406 193.152 111.768 192.965 110.886 193.08C110.323 193.246 109.909 193.579 109.592 194.069C109.153 194.937 109.033 195.704 109.035 196.666C109.034 196.76 109.033 196.854 109.032 196.95C109.031 197.933 109.134 199.048 109.831 199.802C110.462 200.386 110.98 200.44 111.812 200.42C112.439 200.381 112.902 200.08 113.388 199.706C113.625 199.549 113.625 199.549 113.882 199.554C114.082 199.625 114.082 199.625 114.158 199.777C114.17 199.937 114.175 200.097 114.177 200.258C114.179 200.344 114.181 200.43 114.183 200.518C114.15 200.849 114.039 201.038 113.807 201.271C112.801 202.032 111.723 202.134 110.505 202.06C110.229 202.019 109.997 201.948 109.744 201.832C109.675 201.801 109.606 201.769 109.534 201.737C108.493 201.216 107.919 200.363 107.551 199.278C107.297 198.498 107.208 197.742 107.214 196.923C107.213 196.843 107.212 196.763 107.212 196.681C107.213 196.149 107.274 195.654 107.385 195.135C107.4 195.054 107.415 194.974 107.431 194.891C107.651 193.904 108.107 193.097 108.831 192.395C108.875 192.35 108.918 192.306 108.963 192.26C110.225 191.068 112.314 191.147 113.682 192.107Z" fill="white"/>
<path d="M116.566 191.511C116.684 191.509 116.802 191.509 116.919 191.511C116.984 191.511 117.048 191.51 117.114 191.51C117.327 191.509 117.539 191.511 117.752 191.513C117.899 191.513 118.047 191.513 118.195 191.513C118.504 191.513 118.813 191.514 119.123 191.517C119.52 191.52 119.917 191.52 120.314 191.519C120.618 191.519 120.923 191.52 121.228 191.521C121.374 191.522 121.521 191.522 121.667 191.522C121.871 191.522 122.076 191.524 122.28 191.526C122.371 191.526 122.371 191.526 122.464 191.525C122.871 191.531 122.871 191.531 123.062 191.66C123.184 191.861 123.169 192.043 123.167 192.276C123.168 192.405 123.168 192.405 123.169 192.537C123.135 192.806 123.106 192.896 122.91 193.08C122.709 193.107 122.54 193.116 122.339 193.11C122.283 193.109 122.228 193.109 122.171 193.108C121.994 193.107 121.817 193.103 121.64 193.099C121.52 193.097 121.4 193.096 121.28 193.095C120.987 193.091 120.693 193.086 120.399 193.08C120.399 193.124 120.4 193.169 120.4 193.215C120.408 194.297 120.415 195.379 120.419 196.462C120.421 196.985 120.423 197.509 120.428 198.032C120.432 198.537 120.434 199.042 120.435 199.546C120.436 199.739 120.437 199.932 120.439 200.125C120.442 200.395 120.442 200.664 120.442 200.934C120.443 201.014 120.445 201.094 120.446 201.177C120.445 201.377 120.441 201.56 120.399 201.756C120.137 201.995 119.906 202.017 119.557 202.018C119.44 202.02 119.44 202.02 119.321 202.022C119.105 201.984 119.105 201.984 118.942 201.881C118.717 201.56 118.761 201.238 118.766 200.856C118.766 200.772 118.766 200.688 118.766 200.602C118.766 200.324 118.769 200.046 118.771 199.769C118.772 199.576 118.772 199.384 118.772 199.192C118.773 198.737 118.776 198.282 118.779 197.828C118.782 197.31 118.784 196.792 118.785 196.274C118.789 195.21 118.794 194.145 118.801 193.08C118.726 193.082 118.651 193.084 118.574 193.086C118.296 193.093 118.018 193.097 117.74 193.101C117.62 193.103 117.5 193.105 117.379 193.109C117.207 193.113 117.034 193.115 116.861 193.117C116.78 193.12 116.78 193.12 116.698 193.123C116.546 193.123 116.546 193.123 116.289 193.08C116.085 192.831 116.029 192.637 116.032 192.319C116.032 192.256 116.031 192.193 116.031 192.129C116.091 191.75 116.174 191.577 116.566 191.511Z" fill="white"/>
<path d="M78.3615 191.511C78.4791 191.509 78.5967 191.509 78.7143 191.511C78.7785 191.511 78.8428 191.51 78.909 191.51C79.1216 191.509 79.3342 191.511 79.5468 191.513C79.6944 191.513 79.842 191.513 79.9896 191.513C80.299 191.513 80.6084 191.514 80.9178 191.517C81.3147 191.52 81.7116 191.52 82.1086 191.519C82.4133 191.519 82.7181 191.52 83.0229 191.521C83.1692 191.522 83.3156 191.522 83.462 191.522C83.6665 191.522 83.8708 191.524 84.0753 191.526C84.1664 191.526 84.1664 191.526 84.2593 191.525C84.6662 191.531 84.6662 191.531 84.857 191.66C84.9793 191.861 84.9638 192.043 84.9622 192.276C84.9631 192.405 84.9631 192.405 84.964 192.537C84.9298 192.806 84.9014 192.896 84.7054 193.08C84.5039 193.107 84.3346 193.116 84.1337 193.11C84.0783 193.109 84.0229 193.109 83.9658 193.108C83.7889 193.107 83.6122 193.103 83.4354 193.099C83.3154 193.097 83.1955 193.096 83.0755 193.095C82.7816 193.091 82.4878 193.086 82.1939 193.08C82.1942 193.124 82.1946 193.169 82.195 193.215C82.2034 194.297 82.2097 195.379 82.2136 196.462C82.2156 196.985 82.2183 197.509 82.2226 198.032C82.2268 198.537 82.229 199.042 82.23 199.546C82.2307 199.739 82.2321 199.932 82.2341 200.125C82.2369 200.395 82.2373 200.664 82.2371 200.934C82.2385 201.014 82.2398 201.094 82.2412 201.177C82.2398 201.377 82.2359 201.56 82.1939 201.756C81.9319 201.995 81.7007 202.017 81.352 202.018C81.2353 202.02 81.2353 202.02 81.1162 202.022C80.9001 201.984 80.9001 201.984 80.7365 201.881C80.5121 201.56 80.5558 201.238 80.5611 200.856C80.5611 200.772 80.561 200.688 80.561 200.602C80.5612 200.324 80.5636 200.046 80.566 199.769C80.5665 199.576 80.567 199.384 80.5673 199.192C80.5683 198.737 80.5707 198.282 80.5738 197.828C80.5772 197.31 80.5788 196.792 80.5804 196.274C80.5835 195.21 80.5889 194.145 80.5957 193.08C80.5208 193.082 80.4459 193.084 80.3688 193.086C80.0909 193.093 79.8131 193.097 79.5352 193.101C79.4149 193.103 79.2947 193.105 79.1744 193.109C79.0016 193.113 78.8288 193.115 78.6559 193.117C78.5752 193.12 78.5752 193.12 78.493 193.123C78.3407 193.123 78.3407 193.123 78.0842 193.08C77.8805 192.831 77.8244 192.637 77.8273 192.319C77.8267 192.256 77.8262 192.193 77.8256 192.129C77.8858 191.75 77.969 191.577 78.3615 191.511Z" fill="white"/>
<path d="M157.239 191.548C157.386 191.634 157.386 191.634 157.462 191.786C157.469 191.901 157.472 192.016 157.471 192.131C157.472 192.203 157.472 192.276 157.472 192.351C157.472 192.431 157.471 192.511 157.471 192.593C157.471 192.677 157.471 192.761 157.471 192.847C157.471 193.125 157.47 193.404 157.47 193.682C157.47 193.875 157.469 194.067 157.469 194.26C157.469 194.716 157.469 195.172 157.468 195.627C157.467 196.146 157.467 196.665 157.466 197.184C157.465 198.251 157.464 199.319 157.462 200.386C157.558 200.384 157.653 200.382 157.751 200.38C158.104 200.373 158.458 200.369 158.811 200.365C158.964 200.363 159.117 200.361 159.27 200.357C159.49 200.353 159.71 200.351 159.93 200.349C159.998 200.347 160.066 200.345 160.137 200.343C160.612 200.343 160.612 200.343 160.854 200.568C161.02 200.87 161.014 201.115 160.963 201.452C160.804 201.839 160.804 201.839 160.659 201.984C160.525 201.993 160.392 201.996 160.258 201.998C160.172 201.999 160.087 202 159.998 202.001C159.859 202.002 159.859 202.002 159.716 202.002C159.62 202.003 159.525 202.004 159.427 202.004C159.225 202.005 159.023 202.006 158.821 202.007C158.562 202.008 158.303 202.01 158.045 202.013C157.798 202.016 157.551 202.016 157.304 202.017C157.211 202.018 157.119 202.019 157.023 202.021C156.937 202.02 156.85 202.02 156.761 202.02C156.647 202.021 156.647 202.021 156.531 202.021C156.263 201.974 156.135 201.865 155.94 201.68C155.844 201.488 155.854 201.356 155.852 201.142C155.852 201.06 155.851 200.978 155.85 200.894C155.85 200.804 155.85 200.714 155.849 200.621C155.849 200.526 155.848 200.432 155.848 200.334C155.846 200.02 155.844 199.706 155.843 199.392C155.843 199.284 155.842 199.176 155.842 199.068C155.84 198.619 155.839 198.17 155.838 197.72C155.837 197.076 155.834 196.432 155.83 195.788C155.827 195.335 155.826 194.882 155.825 194.429C155.825 194.159 155.824 193.888 155.822 193.618C155.819 193.316 155.819 193.014 155.82 192.712C155.818 192.623 155.817 192.533 155.816 192.44C155.821 191.836 155.821 191.836 156.045 191.578C156.432 191.391 156.833 191.432 157.239 191.548Z" fill="white"/>
<path d="M146.47 172.427C146.541 172.428 146.611 172.429 146.684 172.43C146.888 172.456 147.016 172.497 147.188 172.607C147.285 172.801 147.275 172.938 147.276 173.155C147.277 173.239 147.277 173.322 147.278 173.409C147.278 173.501 147.279 173.593 147.279 173.689C147.279 173.785 147.28 173.882 147.281 173.982C147.283 174.304 147.284 174.626 147.285 174.947C147.285 175.058 147.286 175.169 147.286 175.279C147.288 175.74 147.289 176.2 147.29 176.66C147.291 177.32 147.294 177.98 147.298 178.64C147.301 179.104 147.303 179.568 147.303 180.032C147.303 180.309 147.304 180.586 147.307 180.864C147.309 181.173 147.309 181.482 147.309 181.791C147.31 181.883 147.311 181.975 147.312 182.07C147.312 182.154 147.311 182.238 147.31 182.325C147.311 182.398 147.311 182.471 147.311 182.546C147.264 182.73 147.264 182.73 147.085 182.867C146.85 182.973 146.679 182.991 146.422 182.991C146.344 182.993 146.267 182.994 146.187 182.996C145.913 182.948 145.838 182.868 145.666 182.653C145.627 182.462 145.627 182.462 145.627 182.243C145.626 182.16 145.625 182.077 145.624 181.991C145.624 181.9 145.625 181.809 145.625 181.715C145.625 181.619 145.624 181.523 145.623 181.424C145.622 181.161 145.622 180.898 145.623 180.635C145.623 180.415 145.622 180.195 145.622 179.975C145.621 179.457 145.621 178.939 145.622 178.42C145.623 177.885 145.622 177.35 145.62 176.816C145.618 176.356 145.617 175.897 145.618 175.438C145.618 175.163 145.618 174.889 145.616 174.615C145.615 174.309 145.616 174.003 145.618 173.698C145.617 173.607 145.616 173.516 145.615 173.422C145.622 172.81 145.622 172.81 145.846 172.551C146.073 172.443 146.22 172.419 146.47 172.427Z" fill="white"/>
<path d="M118.387 172.427C118.458 172.428 118.528 172.429 118.601 172.43C118.805 172.456 118.933 172.497 119.105 172.607C119.202 172.801 119.192 172.938 119.193 173.155C119.194 173.239 119.194 173.322 119.195 173.409C119.195 173.501 119.196 173.593 119.196 173.689C119.196 173.785 119.197 173.882 119.198 173.982C119.2 174.304 119.201 174.626 119.202 174.947C119.202 175.058 119.203 175.169 119.203 175.279C119.205 175.74 119.206 176.2 119.207 176.66C119.208 177.32 119.211 177.98 119.215 178.64C119.218 179.104 119.22 179.568 119.22 180.032C119.22 180.309 119.221 180.586 119.224 180.864C119.226 181.173 119.226 181.482 119.226 181.791C119.227 181.883 119.228 181.975 119.229 182.07C119.229 182.154 119.228 182.238 119.227 182.325C119.228 182.398 119.228 182.471 119.228 182.546C119.181 182.73 119.181 182.73 119.002 182.867C118.767 182.973 118.596 182.991 118.339 182.991C118.261 182.993 118.184 182.994 118.104 182.996C117.83 182.948 117.755 182.868 117.583 182.653C117.544 182.462 117.544 182.462 117.544 182.243C117.543 182.16 117.542 182.077 117.541 181.991C117.541 181.9 117.542 181.809 117.542 181.715C117.542 181.619 117.541 181.523 117.54 181.424C117.539 181.161 117.539 180.898 117.54 180.635C117.54 180.415 117.539 180.195 117.539 179.975C117.538 179.457 117.538 178.939 117.539 178.42C117.54 177.885 117.539 177.35 117.537 176.816C117.535 176.356 117.534 175.897 117.535 175.438C117.535 175.163 117.535 174.889 117.533 174.615C117.532 174.309 117.533 174.003 117.535 173.698C117.534 173.607 117.533 173.516 117.532 173.422C117.539 172.81 117.539 172.81 117.763 172.551C117.99 172.443 118.137 172.419 118.387 172.427Z" fill="white"/>
<path d="M64.1997 172.427C64.2704 172.428 64.3412 172.429 64.414 172.43C64.6174 172.456 64.746 172.497 64.918 172.607C65.0148 172.801 65.0045 172.938 65.0058 173.155C65.0064 173.239 65.0071 173.322 65.0078 173.409C65.0081 173.501 65.0084 173.593 65.0087 173.689C65.0094 173.785 65.01 173.882 65.0106 173.982C65.0126 174.304 65.0138 174.626 65.0149 174.947C65.0153 175.058 65.0157 175.169 65.0161 175.279C65.0177 175.74 65.0192 176.2 65.02 176.66C65.0213 177.32 65.0238 177.98 65.0281 178.64C65.0311 179.104 65.0326 179.568 65.033 180.032C65.0332 180.309 65.0342 180.586 65.0366 180.864C65.0393 181.173 65.039 181.482 65.0385 181.791C65.0397 181.883 65.041 181.975 65.0422 182.07C65.0416 182.154 65.041 182.238 65.0403 182.325C65.0406 182.398 65.0408 182.471 65.0411 182.546C64.9941 182.73 64.9941 182.73 64.815 182.867C64.5804 182.973 64.409 182.991 64.1521 182.991C64.0743 182.993 63.9965 182.994 63.9164 182.996C63.6431 182.948 63.568 182.868 63.3958 182.653C63.3573 182.462 63.3573 182.462 63.3567 182.243C63.3557 182.16 63.3547 182.077 63.3537 181.991C63.3542 181.9 63.3547 181.809 63.3552 181.715C63.3546 181.619 63.3539 181.523 63.3533 181.424C63.3515 181.161 63.3518 180.898 63.3524 180.635C63.3528 180.415 63.3523 180.195 63.3517 179.975C63.3504 179.457 63.3507 178.939 63.352 178.42C63.3533 177.885 63.3521 177.35 63.3496 176.816C63.3476 176.356 63.347 175.897 63.3477 175.438C63.348 175.163 63.3479 174.889 63.3463 174.615C63.3446 174.309 63.3461 174.003 63.3478 173.698C63.3469 173.607 63.346 173.516 63.3451 173.422C63.3522 172.81 63.3522 172.81 63.576 172.551C63.8024 172.443 63.9497 172.419 64.1997 172.427Z" fill="white"/>
<path fill-rule="evenodd" clip-rule="evenodd" d="M137.725 191.519L137.543 191.518C137.223 191.508 136.985 191.511 136.708 191.693C136.622 191.814 136.57 191.887 136.537 191.968C136.488 192.093 136.487 192.237 136.482 192.6L136.485 192.871C136.483 193.172 136.482 193.473 136.483 193.773C136.485 194.043 136.485 194.313 136.485 194.583C136.484 195.034 136.485 195.486 136.487 195.938C136.489 196.464 136.49 196.99 136.489 197.516C136.488 198.026 136.488 198.536 136.489 199.046C136.489 199.262 136.49 199.478 136.49 199.694C136.489 199.953 136.489 200.212 136.49 200.471L136.492 200.757L136.491 201.028L136.494 201.276C136.494 201.39 136.494 201.443 136.5 201.496C136.505 201.544 136.515 201.591 136.533 201.68C136.705 201.894 136.78 201.974 137.054 202.022L137.289 202.018C137.546 202.017 137.718 201.999 137.952 201.894C138.048 201.82 138.092 201.786 138.12 201.741C138.144 201.702 138.156 201.655 138.177 201.567L138.174 201.339L138.174 201.08L138.168 200.801C138.167 200.507 138.165 200.212 138.16 199.918C138.156 199.662 138.153 199.405 138.151 199.149C138.147 198.651 138.141 198.153 138.134 197.654L138.131 197.494L138.34 197.508L138.612 197.527C138.877 197.546 139.097 197.562 139.349 197.646C139.83 198.199 140.075 198.48 140.251 198.799C140.434 199.129 140.542 199.501 140.762 200.258C140.826 200.444 140.891 200.631 140.956 200.817L141.019 200.994C141.122 201.299 141.223 201.56 141.403 201.829C141.474 201.901 141.512 201.94 141.557 201.965C141.61 201.994 141.673 202.005 141.808 202.029L142.089 202.022L142.369 202.02C142.637 201.982 142.755 201.965 142.926 201.756C142.953 201.412 142.916 201.134 142.8 200.809L142.745 200.662L142.627 200.339C142.565 200.174 142.503 200.008 142.443 199.842C142.4 199.723 142.358 199.602 142.314 199.48C142.056 198.746 141.78 197.961 141.318 197.359C141.188 197.205 141.104 197.068 141.023 196.885C141.227 196.772 141.404 196.657 141.58 196.503C142.123 195.934 142.377 195.372 142.413 194.583C142.432 193.688 142.278 192.994 141.656 192.316C140.774 191.568 139.783 191.544 138.687 191.533C138.559 191.532 138.431 191.531 138.302 191.529L138.301 191.529C138.109 191.525 137.917 191.521 137.725 191.519ZM138.893 193.061L138.132 193.08V196.048C138.283 196.048 138.425 196.051 138.562 196.054C139.281 196.071 139.82 196.083 140.415 195.591C140.63 195.322 140.712 195.074 140.74 194.731C140.746 194.173 140.738 193.804 140.339 193.384C139.95 193.113 139.598 193.047 139.129 193.052L138.893 193.061Z" fill="white"/>
<path fill-rule="evenodd" clip-rule="evenodd" d="M88.7137 191.519L88.5309 191.518C88.2111 191.508 87.9729 191.511 87.6964 191.693C87.6101 191.814 87.5578 191.887 87.5257 191.968C87.4765 192.093 87.4748 192.237 87.4706 192.6L87.4732 192.871C87.4715 193.172 87.4701 193.473 87.4717 193.773C87.4733 194.043 87.4735 194.313 87.4731 194.583C87.4724 195.034 87.473 195.486 87.475 195.938C87.4775 196.464 87.4787 196.99 87.4774 197.516C87.4761 198.026 87.4759 198.536 87.4772 199.046C87.4777 199.262 87.4783 199.478 87.4779 199.694C87.4772 199.953 87.4773 200.212 87.4787 200.471L87.4807 200.757L87.4792 201.028L87.4821 201.276C87.4825 201.39 87.4826 201.443 87.4884 201.496C87.4935 201.544 87.5031 201.591 87.5213 201.68C87.6936 201.894 87.7687 201.974 88.0418 202.022L88.2776 202.018C88.534 202.017 88.706 201.999 88.9407 201.894C89.0361 201.82 89.0806 201.786 89.1083 201.741C89.1325 201.702 89.1439 201.655 89.1653 201.567L89.1627 201.339L89.1626 201.08L89.1567 200.801C89.155 200.507 89.1528 200.212 89.1482 199.918C89.1439 199.662 89.1412 199.405 89.1392 199.149C89.1355 198.651 89.1297 198.153 89.1221 197.654L89.1195 197.494L89.3279 197.508L89.5999 197.527C89.865 197.546 90.0849 197.562 90.3372 197.646C90.8187 198.199 91.0638 198.48 91.2397 198.799C91.4219 199.129 91.5299 199.501 91.7499 200.258C91.8143 200.444 91.8789 200.631 91.9445 200.817L92.007 200.994C92.1106 201.299 92.2108 201.56 92.3908 201.829C92.4619 201.901 92.5 201.94 92.5456 201.965C92.5983 201.994 92.661 202.005 92.7963 202.029L93.077 202.022L93.3576 202.02C93.625 201.982 93.7428 201.965 93.9141 201.756C93.941 201.412 93.9041 201.134 93.7886 200.809L93.7331 200.662L93.6155 200.339C93.5536 200.174 93.4917 200.008 93.4313 199.842C93.3884 199.723 93.3458 199.602 93.3027 199.48C93.0445 198.746 92.7679 197.961 92.306 197.359C92.1767 197.205 92.0926 197.068 92.0115 196.885C92.2156 196.772 92.3923 196.657 92.5683 196.503C93.1114 195.934 93.3654 195.372 93.4016 194.583C93.42 193.688 93.2661 192.994 92.6441 192.316C91.762 191.568 90.7712 191.544 89.6751 191.533C89.547 191.532 89.4189 191.531 89.2907 191.529L89.2892 191.529C89.0974 191.525 88.9056 191.521 88.7137 191.519ZM89.8805 193.061L89.1195 193.08V196.048C89.2704 196.048 89.4133 196.051 89.5496 196.054C90.2685 196.071 90.8074 196.083 91.4026 195.591C91.6178 195.322 91.6994 195.074 91.7282 194.731C91.7338 194.173 91.7255 193.804 91.3265 193.384C90.9374 193.113 90.5855 193.047 90.1166 193.052L89.8805 193.061Z" fill="white"/>
<path fill-rule="evenodd" clip-rule="evenodd" d="M135.823 172.493L135.64 172.492C135.32 172.482 135.082 172.485 134.806 172.666C134.719 172.787 134.667 172.861 134.635 172.942C134.586 173.067 134.584 173.21 134.58 173.574L134.583 173.845C134.581 174.145 134.579 174.446 134.581 174.747C134.583 175.017 134.583 175.286 134.582 175.556C134.582 176.008 134.582 176.46 134.584 176.911C134.587 177.437 134.588 177.963 134.587 178.489C134.586 178.999 134.585 179.509 134.587 180.019C134.587 180.236 134.588 180.452 134.587 180.668C134.587 180.927 134.587 181.186 134.588 181.444L134.59 181.731L134.589 182.002L134.591 182.25C134.592 182.363 134.592 182.417 134.598 182.47C134.603 182.517 134.612 182.564 134.631 182.653C134.803 182.867 134.878 182.948 135.151 182.996L135.387 182.991C135.643 182.991 135.815 182.973 136.05 182.868C136.145 182.794 136.19 182.76 136.218 182.715C136.242 182.676 136.253 182.629 136.275 182.54L136.272 182.312L136.272 182.054L136.266 181.775C136.264 181.48 136.262 181.186 136.258 180.891C136.253 180.635 136.251 180.379 136.249 180.123C136.245 179.624 136.239 179.126 136.231 178.628L136.229 178.468L136.437 178.482L136.709 178.501C136.974 178.519 137.194 178.536 137.447 178.62C137.928 179.172 138.173 179.453 138.349 179.772C138.531 180.103 138.639 180.475 138.859 181.231C138.924 181.418 138.988 181.604 139.054 181.79L139.116 181.968C139.22 182.272 139.32 182.534 139.5 182.803C139.571 182.875 139.609 182.913 139.655 182.938C139.708 182.968 139.77 182.979 139.906 183.003L140.186 182.996L140.467 182.994C140.734 182.956 140.852 182.939 141.024 182.73C141.05 182.386 141.014 182.108 140.898 181.783L140.842 181.635L140.725 181.313C140.663 181.147 140.601 180.981 140.541 180.815C140.498 180.697 140.455 180.576 140.412 180.453C140.154 179.72 139.877 178.934 139.415 178.332C139.286 178.179 139.202 178.041 139.121 177.859C139.325 177.746 139.502 177.63 139.678 177.476C140.221 176.908 140.475 176.346 140.511 175.557C140.529 174.661 140.375 173.968 139.754 173.289C138.871 172.541 137.881 172.518 136.785 172.506C136.656 172.505 136.528 172.504 136.4 172.503L136.399 172.503C136.207 172.499 136.015 172.494 135.823 172.493ZM136.99 174.034L136.229 174.054V177.022C136.38 177.022 136.523 177.025 136.659 177.028C137.378 177.044 137.917 177.057 138.512 176.565C138.727 176.296 138.809 176.047 138.838 175.705C138.843 175.146 138.835 174.777 138.436 174.358C138.047 174.087 137.695 174.02 137.226 174.026L136.99 174.034Z" fill="white"/>
<path fill-rule="evenodd" clip-rule="evenodd" d="M150.529 193.072C150.379 192.519 150.206 191.886 149.818 191.548C149.366 191.437 148.84 191.391 148.39 191.535C148.281 191.614 148.211 191.664 148.157 191.728C148.06 191.844 148.015 192.003 147.889 192.45C147.858 192.563 147.827 192.676 147.795 192.788L147.744 192.965C147.631 193.359 147.502 193.748 147.371 194.137C147.279 194.41 147.188 194.683 147.097 194.956C146.959 195.368 146.821 195.78 146.683 196.192C146.478 196.804 146.273 197.416 146.069 198.028L146.044 198.104C145.956 198.369 145.868 198.635 145.779 198.9C145.684 199.181 145.59 199.462 145.496 199.743L145.391 200.061C145.376 200.105 145.361 200.149 145.346 200.193C145.16 200.735 144.985 201.247 145.057 201.832C145.181 201.915 145.238 201.952 145.3 201.973C145.352 201.991 145.409 201.997 145.513 202.007L145.775 202.008C145.912 202.01 145.977 202.011 146.042 202.008C146.101 202.004 146.161 201.997 146.275 201.984C146.375 201.909 146.442 201.859 146.498 201.798C146.612 201.674 146.679 201.506 146.884 200.995L147.34 199.397H150.765L151.131 200.562L151.245 200.929L151.337 201.218C151.34 201.227 151.343 201.237 151.346 201.247C151.418 201.482 151.485 201.702 151.636 201.902C151.692 201.941 151.728 201.966 151.768 201.982C151.841 202.012 151.927 202.012 152.169 202.012L152.325 202.008C152.333 202.008 152.341 202.008 152.349 202.008C152.654 202.01 152.856 202.011 153.124 201.832C153.21 201.426 153.107 201.017 152.981 200.631L152.919 200.449C152.852 200.249 152.786 200.049 152.718 199.849C152.649 199.646 152.581 199.442 152.513 199.238L152.381 198.841C152.272 198.52 152.165 198.199 152.064 197.875C151.905 197.353 151.741 196.832 151.572 196.313L151.226 195.256C151.139 194.99 151.052 194.724 150.965 194.458C150.897 194.248 150.828 194.038 150.759 193.828L150.66 193.526C150.615 193.388 150.573 193.234 150.529 193.072ZM149.318 194.449C149.251 194.219 149.194 194.021 149.014 193.841C148.986 193.869 148.969 193.887 148.954 193.907C148.93 193.941 148.916 193.983 148.878 194.097C148.752 194.52 148.624 194.941 148.49 195.361C148.44 195.519 148.39 195.676 148.34 195.833L148.239 196.153C148.187 196.314 148.136 196.476 148.085 196.637L148.036 196.792C147.918 197.164 147.853 197.481 147.797 197.875H150.308C150.308 197.646 150.261 197.471 150.192 197.255C150.158 197.149 150.124 197.042 150.09 196.936L150.036 196.768C149.967 196.552 149.899 196.336 149.831 196.12L149.737 195.82L149.725 195.781C149.648 195.534 149.571 195.288 149.496 195.041L149.444 194.869L149.343 194.535C149.334 194.506 149.326 194.477 149.318 194.449Z" fill="white"/>
<path fill-rule="evenodd" clip-rule="evenodd" d="M157.074 174.046C156.923 173.493 156.751 172.86 156.363 172.522C155.911 172.411 155.385 172.365 154.935 172.509C154.826 172.588 154.756 172.638 154.702 172.702C154.605 172.817 154.56 172.977 154.434 173.424C154.403 173.537 154.372 173.649 154.34 173.762L154.289 173.938C154.176 174.333 154.047 174.722 153.916 175.111C153.824 175.384 153.733 175.656 153.641 175.929C153.504 176.341 153.366 176.753 153.228 177.165C153.023 177.777 152.818 178.389 152.614 179.002L152.589 179.078C152.501 179.343 152.413 179.608 152.324 179.873C152.229 180.154 152.135 180.435 152.041 180.717L151.936 181.035C151.921 181.079 151.906 181.123 151.891 181.166C151.705 181.709 151.53 182.22 151.602 182.806C151.726 182.888 151.783 182.926 151.845 182.947C151.897 182.965 151.954 182.97 152.058 182.981L152.32 182.982C152.457 182.984 152.522 182.985 152.587 182.981C152.646 182.978 152.706 182.971 152.82 182.958C152.92 182.883 152.987 182.833 153.043 182.772C153.157 182.648 153.224 182.48 153.429 181.968L153.885 180.37H157.31L157.676 181.536L157.79 181.903L157.882 182.191C157.885 182.201 157.888 182.211 157.891 182.221C157.963 182.456 158.03 182.675 158.18 182.876C158.237 182.914 158.273 182.94 158.313 182.956C158.386 182.986 158.472 182.986 158.714 182.985L158.87 182.982C158.878 182.982 158.886 182.982 158.894 182.982C159.199 182.983 159.401 182.984 159.669 182.806C159.755 182.399 159.652 181.991 159.526 181.604L159.463 181.423C159.397 181.222 159.331 181.022 159.263 180.823C159.194 180.619 159.126 180.416 159.058 180.212L158.926 179.815C158.817 179.494 158.71 179.172 158.609 178.848C158.449 178.326 158.286 177.806 158.117 177.287L157.771 176.229C157.684 175.963 157.597 175.697 157.51 175.431C157.441 175.221 157.373 175.011 157.304 174.802L157.205 174.5C157.16 174.362 157.118 174.207 157.074 174.046ZM155.863 175.423C155.797 175.193 155.74 174.995 155.56 174.815C155.532 174.843 155.514 174.86 155.5 174.88C155.476 174.915 155.462 174.957 155.424 175.071C155.297 175.493 155.169 175.915 155.035 176.335C154.985 176.492 154.935 176.649 154.886 176.807L154.784 177.126C154.733 177.288 154.681 177.449 154.63 177.611L154.581 177.765C154.463 178.138 154.398 178.454 154.342 178.848H156.854C156.854 178.62 156.806 178.445 156.738 178.229C156.703 178.122 156.669 178.016 156.635 177.909L156.582 177.741C156.513 177.526 156.444 177.31 156.376 177.094L156.283 176.793L156.271 176.754C156.193 176.508 156.116 176.262 156.041 176.015L155.989 175.843L155.888 175.509C155.879 175.48 155.871 175.451 155.863 175.423Z" fill="white"/>
<path d="M148.02 169.463C148.098 169.462 148.176 169.461 148.256 169.46C148.51 169.491 148.654 169.57 148.862 169.715C148.838 170.144 148.662 170.342 148.358 170.619C148.274 170.699 148.191 170.779 148.107 170.859C148.067 170.898 148.026 170.936 147.985 170.976C147.84 171.118 147.709 171.268 147.578 171.423C147.333 171.71 147.073 171.98 146.731 172.151C146.592 172.16 146.452 172.164 146.313 172.165C146.238 172.166 146.164 172.167 146.087 172.168C145.894 172.151 145.894 172.151 145.742 171.999C145.697 171.764 145.702 171.609 145.827 171.402C145.947 171.245 146.073 171.096 146.203 170.947C146.295 170.84 146.386 170.732 146.477 170.624C146.521 170.573 146.565 170.521 146.61 170.468C146.802 170.241 146.978 170.002 147.153 169.761C147.405 169.485 147.658 169.465 148.02 169.463Z" fill="white"/>
<path d="M69.6366 27.7786C69.8134 28.0438 69.8276 28.2527 69.8509 28.5604C69.8556 28.6152 69.8603 28.67 69.8651 28.7264C69.8799 28.9019 69.8938 29.0775 69.9077 29.2531C69.9173 29.3684 69.927 29.4836 69.9367 29.5989C69.9921 30.2603 70.0432 30.922 70.0932 31.5838C70.0681 31.5838 70.043 31.5838 70.0171 31.5838C69.7941 30.9744 69.7784 30.3986 69.7888 29.7573C69.7386 29.7573 69.6883 29.7573 69.6366 29.7573C69.6366 29.908 69.6366 30.0587 69.6366 30.2139C69.5612 30.2516 69.5612 30.2516 69.4844 30.29C69.4951 30.0142 69.5063 29.7383 69.5177 29.4624C69.5207 29.3853 69.5237 29.3082 69.5267 29.2287C69.547 28.743 69.582 28.2616 69.6366 27.7786Z" fill="#DB3542"/>
<path d="M32.0406 67.8101C32.0406 67.8352 32.0406 67.8603 32.0406 67.8862C31.8648 67.9113 31.689 67.9364 31.5079 67.9623C31.5079 67.9874 31.5079 68.0125 31.5079 68.0384C31.7088 68.0635 31.9097 68.0886 32.1167 68.1145C32.1167 68.1648 32.1167 68.215 32.1167 68.2667C31.9715 68.2598 31.9715 68.2598 31.8233 68.2528C31.7273 68.2482 31.7273 68.2482 31.6294 68.2436C31.487 68.2368 31.3446 68.2299 31.2022 68.2229C30.8221 68.2043 30.4421 68.1875 30.0619 68.174C29.953 68.1698 29.953 68.1698 29.8419 68.1655C29.7016 68.1601 29.5613 68.1553 29.421 68.1511C29.3575 68.1486 29.294 68.146 29.2286 68.1434C29.1446 68.1405 29.1446 68.1405 29.0589 68.1376C28.9203 68.1145 28.9203 68.1145 28.7681 67.9623C28.8194 67.9604 28.8708 67.9585 28.9237 67.9565C29.1604 67.9476 29.3971 67.9383 29.6338 67.929C29.7145 67.926 29.7952 67.923 29.8784 67.9199C30.3196 67.9024 30.7563 67.8732 31.1952 67.8259C31.478 67.7981 31.7568 67.8055 32.0406 67.8101Z" fill="#DD404D"/>
<path d="M69.789 29.7573C69.8392 29.7573 69.8894 29.7573 69.9412 29.7573C69.9669 29.9618 69.9922 30.1663 70.0173 30.3709C70.0245 30.4281 70.0318 30.4854 70.0393 30.5444C70.0816 30.8939 70.1009 31.2318 70.0934 31.5838C70.0683 31.5838 70.0432 31.5838 70.0173 31.5838C69.7943 30.9744 69.7785 30.3986 69.789 29.7573Z" fill="#DF4B57"/>
<path d="M153.429 103.96C153.504 103.998 153.504 103.998 153.581 104.036C153.659 104.42 153.664 104.789 153.657 105.178C153.607 105.153 153.556 105.128 153.505 105.102C153.41 104.724 153.421 104.347 153.429 103.96Z" fill="#F18C48"/>
<path d="M111.875 70.3977C111.9 70.3977 111.926 70.3977 111.951 70.3977C111.965 71.3619 111.965 71.3619 111.875 71.7676C111.723 71.6154 111.723 71.6154 111.704 71.4251C111.729 71.075 111.8 70.7399 111.875 70.3977Z" fill="#D4C7BE"/>
<path d="M152.896 101.068C152.946 101.068 152.996 101.068 153.048 101.068C153.073 101.294 153.098 101.52 153.124 101.753C153.074 101.753 153.024 101.753 152.972 101.753C152.947 101.527 152.922 101.301 152.896 101.068Z" fill="#F18F4D"/>
</g>
<defs>
<clipPath id="clip0_16_75">
<rect width="222" height="219.108" fill="white"/>
</clipPath>
</defs>
</svg>
