<?xml version="1.0" encoding="UTF-8"?>
<svg xmlns="http://www.w3.org/2000/svg" viewBox="0 0 696.99 462.1">
  <defs>
    <style>.d,.e,.f{fill:#fff;}.d,.f,.g{fill-rule:evenodd;}.d,.h{stroke:#fff;stroke-miterlimit:3.86;stroke-width:2.59px;}.g{fill:#fffffe;}.h{fill:none;}</style>
  </defs>
  <g id="a"></g>
  <g id="b">
    <g id="c">
      <g>
        <g>
          <path class="f" d="M38.78,316.98v22.36l.09,12.87c0,8.03,.09,13.9,.27,17.61,8.88,.67,18.39,1,28.54,1,6.81,0,12.52-.3,17.14-.91,2.98-.36,6.14-1.15,9.49-2.36,1.52-5.34,3.07-12.01,4.65-20.02h5.96c-1.61,13.32-2.42,22.2-2.42,26.64l.18,4.1c-6.98,.5-13.85,.75-20.59,.75l-14.3-.22c-15.79-.35-27.39-.52-34.79-.52s-16.55,.19-28.33,.56v-5.78h2.82c5.28,0,8.61-.51,9.97-1.54,1.37-1.03,2.28-3.45,2.73-7.26,.46-3.81,.68-12.23,.68-25.24v-49.85c0-8.17-.2-14.86-.59-20.06-.39-5.21-.82-8.31-1.27-9.31s-1.11-1.77-1.95-2.31-3.45-1.03-7.82-1.45l-7-.72v-5.78H12.09l9.65,.28c5.4,.19,9.5,.28,12.29,.28l34.96-.47,16.57-.09c5.65-.06,11.35,.13,17.12,.56-2.36,7.21-3.66,16.59-3.91,28.14h-5.96c0-6.68-.33-12.24-1-16.67-7.18-2.67-16-4.01-26.47-4.01-8.34,0-17.07,.36-26.2,1.09,.06,5.7,0,11.4-.18,17.11l-.18,14.01v18.47c6.07,.37,11.44,.56,16.1,.56,14.6,0,22.86-.51,24.79-1.52,1.93-1.01,2.9-4.16,2.9-9.45v-5.99h5.96c-.43,9.2-.64,16.54-.64,22.02,0,5.79,.21,12.61,.64,20.46h-5.96v-5.27c0-5.81-1.15-9.37-3.45-10.67-2.3-1.3-10.41-1.95-24.33-1.95-5.15,0-10.49,.19-16.01,.56Z"></path>
          <path class="f" d="M144.85,243.73c-.99,17.78-1.49,33.86-1.49,48.24v46.79c0,18.57,.39,29.1,1.18,31.59,.42,1.28,2.42,2.1,6,2.46l7.73,.82v5.22c-6.63-.37-12.96-.56-18.99-.56-6.69,0-15.46,.19-26.29,.56v-5.22l7.82-.64c3.45-.3,5.42-1.19,5.91-2.65,.79-2.37,1.18-13.17,1.18-32.39v-46.62l-.09-17.51-.27-11.95c0-2.98-.33-4.81-1-5.48-.97-.97-3-1.46-6.09-1.46h-7.45v-5.22c12.66-1.15,22.76-3.51,30.31-7.08l1.55,1.09Z"></path>
        </g>
        <path class="f" d="M246.25,259.6c-.42,8.71-.64,17.99-.64,27.84v51.79c0,18.2,.55,28.39,1.64,30.57,1.09,2.18,4.67,3.27,10.73,3.27h6.27v5.78c-10.74-.37-19.2-.56-25.38-.56-5.46,0-15.13,.19-29.02,.56v-5.78h8.18c3.82,0,6.27-.47,7.36-1.41,1.09-.94,1.79-2.84,2.09-5.72s.64-11.67,1-26.38v-48.48l-.27-18.79c-.12-7.81-.95-12.59-2.5-14.35-1.54-1.76-5.32-2.63-11.32-2.63h-4.54v-5.78c7.58,.25,17.2,.37,28.85,.37,6.86,0,14.47-.19,22.84-.56,5.52-.25,9.71-.37,12.56-.37,14.68,0,25.36,2.68,32.04,8.03,6.61,5.35,9.92,12.58,9.92,21.7,0,6.63-1.91,12.99-5.73,19.1-3.82,6.11-9.23,11.02-16.23,14.73-7,3.71-14.47,5.56-22.41,5.56-3.64,0-8.18-.57-13.64-1.72l-1.82-6.85c5.33,1.37,9.78,2.05,13.36,2.05,8.36,0,15-2.53,19.9-7.59,4.91-5.06,7.36-11.98,7.36-20.76s-2.62-15.1-7.87-19.86c-5.25-4.76-13.06-7.13-23.44-7.13-5.88,0-12.32,1.12-19.29,3.36Z"></path>
        <path class="f" d="M343.51,243.73c-.99,17.78-1.49,33.86-1.49,48.24v46.79c0,18.57,.39,29.1,1.18,31.59,.42,1.28,2.42,2.1,6,2.46l7.73,.82v5.22c-6.63-.37-12.96-.56-18.99-.56-6.69,0-15.46,.19-26.29,.56v-5.22l7.82-.64c3.45-.3,5.42-1.19,5.91-2.65,.79-2.37,1.18-13.17,1.18-32.39v-46.62l-.09-17.51-.27-11.95c0-2.98-.33-4.81-1-5.48-.97-.97-3-1.46-6.09-1.46h-7.45v-5.22c12.66-1.15,22.76-3.51,30.31-7.08l1.55,1.09Z"></path>
        <path class="d" d="M356.78,335.21c0-8.37,1.94-15.94,5.82-22.7,3.88-6.76,9.32-12.06,16.33-15.88,7-3.82,14.96-5.73,23.88-5.73,12.92,0,23.26,3.82,31.02,11.46,7.76,7.64,11.64,17.83,11.64,30.57,0,15.05-5.06,27-15.19,35.85-9.04,7.95-19.86,11.92-32.47,11.92s-22-4.08-29.61-12.24c-7.61-8.16-11.42-19.24-11.42-33.26Zm17.14-6.41c0,12.49,2.56,23.18,7.69,32.06,5.12,8.88,12.51,13.33,22.15,13.33,7.34,0,13.27-2.79,17.79-8.37,4.52-5.58,6.78-14.04,6.78-25.38,0-9.16-1.33-17.08-4-23.78-2.67-6.7-6.19-11.58-10.55-14.64-4.37-3.06-9.25-4.59-14.65-4.59-4.79,0-9.11,1.21-12.96,3.64-3.85,2.43-6.69,5.67-8.51,9.73-2.49,5.52-3.73,11.52-3.73,18.01Z"></path>
        <path class="f" d="M476.06,307.17l12.16-10.91c1.94-1.76,3.99-3,6.17-3.73,3.15-1.09,6.26-1.64,9.35-1.64,6.83,0,12.32,1.23,16.47,3.68,4.14,2.46,7.94,6.87,11.39,13.23l11.74-10.73c2-1.82,4.46-3.21,7.37-4.18,3.82-1.33,7.52-2,11.1-2,5.46,0,10.4,1.28,14.83,3.83,4.43,2.55,7.72,5.86,9.87,9.93s3.23,9.6,3.23,16.58l-.37,35.63c0,7.96,.46,12.65,1.39,14.07,.93,1.43,3.3,2.23,7.13,2.41l6.76,.27v5.22l-4.42-.19c-7.12-.25-11.94-.37-14.46-.37-3.87,0-8.38,.19-13.54,.56,.87-11.22,1.3-24.33,1.3-39.35,0-12.69-.54-21.03-1.63-25.01-1.09-3.98-3.17-7.11-6.24-9.38-3.08-2.27-6.94-3.4-11.58-3.4-5.25,0-9.74,1.43-13.48,4.28-3.74,2.85-6.06,6.28-6.97,10.27-.6,2.52-.91,13.32-.91,32.41,0,11.23,.09,17.63,.27,19.2,.18,1.57,.68,2.67,1.49,3.32,.81,.64,3.42,1.21,7.83,1.7l6.06,.74v5.22c-10.74-.37-18.62-.56-23.66-.56-4,0-11.77,.19-23.29,.56v-5.22h6.1c3.64,0,6.01-.52,7.1-1.55,1.09-1.03,1.73-3.46,1.91-7.29,.49-9.97,.73-20.36,.73-31.17,0-9.66-.65-16.33-1.95-20.01-1.3-3.68-3.5-6.58-6.61-8.7-3.11-2.13-6.83-3.19-11.18-3.19-4.65,0-8.87,1.31-12.67,3.92s-6.4,5.77-7.79,9.48c-.9,2.55-1.36,9.78-1.36,21.7,0,13.06,.12,22.67,.36,28.8,.12,2.86,.58,4.68,1.37,5.47,.79,.79,3.4,1.4,7.83,1.83l6.28,.73v5.22c-7.61-.37-14.8-.56-21.56-.56-7.67,0-16.01,.19-25.03,.56v-5.22h6.95c3.97,0,6.34-1.05,7.14-3.14,.79-2.09,1.19-13.48,1.19-34.17,0-15.17-.09-24.11-.28-26.84-.18-2.73-.7-4.46-1.55-5.19-.85-.73-3.45-1.09-7.78-1.09h-5.67v-5.03c8.97-1.23,16.69-2.91,23.16-5.06l6.68-2.58c1.1,0,1.65,.73,1.65,2.18l-.19,3.28c-.18,3.34-.25,7.07-.19,11.19Z"></path>
        <path class="d" d="M600.8,335.21c0-8.37,1.94-15.94,5.82-22.7,3.88-6.76,9.32-12.06,16.33-15.88,7-3.82,14.96-5.73,23.88-5.73,12.92,0,23.26,3.82,31.02,11.46s11.64,17.83,11.64,30.57c0,15.05-5.06,27-15.19,35.85-9.04,7.95-19.86,11.92-32.47,11.92s-22-4.08-29.61-12.24-11.42-19.24-11.42-33.26Zm17.14-6.41c0,12.49,2.56,23.18,7.69,32.06,5.13,8.88,12.51,13.33,22.15,13.33,7.34,0,13.27-2.79,17.79-8.37,4.52-5.58,6.78-14.04,6.78-25.38,0-9.16-1.33-17.08-4-23.78s-6.19-11.58-10.55-14.64c-4.37-3.06-9.25-4.59-14.65-4.59-4.79,0-9.11,1.21-12.96,3.64-3.85,2.43-6.69,5.67-8.51,9.73-2.49,5.52-3.73,11.52-3.73,18.01Z"></path>
        <path class="f" d="M272.92,150.42h-91.32l-10.8,25.59c-7.07,16.83-10.6,27.15-10.6,30.93,0,2.42,.66,4.16,1.98,5.21,1.32,1.05,4.67,1.89,10.04,2.53l15.16,1.73v10.03c-10.11-.65-21.49-.97-34.14-.97-15.18,0-28.52,.32-40.02,.97v-10.03l4.75-.16c7.38-.21,12.16-.98,14.32-2.29,2.16-1.31,4.46-4.55,6.88-9.71,7.49-15.15,15.14-31.52,22.94-49.09l43.51-98.34c11.6-26.1,19.51-45.04,23.73-56.83h10.68l80,185.79c5.37,12.63,8.96,20.23,10.75,22.81,1.79,2.58,3.85,4.42,6.17,5.52,2.32,1.11,7.54,1.87,15.65,2.29v10.03c-13.7-.65-26.76-.97-39.19-.97-11.59,0-27.02,.32-46.29,.97v-10.03l15.64-.95c5.58-.42,8.9-1,9.95-1.74,1.58-1.16,2.37-2.63,2.37-4.42,0-1.89-1.58-6.84-4.74-14.83l-17.42-44.05Zm-85.42-12.94h79.5l-39.71-94.6-39.79,94.6Z"></path>
        <path class="f" d="M408.57,13.86c-1.73,30.87-2.59,58.79-2.59,83.76v81.23c0,32.24,.68,50.52,2.05,54.84,.73,2.21,4.21,3.64,10.41,4.27l13.41,1.42v9.06c-11.52-.65-22.51-.97-32.97-.97-11.62,0-26.84,.32-45.64,.97v-9.06l13.57-1.11c5.99-.53,9.41-2.06,10.26-4.59,1.37-4.12,2.05-22.86,2.05-56.23V96.51l-.16-30.41-.48-20.75c0-5.18-.58-8.34-1.73-9.51-1.68-1.69-5.21-2.53-10.57-2.53h-12.94v-9.06c21.98-1.99,39.52-6.09,52.62-12.29l2.69,1.9Z"></path>
        <path class="f" d="M481.99,124.22v62c0,16.13,.53,26.47,1.58,31,1.05,4.53,3.19,8.07,6.4,10.6,3.21,2.53,7.3,3.8,12.25,3.8,3.06,0,6.04-.59,8.94-1.78,2.9-1.19,5.77-2.97,8.62-5.34l4.58,5.51-15.44,18.1c-3.39,1.14-6.68,2.01-9.87,2.63-3.18,.62-6.26,.93-9.23,.93-7.85,0-14.49-1.39-19.9-4.19-5.41-2.79-9.34-6.43-11.78-10.91-2.44-4.48-3.66-11.27-3.66-20.34l.65-30.55v-60.16c-8.15,0-16.56,.32-25.23,.97v-6.58c9.1-3.37,17.51-6.89,25.23-10.56-.11-15.06-.54-31.39-1.29-48.98,12.31-5.16,21.18-9.32,26.59-12.48l4.14,3.16c-.81,8.22-1.67,27.65-2.59,58.3,12.83,0,23.28-.14,31.38-.41l12.62-.56-1.62,15.85-6.48-.16-30.36,.16h-5.53Z"></path>
        <path class="f" d="M523.05,172.68c0-14.53,3.37-27.67,10.11-39.41,6.74-11.74,16.19-20.93,28.35-27.57,12.16-6.63,25.98-9.95,41.46-9.95,22.43,0,40.38,6.63,53.85,19.9,13.48,13.27,20.22,30.96,20.22,53.08,0,26.12-8.79,46.87-26.37,62.25-15.69,13.8-34.48,20.69-56.38,20.69s-38.19-7.08-51.41-21.25c-13.21-14.16-19.82-33.41-19.82-57.74Zm29.76-11.13c0,21.69,4.45,40.24,13.35,55.66,8.9,15.42,21.72,23.13,38.46,23.13,12.74,0,23.04-4.84,30.88-14.53,7.84-9.68,11.77-24.37,11.77-44.06,0-15.89-2.32-29.66-6.95-41.29-4.63-11.63-10.74-20.11-18.32-25.42-7.58-5.32-16.06-7.97-25.43-7.97-8.32,0-15.82,2.11-22.51,6.32-6.69,4.21-11.61,9.84-14.77,16.9-4.32,9.58-6.47,20-6.47,31.26Z"></path>
        <path class="f" d="M9.24,446.03v5.59l.02,3.22c0,2.01,.02,3.48,.07,4.4,2.22,.17,4.6,.25,7.14,.25,1.7,0,3.13-.08,4.29-.23,.74-.09,1.54-.29,2.37-.59,.38-1.33,.77-3,1.16-5h1.49c-.4,3.33-.6,5.55-.6,6.66l.05,1.03c-1.75,.12-3.46,.19-5.15,.19l-3.58-.06c-3.95-.09-6.85-.13-8.7-.13s-4.14,.05-7.08,.14v-1.44h.71c1.32,0,2.15-.13,2.49-.39,.34-.26,.57-.86,.68-1.82,.11-.95,.17-3.06,.17-6.31v-12.46c0-2.04-.05-3.71-.15-5.02-.1-1.3-.2-2.08-.32-2.33-.11-.25-.28-.44-.49-.58-.21-.14-.86-.26-1.95-.36l-1.75-.18v-1.44H2.57l2.41,.07c1.35,.05,2.37,.07,3.07,.07l8.74-.12,4.14-.02c1.41-.02,2.84,.03,4.28,.14-.59,1.8-.92,4.15-.98,7.03h-1.49c0-1.67-.08-3.06-.25-4.17-1.79-.67-4-1-6.62-1-2.08,0-4.27,.09-6.55,.27,.02,1.43,0,2.85-.05,4.28l-.05,3.5v4.62c1.52,.09,2.86,.14,4.02,.14,3.65,0,5.72-.13,6.2-.38,.48-.25,.72-1.04,.72-2.36v-1.5h1.49c-.11,2.3-.16,4.13-.16,5.5,0,1.45,.05,3.15,.16,5.12h-1.49v-1.32c0-1.45-.29-2.34-.86-2.67-.58-.33-2.6-.49-6.08-.49-1.29,0-2.62,.05-4,.14Z"></path>
        <path class="f" d="M48.28,459.22c.24-2.35,.36-6.45,.36-12.31v-6.58c0-2.69-.09-5.02-.27-6.97-.11-1.14-.25-1.79-.42-1.98-.17-.18-.8-.35-1.87-.5l-1.82-.27v-1.44c2.5,.09,4.19,.14,5.05,.14l6.12-.05,4.98-.09c2-.03,4.06,.17,6.17,.59,2.11,.42,4.02,1.28,5.73,2.56,1.71,1.28,3.02,2.89,3.91,4.82,.89,1.93,1.34,4.16,1.34,6.69,0,5.12-1.73,9.35-5.18,12.7-3.45,3.35-7.96,5.02-13.53,5.02l-2.8-.07c-2.74-.11-4.48-.16-5.21-.16-1.23,0-2.79,.09-4.69,.28v-1.12l2.11-1.25Zm4.92-.09c2.05,.3,3.85,.45,5.42,.45,4.25,0,7.55-1.09,9.9-3.27,2.84-2.65,4.26-6.52,4.26-11.59,0-4.43-1.18-7.8-3.54-10.12-2.36-2.32-5.81-3.48-10.37-3.48-1.59,0-3.48,.16-5.67,.48-.18,1.45-.27,3.11-.27,4.96v14.87c0,2.74,.09,5.31,.27,7.71Z"></path>
        <path class="f" d="M96.56,460.05h1.43c1.41,0,2.25-.34,2.53-1.02,.28-.68,.42-3.94,.42-9.78v-7.69c0-6.05-.12-9.39-.36-10.01s-.97-.93-2.18-.93h-1.84v-1.44c2.52,.09,5.01,.14,7.47,.14,2.05,0,3.91-.05,5.58-.14v1.44h-1.76c-1.08,0-1.76,.13-2.03,.39-.27,.26-.43,.91-.48,1.95-.08,1.62-.11,4.5-.11,8.65v7.83c0,5.89,.13,9.13,.39,9.73,.26,.6,1.09,.9,2.49,.9h1.51v1.44c-1.87-.09-3.9-.14-6.1-.14-2.56,0-4.88,.05-6.94,.14v-1.44Z"></path>
        <path class="f" d="M136.55,446.03v7.8c0,3.1,.17,4.91,.5,5.43,.33,.52,1.18,.78,2.54,.78h1.61v1.44c-2.88-.09-5.18-.14-6.89-.14s-3.97,.05-6.71,.14v-1.44h1.82c1.3,0,2.1-.25,2.4-.75,.3-.5,.44-2.32,.44-5.47v-17.12c0-3.07-.16-4.85-.49-5.35-.33-.5-1.17-.75-2.53-.75h-1.64v-1.44c2.51,.09,4.78,.14,6.79,.14l13.06-.23c1.36,0,2.65,.06,3.86,.19-.48,1.64-.75,3.94-.79,6.91h-1.49c-.09-1.58-.27-2.99-.54-4.23-2.07-.55-4.15-.82-6.26-.82-1.84,0-3.64,.1-5.4,.3-.18,1.97-.27,3.76-.27,5.37v7.24c.9,.03,1.79,.05,2.66,.05,2.25,0,4.23-.06,5.93-.18,.57-.03,.96-.16,1.16-.38,.2-.22,.37-.81,.51-1.76l.23-1.73h1.44c-.11,2.77-.16,4.56-.16,5.35l.02,5.37h-1.49v-1.75c0-1.39-.26-2.24-.79-2.55-.53-.3-2.55-.45-6.06-.45-.97,0-2.11,.02-3.44,.05Z"></path>
        <path class="f" d="M169.86,460.05h1.43c1.41,0,2.25-.34,2.53-1.02s.42-3.94,.42-9.78v-7.69c0-6.05-.12-9.39-.36-10.01s-.97-.93-2.18-.93h-1.84v-1.44c2.52,.09,5.01,.14,7.47,.14,2.05,0,3.91-.05,5.58-.14v1.44h-1.76c-1.08,0-1.76,.13-2.03,.39-.27,.26-.43,.91-.48,1.95-.08,1.62-.11,4.5-.11,8.65v7.83c0,5.89,.13,9.13,.39,9.73s1.09,.9,2.49,.9h1.51v1.44c-1.87-.09-3.9-.14-6.1-.14-2.56,0-4.88,.05-6.94,.14v-1.44Z"></path>
        <path class="f" d="M229.28,437.37l-.18-4.05c-1.35-.89-2.76-1.56-4.24-2s-3.02-.66-4.63-.66c-4.1,0-7.38,1.24-9.84,3.73-2.46,2.49-3.7,5.81-3.7,9.98,0,2.93,.63,5.53,1.88,7.82,1.25,2.29,3.03,4.1,5.33,5.44,2.3,1.33,4.74,2,7.3,2,2.03,0,4.04-.24,6.02-.71,1.48-.35,2.98-1.08,4.48-2.19l.48,.45c-.32,.7-.61,1.4-.89,2.12-1.77,.88-3.56,1.54-5.35,1.99s-3.6,.67-5.42,.67c-3.73,0-7.01-.72-9.83-2.16-2.83-1.44-5-3.43-6.51-5.97s-2.27-5.41-2.27-8.6,.77-6.06,2.3-8.58c1.53-2.52,3.7-4.48,6.49-5.87,2.8-1.39,6.24-2.08,10.31-2.08,2.14,0,4.64,.35,7.51,1.05,1.43,.33,2.59,.58,3.48,.75-.67,1.62-1.06,3.91-1.16,6.87h-1.54Z"></path>
        <path class="f" d="M250.29,460.05h1.43c1.41,0,2.25-.34,2.53-1.02,.28-.68,.42-3.94,.42-9.78v-7.69c0-6.05-.12-9.39-.36-10.01s-.97-.93-2.18-.93h-1.84v-1.44c2.52,.09,5.01,.14,7.47,.14,2.05,0,3.91-.05,5.58-.14v1.44h-1.76c-1.08,0-1.76,.13-2.03,.39-.27,.26-.43,.91-.48,1.95-.08,1.62-.11,4.5-.11,8.65v7.83c0,5.89,.13,9.13,.39,9.73,.26,.6,1.09,.9,2.49,.9h1.51v1.44c-1.87-.09-3.9-.14-6.1-.14-2.56,0-4.88,.05-6.94,.14v-1.44Z"></path>
        <path class="f" d="M281.53,445.32c0-4.99,1.61-9,4.82-12.05,3.21-3.05,7.5-4.57,12.85-4.57s9.36,1.41,12.34,4.24c2.98,2.83,4.47,6.58,4.47,11.26,0,5.05-1.73,9.27-5.18,12.66-3.46,3.39-7.81,5.09-13.07,5.09-3.29,0-6.12-.67-8.5-2-2.38-1.33-4.26-3.28-5.64-5.84-1.38-2.56-2.07-5.49-2.07-8.8Zm4.61-1.86c0,3.43,.59,6.41,1.76,8.95,1.17,2.54,2.75,4.44,4.72,5.71s4.22,1.9,6.75,1.9c2.35,0,4.4-.54,6.16-1.61,1.76-1.08,3.14-2.68,4.15-4.82s1.51-4.74,1.51-7.8c0-3.21-.56-5.96-1.67-8.24-1.11-2.28-2.64-4-4.58-5.15-1.94-1.15-4.24-1.73-6.89-1.73-2.43,0-4.52,.51-6.28,1.52-1.76,1.02-3.14,2.5-4.14,4.47-1,1.96-1.5,4.23-1.5,6.81Z"></path>
        <path class="f" d="M361.5,445.32c0-4.99,1.61-9,4.82-12.05,3.21-3.05,7.5-4.57,12.85-4.57s9.36,1.41,12.34,4.24c2.98,2.83,4.47,6.58,4.47,11.26,0,5.05-1.73,9.27-5.18,12.66-3.46,3.39-7.81,5.09-13.07,5.09-3.29,0-6.12-.67-8.5-2-2.38-1.33-4.26-3.28-5.64-5.84-1.38-2.56-2.07-5.49-2.07-8.8Zm4.61-1.86c0,3.43,.59,6.41,1.76,8.95,1.17,2.54,2.75,4.44,4.72,5.71s4.22,1.9,6.75,1.9c2.35,0,4.4-.54,6.16-1.61,1.76-1.08,3.14-2.68,4.15-4.82s1.51-4.74,1.51-7.8c0-3.21-.56-5.96-1.67-8.24-1.11-2.28-2.64-4-4.58-5.15-1.94-1.15-4.24-1.73-6.89-1.73-2.43,0-4.52,.51-6.28,1.52-1.76,1.02-3.14,2.5-4.14,4.47-1,1.96-1.5,4.23-1.5,6.81Z"></path>
        <path class="f" d="M422.74,446.03v7.8c0,3.1,.17,4.91,.5,5.43,.33,.52,1.18,.78,2.54,.78h1.61v1.44c-2.88-.09-5.18-.14-6.89-.14s-3.97,.05-6.71,.14v-1.44h1.82c1.3,0,2.1-.25,2.4-.75,.3-.5,.44-2.32,.44-5.47v-17.12c0-3.07-.16-4.85-.49-5.35-.33-.5-1.17-.75-2.53-.75h-1.64v-1.44c2.51,.09,4.78,.14,6.79,.14l13.06-.23c1.36,0,2.65,.06,3.86,.19-.48,1.64-.75,3.94-.79,6.91h-1.49c-.09-1.58-.27-2.99-.54-4.23-2.07-.55-4.15-.82-6.26-.82-1.84,0-3.64,.1-5.4,.3-.18,1.97-.27,3.76-.27,5.37v7.24c.9,.03,1.79,.05,2.66,.05,2.25,0,4.23-.06,5.93-.18,.57-.03,.96-.16,1.16-.38,.2-.22,.37-.81,.51-1.76l.23-1.73h1.44c-.11,2.77-.16,4.56-.16,5.35l.02,5.37h-1.49v-1.75c0-1.39-.26-2.24-.79-2.55-.53-.3-2.55-.45-6.06-.45-.97,0-2.11,.02-3.44,.05Z"></path>
        <path class="f" d="M456.05,460.05h1.43c1.41,0,2.25-.34,2.53-1.02,.28-.68,.42-3.94,.42-9.78v-7.69c0-6.05-.12-9.39-.36-10.01-.24-.62-.97-.93-2.18-.93h-1.84v-1.44c2.52,.09,5.01,.14,7.47,.14,2.05,0,3.91-.05,5.58-.14v1.44h-1.76c-1.08,0-1.76,.13-2.03,.39-.27,.26-.43,.91-.48,1.95-.08,1.62-.11,4.5-.11,8.65v7.83c0,5.89,.13,9.13,.39,9.73s1.09,.9,2.49,.9h1.51v1.44c-1.87-.09-3.9-.14-6.1-.14-2.56,0-4.88,.05-6.94,.14v-1.44Z"></path>
        <path class="f" d="M515.47,437.37l-.18-4.05c-1.35-.89-2.76-1.56-4.24-2s-3.02-.66-4.63-.66c-4.1,0-7.38,1.24-9.84,3.73-2.46,2.49-3.7,5.81-3.7,9.98,0,2.93,.63,5.53,1.88,7.82,1.25,2.29,3.03,4.1,5.33,5.44,2.3,1.33,4.74,2,7.3,2,2.03,0,4.04-.24,6.02-.71,1.48-.35,2.98-1.08,4.48-2.19l.48,.45c-.32,.7-.61,1.4-.89,2.12-1.77,.88-3.56,1.54-5.35,1.99s-3.6,.67-5.42,.67c-3.73,0-7.01-.72-9.83-2.16-2.83-1.44-5-3.43-6.51-5.97-1.52-2.54-2.27-5.41-2.27-8.6s.77-6.06,2.3-8.58c1.53-2.52,3.7-4.48,6.49-5.87s6.24-2.08,10.31-2.08c2.14,0,4.64,.35,7.51,1.05,1.43,.33,2.59,.58,3.48,.75-.67,1.62-1.06,3.91-1.16,6.87h-1.54Z"></path>
        <path class="f" d="M536.48,460.05h1.43c1.41,0,2.25-.34,2.53-1.02,.28-.68,.42-3.94,.42-9.78v-7.69c0-6.05-.12-9.39-.36-10.01-.24-.62-.97-.93-2.18-.93h-1.84v-1.44c2.52,.09,5.01,.14,7.47,.14,2.05,0,3.91-.05,5.58-.14v1.44h-1.76c-1.08,0-1.76,.13-2.03,.39-.27,.26-.43,.91-.48,1.95-.08,1.62-.11,4.5-.11,8.65v7.83c0,5.89,.13,9.13,.39,9.73s1.09,.9,2.49,.9h1.51v1.44c-1.87-.09-3.9-.14-6.1-.14-2.56,0-4.88,.05-6.94,.14v-1.44Z"></path>
        <path class="f" d="M574.14,434.21v15.75c0,3.59,.07,6.08,.21,7.5,.11,1.08,.28,1.74,.54,1.97,.25,.24,.98,.41,2.18,.51l1.46,.11v1.44c-1.65-.09-3.15-.14-4.48-.14-.93,0-3.05,.05-6.37,.14v-1.44h1.63c.98,0,1.63-.14,1.93-.41,.3-.27,.49-.81,.57-1.61,.17-1.66,.25-3.93,.25-6.79v-11.28c0-2.12-.02-4.21-.07-6.29-.03-.88-.15-1.48-.35-1.8-.2-.33-.5-.62-.9-.87-.39-.26-.95-.39-1.66-.39h-1.41v-1.44c1.93,.09,3.4,.14,4.41,.14,1.09,0,2.29-.05,3.6-.14,1.5,1.83,2.92,3.62,4.24,5.35,1.33,1.73,2.7,3.48,4.13,5.24l7.78,9.55c2.81,3.42,4.83,5.8,6.08,7.14v-14.59c0-6.1-.11-9.44-.33-10.01-.22-.57-1.09-.93-2.63-1.08l-1.7-.16v-1.44c2.44,.09,4.33,.14,5.68,.14s3.23-.05,5.45-.14v1.44h-1.75c-1.41,0-2.22,.47-2.43,1.41-.14,.62-.2,3.94-.2,9.95v10.25c0,2.76,.12,6.05,.36,9.88-2.05-.32-3.24-.56-3.58-.7-.33-.15-.65-.39-.95-.72-1.69-1.87-3.46-3.94-5.31-6.22l-16.38-20.24Z"></path>
        <path class="f" d="M644.99,450.55h-13.15l-1.56,3.68c-1.02,2.42-1.53,3.91-1.53,4.45,0,.35,.09,.6,.28,.75,.19,.15,.67,.27,1.45,.36l2.18,.25v1.44c-1.46-.09-3.09-.14-4.92-.14-2.19,0-4.11,.05-5.76,.14v-1.44l.68-.02c1.06-.03,1.75-.14,2.06-.33,.31-.19,.64-.66,.99-1.4,1.08-2.18,2.18-4.54,3.3-7.07l6.27-14.16c1.67-3.76,2.81-6.49,3.42-8.18h1.54l11.52,26.75c.77,1.82,1.29,2.91,1.55,3.28,.26,.37,.55,.64,.89,.8,.33,.16,1.09,.27,2.25,.33v1.44c-1.97-.09-3.85-.14-5.64-.14-1.67,0-3.89,.05-6.67,.14v-1.44l2.25-.14c.8-.06,1.28-.14,1.43-.25,.23-.17,.34-.38,.34-.64,0-.27-.23-.98-.68-2.14l-2.51-6.34Zm-12.3-1.86h11.45l-5.72-13.62-5.73,13.62Z"></path>
        <path class="g" d="M695.04,430.68c-.43,1.57-.67,3.66-.7,6.27h-1.58v-1.82c0-1.18-.16-1.98-.48-2.41-.32-.42-1.15-.87-2.49-1.35-1.34-.48-2.75-.72-4.24-.72-2.42,0-4.33,.61-5.72,1.84s-2.08,2.8-2.08,4.73c0,1.21,.28,2.25,.85,3.13,.57,.87,1.33,1.5,2.3,1.89s3.01,.73,6.13,1.02c3.12,.3,5.23,.7,6.33,1.2,1.1,.5,1.98,1.3,2.64,2.41,.66,1.11,.99,2.42,.99,3.93,0,3.04-1.27,5.66-3.82,7.86-2.55,2.2-5.94,3.29-10.19,3.29-1.45,0-2.92-.15-4.4-.44s-2.97-.73-4.47-1.31c.26-1.82,.39-4.15,.37-7.01h1.54v1.14c0,1.47,.08,2.38,.23,2.73,.15,.35,.51,.72,1.07,1.11,.83,.59,1.83,1.04,2.98,1.35,1.15,.31,2.4,.47,3.73,.47,2.87,0,5.08-.67,6.65-2.02,1.56-1.35,2.34-3.06,2.34-5.14,0-1.21-.27-2.24-.8-3.08-.53-.84-1.27-1.47-2.23-1.88-.96-.41-2.72-.72-5.3-.93-3.43-.27-5.75-.68-6.98-1.23-1.23-.55-2.19-1.41-2.89-2.58-.7-1.17-1.05-2.63-1.05-4.38,0-2.95,1.07-5.37,3.21-7.25,2.14-1.88,5.1-2.82,8.88-2.82,1.52,0,3.04,.16,4.56,.49,1.53,.33,3.05,.82,4.59,1.49Z"></path>
        <line class="h" y1="406.49" x2="693.57" y2="406.49"></line>
        <circle class="e" cx="339.5" cy="446.47" r="5.5"></circle>
      </g>
    </g>
  </g>
</svg>
