<svg width="1905" height="917" viewBox="0 0 1905 917" fill="none" xmlns="http://www.w3.org/2000/svg">
<path fill-rule="evenodd" clip-rule="evenodd" d="M1486.6 62.1185L1425.36 124.028L1602.02 124.35L1778.67 124.673L1779.37 127.53C1779.75 129.103 1779.9 208.957 1779.71 304.983C1779.51 401.01 1779.64 479.576 1780 479.576C1780.35 479.576 1808.54 451.668 1842.65 417.557L1904.66 355.538V177.769V0L1726.25 0.104273L1547.84 0.208624L1486.6 62.1185ZM1474.06 227.696L1424.47 277.299L1525.59 277.625L1626.71 277.951L1627.34 378.77L1627.98 479.589L1677.58 429.978L1727.18 380.365L1727.19 279.229L1727.2 178.092H1625.43H1523.65L1474.06 227.696ZM246.977 279.859C243.046 280.485 235.655 282.456 230.553 284.239C197.887 295.652 174.481 321.216 165.492 355.296L162.741 365.725V380.354V394.983L165.427 405.159C176.491 447.062 209.392 476.002 251.63 480.983L263.666 482.403L275.463 481.011C323.06 475.398 358.496 440.117 364.346 392.516L365.841 380.354L364.393 368.575C361.979 348.937 356.039 334.106 344.276 318.347C331.837 301.683 312.002 288.162 291.617 282.45C280.729 279.4 258.099 278.086 246.977 279.859ZM775.637 280.719L773.374 282.983L774.255 379.69L775.138 476.396L777.287 478.018L779.435 479.641L797.875 479.29L816.316 478.94L817.945 475.76L819.575 472.58L819.253 421.378C819.076 393.217 819.232 370.176 819.601 370.177C819.969 370.177 845.147 395.077 875.552 425.51L930.832 480.845L934.854 481.599C937.066 482.014 940.081 481.708 941.554 480.92L944.231 479.487V382.308V285.129L942.233 283.129L940.233 281.131H921.498C908.621 281.131 902.284 281.608 901.235 282.657L899.708 284.184V334.919C899.708 367.227 899.259 385.501 898.472 385.23C897.791 384.997 872.537 361.05 842.35 332.014L787.465 279.223L782.683 278.84C779.402 278.577 777.19 279.167 775.637 280.719ZM1060.63 280.499C1040.76 284.254 1024.49 292.582 1009.95 306.453C987.825 327.551 977.251 354.897 978.936 386.661L979.647 400.071L983.534 412.156C988.94 428.965 995.086 438.84 1008.47 452.226L1019.92 463.675L1031.37 469.626C1050.68 479.663 1072.56 483.728 1092.34 480.954C1133.37 475.197 1164.92 448.671 1177.19 409.612L1180.18 400.071L1180.19 380.354L1180.2 360.636L1176.74 349.824C1160.96 300.51 1111.38 270.908 1060.63 280.499ZM2.34222 283.129L0.34375 285.129V380.247V475.366L2.77596 477.566L5.20693 479.767L45.7089 479.304L86.2095 478.841L94.8394 476.499C112.638 471.669 127.906 458.567 134.177 442.739L136.971 435.689L137.015 424.877L137.059 414.064L133.504 406.79C129.346 398.281 118.069 387.44 108.556 382.808C105.066 381.108 102.187 379.126 102.16 378.402C102.132 377.678 103.797 376.09 105.859 374.871C107.921 373.654 112.773 369.765 116.642 366.228C137.429 347.231 137.457 319.18 116.71 298.737C108.977 291.118 100.925 286.788 88.6456 283.647L78.806 281.131H41.5733H4.34192L2.34222 283.129ZM397.332 283.492C396.389 285.255 395.962 315.542 395.962 380.815V475.578L397.961 477.578L399.961 479.576L435.805 479.569C476.55 479.56 490.612 478.051 506.251 472.006C541.804 458.266 566.361 424.391 568.581 386.025C571.303 338.959 542.494 298.635 496.229 284.756L486.917 281.963L442.81 281.446L398.702 280.931L397.332 283.492ZM605.311 283.129L603.312 285.129V380.247V475.366L605.639 477.471L607.964 479.576H667.335H726.705L729.249 477.032L731.793 474.488V458.041V441.596L729.795 439.596L727.795 437.598H687.816H647.835V418.516V399.435H680.819H713.802L715.802 397.437L717.8 395.437V378.991V362.544L715.256 360L712.712 357.456H680.274H647.835V340.283V323.11H687.834H727.833L729.812 320.282L731.793 317.455V302.12V286.785L729.812 283.959L727.833 281.131H667.572H607.311L605.311 283.129ZM1222.27 283.129L1220.27 285.129V380.247V475.366L1222.6 477.471L1224.93 479.576H1242.4C1252.01 479.576 1260.98 478.984 1262.34 478.26L1264.8 476.943V439.461V401.979H1274.67H1284.53L1302.78 438.552C1312.82 458.667 1321.92 476.126 1323 477.35L1324.98 479.576H1344.58C1355.66 479.576 1365.26 479.004 1366.65 478.26C1370.5 476.196 1369.61 471.978 1362.6 459.096C1344.82 426.452 1330.95 400.388 1330.95 399.636C1330.95 399.175 1334.61 396.907 1339.08 394.596C1349.72 389.097 1361.58 376.766 1366.65 365.95L1370.48 357.747L1371.24 347.082C1372.6 327.78 1367.4 313.691 1353.9 300.072C1344.6 290.702 1336.9 286.282 1324.5 283.204L1316.15 281.131H1270.21H1224.27L1222.27 283.129ZM44.8668 341.555V361.272L57.9056 361.27L70.9445 361.269L75.3714 359.044C80.5411 356.447 85.1741 350.065 86.3177 343.967L87.1254 339.667L84.1233 333.615C82.0625 329.46 79.526 326.672 76.0329 324.72L70.9445 321.88L57.9056 321.858L44.8668 321.838V341.555ZM1265.08 343.781L1265.43 365.725L1285.53 366.076C1297.55 366.284 1307.76 365.852 1310.93 365C1317.7 363.174 1325.1 355.824 1327.19 348.838L1328.8 343.463L1327.3 338.432C1325.4 332.092 1320.78 326.553 1315.18 323.897L1310.84 321.838H1287.79H1264.74L1265.08 343.781ZM253.173 325.043C241.88 327.308 232.823 332.289 224.171 340.99C212.303 352.93 206.782 368.064 208.073 385.132L208.778 394.457L212.679 402.795C219.985 418.404 230.136 427.805 245.576 433.255C272.612 442.797 302.245 429.998 315.045 403.251L319.001 394.983V380.354V365.725L315.076 357.456C303.6 333.289 278.246 320.014 253.173 325.043ZM440.197 324.7C439.768 325.92 439.951 432.239 440.39 436.643C440.559 438.332 470.088 437.615 479.111 435.703C504.45 430.335 521.899 407.835 521.899 380.528C521.899 354.542 506.934 332.923 483.921 325.66L475.835 323.11H458.297H440.758L440.197 324.7ZM1069.18 324.998C1058.23 327.443 1050.61 331.465 1042.14 339.275C1033.67 347.095 1027.75 357.535 1024.92 369.672C1019.25 394.022 1032.84 419.956 1057.45 431.733L1065.72 435.689H1079.77H1093.83L1103.48 430.924L1113.12 426.159L1120.7 418.057C1141.29 396.038 1140.95 362.67 1119.91 341.29C1106.15 327.315 1086.74 321.081 1069.18 324.998ZM45.7152 399.011C45.2484 399.477 44.8668 408.636 44.8668 419.365V438.87L59.1777 438.842L73.4887 438.814L78.8683 436.371C87.6534 432.383 92.3893 421.882 89.4381 412.938C87.5999 407.366 80.8045 401.268 74.4771 399.511C69.1941 398.045 47.0662 397.659 45.7152 399.011ZM733.529 534.828C715.71 538.876 700.665 546.973 686.492 560.141C671.746 573.843 662.509 589.411 656.552 610.601C655.618 613.926 654.924 623.79 654.897 634.135L654.85 651.944L657.099 660.213C658.336 664.76 662.019 673.919 665.283 680.566L671.218 692.651L684.014 705.429L696.811 718.206L708.896 724.221C715.542 727.529 725.818 731.437 731.729 732.906L742.479 735.576L759.715 734.901L776.952 734.225L785.043 731.639C789.492 730.217 795.787 727.806 799.028 726.282C811.318 720.506 825.927 708.648 825.927 704.451C825.927 701.549 802.358 675.478 799.735 675.478C798.796 675.478 794.457 677.785 790.094 680.605C779.424 687.501 770.492 690.073 757.235 690.068L746.422 690.063L738.737 687.168C724.168 681.676 712.04 669.751 706.256 655.227L703.429 648.128L702.831 635.663L702.234 623.196L705.114 614.673C708.711 604.021 712.63 597.761 720.502 590.095C739.335 571.749 767.195 570.349 791.425 586.53C795.619 589.331 799.776 591.225 800.836 590.818C804.361 589.464 825.927 565.071 825.927 562.436C825.927 559.476 815.477 550.48 805.25 544.636C801.58 542.54 793.998 539.259 788.401 537.347L778.224 533.872L759.779 533.463C747.223 533.185 738.842 533.621 733.529 534.828ZM1024.36 535.563C1023.41 537.346 1023.11 567.332 1023.37 634.197L1023.74 730.27L1025.64 731.476C1027.73 732.793 1062.35 733.202 1065.61 731.949L1067.62 731.177V677.249C1067.62 647.59 1068.05 623.314 1068.58 623.306C1069.1 623.297 1094.43 648.508 1124.87 679.332L1180.2 735.375L1185.36 735.32C1188.19 735.29 1191.19 734.579 1192.03 733.739L1193.56 732.213V635.407V538.601L1192.03 537.075C1190.98 536.017 1184.37 535.548 1170.54 535.548H1150.58L1149.81 537.561C1149.38 538.667 1149.04 562.184 1149.04 589.822C1149.04 617.459 1148.55 639.881 1147.96 639.647C1147.37 639.414 1122.06 615.324 1091.72 586.114L1036.55 533.004H1031.14H1025.73L1024.36 535.563ZM2.24932 536.825C1.20875 538.507 1.19606 729.742 2.23662 731.424C3.43111 733.356 41.3901 733.145 43.3402 731.195L44.8668 729.668V694.304V658.94H78.5325H112.198L113.515 656.48C114.239 655.127 114.831 646.572 114.831 637.47V620.922L111.969 618.909L109.107 616.895L77.3049 617.014L45.5028 617.131V597.01V576.891L85.4654 576.555C112.364 576.329 125.983 575.758 127.126 574.809L128.824 573.399V556.001C128.824 544.164 128.336 538.113 127.298 537.075L125.771 535.548H64.4047C24.7093 535.548 2.75942 536 2.24932 536.825ZM160.881 537.075L159.354 538.601V633.201C159.354 695.978 159.797 728.628 160.671 730.261L161.988 732.721H217.661H273.333L274.86 731.195C275.904 730.151 276.386 723.94 276.386 711.522V693.376L273.926 692.059C272.407 691.246 258.534 690.743 237.672 690.743H203.877V614.672V538.601L202.351 537.075C200.216 534.94 163.016 534.94 160.881 537.075ZM310.987 537.075L309.461 538.601V634.135V729.668L310.987 731.195L312.514 732.721H373.229H433.943L435.943 730.723L437.941 728.723V712.278V695.831L435.397 693.287L432.853 690.743H393.418H353.984V672.297V653.852H386.803H419.623L421.15 652.326C422.198 651.277 422.676 644.95 422.676 632.108V613.418L420.664 612.645C419.557 612.221 404.086 611.873 386.282 611.873H353.912L354.266 594.382L354.62 576.891L394.69 576.565L434.761 576.24L436.351 574.096C438.329 571.429 438.556 541.617 436.625 538.008L435.308 535.548H373.911H312.514L310.987 537.075ZM471.22 537.774C470.584 538.999 470.42 540.92 470.858 542.043C471.695 544.196 489.779 572.633 513.081 608.436C520.729 620.188 526.987 630.606 526.987 631.585C526.987 632.566 514.294 653.29 498.781 677.639C465.679 729.593 466.96 727.355 468.587 730.394L469.832 732.721H492.678H515.522L519.083 727.806C521.042 725.103 529.488 711.965 537.855 698.609C546.22 685.253 553.429 674.298 553.873 674.265C554.613 674.211 559.95 682.172 583.344 718.241C587.935 725.32 592.637 731.473 593.791 731.916C594.943 732.359 605.553 732.721 617.365 732.721H638.842L640.232 730.123L641.623 727.524L638.051 721.846C636.086 718.723 622.815 697.786 608.56 675.319C594.305 652.851 582.399 633.534 582.103 632.393C581.807 631.252 585.092 624.88 589.405 618.234C593.717 611.587 601.52 599.566 606.746 591.52C611.971 583.474 621.351 569.031 627.589 559.424C633.827 549.817 638.931 541.203 638.931 540.279C638.931 539.357 638.244 537.914 637.404 537.075L635.878 535.548H612.637H589.396L586.807 539.049C584.062 542.762 573.543 559.442 562.363 577.809C558.648 583.91 555.037 588.893 554.337 588.882C553.637 588.869 547.054 579.048 539.708 567.059C532.362 555.068 524.774 543.073 522.845 540.402L519.338 535.548H495.858H472.377L471.22 537.774ZM859.046 538.008C858.172 539.642 857.73 572.145 857.73 634.597V728.723L859.728 730.723L861.728 732.721H922.442H983.157L984.684 731.195C985.723 730.156 986.21 724.088 986.21 712.186V694.703L983.382 692.723L980.556 690.743H941.404H902.253V672.297V653.852H935.237H968.219L970.219 651.854L972.217 649.854V632.391C972.217 620.503 971.73 614.439 970.691 613.4L969.164 611.873H935.673H902.181L902.535 594.382L902.889 576.891L942.851 576.555C969.749 576.329 983.368 575.758 984.512 574.809L986.21 573.399V556.001C986.21 544.164 985.722 538.113 984.684 537.075L983.157 535.548H921.76H860.363L859.046 538.008ZM1236.93 537.311C1235.94 538.507 1235.58 544.958 1235.82 557.347L1236.18 575.619L1258.44 576.255L1280.7 576.891L1281.03 653.098L1281.35 729.305L1282.77 731.013L1284.19 732.721H1303.6H1323L1324.42 731.013L1325.84 729.305L1326.16 653.098L1326.49 576.891L1347.48 576.554L1368.47 576.218L1370.06 574.085C1372.04 571.431 1372.27 541.617 1370.34 538.008L1369.02 535.548H1303.71H1238.39L1236.93 537.311ZM1404.18 536.675C1403.8 537.295 1403.46 581.187 1403.44 634.212L1403.39 730.625L1405.01 731.654C1405.91 732.219 1433.85 732.691 1467.12 732.702L1527.61 732.721L1529.14 731.195C1530.17 730.157 1530.66 724.114 1530.66 712.311V694.953L1528.34 692.848L1526.01 690.743H1486.36H1446.71V672.297V653.852H1479.69H1512.67L1514.67 651.854L1516.67 649.854V632.292V614.729L1514.98 613.323C1513.86 612.397 1502.03 611.801 1480.31 611.577L1447.34 611.237V594.064V576.891L1487.3 576.555C1514.2 576.329 1527.82 575.758 1528.96 574.809L1530.66 573.399V556.001C1530.66 544.164 1530.17 538.113 1529.14 537.075L1527.61 535.548H1466.24C1431.99 535.548 1404.57 536.045 1404.18 536.675ZM1577.81 537.942C1575.95 541.411 1575.92 726.795 1577.77 730.261L1579.09 732.721H1598.61H1618.13L1619.53 731.024C1620.47 729.892 1621.05 717.09 1621.28 692.544L1621.62 655.76H1631.07H1640.51L1659.69 693.923L1678.86 732.085L1699.21 732.449C1710.41 732.649 1720.86 732.495 1722.43 732.107L1725.29 731.401V728.191C1725.29 725.453 1720.66 716.193 1705.62 688.834C1698.69 676.24 1687.13 654.185 1687.13 653.566C1687.13 653.191 1690.26 651.302 1694.08 649.368C1714.58 638.994 1727.84 618.138 1727.84 596.255C1727.84 570.733 1713.2 549.596 1688.3 539.179L1681.41 536.292L1630.28 535.853L1579.16 535.416L1577.81 537.942ZM1621.93 575.732C1621.41 576.252 1620.98 586.315 1620.98 598.093V619.506H1644.22H1667.45L1671.88 617.149C1674.32 615.851 1678.01 612.396 1680.09 609.47L1683.86 604.15V597.472V590.795L1680.91 586.03C1679.29 583.408 1675.59 579.996 1672.69 578.447L1667.41 575.63L1645.14 575.208C1632.9 574.975 1622.45 575.212 1621.93 575.732ZM906.585 820.007C902.37 829.541 902.368 829.6 906.384 830.079L909.881 830.498L915.607 822.473C918.757 818.059 921.334 814.092 921.334 813.655C921.334 813.219 918.726 812.863 915.54 812.863H909.745L906.585 820.007ZM530.804 836.77C524.173 837.612 519.665 839.771 515.447 844.123L511.086 848.622V858.596V868.568L513.63 871.38C517.631 875.804 524.287 878.552 534.62 880.048L544.16 881.43L547.023 884.743C551.916 890.41 550.377 897.729 543.55 901.26C537.735 904.266 528.501 903.686 520.759 899.829L514.032 896.476L510.753 899.755L507.473 903.035L509.28 905.219C510.273 906.42 513.948 908.736 517.447 910.367L523.807 913.332L532.076 913.338C542.825 913.345 548.943 911.563 554.294 906.864C559.565 902.236 561.846 895.892 560.986 888.255C559.755 877.335 553.368 872.32 537.034 869.448C524.483 867.241 521.326 864.864 521.527 857.769L521.664 853.005L525.032 850.107L528.402 847.209L535.645 847.214C540.713 847.217 544.18 848.005 547.187 849.839L551.485 852.459L555.114 848.982L558.742 845.506L557.436 843.931C553.939 839.717 539.071 835.72 530.804 836.77ZM1170.86 837.223C1163.63 838.517 1158.49 841.627 1153.62 847.643L1149.67 852.528L1149.23 871.759C1148.75 892.896 1149.69 898.194 1155.06 904.576C1164.1 915.323 1184.08 916.352 1194.66 906.618C1197.71 903.821 1202.38 895.056 1202.44 892.05C1202.45 891.022 1200.55 890.46 1197.03 890.46H1191.59L1189.32 894.683C1183.32 905.833 1167.69 905.887 1162.41 894.776L1160.49 890.712V875.28C1160.49 857.628 1162.02 852.271 1167.96 849.201C1176.1 844.988 1186.47 848.215 1189.68 855.964L1191.33 859.93H1196.89C1203.24 859.93 1203.53 859.167 1200.05 851.661C1195 840.757 1183.34 834.988 1170.86 837.223ZM1253.76 837.195C1246.54 838.479 1241.75 841.145 1237.06 846.481C1231.98 852.272 1231.07 856.976 1231.16 877.103L1231.23 893.64L1233.9 898.729C1239.01 908.477 1247.19 913.358 1258.44 913.358C1269.8 913.358 1278.38 908.195 1282.75 898.729L1285.09 893.64L1285.12 875.472L1285.15 857.304L1283.18 852.593C1278.44 841.246 1266.41 834.946 1253.76 837.195ZM0.920009 838.639C0.580362 839.522 0.455705 856.553 0.641429 876.484L0.979793 912.722L6.34543 913.111L11.7111 913.5L12.0698 898.482L12.4286 883.464L25.1494 882.777C38.9287 882.032 42.722 880.904 47.0318 876.266C53.6785 869.116 55.3653 859.071 51.3785 850.389C46.4365 839.626 40.2211 837.165 17.7955 837.088L1.53571 837.032L0.920009 838.639ZM95.8977 844.029C93.1564 851.153 92.3639 853.294 82.9454 879.011C79.9992 887.057 76.0252 897.647 74.1146 902.545C72.2039 907.442 70.886 911.879 71.1862 912.404C71.4852 912.928 74.2252 913.358 77.2744 913.358H82.8169L85.2529 906.043L87.689 898.729L102.864 898.374L118.038 898.019L120.569 905.37L123.1 912.722L129.142 913.11C132.466 913.322 135.185 913.249 135.185 912.947C135.185 912.172 111.301 846.541 109.12 841.319L107.329 837.032H102.959H98.5895L95.8977 844.029ZM164.443 875.152V913.504L169.849 913.112L175.256 912.722L175.892 896.82L176.528 880.919L182.99 880.543L189.453 880.165L197.619 896.444L205.786 912.722L212.464 913.106C216.137 913.318 219.143 913.186 219.143 912.812C219.143 912.439 215.356 904.938 210.728 896.143C206.1 887.347 202.521 879.995 202.777 879.802C203.033 879.61 205.297 878.219 207.808 876.71C210.525 875.078 213.297 871.922 214.651 868.924L216.924 863.88L216.334 856.764C215.666 848.706 212.86 844.084 206.288 840.213L201.969 837.668L183.206 837.233L164.443 836.8V875.152ZM261.381 839.672C249.802 845.546 246.508 854.923 247.379 879.524L247.923 894.912L250.208 899.365C256.318 911.276 273.669 917.039 285.885 911.213L290.383 909.068L294.189 912.715L297.995 916.361L301.197 913.352L304.399 910.345L300.995 906.792L297.592 903.239L299.844 895.802L302.095 888.365L301.644 871.921L301.192 855.478L298.535 850.389C297.073 847.591 293.459 843.593 290.504 841.505L285.131 837.71L275.988 837.303L266.846 836.898L261.381 839.672ZM334.156 838.769C333.789 839.724 333.665 853.128 333.878 868.557L334.266 896.609L338.083 902.025C340.255 905.108 344.364 908.699 347.623 910.363L353.348 913.286H360.98H368.613L374.337 910.367C377.807 908.598 381.565 905.229 383.878 901.816L387.694 896.184L388.096 866.608L388.499 837.032H382.689H376.881V864.194V891.356L373.981 895.66C366.774 906.352 352.85 905.614 346.962 894.227L345.079 890.586V863.81V837.032H339.951C336.791 837.032 334.567 837.699 334.156 838.769ZM426.492 873.923C426.492 894.213 426.491 911.243 426.49 911.767C426.489 912.292 437.079 912.877 450.024 913.068L473.56 913.413V908.297V903.181H455.75H437.941V891.732V880.283H453.206H468.471V875.195V870.107H453.206H437.941V858.658V847.209H455.75H473.56V842.121V837.032H450.026H426.492V873.923ZM653.5 838.639C653.16 839.522 653.036 856.553 653.221 876.484L653.56 912.722H677.093H700.627L701.021 907.951L701.417 903.181H683.617H665.816L665.114 900.955C664.729 899.73 664.435 885.563 664.462 869.471C664.49 853.379 664.479 839.498 664.441 838.623C664.348 836.48 654.322 836.496 653.5 838.639ZM742.29 839.642C735.655 843.01 731.041 848.311 729.305 854.563C727.524 860.976 727.623 890.309 729.444 895.677C731.825 902.696 735.44 906.869 742.04 910.213C755.853 917.212 772.542 912.152 779.91 898.729L782.005 894.912L782.001 875.195L781.996 855.478L779.131 850.073C777.549 847.088 773.907 843.107 770.999 841.182L765.732 837.698L756.713 837.298L747.694 836.898L742.29 839.642ZM827.836 839.437C821.677 842.279 817.801 846.306 815.176 852.593L813.207 857.304L813.214 874.2C813.218 883.493 813.812 893.226 814.535 895.827C819.786 914.733 847.527 919.596 861.687 904.093C866.03 899.339 868.27 890.213 867.69 879.647L867.27 872.015H853.913H840.556L840.166 876.723L839.774 881.431L847.798 881.811L855.821 882.191L856.211 885.559C856.811 890.736 853.251 897.758 848.583 900.604C839.54 906.118 828.856 902.008 825.81 891.843C823.834 885.246 824.8 857.625 827.135 854.035C833.65 844.011 848.92 845.229 854.608 856.226L856.522 859.93H862.3H868.078L867.246 857.068C865.307 850.394 859.486 842.875 854.032 839.994L848.424 837.032L840.675 837.06C835.878 837.078 830.984 837.984 827.836 839.437ZM900.98 875.195V913.504L906.387 913.112L911.793 912.722V875.195V837.668L906.387 837.278L900.98 836.886V875.195ZM955.562 839.951L949.956 842.869L947.094 848.489C943.714 855.127 943.478 860.541 946.268 867.513C948.984 874.302 954.628 877.572 967.065 879.563C978.601 881.41 982.98 883.736 984.219 888.674C986.294 896.943 979.399 903.186 968.205 903.173C961.776 903.166 958.881 902.233 952.19 898.018L949.335 896.218L945.39 900.162L941.446 904.107L945.299 906.851C951.367 911.172 959.105 913.358 968.332 913.358H976.849L983.735 909.859C992.264 905.527 995.661 900.184 995.661 891.096C995.661 883.385 992.334 876.951 986.625 873.615C984.454 872.347 977.967 870.482 972.211 869.469C958.985 867.144 955.736 864.934 955.699 858.242C955.688 855.946 957.023 853.302 959.398 850.927L963.117 847.209H969.943C974.043 847.209 978.589 848.138 981.33 849.536L985.892 851.861L989.231 849.429C994.069 845.905 993.395 844.031 985.961 840.326L979.35 837.032H970.26H961.169L955.562 839.951ZM1022.7 837.855C1022.22 838.335 1021.83 840.613 1021.83 842.917V847.106L1032.32 847.476L1042.82 847.845L1043.16 880.674L1043.5 913.501L1048.88 913.112L1054.27 912.722L1054.61 879.965L1054.95 847.209H1065.18H1075.41L1075.01 842.439L1074.62 837.668L1049.1 837.325C1035.06 837.135 1023.18 837.375 1022.7 837.855ZM1105.79 873.85C1105.79 894.18 1105.79 911.243 1105.79 911.767C1105.79 912.292 1108.22 912.722 1111.19 912.722H1116.6V875.195V837.668L1111.19 837.278L1105.79 836.886V873.85ZM1323.26 839.895L1317.59 842.757L1314.73 848.433C1311.26 855.303 1311.13 861.369 1314.29 868.333L1316.66 873.557L1322.22 876.194C1325.27 877.644 1331.2 879.23 1335.4 879.719C1343.93 880.712 1349.32 882.979 1350.51 886.065C1352.31 890.753 1351.28 896.396 1348.08 899.403L1344.86 902.429L1336.95 902.907L1329.04 903.384L1322.78 900.024L1316.52 896.664L1312.8 900.386L1309.08 904.107L1312.93 906.851C1319 911.172 1326.74 913.358 1335.97 913.358H1344.48L1351.37 909.859C1355.8 907.608 1359.14 904.819 1360.73 902.035C1365.95 892.914 1362.62 878.389 1354.2 873.544C1351.94 872.246 1345.47 870.445 1339.83 869.541L1329.56 867.896L1326.43 864.964C1321.48 860.309 1323 851.464 1329.24 848.621C1333.99 846.455 1343.86 846.932 1349.05 849.579L1353.7 851.95L1357.25 848.247L1360.79 844.544L1358.91 843.245C1352.7 838.964 1346.32 837.087 1337.89 837.06L1328.94 837.032L1323.26 839.895ZM12.3942 848.747C12.0037 849.767 11.851 855.42 12.0558 861.309L12.4286 872.015L21.8776 872.393C32.9104 872.835 37.8919 871.169 40.4742 866.175C43.2512 860.804 42.722 856.601 38.6997 852.1L35.078 848.045L24.0923 847.469L13.1066 846.892L12.3942 848.747ZM176.431 848.911C176.071 849.849 175.946 855.143 176.152 860.678L176.528 870.743H187.77H199.014L202.081 867.173C207.57 860.787 205.679 852.18 198.092 849.009C192.443 846.649 177.325 846.581 176.431 848.911ZM267.604 848.818C265.922 849.682 263.346 852.005 261.88 853.98L259.213 857.572L258.796 872.426C258.295 890.277 259.803 896.05 266.08 900.272C270.873 903.498 277.854 904.102 280.031 901.48L281.443 899.778L278.279 896.805C274.444 893.203 274.326 891.568 277.68 888.532L280.246 886.21L283.902 889.711C286.204 891.918 287.871 892.704 288.405 891.839C289.93 889.371 290.738 873.232 289.783 864.316L288.85 855.602L284.654 851.406L280.457 847.209L275.56 847.228C272.867 847.238 269.286 847.953 267.604 848.818ZM746.44 849.967C740.965 854.273 739.424 859.599 739.433 874.2C739.441 890.082 740.845 895.649 745.921 899.919C752.548 905.496 762.98 903.626 768.162 895.931L770.561 892.368L770.548 875.195C770.534 856.27 769.798 853.716 763.196 849.69C757.78 846.387 750.844 846.503 746.44 849.967ZM1249.98 849.659C1247.46 851.196 1245.38 853.905 1244.37 856.97C1242.32 863.189 1242.28 887.095 1244.32 893.269C1248.35 905.474 1266.23 906.456 1271.77 894.776L1273.7 890.712L1273.69 874.367L1273.69 858.022L1271.23 854.291C1266.46 847.063 1257.46 845.1 1249.98 849.659ZM100.369 862.792C96.488 873.549 91.9339 886.808 91.9339 887.356C91.9339 887.664 96.7997 887.916 102.747 887.916H113.559V886.328C113.559 883.316 104.442 857.386 103.383 857.386C102.799 857.386 101.443 859.818 100.369 862.792Z" fill="black"/>
</svg>
