<svg width="16" height="10" viewBox="0 0 16 10" fill="none" xmlns="http://www.w3.org/2000/svg">
<path d="M11.9481 0.750446C11.9711 0.750414 11.9941 0.75031 12.0172 0.750138C12.1588 0.749105 12.297 0.753624 12.4378 0.771892C12.4682 0.775808 12.4988 0.779278 12.5293 0.782745C12.6264 0.794196 12.7217 0.813392 12.8171 0.834954C12.8253 0.83681 12.8335 0.838666 12.842 0.840578C12.9294 0.860507 13.016 0.880957 13.101 0.910137C13.1155 0.914704 13.1301 0.919245 13.1446 0.923764C13.2526 0.958158 13.3596 0.995481 13.4649 1.03795C13.4739 1.04157 13.4739 1.04157 13.4831 1.04527C13.5025 1.05312 13.5219 1.06103 13.5413 1.06896C13.5473 1.0714 13.5533 1.07385 13.5595 1.07636C13.5969 1.09181 13.6329 1.10911 13.6687 1.12817C13.6809 1.13443 13.6809 1.13443 13.6934 1.14083C13.718 1.15339 13.7424 1.16606 13.7668 1.1788C13.7796 1.18545 13.7924 1.19208 13.8052 1.19869C14.0365 1.31855 14.2565 1.46278 14.4583 1.6303C14.4682 1.63852 14.4782 1.64665 14.4882 1.65477C14.562 1.71486 14.6328 1.77849 14.7017 1.84439C14.7208 1.86263 14.7401 1.88052 14.76 1.89786C14.7807 1.91602 14.8003 1.93446 14.8187 1.95518C14.8187 1.96015 14.8187 1.96511 14.8187 1.97022C14.8235 1.97022 14.8283 1.97022 14.8332 1.97022C14.8432 1.98073 14.8432 1.98073 14.855 1.99559C14.8759 2.02095 14.8976 2.04463 14.9205 2.06796C14.9458 2.0938 14.97 2.11994 14.9931 2.14784C15.0051 2.16236 15.0173 2.17674 15.0295 2.19107C15.0768 2.24667 15.1225 2.303 15.1653 2.36236C15.1724 2.3722 15.1795 2.38202 15.1867 2.39182C15.2767 2.51517 15.3613 2.64215 15.4366 2.77563C15.4452 2.79084 15.454 2.80596 15.4627 2.82108C15.6519 3.14893 15.7872 3.50386 15.8813 3.87235C15.883 3.87912 15.8848 3.88588 15.8865 3.89284C15.9037 3.96041 15.9198 4.02715 15.9286 4.09651C15.9321 4.11932 15.9369 4.14109 15.9424 4.16345C15.9556 4.22164 15.9635 4.28016 15.9709 4.33937C15.9732 4.35756 15.9756 4.37573 15.978 4.39389C15.9993 4.55913 15.9995 4.72481 15.9999 4.89124C16 4.91566 16.0001 4.94007 16.0003 4.9645C16.0016 5.09964 15.9988 5.23292 15.9844 5.36735C15.9838 5.37297 15.9832 5.37859 15.9826 5.38438C15.9748 5.45539 15.9642 5.52561 15.9517 5.59588C15.9472 5.62169 15.9434 5.64749 15.94 5.67346C15.934 5.71467 15.9249 5.75469 15.9147 5.79496C15.9068 5.82652 15.8997 5.85811 15.8933 5.89003C15.8767 5.97173 15.8533 6.05086 15.8291 6.13044C15.8232 6.14989 15.8175 6.16938 15.8119 6.18891C15.7674 6.34272 15.7674 6.34272 15.7356 6.4122C15.7266 6.43284 15.7189 6.4539 15.7112 6.4751C15.678 6.56495 15.6398 6.65107 15.5976 6.73666C15.5903 6.75155 15.5832 6.76649 15.5761 6.78147C15.4792 6.98524 15.3629 7.17755 15.2335 7.36085C15.2302 7.36559 15.2268 7.37032 15.2234 7.37519C15.1502 7.47836 15.0732 7.5785 14.9888 7.67219C14.975 7.68769 14.9617 7.7034 14.9484 7.71934C14.9219 7.75058 14.8942 7.78022 14.8658 7.80957C14.8608 7.81484 14.8557 7.8201 14.8505 7.82552C14.8398 7.83657 14.8292 7.8476 14.8185 7.85863C14.8024 7.87528 14.7863 7.89199 14.7703 7.90871C14.721 7.95983 14.672 8.0096 14.6168 8.05403C14.5993 8.06841 14.583 8.08373 14.5666 8.09953C14.5204 8.14291 14.4706 8.1813 14.4207 8.21992C14.4094 8.22861 14.3982 8.23733 14.387 8.24607C14.2607 8.34464 14.1287 8.43232 13.9923 8.51526C13.9745 8.52612 13.9568 8.5371 13.9391 8.5481C13.8729 8.58888 13.8063 8.62412 13.7354 8.65536C13.7087 8.66718 13.683 8.68047 13.6573 8.69442C13.5812 8.73447 13.5008 8.76493 13.4212 8.79685C13.4135 8.79998 13.4058 8.80311 13.3978 8.80633C13.2581 8.86252 13.1153 8.90932 12.9699 8.94722C12.9637 8.94884 12.9575 8.95047 12.9512 8.95214C12.9066 8.9637 12.8619 8.97447 12.8171 8.98481C12.8103 8.98639 12.8036 8.98797 12.7966 8.9896C12.6692 9.01888 12.5412 9.03703 12.4115 9.0507C12.4002 9.05191 12.3889 9.05318 12.3776 9.05449C12.2521 9.06895 12.1269 9.07009 12.0007 9.06989C11.9777 9.06985 11.9546 9.0699 11.9316 9.07004C11.6488 9.07171 11.3762 9.03813 11.0994 8.97729C11.0912 8.9755 11.0912 8.9755 11.0828 8.97366C11.0469 8.96565 11.0113 8.95669 10.9757 8.94722C10.9683 8.94526 10.9609 8.94329 10.9533 8.94127C10.5681 8.83762 10.1955 8.67605 9.859 8.45572C9.84089 8.44391 9.82269 8.43225 9.80446 8.42064C9.68714 8.34565 9.57642 8.26226 9.46905 8.17283C9.46221 8.16713 9.45536 8.16144 9.4483 8.15556C9.42843 8.13889 9.40869 8.12206 9.38899 8.10517C9.37803 8.09582 9.37803 8.09582 9.36684 8.08628C9.27113 8.00412 9.18229 7.91488 9.09422 7.82417C9.09044 7.82029 9.08667 7.81641 9.08278 7.81241C9.0401 7.7685 8.99873 7.72395 8.95957 7.67662C8.94928 7.66501 8.93898 7.65342 8.92864 7.64185C8.89124 7.59908 8.85729 7.5538 8.82315 7.50827C8.81094 7.49213 8.79836 7.47632 8.7858 7.46047C8.6136 7.23849 8.46088 6.98742 8.34732 6.72853C8.337 6.70559 8.32572 6.68321 8.31452 6.66071C8.29253 6.61568 8.27404 6.56995 8.25641 6.52297C8.24772 6.50003 8.23851 6.47748 8.229 6.4549C8.18096 6.33679 8.14381 6.21292 8.10723 6.09055C8.10576 6.08565 8.10429 6.08074 8.10277 6.07569C8.10127 6.0707 8.09978 6.06571 8.09823 6.06057C8.095 6.05016 8.09162 6.0398 8.0881 6.0295C8.07223 5.98284 8.06228 5.93573 8.05296 5.88726C8.04992 5.87176 8.04688 5.85625 8.04383 5.84074C8.04238 5.83329 8.04092 5.82584 8.03943 5.81817C8.03569 5.79944 8.03176 5.78078 8.02768 5.76213C8.0055 5.66005 7.98981 5.55668 7.97608 5.45308C7.97493 5.44461 7.97377 5.43615 7.97259 5.42742C7.95105 5.25968 7.9453 5.09197 7.94558 4.92299C7.94561 4.90118 7.94556 4.87936 7.94543 4.85754C7.94428 4.66718 7.95104 4.47693 7.98663 4.28956C7.99131 4.26455 7.99478 4.2397 7.99792 4.21444C8.0173 4.07096 8.05012 3.92951 8.08617 3.78965C8.08824 3.78154 8.08824 3.78154 8.09036 3.77327C8.13254 3.6107 8.18762 3.4473 8.25357 3.29344C8.25641 3.28671 8.25925 3.27997 8.26218 3.27303C8.29413 3.19892 8.32872 3.12597 8.36274 3.05286C8.36657 3.04462 8.3704 3.03638 8.37434 3.02789C8.43323 2.90376 8.5007 2.7851 8.57382 2.66942C8.57782 2.66306 8.58183 2.65669 8.58596 2.65013C8.67417 2.51032 8.76859 2.37643 8.87223 2.2484C8.8776 2.24173 8.8776 2.24173 8.88308 2.23494C8.9679 2.12997 9.05942 2.03181 9.15266 1.93485C9.16088 1.92629 9.1691 1.91773 9.1773 1.90915C9.22306 1.86134 9.26924 1.81611 9.32037 1.7744C9.33863 1.75922 9.35587 1.74325 9.37307 1.72681C9.41763 1.68499 9.46494 1.64712 9.51272 1.60934C9.51736 1.60566 9.522 1.60199 9.52678 1.5982C9.71993 1.44558 9.92698 1.30408 10.1465 1.19533C10.1664 1.18536 10.1862 1.17502 10.2059 1.1647C10.3464 1.09144 10.4918 1.02977 10.6409 0.977802C10.6482 0.975204 10.6556 0.972605 10.6632 0.969928C10.8046 0.920108 10.9442 0.876294 11.0906 0.845874C11.127 0.838174 11.1631 0.82971 11.1991 0.82071C11.2815 0.800716 11.3649 0.78872 11.4488 0.777157C11.4574 0.775934 11.4574 0.775934 11.4663 0.774687C11.6267 0.752251 11.7865 0.750644 11.9481 0.750446Z" fill="#EF8035"/>
<path d="M3.90848 0.932617C3.92579 0.959432 3.92609 0.974734 3.92847 1.00668C3.92887 1.01182 3.92928 1.01695 3.92969 1.02224C3.93056 1.03329 3.9314 1.04433 3.93222 1.05538C3.93438 1.08451 3.93677 1.11361 3.93916 1.14272C3.93987 1.15146 3.93987 1.15146 3.94059 1.16037C3.95271 1.3074 3.96766 1.45711 4.00449 1.60001C4.01049 1.62476 4.01552 1.64956 4.02042 1.67455C4.04302 1.7897 4.07515 1.90116 4.10864 2.01338C4.11265 2.02686 4.11265 2.02686 4.11674 2.04061C4.14216 2.12498 4.16883 2.20819 4.20517 2.28828C4.21446 2.30911 4.223 2.33014 4.2314 2.35138C4.36041 2.67673 4.53022 2.98472 4.73821 3.2633C4.74283 3.26948 4.74283 3.26948 4.74753 3.2758C4.81101 3.36074 4.87714 3.44312 4.94713 3.52244C4.95751 3.53426 4.96784 3.54614 4.97807 3.5581C5.02004 3.60705 5.064 3.65361 5.10883 3.69974C5.12082 3.71208 5.13276 3.72446 5.14471 3.73685C5.18506 3.77856 5.22596 3.81909 5.26953 3.85724C5.27821 3.8651 5.28687 3.87297 5.29552 3.88086C5.3516 3.93164 5.40859 3.9807 5.46781 4.02753C5.48034 4.03747 5.49277 4.04753 5.5052 4.0576C5.65302 4.17598 5.81283 4.28103 5.97554 4.37601C5.9817 4.37964 5.98787 4.38326 5.99422 4.387C6.11121 4.45566 6.23087 4.51545 6.35566 4.56737C6.37821 4.5768 6.40025 4.58703 6.42224 4.5978C6.54983 4.65869 6.68693 4.69975 6.82119 4.74159C6.82586 4.74305 6.83053 4.74451 6.83534 4.74601C6.91783 4.77176 7.00042 4.79462 7.08503 4.8116C7.09119 4.81284 7.09735 4.81409 7.1037 4.81537C7.11662 4.81798 7.12954 4.82057 7.14246 4.82316C7.16163 4.82705 7.18076 4.8311 7.19989 4.83518C7.2711 4.85013 7.34149 4.86135 7.41399 4.86708C7.44416 4.86952 7.47309 4.87317 7.50271 4.87962C7.56705 4.8923 7.63294 4.8928 7.69823 4.89571C7.71189 4.89636 7.72555 4.89702 7.73922 4.89768C7.77241 4.89927 7.8056 4.9008 7.8388 4.90229C7.8388 4.90725 7.8388 4.91221 7.8388 4.91733C7.83359 4.9174 7.82839 4.91747 7.82303 4.91754C7.59784 4.92128 7.37509 4.944 7.15463 4.99251C7.14542 4.99452 7.1362 4.99653 7.12671 4.9986C7.0161 5.02285 6.90677 5.04972 6.79899 5.08525C6.78431 5.08997 6.7696 5.09431 6.75477 5.0985C6.58632 5.14628 6.4241 5.21527 6.26576 5.29079C6.24746 5.29951 6.2291 5.30811 6.21072 5.31665C6.02985 5.40151 5.85479 5.50706 5.69168 5.62405C5.68686 5.62748 5.68203 5.63092 5.67706 5.63446C5.56927 5.71138 5.46443 5.79253 5.36415 5.87967C5.36028 5.88303 5.35641 5.88639 5.35243 5.88985C5.33963 5.90099 5.32686 5.91217 5.31411 5.92337C5.31035 5.92666 5.3066 5.92994 5.30272 5.93333C5.225 6.00208 5.15152 6.0755 5.07934 6.15034C5.06653 6.16361 5.05368 6.17684 5.04083 6.19007C4.99906 6.23319 4.95825 6.27657 4.92017 6.32325C4.91309 6.33166 4.90601 6.34006 4.89891 6.34845C4.67072 6.62054 4.46881 6.92721 4.32328 7.25469C4.31268 7.27802 4.30116 7.30078 4.28968 7.32366C4.26751 7.36894 4.2496 7.41521 4.23225 7.46261C4.22116 7.49286 4.20955 7.52237 4.19598 7.55156C4.16795 7.61372 4.14785 7.67927 4.12683 7.74421C4.12463 7.751 4.12243 7.75779 4.12016 7.76478C4.09067 7.85646 4.06497 7.94847 4.04349 8.0425C4.03967 8.05918 4.03576 8.07584 4.03181 8.0925C4.01268 8.17391 3.99632 8.25584 3.98126 8.33816C3.98026 8.34359 3.97926 8.34902 3.97822 8.35461C3.95966 8.45653 3.94997 8.55938 3.93987 8.6625C3.93818 8.67847 3.93601 8.69439 3.93358 8.71026C3.92834 8.75257 3.92759 8.79506 3.92622 8.83766C3.92591 8.84675 3.92559 8.85583 3.92527 8.86519C3.9245 8.8875 3.92376 8.9098 3.92304 8.93211C3.91823 8.93211 3.91343 8.93211 3.90848 8.93211C3.90819 8.92589 3.9079 8.91968 3.90761 8.91327C3.89989 8.75309 3.88623 8.59476 3.86481 8.4359C3.86374 8.4279 3.86268 8.41989 3.86158 8.41165C3.84822 8.31424 3.82834 8.21866 3.80658 8.12295C3.80536 8.11758 3.80414 8.11222 3.80289 8.10669C3.77808 7.99817 3.74827 7.89172 3.71395 7.78601C3.70878 7.77006 3.70365 7.75409 3.69853 7.73812C3.67795 7.67429 3.65574 7.61137 3.6319 7.54874C3.62584 7.53214 3.61977 7.51553 3.61371 7.49893C3.60001 7.46216 3.58512 7.42631 3.56898 7.39062C3.55984 7.36993 3.55133 7.34905 3.54285 7.32806C3.51099 7.25006 3.47159 7.17663 3.43168 7.10277C3.42043 7.08186 3.40934 7.06086 3.39828 7.03984C3.28519 6.82545 3.15021 6.62331 2.99869 6.43603C2.9951 6.43158 2.99151 6.42713 2.98782 6.42254C2.94939 6.37494 2.9103 6.32802 2.86988 6.28219C2.85932 6.27017 2.84881 6.2581 2.83838 6.24595C2.79733 6.19821 2.75453 6.15262 2.71073 6.10757C2.70423 6.10082 2.69772 6.09407 2.69102 6.08712C2.65403 6.04897 2.61622 6.01253 2.57654 5.97741C2.56484 5.96647 2.55316 5.95551 2.54151 5.94452C2.50333 5.90894 2.46374 5.87539 2.42369 5.84208C2.41829 5.83749 2.41289 5.83289 2.40732 5.82816C2.12872 5.59334 1.81413 5.40337 1.48479 5.25565C1.47708 5.25216 1.46937 5.24867 1.46143 5.24507C1.36852 5.20309 1.27669 5.164 1.17909 5.13536C1.15116 5.12622 1.12342 5.11664 1.09601 5.10595C1.0482 5.08732 1.00039 5.07296 0.950736 5.06064C0.943213 5.05874 0.935689 5.05684 0.927938 5.05488C0.904919 5.04908 0.881885 5.04334 0.858847 5.03762C0.844934 5.03414 0.831022 5.03065 0.81711 5.02716C0.785488 5.01928 0.753834 5.01155 0.72215 5.00393C0.708338 5.00059 0.694544 4.99718 0.680754 4.99374C0.478918 4.94575 0.264958 4.92505 0.0579604 4.92017C0.0160604 4.91888 0.0160604 4.91888 0 4.90229C0.00445306 4.90214 0.00890611 4.90199 0.0134941 4.90184C0.0957276 4.89898 0.177783 4.89536 0.259747 4.88772C0.265902 4.88716 0.272058 4.8866 0.278401 4.88602C0.329078 4.88105 0.379165 4.87296 0.429423 4.8647C0.445277 4.86218 0.461132 4.85968 0.476989 4.85718C0.484827 4.85594 0.492666 4.8547 0.500743 4.85342C0.516607 4.85091 0.532471 4.8484 0.548336 4.8459C0.65566 4.82957 0.65566 4.82957 0.761499 4.80549C0.79168 4.79738 0.821811 4.78948 0.852364 4.783C0.988861 4.75399 1.12127 4.70917 1.25142 4.65809C1.27651 4.64827 1.30181 4.63952 1.32739 4.63116C1.36554 4.61828 1.40124 4.60162 1.43748 4.58385C1.46577 4.57011 1.49432 4.5571 1.523 4.54423C1.53699 4.53795 1.55098 4.53166 1.56497 4.52536C1.57472 4.52097 1.58448 4.51661 1.59425 4.51228C1.90897 4.37108 2.20646 4.16706 2.46663 3.93716C2.48792 3.91839 2.50968 3.90025 2.53151 3.88215C2.5601 3.85813 2.58652 3.83311 2.61188 3.8055C2.62544 3.79166 2.63931 3.77893 2.65376 3.76611C2.69047 3.73318 2.72466 3.69782 2.75895 3.66224C2.76521 3.65581 2.77146 3.64938 2.7779 3.64275C2.8103 3.60924 2.84164 3.57525 2.87151 3.53932C2.88503 3.52308 2.8991 3.5074 2.91316 3.49167C2.94623 3.45381 2.97654 3.41413 3.00676 3.37387C3.0245 3.35026 3.04261 3.32699 3.06083 3.30377C3.13309 3.21153 3.19798 3.11453 3.26071 3.01519C3.26399 3.01003 3.26727 3.00488 3.27065 2.99956C3.36323 2.8535 3.44627 2.70078 3.516 2.5417C3.52221 2.52766 3.52869 2.51374 3.53518 2.49983C3.59582 2.36985 3.6482 2.2347 3.69254 2.09788C3.69765 2.08218 3.70291 2.06655 3.70818 2.05091C3.75361 1.91497 3.78726 1.77615 3.81702 1.63577C3.82076 1.61854 3.82473 1.60139 3.82884 1.58424C3.85431 1.47625 3.86637 1.36608 3.87937 1.2559C3.88058 1.24584 3.88058 1.24584 3.88181 1.23556C3.89383 1.13488 3.90108 1.03376 3.90848 0.932617Z" fill="#D92735"/>
<path d="M11.9724 0.835022C11.9748 0.835022 11.9772 0.835022 11.9797 0.835022C11.9798 0.842757 11.9798 0.842757 11.98 0.850648C11.9847 1.05783 12.0022 1.2625 12.0379 1.46656C12.0395 1.47587 12.0411 1.48518 12.0428 1.49477C12.063 1.61153 12.0866 1.72612 12.1202 1.83967C12.1269 1.86348 12.1328 1.88749 12.1386 1.91156C12.157 1.98695 12.1806 2.05963 12.2063 2.13265C12.2124 2.1501 12.2182 2.16762 12.224 2.18518C12.2426 2.24136 12.2627 2.29542 12.2876 2.34902C12.3001 2.37671 12.3116 2.40469 12.323 2.43287C12.3531 2.50701 12.3866 2.5779 12.4239 2.64839C12.4336 2.66707 12.4425 2.68611 12.4514 2.7052C12.511 2.82892 12.5822 2.9458 12.6566 3.06044C12.66 3.06578 12.6634 3.07112 12.667 3.07662C12.7377 3.18602 12.815 3.29042 12.8968 3.39125C12.8999 3.39512 12.903 3.399 12.9062 3.40299C12.9505 3.45773 12.9957 3.51152 13.0423 3.56417C13.0487 3.57148 13.0551 3.57879 13.0617 3.58632C13.1033 3.6336 13.146 3.67961 13.1897 3.72488C13.1944 3.72979 13.1992 3.73471 13.204 3.73977C13.2321 3.76873 13.2611 3.79627 13.2912 3.82308C13.3075 3.83766 13.3234 3.85268 13.3394 3.86772C13.3776 3.90329 13.4171 3.93685 13.4572 3.97016C13.4654 3.97712 13.4737 3.98408 13.4819 3.99104C13.71 4.1828 13.9642 4.35077 14.2294 4.48208C14.2436 4.48908 14.2576 4.49618 14.2717 4.50329C14.3326 4.53366 14.3943 4.56154 14.4566 4.58854C14.4637 4.59164 14.4708 4.59474 14.4782 4.59794C14.5209 4.61628 14.564 4.63223 14.6081 4.64701C14.6275 4.65381 14.6464 4.66133 14.6654 4.66939C14.7058 4.68645 14.7471 4.70036 14.7887 4.71401C14.7966 4.71662 14.8046 4.71923 14.8128 4.72193C14.9115 4.75398 15.0106 4.78053 15.112 4.80182C15.1436 4.80846 15.1747 4.81582 15.2058 4.82443C15.2472 4.83551 15.2888 4.84094 15.3312 4.84631C15.3521 4.84916 15.3722 4.85272 15.3928 4.85732C15.4434 4.86829 15.4947 4.87398 15.5461 4.87988C15.5517 4.88054 15.5574 4.8812 15.5632 4.88188C15.6714 4.89425 15.7794 4.89915 15.8882 4.90243C15.8674 4.92387 15.8524 4.92005 15.8233 4.92117C15.8127 4.92165 15.802 4.92213 15.7913 4.92261C15.7857 4.92284 15.7801 4.92307 15.7742 4.92331C15.6765 4.92743 15.5795 4.93466 15.4824 4.94707C15.4729 4.94826 15.4635 4.94945 15.4538 4.95067C15.3961 4.95829 15.3392 4.96828 15.2822 4.97969C15.2537 4.98537 15.2252 4.99068 15.1967 4.99594C15.1427 5.00621 15.0897 5.01968 15.0365 5.03395C15.0222 5.03772 15.0078 5.04128 14.9934 5.04478C14.9294 5.06046 14.8675 5.08018 14.8053 5.1022C14.7801 5.11112 14.7547 5.11925 14.7291 5.12704C14.6853 5.14076 14.6424 5.15655 14.5994 5.17262C14.5929 5.17506 14.5864 5.1775 14.5796 5.18001C14.5299 5.19877 14.4812 5.21937 14.4325 5.24076C14.4217 5.24547 14.4217 5.24547 14.4108 5.25028C14.3147 5.29265 14.2207 5.33718 14.1292 5.38908C14.1116 5.39902 14.0939 5.40879 14.0762 5.41855C13.9912 5.46579 13.9093 5.51708 13.8284 5.57156C13.8229 5.57522 13.8175 5.57887 13.8118 5.58263C13.6262 5.70712 13.4513 5.84698 13.2892 6.0026C13.2733 6.01757 13.2574 6.03209 13.2411 6.04651C13.2033 6.08051 13.1682 6.11712 13.1328 6.15376C13.1262 6.16055 13.1196 6.16734 13.1128 6.17434C13.0796 6.20871 13.0474 6.24347 13.0167 6.28034C13.0021 6.29795 12.9867 6.31486 12.9714 6.33185C12.9368 6.371 12.9051 6.41192 12.8738 6.45382C12.8601 6.47212 12.8461 6.49016 12.8319 6.50803C12.7779 6.57611 12.7293 6.64705 12.6819 6.72025C12.6724 6.73489 12.6628 6.74943 12.6531 6.76392C12.5492 6.91977 12.4616 7.08657 12.38 7.25567C12.3753 7.26531 12.3753 7.26531 12.3705 7.27514C12.2078 7.61253 12.1047 7.97633 12.0379 8.34582C12.0366 8.35318 12.0352 8.36054 12.0338 8.36812C11.9993 8.56115 11.9866 8.7588 11.9797 8.95481C11.9651 8.93977 11.9651 8.93977 11.9634 8.92294C11.9634 8.91585 11.9634 8.90875 11.9634 8.90144C11.9633 8.89324 11.9632 8.88503 11.9631 8.87658C11.963 8.8675 11.9629 8.85843 11.9628 8.84908C11.9608 8.75259 11.9521 8.65772 11.9406 8.56198C11.9398 8.55553 11.939 8.54909 11.9382 8.54245C11.9184 8.37687 11.8875 8.21451 11.8487 8.05261C11.8469 8.0452 11.8451 8.03779 11.8433 8.03015C11.792 7.81835 11.7208 7.61411 11.6376 7.41355C11.6347 7.40662 11.6319 7.39968 11.6289 7.39254C11.5928 7.30592 11.5526 7.22204 11.5091 7.13914C11.4988 7.11935 11.4886 7.0995 11.4784 7.07963C11.3428 6.81765 11.1754 6.56661 10.9825 6.34595C10.9773 6.33996 10.9721 6.33397 10.9667 6.3278C10.956 6.31551 10.9453 6.30323 10.9346 6.29097C10.9253 6.28028 10.9161 6.26956 10.9071 6.25861C10.8676 6.21073 10.8246 6.16661 10.7815 6.12225C10.7683 6.10868 10.7552 6.09508 10.7421 6.08147C10.6997 6.03771 10.6572 5.99485 10.6113 5.955C10.6033 5.94777 10.5952 5.94054 10.5872 5.93329C10.3438 5.71579 10.0761 5.52914 9.78995 5.37699C9.77513 5.369 9.76045 5.36077 9.74582 5.35242C9.6889 5.31998 9.63126 5.29306 9.57088 5.26819C9.54511 5.25752 9.52007 5.24565 9.49503 5.23324C9.35427 5.16523 9.20193 5.11915 9.05332 5.07347C9.04528 5.071 9.03723 5.06852 9.02894 5.06597C8.91715 5.03201 8.8042 5.00787 8.68986 4.98513C8.68311 4.98377 8.67637 4.9824 8.66942 4.98099C8.46743 4.94031 8.26228 4.92048 8.05664 4.91747C8.05664 4.91251 8.05664 4.90755 8.05664 4.90243C8.06148 4.90236 8.06632 4.90229 8.07131 4.90222C8.27938 4.8985 8.48533 4.87438 8.68986 4.83477C8.69651 4.83349 8.70316 4.83221 8.71001 4.83089C8.7736 4.81851 8.83671 4.80557 8.89891 4.78696C8.91439 4.78246 8.92977 4.77888 8.94551 4.77556C9.29697 4.69623 9.6543 4.53481 9.96357 4.34608C9.97 4.34217 9.97643 4.33825 9.98305 4.33422C10.1767 4.21578 10.3594 4.08258 10.5313 3.93257C10.5357 3.92871 10.5402 3.92486 10.5448 3.92089C10.643 3.83585 10.7353 3.745 10.8261 3.65157C10.8328 3.6446 10.8396 3.63763 10.8466 3.63045C10.8837 3.59201 10.9193 3.55284 10.9534 3.51154C10.961 3.50258 10.9687 3.49364 10.9763 3.4847C11.0254 3.42677 11.0729 3.3679 11.1183 3.30673C11.1279 3.29379 11.1376 3.28095 11.1474 3.26811C11.253 3.12735 11.3503 2.97567 11.4338 2.81986C11.4371 2.81371 11.4405 2.80756 11.4439 2.80123C11.5213 2.65802 11.5939 2.51314 11.6536 2.36104C11.6612 2.34173 11.6692 2.3226 11.6772 2.30344C11.7454 2.13291 11.8043 1.95831 11.8428 1.77795C11.8477 1.75674 11.8533 1.73698 11.8605 1.71654C11.8724 1.68213 11.8767 1.64708 11.8817 1.61099C11.8877 1.56801 11.896 1.52581 11.9067 1.4838C11.9149 1.44983 11.9202 1.41568 11.9251 1.38104C11.9264 1.37239 11.9264 1.37239 11.9277 1.36357C11.9448 1.24413 11.9535 1.12521 11.9583 1.00465C11.9591 0.983807 11.96 0.962961 11.9609 0.942116C11.9614 0.929298 11.962 0.916479 11.9624 0.903659C11.9635 0.879182 11.9649 0.858393 11.9724 0.835022Z" fill="#FEFEFE"/>
<path d="M4.19283 0.752258C6.67875 0.752258 9.16467 0.752258 11.7259 0.752258C11.7259 0.754739 11.7259 0.75722 11.7259 0.759777C11.7134 0.760288 11.7134 0.760288 11.7005 0.76081C11.6161 0.764607 11.5331 0.772884 11.4494 0.784681C11.4433 0.785514 11.4373 0.786347 11.4311 0.787205C11.3493 0.798529 11.2686 0.811666 11.1883 0.831322C11.1646 0.836873 11.1407 0.841492 11.1168 0.846217C11.0612 0.857236 11.0069 0.869856 10.9527 0.886766C10.9321 0.89303 10.9116 0.898864 10.8909 0.904387C10.8112 0.925747 10.7329 0.950535 10.6551 0.978278C10.642 0.982917 10.642 0.982917 10.6287 0.98765C10.5806 1.00501 10.5335 1.02382 10.4866 1.04438C10.4641 1.05415 10.4413 1.06311 10.4184 1.07195C10.3545 1.09671 10.294 1.12577 10.2334 1.15826C10.2196 1.1656 10.2057 1.17272 10.1918 1.17977C9.9214 1.31653 9.66414 1.48452 9.43325 1.68453C9.41991 1.69566 9.40656 1.70678 9.39322 1.71789C9.35892 1.74685 9.32604 1.77713 9.29351 1.80817C9.28291 1.81815 9.27229 1.82811 9.26135 1.8377C9.21386 1.87941 9.1702 1.92504 9.12623 1.97061C9.11257 1.98476 9.09888 1.99887 9.08518 2.01297C9.04194 2.05761 8.99968 2.10245 8.96015 2.15067C8.94987 2.16228 8.93956 2.17387 8.92922 2.18544C8.89255 2.22747 8.85909 2.27171 8.82564 2.31647C8.81438 2.33137 8.80294 2.34609 8.79144 2.3608C8.63825 2.5581 8.50336 2.77953 8.39368 3.00528C8.38558 3.02192 8.37737 3.0385 8.36913 3.05507C8.3381 3.11774 8.30969 3.18131 8.28311 3.24612C8.27542 3.26474 8.26756 3.28328 8.2597 3.30182C8.22147 3.39308 8.18806 3.48562 8.1568 3.57962C8.15496 3.58512 8.15312 3.59062 8.15123 3.59629C8.12663 3.6701 8.10534 3.74404 8.08675 3.81973C8.08459 3.82831 8.08243 3.83689 8.0802 3.84573C8.03788 4.01404 8.00564 4.18102 7.98485 4.35353C7.98381 4.36208 7.98381 4.36208 7.98275 4.37079C7.97898 4.40202 7.97551 4.43327 7.97216 4.46454C7.97041 4.48027 7.96849 4.49596 7.96652 4.51166C7.95275 4.62843 7.95314 4.74544 7.95342 4.86287C7.95346 4.88001 7.95348 4.89715 7.9535 4.91429C7.95417 5.32658 8.0075 5.72669 8.12226 6.12228C8.1271 6.13897 8.13188 6.15569 8.13653 6.17244C8.14483 6.20218 8.15405 6.23092 8.16547 6.25955C8.17965 6.29578 8.19244 6.3324 8.205 6.36925C8.22756 6.43545 8.25019 6.50064 8.27997 6.56377C8.29018 6.5857 8.29952 6.60785 8.30874 6.63024C8.33171 6.68592 8.35744 6.73922 8.38553 6.79232C8.39879 6.81746 8.41089 6.84308 8.42292 6.86888C8.48126 6.99024 8.55249 7.10547 8.62535 7.21801C8.62859 7.22303 8.63183 7.22804 8.63517 7.23321C8.71321 7.35332 8.79783 7.46772 8.88737 7.57889C8.89097 7.58337 8.89457 7.58784 8.89828 7.59245C8.98394 7.69843 9.07646 7.79741 9.17077 7.89513C9.17434 7.89884 9.17791 7.90255 9.18159 7.90637C9.22292 7.94924 9.26489 7.99078 9.30951 8.02999C9.3174 8.03713 9.32527 8.04427 9.33314 8.05143C9.39373 8.10601 9.45663 8.15677 9.52083 8.20671C9.53356 8.21671 9.54614 8.22685 9.55866 8.23713C9.7268 8.37441 9.91937 8.50106 10.1115 8.59903C10.1162 8.60142 10.1208 8.6038 10.1257 8.60625C10.1423 8.61471 10.159 8.62309 10.1756 8.63146C10.1828 8.63504 10.1899 8.63863 10.1972 8.64232C10.2209 8.65425 10.2447 8.66612 10.2684 8.67798C10.2759 8.68173 10.2834 8.68548 10.2911 8.68935C10.3583 8.7227 10.4263 8.75337 10.4968 8.77853C10.5252 8.78871 10.5532 8.79946 10.5811 8.81119C10.6215 8.828 10.6625 8.84245 10.7038 8.85654C10.7115 8.85916 10.7192 8.86179 10.7271 8.86449C10.8955 8.92164 11.0659 8.964 11.2401 8.99798C11.2487 8.99965 11.2487 8.99965 11.2575 9.00136C11.3668 9.02261 11.4755 9.03947 11.5863 9.04966C11.5971 9.05068 11.6079 9.0517 11.6186 9.05272C11.6447 9.05518 11.6708 9.0576 11.6968 9.06C11.6968 9.06248 11.6968 9.06496 11.6968 9.06752C9.2181 9.06752 6.73938 9.06752 4.18555 9.06752C4.18555 9.06504 4.18555 9.06256 4.18555 9.06C4.19396 9.05927 4.20238 9.05853 4.21105 9.05777C4.39582 9.04093 4.58412 9.02109 4.76466 8.97595C4.7841 8.97115 4.80353 8.96659 4.82306 8.9622C4.82889 8.96089 4.83473 8.95958 4.84074 8.95822C4.85218 8.95566 4.86362 8.95311 4.87506 8.95058C4.90561 8.94368 4.93468 8.93505 4.96433 8.92467C4.98326 8.91967 5.00219 8.91481 5.02119 8.91011C5.06371 8.89931 5.10506 8.88732 5.14629 8.87204C5.1543 8.86923 5.16232 8.86642 5.17057 8.86353C5.36377 8.79532 5.5578 8.71826 5.73715 8.61692C5.76226 8.60273 5.78783 8.58977 5.81363 8.57695C5.97775 8.49267 6.13715 8.38788 6.28304 8.27339C6.29711 8.26241 6.31129 8.25159 6.3255 8.2408C6.38051 8.19887 6.43375 8.15555 6.48551 8.10943C6.50536 8.09189 6.52557 8.07499 6.54601 8.05819C6.63196 7.98551 6.71034 7.90378 6.78907 7.823C6.79734 7.81451 6.80563 7.80603 6.81393 7.79757C6.86021 7.7503 6.904 7.7026 6.94438 7.64978C6.95907 7.63092 6.97454 7.61311 6.99045 7.59534C7.03091 7.54928 7.06774 7.50054 7.10417 7.45108C7.10801 7.44588 7.11184 7.44067 7.1158 7.43531C7.2109 7.30569 7.30091 7.17111 7.37959 7.03013C7.38944 7.01248 7.39939 6.9949 7.40932 6.97731C7.46925 6.87065 7.52319 6.7629 7.57097 6.64991C7.5847 6.61753 7.59922 6.5859 7.61502 6.55452C7.634 6.51599 7.64815 6.47687 7.66168 6.43599C7.66894 6.41422 7.67682 6.39279 7.68505 6.37138C7.72602 6.26447 7.75806 6.15575 7.78834 6.04516C7.79022 6.03831 7.79211 6.03146 7.79406 6.02441C7.80455 5.98629 7.81493 5.94814 7.82473 5.90983C7.8264 5.90341 7.82806 5.89699 7.82978 5.89038C7.84605 5.82586 7.85762 5.76068 7.86885 5.69508C7.87073 5.68424 7.87261 5.6734 7.8745 5.66256C7.87814 5.64161 7.88174 5.62066 7.88533 5.5997C7.88826 5.58286 7.89126 5.56602 7.89441 5.54922C7.90494 5.49288 7.91081 5.4364 7.91616 5.37931C7.91708 5.37006 7.91799 5.36081 7.91893 5.35128C7.9326 5.20845 7.93527 5.06632 7.93525 4.92287C7.93525 4.90179 7.9353 4.88072 7.9354 4.85964C7.93624 4.67882 7.92916 4.50001 7.90206 4.32111C7.90045 4.31019 7.89885 4.29926 7.89724 4.28834C7.8848 4.2044 7.87077 4.12086 7.85384 4.03776C7.85265 4.03188 7.85146 4.026 7.85023 4.01994C7.84665 4.00238 7.84299 3.98482 7.83928 3.96728C7.83825 3.96237 7.83722 3.95746 7.83616 3.9524C7.81407 3.85078 7.78504 3.75123 7.75467 3.65198C7.75278 3.64578 7.75088 3.63957 7.74893 3.63318C7.70478 3.48911 7.65639 3.34668 7.59168 3.2109C7.58341 3.19331 7.57543 3.17561 7.56745 3.15789C7.42641 2.846 7.25314 2.55018 7.03866 2.286C7.02789 2.27222 7.01713 2.25843 7.00637 2.24464C6.97834 2.20922 6.94902 2.17525 6.91897 2.14165C6.90935 2.13075 6.89974 2.11982 6.89052 2.10856C6.84918 2.05829 6.80379 2.01217 6.7586 1.96565C6.74438 1.95099 6.7302 1.9363 6.71601 1.92161C6.67195 1.87607 6.62785 1.83127 6.58013 1.78979C6.57136 1.78185 6.56262 1.77389 6.55389 1.76591C6.50021 1.71724 6.44571 1.67055 6.38851 1.62635C6.37607 1.61666 6.36376 1.60681 6.35146 1.59692C6.2194 1.49162 6.07811 1.39773 5.93408 1.31099C5.91615 1.3001 5.89839 1.28895 5.88061 1.27781C5.83143 1.24729 5.78011 1.22173 5.72856 1.19584C5.71896 1.19099 5.71896 1.19099 5.70916 1.18604C5.57731 1.11955 5.44416 1.06003 5.30641 1.00788C5.29684 1.00415 5.28727 1.00041 5.2777 0.996662C5.17504 0.956865 5.06995 0.925285 4.96433 0.895106C4.95701 0.892986 4.95701 0.892986 4.94953 0.890822C4.89189 0.874153 4.83388 0.859604 4.77555 0.845767C4.76931 0.844279 4.76307 0.842791 4.75664 0.841258C4.65522 0.817579 4.55376 0.800502 4.4506 0.787537C4.43159 0.785143 4.41257 0.782684 4.39356 0.780217C4.32672 0.771636 4.26007 0.764152 4.19283 0.759777C4.19283 0.757296 4.19283 0.754815 4.19283 0.752258Z" fill="#D0D0D0"/>
</svg>
