<svg width="85" height="85" viewBox="0 0 85 85" fill="none" xmlns="http://www.w3.org/2000/svg">
<path d="M42.3184 0.700035C42.557 0.699706 42.7956 0.698661 43.0343 0.696942C44.5023 0.686583 45.9341 0.73191 47.3927 0.91517C47.7084 0.954446 48.0245 0.989257 48.3407 1.02404C49.347 1.1389 50.3345 1.33147 51.3233 1.54777C51.4085 1.56639 51.4936 1.58501 51.5813 1.60419C52.4871 1.8041 53.3841 2.00925 54.2647 2.30197C54.4155 2.34779 54.5663 2.39334 54.7172 2.43867C55.8362 2.78369 56.945 3.1581 58.0357 3.58411C58.129 3.62048 58.129 3.62048 58.2242 3.65758C58.4255 3.73632 58.6266 3.81564 58.8276 3.89522C58.8899 3.91971 58.9521 3.94421 59.0162 3.96944C59.404 4.12438 59.7763 4.29793 60.1475 4.48915C60.2745 4.552 60.2745 4.552 60.4041 4.61613C60.6581 4.74217 60.9116 4.86924 61.1648 4.99702C61.2971 5.06375 61.4296 5.13023 61.5622 5.19654C63.9586 6.39895 66.2386 7.84578 68.3296 9.52627C68.4325 9.60872 68.536 9.69031 68.6396 9.77179C69.4039 10.3745 70.1383 11.0128 70.8524 11.6739C71.0502 11.8569 71.2499 12.0364 71.4558 12.2103C71.6706 12.3925 71.8733 12.5775 72.0638 12.7853C72.0638 12.8351 72.0638 12.8849 72.0638 12.9362C72.1136 12.9362 72.1634 12.9362 72.2147 12.9362C72.3184 13.0417 72.3184 13.0417 72.4409 13.1907C72.6567 13.4451 72.882 13.6826 73.1197 13.9166C73.3813 14.1759 73.6323 14.4381 73.8715 14.718C73.9961 14.8636 74.1219 15.0079 74.2486 15.1516C74.7389 15.7094 75.2119 16.2744 75.6558 16.87C75.7294 16.9687 75.8033 17.0671 75.8774 17.1654C76.8098 18.4028 77.6869 19.6766 78.4673 21.0157C78.5565 21.1682 78.647 21.3199 78.7376 21.4716C80.6981 24.7604 82.1001 28.3208 83.0751 32.0174C83.0931 32.0853 83.111 32.1531 83.1295 32.223C83.3075 32.9008 83.4738 33.5703 83.5658 34.2661C83.6013 34.4949 83.6513 34.7132 83.708 34.9376C83.8448 35.5213 83.9267 36.1083 84.0034 36.7023C84.0271 36.8848 84.0519 37.067 84.0768 37.2493C84.2982 38.9068 84.3001 40.5688 84.3041 42.2383C84.3048 42.4833 84.3063 42.7283 84.3088 42.9732C84.3218 44.3289 84.2927 45.666 84.1437 47.0145C84.1375 47.0709 84.1313 47.1272 84.1249 47.1853C84.0446 47.8976 83.9346 48.6021 83.8046 49.307C83.7583 49.5659 83.7189 49.8246 83.6832 50.0852C83.6212 50.4986 83.5269 50.9 83.4217 51.304C83.3395 51.6206 83.2662 51.9376 83.1994 52.2578C83.0275 53.0773 82.7854 53.8711 82.5342 54.6694C82.4734 54.8645 82.4145 55.06 82.3563 55.2559C81.8954 56.7988 81.8954 56.7988 81.5659 57.4958C81.4719 57.7029 81.3925 57.9141 81.3122 58.1269C80.9682 59.0282 80.573 59.8921 80.1355 60.7507C80.06 60.9 79.9859 61.05 79.9122 61.2002C78.9088 63.2443 77.7039 65.1735 76.3628 67.0123C76.3282 67.0598 76.2935 67.1072 76.2579 67.1561C75.4997 68.191 74.7012 69.1956 73.8271 70.1354C73.6842 70.291 73.5457 70.4485 73.4079 70.6084C73.134 70.9218 72.8469 71.2191 72.5529 71.5136C72.5003 71.5664 72.4478 71.6192 72.3937 71.6736C72.2833 71.7844 72.1727 71.8951 72.0621 72.0057C71.8952 72.1728 71.7289 72.3404 71.5627 72.5081C71.0518 73.0209 70.5438 73.5202 69.9724 73.9659C69.7907 74.1102 69.6217 74.2638 69.4524 74.4223C68.9735 74.8575 68.4574 75.2426 67.9398 75.63C67.8234 75.7172 67.7072 75.8046 67.5911 75.8923C66.2821 76.8811 64.914 77.7607 63.5008 78.5927C63.3164 78.7016 63.1329 78.8118 62.9495 78.9222C62.2637 79.3313 61.5736 79.6847 60.8392 79.9981C60.5625 80.1167 60.2964 80.25 60.0296 80.3899C59.2408 80.7917 58.4076 81.0973 57.5832 81.4175C57.5031 81.4489 57.4231 81.4803 57.3406 81.5126C55.893 82.0763 54.4131 82.5457 52.9072 82.9259C52.8429 82.9422 52.7787 82.9585 52.7125 82.9753C52.2509 83.0913 51.7878 83.1993 51.3233 83.303C51.2532 83.3188 51.183 83.3347 51.1107 83.351C49.7912 83.6448 48.4641 83.8268 47.1202 83.964C47.0032 83.9761 46.8863 83.9888 46.7694 84.002C45.4685 84.147 44.1709 84.1585 42.8638 84.1564C42.6251 84.1561 42.3864 84.1566 42.1477 84.158C39.2174 84.1747 36.3924 83.8379 33.5242 83.2276C33.4393 83.2096 33.4393 83.2096 33.3526 83.1912C32.9803 83.1108 32.6109 83.0209 32.2421 82.9259C32.1656 82.9062 32.0891 82.8865 32.0102 82.8662C28.019 81.8265 24.1575 80.2056 20.6708 77.9954C20.4832 77.8769 20.2946 77.76 20.1057 77.6436C18.89 76.8912 17.7427 76.0547 16.6302 75.1576C16.5592 75.1005 16.4882 75.0433 16.4151 74.9844C16.2092 74.8171 16.0047 74.6483 15.8005 74.4789C15.6869 74.3851 15.6869 74.3851 15.571 74.2894C14.5792 73.4652 13.6587 72.57 12.746 71.66C12.7069 71.6211 12.6678 71.5822 12.6275 71.5421C12.1852 71.1016 11.7566 70.6547 11.3508 70.1799C11.2442 70.0634 11.1374 69.9471 11.0302 69.8311C10.6428 69.4021 10.2909 68.9478 9.93712 68.4911C9.8106 68.3292 9.68029 68.1706 9.55012 68.0116C7.76575 65.7848 6.18327 63.2662 5.00651 60.6691C4.89956 60.439 4.78266 60.2145 4.66667 59.9888C4.43873 59.5371 4.24714 59.0783 4.06449 58.6071C3.97447 58.377 3.879 58.1508 3.78049 57.9242C3.28266 56.7394 2.89769 55.4968 2.51868 54.2693C2.50341 54.2201 2.48815 54.1709 2.47242 54.1202C2.45691 54.0701 2.4414 54.0201 2.42542 53.9685C2.39192 53.8641 2.35688 53.7602 2.32042 53.6568C2.15592 53.1887 2.05284 52.7162 1.95627 52.23C1.92479 52.0744 1.89326 51.9189 1.8617 51.7633C1.84663 51.6886 1.83156 51.6139 1.81604 51.5369C1.77738 51.349 1.73662 51.1618 1.69436 50.9747C1.46449 49.9507 1.30194 48.9138 1.15965 47.8745C1.1477 47.7895 1.13575 47.7046 1.12345 47.6171C0.900307 45.9344 0.840669 44.252 0.843586 42.5569C0.843934 42.338 0.843415 42.1192 0.842039 41.9004C0.830162 39.9907 0.900212 38.0823 1.26895 36.2027C1.3175 35.9518 1.3534 35.7024 1.38591 35.449C1.58681 34.0098 1.92685 32.5908 2.30037 31.1878C2.32186 31.1064 2.32186 31.1064 2.34379 31.0234C2.78091 29.3926 3.35169 27.7536 4.03503 26.2101C4.06449 26.1425 4.09395 26.075 4.1243 26.0053C4.45535 25.2619 4.81373 24.53 5.16633 23.7967C5.206 23.714 5.24566 23.6314 5.28653 23.5462C5.89674 22.301 6.59585 21.1106 7.35351 19.9502C7.39503 19.8864 7.43656 19.8225 7.47934 19.7566C8.39337 18.3542 9.3718 17.011 10.4457 15.7267C10.5014 15.6599 10.5014 15.6599 10.5581 15.5917C11.4371 14.5388 12.3855 13.554 13.3516 12.5814C13.4368 12.4956 13.5219 12.4096 13.6069 12.3235C14.0811 11.844 14.5596 11.3902 15.0895 10.9718C15.2786 10.8196 15.4573 10.6593 15.6356 10.4945C16.0973 10.0749 16.5876 9.69501 17.0827 9.31603C17.1308 9.27915 17.1788 9.24226 17.2284 9.20426C19.2298 7.67323 21.3753 6.25385 23.6499 5.16285C23.8563 5.06283 24.0609 4.95913 24.2656 4.85561C25.7217 4.12074 27.2277 3.5021 28.7728 2.98075C28.8491 2.95468 28.9255 2.92862 29.0042 2.90176C30.4691 2.402 31.9161 1.96247 33.4334 1.65731C33.8097 1.58007 34.1841 1.49517 34.5574 1.40489C35.4115 1.20432 36.2757 1.08398 37.1444 0.967982C37.2343 0.955717 37.2343 0.955717 37.3261 0.943205C38.988 0.718136 40.6439 0.702016 42.3184 0.700035Z" fill="#EF8035"/>
<path d="M42.5745 1.54785C42.5994 1.54785 42.6242 1.54785 42.6499 1.54785C42.6515 1.62544 42.6515 1.62544 42.6532 1.7046C42.7018 3.78295 42.8832 5.83614 43.2532 7.88313C43.2699 7.97651 43.2865 8.06989 43.3037 8.1661C43.5134 9.33736 43.7579 10.4869 44.1056 11.626C44.1759 11.8648 44.2366 12.1057 44.2972 12.3472C44.4871 13.1034 44.7319 13.8325 44.9981 14.565C45.0611 14.7401 45.1218 14.9158 45.1818 15.0919C45.3741 15.6555 45.583 16.1979 45.8411 16.7355C45.9704 17.0133 46.0894 17.294 46.2076 17.5766C46.5192 18.3204 46.8661 19.0315 47.2528 19.7387C47.3534 19.926 47.4457 20.1171 47.538 20.3086C48.1552 21.5496 48.8933 22.7221 49.6639 23.8722C49.6996 23.9257 49.7353 23.9792 49.772 24.0344C50.505 25.1319 51.3052 26.1792 52.1528 27.1906C52.1852 27.2295 52.2177 27.2683 52.2511 27.3084C52.7102 27.8575 53.178 28.3971 53.6612 28.9253C53.7275 28.9986 53.7938 29.0719 53.8621 29.1474C54.2933 29.6218 54.7361 30.0833 55.1885 30.5374C55.2374 30.5867 55.2864 30.636 55.3368 30.6868C55.6283 30.9773 55.9285 31.2536 56.24 31.5225C56.4092 31.6688 56.5742 31.8195 56.7393 31.9704C57.1352 32.3272 57.545 32.6639 57.9601 32.998C58.0456 33.0678 58.131 33.1376 58.2164 33.2074C60.5802 35.131 63.2141 36.816 65.9622 38.1333C66.1087 38.2035 66.2547 38.2747 66.4007 38.346C67.0309 38.6507 67.6708 38.9304 68.3162 39.2013C68.39 39.2324 68.4637 39.2635 68.5397 39.2955C68.983 39.4795 69.4292 39.6395 69.8857 39.7877C70.0873 39.856 70.2833 39.9314 70.4801 40.0123C70.899 40.1834 71.3262 40.323 71.7573 40.4598C71.8398 40.4861 71.9223 40.5123 72.0073 40.5393C73.0299 40.8608 74.0573 41.1271 75.1076 41.3407C75.4347 41.4073 75.7572 41.4812 76.0798 41.5676C76.5088 41.6787 76.9398 41.7332 77.3793 41.787C77.5954 41.8156 77.8043 41.8514 78.0171 41.8975C78.5416 42.0076 79.0735 42.0647 79.6057 42.1238C79.6643 42.1304 79.7229 42.137 79.7833 42.1439C80.9038 42.268 82.0239 42.3171 83.1504 42.35C82.9354 42.565 82.7798 42.5268 82.4784 42.538C82.368 42.5428 82.2576 42.5476 82.1472 42.5524C82.0887 42.5547 82.0302 42.5571 81.9699 42.5595C80.957 42.6008 79.9519 42.6733 78.9457 42.7978C78.8478 42.8097 78.7499 42.8216 78.649 42.8339C78.0518 42.9104 77.4622 43.0105 76.8713 43.125C76.5765 43.1821 76.2812 43.2353 75.9855 43.2881C75.4257 43.3911 74.8763 43.5262 74.3256 43.6693C74.1771 43.7072 74.0282 43.7429 73.879 43.778C73.2159 43.9353 72.5743 44.1331 71.9296 44.354C71.668 44.4435 71.405 44.5251 71.1398 44.6032C70.6865 44.7409 70.2416 44.8992 69.7964 45.0604C69.7286 45.0849 69.6609 45.1093 69.5911 45.1345C69.0763 45.3227 68.5707 45.5294 68.0664 45.7439C67.955 45.7912 67.955 45.7912 67.8413 45.8395C66.8463 46.2645 65.872 46.7112 64.9233 47.2318C64.741 47.3315 64.5579 47.4296 64.3747 47.5275C63.4933 48.0014 62.6446 48.5159 61.8066 49.0624C61.75 49.0991 61.6934 49.1357 61.6352 49.1734C59.7116 50.4223 57.8987 51.8252 56.219 53.3864C56.055 53.5365 55.8894 53.6821 55.7208 53.8268C55.3296 54.1679 54.9653 54.5351 54.5992 54.9028C54.5308 54.9709 54.4624 55.039 54.392 55.1091C54.0477 55.4539 53.7135 55.8026 53.3962 56.1725C53.2441 56.3492 53.0848 56.5188 52.9259 56.6893C52.5678 57.0819 52.2395 57.4924 51.9148 57.9128C51.7728 58.0963 51.6284 58.2774 51.4811 58.4566C50.9211 59.1395 50.4171 59.8512 49.9268 60.5855C49.8283 60.7324 49.7285 60.8782 49.6277 61.0236C48.5515 62.5869 47.6439 64.2602 46.798 65.9565C46.7495 66.0532 46.7495 66.0532 46.7 66.1518C45.0133 69.5363 43.9452 73.1858 43.2532 76.8924C43.2393 76.9662 43.2254 77.04 43.2111 77.116C42.8531 79.0525 42.7215 81.0352 42.6499 83.0014C42.499 82.8506 42.499 82.8506 42.481 82.6817C42.481 82.6106 42.481 82.5394 42.4811 82.4661C42.4801 82.3838 42.4792 82.3014 42.4782 82.2166C42.4773 82.1256 42.4764 82.0346 42.4755 81.9408C42.4546 80.9729 42.3642 80.0212 42.2445 79.0607C42.2366 78.9961 42.2286 78.9315 42.2205 78.8649C42.015 77.2038 41.6951 75.5751 41.2923 73.951C41.274 73.8767 41.2556 73.8023 41.2367 73.7257C40.7054 71.601 39.9673 69.5522 39.1051 67.5403C39.0754 67.4707 39.0457 67.4012 39.015 67.3295C38.6408 66.4606 38.2249 65.6191 37.7741 64.7876C37.6668 64.5891 37.5609 64.3899 37.455 64.1906C36.0507 61.5625 34.3161 59.0443 32.3174 56.8307C32.2633 56.7706 32.2092 56.7105 32.1536 56.6486C32.0425 56.5253 31.9314 56.4021 31.8201 56.2792C31.7241 56.1719 31.6284 56.0644 31.5354 55.9545C31.1263 55.4742 30.6805 55.0316 30.2339 54.5866C30.0975 54.4505 29.9614 54.3141 29.8254 54.1776C29.3867 53.7386 28.9462 53.3086 28.4709 52.9088C28.3875 52.8364 28.3041 52.7638 28.2208 52.6911C25.6985 50.5093 22.9248 48.6368 19.9595 47.1106C19.8059 47.0304 19.6538 46.9479 19.5021 46.864C18.9123 46.5387 18.315 46.2686 17.6894 46.0191C17.4223 45.912 17.1629 45.793 16.9034 45.6685C15.4449 44.9863 13.8662 44.5241 12.3264 44.0658C12.243 44.041 12.1596 44.0162 12.0737 43.9906C10.9153 43.6499 9.7449 43.4077 8.56007 43.1797C8.49017 43.1659 8.42027 43.1522 8.34825 43.138C6.25526 42.7301 4.12939 42.5311 1.99854 42.5009C1.99854 42.4511 1.99854 42.4013 1.99854 42.35C2.04868 42.3493 2.09883 42.3486 2.1505 42.3479C4.30665 42.3106 6.44072 42.0686 8.56007 41.6713C8.62898 41.6584 8.69788 41.6456 8.76887 41.6323C9.42781 41.5082 10.0818 41.3783 10.7263 41.1916C10.8867 41.1465 11.046 41.1106 11.2092 41.0773C14.8511 40.2815 18.5538 38.6622 21.7586 36.769C21.8252 36.7297 21.8918 36.6905 21.9604 36.6501C23.9669 35.4619 25.8599 34.1257 27.6413 32.6209C27.6875 32.5822 27.7336 32.5435 27.7811 32.5037C28.7988 31.6506 29.7556 30.7392 30.6958 29.802C30.7661 29.7321 30.8364 29.6622 30.9088 29.5901C31.2935 29.2045 31.6623 28.8116 32.0157 28.3974C32.0945 28.3075 32.1735 28.2177 32.2525 28.1281C32.762 27.547 33.2541 26.9564 33.7239 26.3428C33.8236 26.213 33.9245 26.0841 34.0255 25.9553C35.1201 24.5433 36.1282 23.0218 36.9934 21.4587C37.0279 21.397 37.0624 21.3354 37.0979 21.2718C37.9002 19.8353 38.6524 18.3818 39.2707 16.8561C39.3497 16.6624 39.4327 16.4705 39.5152 16.2783C40.2223 14.5676 40.8328 12.8161 41.2319 11.0069C41.2818 10.794 41.3402 10.5958 41.4149 10.3908C41.5384 10.0456 41.5833 9.69404 41.6344 9.33202C41.6968 8.90082 41.7832 8.47753 41.8933 8.05606C41.9791 7.71529 42.0336 7.37273 42.0842 7.02523C42.0975 6.93846 42.0975 6.93846 42.111 6.84993C42.2888 5.6518 42.3786 4.4589 42.4283 3.24951C42.4371 3.04039 42.446 2.83127 42.4553 2.62216C42.4609 2.49358 42.4663 2.36499 42.4714 2.23638C42.4822 1.99084 42.4963 1.7823 42.5745 1.54785Z" fill="#FEFEFE"/>
</svg>
