<svg width="82" height="81" viewBox="0 0 82 81" fill="none" xmlns="http://www.w3.org/2000/svg">
<path d="M41.0093 0.52832C41.1886 0.797311 41.1918 0.950816 41.2164 1.27132C41.2206 1.32282 41.2248 1.37432 41.2291 1.42737C41.2381 1.53817 41.2468 1.649 41.2553 1.75984C41.2777 2.05201 41.3025 2.34397 41.3272 2.63595C41.3345 2.72362 41.3345 2.72362 41.3421 2.81307C41.4676 4.28797 41.6226 5.7898 42.0042 7.22331C42.0663 7.47152 42.1185 7.7203 42.1693 7.97101C42.4035 9.1261 42.7364 10.2443 43.0833 11.3699C43.1249 11.5052 43.1249 11.5052 43.1674 11.6432C43.4308 12.4895 43.7071 13.3242 44.0836 14.1276C44.1799 14.3366 44.2685 14.5476 44.3555 14.7606C45.6923 18.0243 47.4519 21.1139 49.6072 23.9085C49.655 23.9706 49.655 23.9706 49.7037 24.0339C50.3615 24.886 51.0468 25.7124 51.772 26.5081C51.8796 26.6267 51.9866 26.7459 52.0926 26.8658C52.5275 27.3569 52.9831 27.824 53.4476 28.2867C53.5718 28.4105 53.6956 28.5347 53.8193 28.6589C54.2375 29.0774 54.6614 29.4839 55.1128 29.8667C55.2027 29.9455 55.2925 30.0244 55.3821 30.1035C55.9632 30.613 56.5538 31.1051 57.1674 31.5749C57.2972 31.6746 57.426 31.7755 57.5548 31.8765C59.0866 33.0641 60.7425 34.1179 62.4286 35.0707C62.4925 35.1071 62.5563 35.1435 62.6222 35.181C63.8344 35.8697 65.0744 36.4695 66.3675 36.9903C66.6012 37.0849 66.8296 37.1876 67.0575 37.2955C68.3796 37.9064 69.8002 38.3182 71.1914 38.738C71.2398 38.7526 71.2882 38.7672 71.338 38.7823C72.1928 39.0407 73.0487 39.27 73.9254 39.4403C73.9892 39.4528 74.0531 39.4653 74.1188 39.4781C74.2527 39.5043 74.3866 39.5303 74.5205 39.5563C74.7191 39.5953 74.9174 39.6359 75.1156 39.6769C75.8535 39.8268 76.5829 39.9394 77.3342 39.9969C77.6468 40.0214 77.9465 40.0579 78.2535 40.1226C78.9202 40.2499 79.603 40.2548 80.2795 40.2841C80.4211 40.2906 80.5626 40.2972 80.7042 40.3038C81.0481 40.3198 81.3921 40.3351 81.7361 40.3501C81.7361 40.3998 81.7361 40.4496 81.7361 40.5009C81.6821 40.5016 81.6282 40.5023 81.5727 40.503C79.2393 40.5406 76.931 40.7685 74.6466 41.2551C74.5511 41.2752 74.4556 41.2954 74.3573 41.3161C73.2111 41.5594 72.0782 41.829 70.9613 42.1854C70.8093 42.2327 70.6568 42.2763 70.5032 42.3183C68.7577 42.7977 67.0767 43.4897 65.4359 44.2473C65.2463 44.3348 65.0561 44.421 64.8656 44.5067C62.9914 45.358 61.1774 46.4168 59.4872 47.5904C59.4372 47.6248 59.3872 47.6593 59.3357 47.6948C58.2187 48.4664 57.1324 49.2805 56.0933 50.1546C56.0532 50.1883 56.0131 50.222 55.9718 50.2567C55.8392 50.3685 55.7069 50.4807 55.5748 50.593C55.5358 50.626 55.4969 50.659 55.4567 50.6929C54.6514 51.3826 53.89 52.1191 53.142 52.8699C53.0093 53.003 52.8761 53.1357 52.743 53.2684C52.3101 53.701 51.8872 54.1361 51.4927 54.6044C51.4193 54.6888 51.3459 54.773 51.2723 54.8572C48.9078 57.5866 46.8156 60.663 45.3075 63.9482C45.1977 64.1821 45.0784 64.4105 44.9594 64.64C44.7297 65.0942 44.5441 65.5584 44.3643 66.0338C44.2493 66.3374 44.129 66.6334 43.9884 66.9262C43.698 67.5497 43.4897 68.2073 43.2719 68.8588C43.2491 68.9269 43.2263 68.995 43.2028 69.0651C42.8972 69.9848 42.6309 70.9078 42.4083 71.851C42.3688 72.0184 42.3282 72.1855 42.2873 72.3526C42.0891 73.1693 41.9196 73.9912 41.7635 74.817C41.7531 74.8714 41.7427 74.9259 41.732 74.982C41.5396 76.0044 41.4392 77.0361 41.3346 78.0706C41.3171 78.2308 41.2945 78.3905 41.2694 78.5497C41.2151 78.9741 41.2074 79.4003 41.1931 79.8277C41.1899 79.9188 41.1866 80.01 41.1833 80.1039C41.1753 80.3276 41.1676 80.5514 41.1601 80.7751C41.1104 80.7751 41.0606 80.7751 41.0093 80.7751C41.0063 80.7128 41.0033 80.6504 41.0002 80.5862C40.9203 78.9793 40.7788 77.391 40.5568 75.7974C40.5457 75.7171 40.5347 75.6369 40.5233 75.5542C40.3849 74.577 40.1789 73.6182 39.9534 72.6581C39.9408 72.6042 39.9282 72.5504 39.9151 72.4949C39.6581 71.4063 39.3492 70.3385 38.9936 69.278C38.94 69.118 38.8868 68.9579 38.8338 68.7977C38.6205 68.1573 38.3903 67.5261 38.1433 66.8979C38.0805 66.7313 38.0176 66.5648 37.9548 66.3982C37.8129 66.0294 37.6585 65.6697 37.4914 65.3117C37.3966 65.1042 37.3084 64.8947 37.2206 64.6842C36.8904 63.9017 36.4821 63.1651 36.0686 62.4241C35.952 62.2144 35.8371 62.0037 35.7225 61.7929C34.5506 59.6422 33.152 57.6144 31.5818 55.7357C31.5446 55.6911 31.5075 55.6464 31.4692 55.6005C31.071 55.1229 30.666 54.6522 30.2471 54.1925C30.1377 54.0719 30.0288 53.9508 29.9207 53.829C29.4953 53.3501 29.0519 52.8927 28.598 52.4408C28.5306 52.3731 28.4632 52.3054 28.3937 52.2356C28.0104 51.8529 27.6186 51.4875 27.2075 51.1351C27.0862 51.0254 26.9652 50.9155 26.8445 50.8051C26.4488 50.4482 26.0386 50.1117 25.6236 49.7775C25.5676 49.7315 25.5116 49.6854 25.4539 49.6379C22.5671 47.2823 19.3072 45.3766 15.8945 43.8948C15.8146 43.8598 15.7347 43.8248 15.6525 43.7887C14.6897 43.3676 13.7381 42.9754 12.7268 42.6881C12.4374 42.5964 12.1499 42.5003 11.8659 42.393C11.3705 42.2061 10.8751 42.0622 10.3605 41.9386C10.2826 41.9195 10.2046 41.9004 10.1243 41.8807C9.88575 41.8225 9.64707 41.765 9.40834 41.7076C9.26418 41.6727 9.12002 41.6377 8.97586 41.6027C8.64819 41.5236 8.32017 41.446 7.99186 41.3696C7.84874 41.3362 7.7058 41.3019 7.56291 41.2675C5.47144 40.786 3.25434 40.5784 1.10939 40.5294C0.67521 40.5165 0.67521 40.5165 0.508789 40.3501C0.554933 40.3486 0.601076 40.3471 0.648618 40.3455C1.50074 40.3168 2.35102 40.2805 3.20034 40.2039C3.26413 40.1983 3.32792 40.1927 3.39364 40.1869C3.91876 40.1369 4.43778 40.0558 4.95857 39.973C5.12284 39.9477 5.28714 39.9226 5.45145 39.8975C5.53268 39.8851 5.6139 39.8726 5.69759 39.8598C5.86198 39.8346 6.02637 39.8095 6.19077 39.7844C7.30287 39.6205 7.30287 39.6205 8.3996 39.379C8.71234 39.2976 9.02458 39.2184 9.34117 39.1534C10.7556 38.8624 12.1277 38.4128 13.4763 37.9004C13.7363 37.8018 13.9984 37.7141 14.2635 37.6302C14.6589 37.501 15.0288 37.3339 15.4042 37.1556C15.6975 37.0178 15.9933 36.8873 16.2904 36.7582C16.4354 36.6952 16.5804 36.6321 16.7253 36.5688C16.8263 36.5248 16.9275 36.4811 17.0288 36.4377C20.2899 35.0213 23.3726 32.9746 26.0685 30.6683C26.2892 30.48 26.5146 30.2981 26.7408 30.1165C27.0371 29.8756 27.3108 29.6245 27.5736 29.3476C27.7142 29.2088 27.8579 29.0811 28.0076 28.9525C28.388 28.6221 28.7423 28.2674 29.0977 27.9105C29.1625 27.846 29.2273 27.7815 29.294 27.715C29.6297 27.3788 29.9545 27.0379 30.264 26.6774C30.4041 26.5145 30.5499 26.3572 30.6956 26.1994C31.0382 25.8197 31.3523 25.4216 31.6655 25.0177C31.8493 24.7808 32.037 24.5474 32.2258 24.3145C32.9745 23.3893 33.6469 22.4161 34.2969 21.4196C34.3309 21.3679 34.3649 21.3162 34.3999 21.2629C35.3593 19.7976 36.2198 18.2656 36.9423 16.6698C37.0067 16.529 37.0738 16.3893 37.1411 16.2498C37.7694 14.9459 38.3122 13.5901 38.7716 12.2176C38.8246 12.0602 38.8791 11.9033 38.9338 11.7464C39.4045 10.3828 39.7532 8.99026 40.0616 7.582C40.1003 7.4091 40.1415 7.23709 40.1841 7.06511C40.448 5.98177 40.5729 4.87665 40.7076 3.77138C40.7202 3.67037 40.7202 3.67037 40.733 3.56732C40.8574 2.55731 40.9326 1.5429 41.0093 0.52832Z" fill="#D92735"/>
</svg>
