<svg width="195" height="209" viewBox="0 0 195 209" fill="none" xmlns="http://www.w3.org/2000/svg">
<path d="M0.188224 0.619385C64.4761 0.619385 128.764 0.619385 195 0.619385C195 0.681499 195 0.743613 195 0.807609C194.675 0.820415 194.675 0.820415 194.343 0.83348C192.16 0.928534 190.012 1.13576 187.847 1.4311C187.692 1.45195 187.536 1.4728 187.375 1.49428C185.261 1.77778 183.174 2.10668 181.097 2.59877C180.483 2.73774 179.865 2.85339 179.247 2.97168C177.81 3.24755 176.405 3.56348 175.003 3.98683C174.472 4.14366 173.942 4.2897 173.405 4.42798C171.343 4.96275 169.321 5.58332 167.308 6.27787C166.97 6.39401 166.97 6.39401 166.625 6.5125C165.382 6.94703 164.163 7.41803 162.951 7.93278C162.368 8.17741 161.779 8.40155 161.187 8.6229C159.535 9.24292 157.968 9.97049 156.403 10.7838C156.046 10.9674 155.687 11.1459 155.326 11.3224C148.334 14.7461 141.68 18.9518 135.709 23.9592C135.364 24.2377 135.019 24.5161 134.674 24.7944C133.787 25.5193 132.937 26.2774 132.096 27.0546C131.822 27.3045 131.547 27.5538 131.264 27.7937C130.036 28.8381 128.907 29.9803 127.77 31.1214C127.417 31.4756 127.062 31.8287 126.708 32.1818C125.59 33.2993 124.497 34.422 123.475 35.629C123.209 35.9198 122.942 36.2101 122.675 36.4996C121.727 37.5518 120.861 38.6595 119.996 39.78C119.705 40.1531 119.409 40.5217 119.112 40.8897C115.15 45.8293 111.662 51.3729 108.825 57.0245C108.616 57.4413 108.404 57.8563 108.191 58.2711C107.388 59.8401 106.653 61.4315 105.966 63.0541C105.767 63.5203 105.564 63.9844 105.361 64.4486C104.372 66.7333 103.508 69.0502 102.7 71.4033C102.652 71.5411 102.605 71.6789 102.555 71.8209C101.919 73.6687 101.369 75.5197 100.888 77.4147C100.832 77.6296 100.776 77.8444 100.719 78.0657C99.6243 82.2792 98.7905 86.4597 98.2529 90.7786C98.226 90.9926 98.226 90.9926 98.1986 91.2108C98.1011 91.9925 98.0114 92.7748 97.9247 93.5577C97.8795 93.9515 97.8297 94.3444 97.7789 94.7375C97.4227 97.6609 97.4328 100.59 97.4401 103.53C97.4412 103.959 97.4417 104.388 97.4422 104.817C97.4595 115.139 98.8385 125.156 101.806 135.06C101.932 135.478 102.055 135.896 102.175 136.316C102.39 137.06 102.628 137.78 102.924 138.496C103.291 139.403 103.621 140.32 103.946 141.243C104.53 142.9 105.115 144.532 105.885 146.113C106.149 146.662 106.39 147.216 106.629 147.777C107.223 149.171 107.888 150.505 108.615 151.835C108.958 152.464 109.271 153.105 109.582 153.751C111.09 156.79 112.932 159.674 114.817 162.492C114.9 162.617 114.984 162.743 115.071 162.872C117.089 165.879 119.277 168.743 121.593 171.527C121.686 171.639 121.779 171.751 121.875 171.866C124.09 174.519 126.483 176.997 128.922 179.444C129.014 179.537 129.106 179.63 129.201 179.725C130.27 180.798 131.356 181.839 132.51 182.82C132.714 182.999 132.917 183.178 133.121 183.357C134.687 184.723 136.314 185.994 137.974 187.244C138.304 187.495 138.629 187.749 138.953 188.006C143.301 191.443 148.281 194.613 153.25 197.066C153.37 197.126 153.491 197.186 153.616 197.247C154.046 197.459 154.477 197.668 154.908 197.878C155.092 197.968 155.277 198.058 155.466 198.15C156.08 198.449 156.694 198.746 157.308 199.043C157.502 199.137 157.695 199.231 157.895 199.327C159.632 200.162 161.391 200.93 163.214 201.56C163.949 201.815 164.673 202.084 165.394 202.378C166.438 202.799 167.498 203.16 168.566 203.513C168.765 203.579 168.964 203.644 169.169 203.712C173.525 205.143 177.931 206.203 182.436 207.054C182.658 207.096 182.658 207.096 182.885 207.139C185.712 207.671 188.523 208.093 191.388 208.348C191.667 208.373 191.947 208.399 192.226 208.424C192.899 208.486 193.573 208.547 194.247 208.607C194.247 208.669 194.247 208.731 194.247 208.795C130.146 208.795 66.044 208.795 0 208.795C0 208.733 0 208.671 0 208.607C0.217641 208.588 0.435283 208.57 0.659519 208.551C5.43771 208.129 10.3073 207.633 14.9763 206.503C15.479 206.382 15.9816 206.268 16.4865 206.158C16.6374 206.126 16.7883 206.093 16.9438 206.059C17.2396 205.995 17.5354 205.931 17.8313 205.867C18.6214 205.695 19.3731 205.478 20.14 205.219C20.6296 205.093 21.1191 204.972 21.6105 204.854C22.7099 204.584 23.7794 204.284 24.8456 203.901C25.0528 203.831 25.26 203.761 25.4735 203.688C30.4698 201.98 35.4874 200.051 40.1255 197.514C40.775 197.159 41.4362 196.834 42.1033 196.513C46.3478 194.403 50.4698 191.78 54.2427 188.914C54.6066 188.639 54.9733 188.368 55.3408 188.098C56.7633 187.048 58.1401 185.964 59.4788 184.809C59.9922 184.37 60.5148 183.947 61.0434 183.526C63.2662 181.706 65.2929 179.66 67.3291 177.638C67.5431 177.425 67.7573 177.213 67.9719 177.001C69.1688 175.818 70.3012 174.624 71.3455 173.301C71.7255 172.829 72.1255 172.383 72.5368 171.938C73.5833 170.785 74.5356 169.565 75.4778 168.327C75.577 168.197 75.6763 168.066 75.7785 167.932C78.238 164.687 80.5656 161.318 82.6004 157.788C82.8551 157.346 83.1123 156.906 83.3692 156.466C84.9189 153.796 86.3139 151.098 87.5495 148.269C87.9048 147.459 88.2803 146.667 88.6888 145.881C89.1796 144.917 89.5456 143.937 89.8953 142.914C90.0832 142.369 90.287 141.832 90.4997 141.296C91.5594 138.62 92.3878 135.898 93.1709 133.129C93.2197 132.958 93.2685 132.786 93.3188 132.61C93.5903 131.655 93.8585 130.7 94.112 129.741C94.1551 129.58 94.1983 129.42 94.2427 129.254C94.6634 127.639 94.9625 126.007 95.2531 124.365C95.3017 124.093 95.3503 123.822 95.399 123.551C95.4931 123.026 95.5864 122.502 95.6793 121.977C95.755 121.555 95.8325 121.134 95.9139 120.713C96.1863 119.303 96.3381 117.889 96.4765 116.459C96.5002 116.228 96.5238 115.996 96.5482 115.758C96.9015 112.182 96.9707 108.624 96.9702 105.032C96.9702 104.505 96.9715 103.977 96.9741 103.449C96.9958 98.9224 96.8128 94.4457 96.1119 89.9669C96.0703 89.6934 96.0287 89.4199 95.9873 89.1464C95.6654 87.0451 95.3026 84.9536 94.8649 82.8732C94.8341 82.726 94.8033 82.5788 94.7716 82.4271C94.6788 81.9873 94.5842 81.5479 94.4884 81.1086C94.4617 80.9857 94.435 80.8629 94.4075 80.7362C93.8363 78.192 93.0855 75.6997 92.3003 73.215C92.2513 73.0597 92.2023 72.9043 92.1518 72.7443C91.0101 69.1375 89.7585 65.5717 88.0852 62.1723C87.8714 61.7321 87.665 61.2889 87.4587 60.8452C83.8113 53.037 79.3303 45.631 73.7838 39.0171C73.5052 38.6721 73.2268 38.327 72.9485 37.9818C72.2236 37.095 71.4656 36.2446 70.6884 35.4033C70.4395 35.1305 70.1912 34.8569 69.9525 34.575C68.8835 33.3165 67.7098 32.1619 66.5412 30.997C66.1733 30.6302 65.8065 30.2624 65.4398 29.8945C64.3003 28.7543 63.1598 27.6328 61.9257 26.5943C61.699 26.3955 61.4728 26.1963 61.247 25.9965C59.859 24.7782 58.4496 23.609 56.9704 22.5025C56.6485 22.26 56.3301 22.0134 56.0121 21.7659C52.5971 19.1296 48.9431 16.7791 45.2184 14.6074C44.7548 14.3347 44.2953 14.0557 43.8356 13.7767C42.5639 13.0128 41.2367 12.3729 39.9035 11.7246C39.6552 11.6032 39.6552 11.6032 39.4019 11.4793C35.992 9.81463 32.5488 8.32453 28.9865 7.019C28.7389 6.92549 28.4914 6.83187 28.2439 6.73813C25.589 5.7418 22.8713 4.95117 20.14 4.19564C19.9505 4.14255 19.9505 4.14255 19.7573 4.08838C18.2667 3.67106 16.7663 3.30684 15.2579 2.96042C15.0966 2.92316 14.9352 2.8859 14.769 2.84751C12.1461 2.25472 9.52226 1.82718 6.8546 1.5026C6.36273 1.44267 5.87109 1.38111 5.37945 1.31934C3.65088 1.10452 1.92717 0.917145 0.188224 0.807609C0.188224 0.745495 0.188224 0.683381 0.188224 0.619385Z" fill="#D0D0D0"/>
</svg>
