<svg width="365" height="283" viewBox="0 0 365 283" fill="none" xmlns="http://www.w3.org/2000/svg">
<path fill-rule="evenodd" clip-rule="evenodd" d="M252.5 1.93713C243.888 3.98213 239.982 5.43013 230.26 10.1761C226.694 11.9171 224.296 13.6701 224.664 14.2661C225.039 14.8721 224.826 15.0101 224.157 14.5971C222.633 13.6551 209.456 23.6261 203.251 30.4161C195.318 39.0961 186.737 54.9241 182.874 68.0001C181.818 71.5751 180.667 78.7391 180.315 83.9191L179.676 93.3381L181.588 92.5591C182.64 92.1301 186.875 91.3891 191 90.9131C201.915 89.6521 214.727 85.9561 216.235 83.6321C216.639 83.0101 216.976 82.8291 216.985 83.2301C217.003 84.0911 224.349 80.1281 231.701 75.2921C236.565 72.0921 248.469 60.6561 252.837 54.9861C256.458 50.2861 263.851 35.5271 266.404 27.9001C267.804 23.7201 269.482 15.9571 270.135 10.6501C270.787 5.34213 271.65 1.00013 272.053 1.00013C273.168 1.00013 274 3.78513 274 7.51613C274 14.7881 280.509 38.2101 283.027 40.0001C283.414 40.2751 284.048 41.5191 284.437 42.7651C284.834 44.0361 285.618 44.7361 286.227 44.3601C286.878 43.9581 287.02 44.1581 286.584 44.8641C285.716 46.2691 289.4 52.5561 291.584 53.3941C292.432 53.7191 292.835 54.4581 292.478 55.0361C291.55 56.5381 307.382 72.0121 314.5 76.5601C328.511 85.5121 343.663 90.7401 357.075 91.2501C364.875 91.5471 366.134 93.6031 359.083 94.5311C340.226 97.0121 328.95 100.618 316.214 108.241L312.928 110.208L314.214 111.854L315.5 113.5L313.731 112.112L311.962 110.724L309.764 112.612C302.401 118.935 299.129 122.4 299.681 123.293C300.026 123.852 299.821 124.008 299.225 123.639C297.279 122.437 286.156 138.283 281.424 149C278.439 155.759 276.023 164.595 274.455 174.481C272.23 188.506 271.574 188.726 270.076 175.95C269.531 171.303 268.371 164.8 267.498 161.5C264.993 152.029 254.952 132.408 250.611 128.5C250 127.95 248.24 125.813 246.699 123.75C245.159 121.687 243.22 120 242.39 120C241.493 120 241.175 119.526 241.605 118.83C242.09 118.045 241.784 117.869 240.676 118.294C239.693 118.671 239.12 118.466 239.262 117.785C239.59 116.21 225.81 105.87 224.198 106.482C223.482 106.754 223.112 106.627 223.377 106.199C224.673 104.102 206.409 97.7671 194 96.0101C189.875 95.4261 184.968 94.7011 183.095 94.3991L179.69 93.8511L180.319 102.72C180.847 110.151 182.786 118.278 186.585 128.972L187.108 130.444L188.119 128.972L189.131 127.5L188.578 129.5C188.274 130.6 188.695 132.789 189.513 134.364C190.331 135.94 191 137.683 191 138.237C191 141.438 211.663 166 214.356 166C214.856 166 215.994 166.84 216.885 167.867C218.938 170.234 240.789 181.248 241.976 180.515C242.463 180.214 243.163 180.455 243.532 181.052C243.901 181.648 244.855 181.886 245.653 181.58C246.451 181.273 246.859 181.419 246.56 181.903C246.261 182.387 247.475 183.014 249.258 183.296C251.041 183.578 255.65 184.339 259.5 184.986C270.872 186.898 288.414 185.38 300.676 181.422C313.799 177.186 334.029 165.474 332.499 162.998C332.207 162.525 332.494 161.813 333.138 161.415C333.869 160.963 334.041 161.124 333.595 161.845C333.203 162.48 333.32 163 333.856 163C335.352 163 343.042 153.877 342.409 152.853C342.102 152.357 342.447 152.074 343.176 152.225C343.951 152.386 344.5 151.604 344.5 150.34C344.5 149.153 344.861 147.816 345.303 147.371C345.744 146.925 345.821 147.447 345.473 148.53L344.84 150.5L347.466 147.5C352.047 142.268 359.429 125.823 362.728 113.5C364.758 105.918 365.012 81.9081 363.147 74.0001C360.601 63.2111 354.231 47.7391 352.719 48.6741C352.145 49.0291 351.992 48.8231 352.372 48.2071C354.778 44.3141 327.751 14.8171 324.486 17.7711C324.042 18.1721 323.987 17.9631 324.364 17.3061C325.25 15.7611 316.548 10.5641 314.78 11.5831C314.076 11.9891 313.842 11.9441 314.261 11.4831C315.259 10.3841 304.619 5.47613 295.62 2.88513L288.5 0.835129L274.5 0.436127L260.5 0.0361328L252.5 1.93713ZM83.964 11.7501C83.874 18.7031 77.276 37.7351 71.593 47.4321C57.907 70.7851 32.997 87.5301 4.5 92.5331L0.5 93.2361L9 95.0171C38.328 101.164 58.421 115.539 72.29 140.297C77.378 149.378 82.793 164.453 83.69 172.034C84.3 177.183 86 177.933 86 173.053C86 168.263 90.796 153.363 95.121 144.718C103.097 128.774 113.913 116.544 128.23 107.283C135.931 102.301 151.776 96.4211 162.424 94.5941L169.5 93.3801L162.5 92.0581C132.089 86.3121 105.621 65.7191 93.461 38.3421C90.017 30.5881 86 16.6141 86 12.3881C86 10.5251 85.55 9.00013 85 9.00013C84.45 9.00013 83.984 10.2371 83.964 11.7501ZM258.543 39.9311C258.226 40.4431 258.425 41.1441 258.984 41.4901C259.543 41.8351 260 41.4161 260 40.5591C260 38.8021 259.4 38.5441 258.543 39.9311ZM193.256 214.029C185.193 217.271 185.035 234.074 193.042 236.865C197.408 238.387 199.526 238.296 203.128 236.434C210.418 232.664 210.957 218.098 203.941 214.47C200.778 212.834 196.652 212.663 193.256 214.029ZM255.308 214.01C251.689 215.468 249.571 219.755 249.571 225.626V230.949L251.632 233.725C252.765 235.251 255.224 236.88 257.096 237.344C261.186 238.357 266 236.776 266 234.418V232.786L264.25 233.506C260.091 235.218 259.006 235.097 256.556 232.647L254 230.091V225.68C254 222.686 254.688 220.395 256.143 218.546C258.269 215.843 259.86 215.633 264.25 217.478L266 218.214V216.642C266 213.532 260.1 212.079 255.308 214.01ZM293.308 214.01C289.561 215.519 287.533 219.791 287.533 226.175V231.988L290.289 234.744L293.045 237.5H298H302.955L305.616 234.839L308.276 232.178L308.764 227.101C309.049 224.138 308.724 220.749 307.985 218.964C305.904 213.94 299.145 211.658 293.308 214.01ZM315.223 214.557L313 216.113V219.518C313 222.907 316.027 227 318.534 227C320.452 227 323.091 230.599 322.432 232.317C321.597 234.493 318.507 235.342 316.104 234.055C313.354 232.584 312 232.739 312 234.525C312 236.563 316.789 238.287 320.434 237.561C324.652 236.721 327 234.196 327 230.5C327 227.08 325.322 225.111 320.5 222.873C318.738 222.056 317.37 220.571 317.185 219.276L316.87 217.071L319.342 216.45C320.701 216.109 322.756 216.334 323.907 216.95L326 218.07V216.152C326 212.936 319.012 211.902 315.223 214.557ZM147.43 215.321C147.151 216.048 147.053 221.11 147.212 226.571L147.5 236.5L149.75 236.82L152 237.139V233.197V229.256L155.945 228.625C162.499 227.577 165.38 220.38 161 216L159 214H153.469C149.807 214 147.766 214.447 147.43 215.321ZM167.43 215.321C167.151 216.048 167.053 221.11 167.212 226.571L167.5 236.5H169.5H171.5L171.807 231.688L172.115 226.875L173.807 227.188C174.738 227.359 176.521 229.637 177.769 232.25L180.039 237H182.087H184.135L183.465 234.75C183.096 233.512 181.978 231.074 180.979 229.331L179.163 226.162L181.082 224.426C183.563 222.18 183.528 218.528 181 216L179 214H173.469C169.807 214 167.766 214.447 167.43 215.321ZM214.487 220.975L218 227.95V232.475V237H220H222V232.975C222 230.366 223.231 226.506 225.5 222C227.425 218.177 229 214.814 229 214.525C229 214.236 228.075 214 226.943 214H224.887L222.574 219.24L220.262 224.48L218.008 219.24L215.754 214H213.364H210.975L214.487 220.975ZM233 225.5V237H239.5H246V235.5V234H241.5H237V230.56V227.121L240.75 226.81C243.279 226.601 244.5 226.011 244.5 225C244.5 223.989 243.279 223.399 240.75 223.19L237 222.879V219.94V217H241.5H246V215.5V214H239.5H233V225.5ZM268 215.5C268 216.5 269 217 271 217H274V227V237H275.964H277.928L278.214 227.25L278.5 217.5L281.75 217.187C283.763 216.993 285 216.327 285 215.437V214H276.5H268V215.5ZM194 218C192.08 219.92 191.535 222.632 191.991 228C192.313 231.786 193.787 233.909 196.584 234.61L199.111 235.245L201.555 232.948L204 230.651V225.326V220L202 218C200.9 216.9 199.1 216 198 216C196.9 216 195.1 216.9 194 218ZM294 218L292 220V225.5V231L294 233C297.741 236.741 302.405 234.925 303.968 229.118C306.506 219.695 299.793 212.207 294 218ZM152 221.5V226H153.845C154.86 226 156.506 225.098 157.504 223.996L159.317 221.992L158.18 219.496C157.405 217.795 156.239 217 154.521 217H152V221.5ZM172 220.5V224H174.465C175.932 224 177.377 223.164 178.034 221.936L179.139 219.872L177.947 218.436C177.291 217.646 175.685 217 174.378 217H172V220.5ZM45.695 221.25C44.767 221.938 43.14 224.975 42.08 228C41.02 231.025 36.518 243.394 32.076 255.487C27.634 267.58 24 277.845 24 278.298C24 278.75 25.64 278.981 27.643 278.81L31.287 278.5L33.824 271.25L36.361 264H49.113H61.865L62.56 266.25C62.942 267.488 64.13 270.863 65.199 273.75L67.144 279H71.072C73.232 279 74.989 278.887 74.976 278.75C74.729 276.191 53.832 221.508 52.867 220.896C50.893 219.646 47.644 219.806 45.695 221.25ZM96.5 221.868C90.807 224.614 87.136 228.481 84.122 234.909L81.502 240.5L81.555 251L81.609 261.5L83.665 266.008C86.316 271.82 92.727 277.579 98.193 279.058C107.846 281.669 122.259 277.802 123.658 272.225C124.671 268.192 122.746 267.723 117.423 270.705L112.5 273.464L106.878 273.392L101.256 273.321L97.699 271.123C90.281 266.539 86.863 251.863 90.388 239.736L91.984 234.247L95.932 230.68C102.213 225.006 110.596 224.587 118.229 229.567C120.279 230.905 122.219 232 122.539 232C122.859 232 122.981 230.353 122.81 228.341L122.5 224.682L118.5 222.605C115.835 221.22 112.164 220.429 107.5 220.233L100.5 219.939L96.5 221.868ZM43.632 242.381C41.084 249.741 39 256.266 39 256.881C39 257.632 42.291 258 49 258C55.5 258 59 257.622 59 256.919C59 255.102 49.542 229.01 48.882 229.005C48.542 229.002 46.18 235.021 43.632 242.381ZM200.315 259.007C197.84 260.004 196 262.92 196 265.845C196 267.96 200.689 272.449 203.995 273.498C206.375 274.254 206.626 277.236 204.46 279.033L202.92 280.311L199.46 279.249L196 278.187V280.048V281.909L199.652 282.594C204.555 283.514 208.2 282.069 209.895 278.534L211.294 275.614L209.877 273.057C209.097 271.651 206.919 269.727 205.037 268.782C198.728 265.614 198.948 261.425 205.385 262.176L209 262.598V260.916C209 258.379 204.39 257.365 200.315 259.007ZM234.635 260.073C230.078 263.657 231.217 269.05 237.172 272.088C241.662 274.378 242.792 276.341 240.919 278.598C239.631 280.15 236.47 280.125 232.75 278.534L231 277.786V279.358C231 281.766 234.827 283.287 239.359 282.679C244.242 282.024 246.193 279.714 245.795 275.059L245.5 271.617L241 268.993C238.122 267.314 236.5 265.671 236.5 264.434V262.5L240.75 262.586C245.641 262.686 246.628 260.57 242.435 258.975C238.76 257.578 237.598 257.742 234.635 260.073ZM255.337 259.606C250.076 262.2 247.961 270.674 250.841 277.62C253.829 284.825 266.509 284.763 269.805 277.528C271.446 273.926 271.305 266.491 269.53 263.059C268.138 260.366 263.656 257.972 260.101 258.023C259.22 258.035 257.077 258.748 255.337 259.606ZM331.5 259.195C328.685 260.791 328.033 262.027 328.015 265.797L328 269.093L331.11 270.797C332.82 271.733 335.13 273.205 336.243 274.067L338.266 275.634L337.044 277.917L335.822 280.201L333.161 279.742C331.697 279.489 329.712 278.946 328.75 278.534L327 277.786V279.358C327 283.184 335.177 284.222 339.365 280.927C344.29 277.053 342.585 271.809 335.083 267.754C332.959 266.607 331.974 265.407 332.207 264.254L332.562 262.5L336.781 262.586C341.643 262.686 342.615 260.564 338.435 258.975C335.196 257.744 333.992 257.782 331.5 259.195ZM148.487 265.975L152 272.95V277.475V282H154H156V277.975C156 275.366 157.231 271.506 159.5 267C161.425 263.177 163 259.814 163 259.525C163 259.236 162.075 259 160.943 259H158.887L156.53 264.25L154.174 269.5L151.954 264.25L149.733 259H147.354H144.975L148.487 265.975ZM176.75 269.872C174.688 275.845 173 281.017 173 281.366C173 281.715 173.891 282 174.981 282C176.26 282 177.184 281.114 177.589 279.5L178.217 277H183.089H187.962L188.589 279.5L189.217 282H191.545H193.873L191.028 273.75C189.464 269.212 187.648 264.038 186.994 262.25L185.804 259L183.152 259.006L180.5 259.012L176.75 269.872ZM215 270.5V282H221.5H228V280.5V279H223.5H219V275.5V272H223H227V270.5V269H223H219V265.5V262H223.5H228V260.5V259H221.5H215V270.5ZM276 270.5V282H278H280V277.5V273H282.056H284.112L286.103 277.5C287.482 280.618 288.693 282 290.047 282C291.121 282 292 281.605 292 281.122C292 279.47 289.032 273.138 287.942 272.464C287.249 272.036 287.606 271.263 288.927 270.339C290.33 269.356 291 267.793 291 265.5C291 260.944 288.092 259 281.277 259H276V270.5ZM296.701 259.695C296.435 260.138 296.15 265.337 296.068 271.25L295.92 282H298.493H301.066L300.783 270.762L300.5 259.524L298.843 259.207C297.932 259.032 296.968 259.252 296.701 259.695ZM311.5 260.183C311.231 260.907 309.706 265.325 308.112 270C306.518 274.675 304.892 279.288 304.5 280.25L303.786 282H305.918C307.271 282 308.396 281.088 309 279.5L309.95 277H314.5H319.05L320 279.5C320.582 281.031 321.736 282 322.975 282C325.502 282 325.583 282.543 321.183 270L317.5 259.5L314.744 259.183C313.131 258.997 311.786 259.412 311.5 260.183ZM255.557 264.223C254.675 265.481 254 268.517 254 271.223V276L256 278C258.572 280.572 262.19 280.552 264.543 277.952C266.822 275.434 267.201 266.158 265.128 263.656C263.074 261.178 257.456 261.511 255.557 264.223ZM280 265.434V269H283.031C288.495 269 288.15 262.841 282.649 262.184L280 261.867V265.434ZM180.783 269L179.184 274H183H186.816L185.217 269C184.338 266.25 183.34 264 183 264C182.66 264 181.662 266.25 180.783 269ZM313.131 266.294C312.518 267.831 311.739 270.193 311.4 271.544L310.783 274H314.459H318.135L317.444 271.75C317.064 270.512 316.189 268.15 315.499 266.5L314.246 263.5L313.131 266.294Z" fill="white"/>
</svg>
