<svg width="152" height="152" viewBox="0 0 152 152" fill="none" xmlns="http://www.w3.org/2000/svg">
<g clip-path="url(#clip0_8_11)">
<path d="M113.505 35.6292C113.723 35.6289 113.942 35.6279 114.161 35.6263C115.507 35.6165 116.819 35.6594 118.157 35.833C118.446 35.8702 118.736 35.9031 119.026 35.9361C119.948 36.0449 120.854 36.2272 121.76 36.4321C121.838 36.4497 121.916 36.4673 121.997 36.4855C122.827 36.6748 123.649 36.8691 124.457 37.1463C124.595 37.1897 124.733 37.2329 124.872 37.2758C125.897 37.6025 126.914 37.9571 127.914 38.3606C127.999 38.395 127.999 38.395 128.087 38.4301C128.271 38.5047 128.456 38.5798 128.64 38.6552C128.697 38.6784 128.754 38.7016 128.813 38.7255C129.168 38.8722 129.51 39.0366 129.85 39.2177C129.966 39.2772 129.966 39.2772 130.085 39.3379C130.318 39.4573 130.55 39.5776 130.783 39.6986C130.904 39.7618 131.025 39.8248 131.147 39.8876C133.344 41.0263 135.434 42.3965 137.351 43.988C137.445 44.0661 137.54 44.1433 137.635 44.2205C138.336 44.7913 139.009 45.3958 139.664 46.0219C139.845 46.1952 140.028 46.3651 140.217 46.5298C140.414 46.7024 140.6 46.8776 140.774 47.0745C140.774 47.1216 140.774 47.1687 140.774 47.2173C140.82 47.2173 140.866 47.2173 140.913 47.2173C141.008 47.3172 141.008 47.3172 141.12 47.4584C141.318 47.6993 141.525 47.9242 141.742 48.1458C141.982 48.3913 142.212 48.6397 142.432 48.9047C142.546 49.0427 142.661 49.1793 142.777 49.3154C143.227 49.8436 143.661 50.3787 144.068 50.9427C144.135 51.0362 144.203 51.1295 144.271 51.2226C145.125 52.3944 145.93 53.6008 146.645 54.8689C146.727 55.0133 146.81 55.157 146.893 55.3007C148.69 58.4152 149.975 61.7871 150.869 65.2879C150.886 65.3522 150.902 65.4164 150.919 65.4826C151.082 66.1245 151.235 66.7585 151.319 67.4175C151.352 67.6342 151.398 67.8409 151.45 68.0534C151.575 68.6062 151.65 69.1621 151.72 69.7247C151.742 69.8975 151.765 70.07 151.788 70.2426C151.991 71.8124 151.992 73.3864 151.996 74.9675C151.997 75.1995 151.998 75.4315 152 75.6635C152.012 76.9473 151.986 78.2136 151.849 79.4907C151.843 79.5441 151.838 79.5975 151.832 79.6525C151.758 80.327 151.657 80.9942 151.538 81.6617C151.496 81.907 151.46 82.152 151.427 82.3988C151.37 82.7902 151.284 83.1704 151.187 83.553C151.112 83.8528 151.045 84.153 150.983 84.4562C150.826 85.2323 150.604 85.9841 150.373 86.7401C150.318 86.9249 150.264 87.1101 150.21 87.2956C149.788 88.7568 149.788 88.7568 149.486 89.4169C149.4 89.613 149.327 89.813 149.253 90.0145C148.938 90.8681 148.576 91.6862 148.174 92.4993C148.105 92.6408 148.037 92.7828 147.97 92.9251C147.05 94.8609 145.945 96.6879 144.716 98.4293C144.684 98.4742 144.652 98.5192 144.619 98.5655C143.924 99.5456 143.192 100.497 142.391 101.387C142.26 101.534 142.133 101.684 142.007 101.835C141.756 102.132 141.492 102.413 141.223 102.692C141.175 102.742 141.127 102.792 141.077 102.844C140.976 102.949 140.874 103.053 140.773 103.158C140.62 103.316 140.467 103.475 140.315 103.634C139.847 104.12 139.381 104.592 138.857 105.015C138.691 105.151 138.536 105.297 138.38 105.447C137.941 105.859 137.468 106.224 136.994 106.591C136.887 106.673 136.78 106.756 136.674 106.839C135.474 107.775 134.22 108.608 132.924 109.396C132.755 109.499 132.587 109.604 132.419 109.708C131.79 110.096 131.157 110.431 130.484 110.727C130.23 110.84 129.986 110.966 129.742 111.098C129.019 111.479 128.255 111.768 127.499 112.072C127.426 112.101 127.352 112.131 127.277 112.162C125.949 112.695 124.593 113.14 123.212 113.5C123.153 113.515 123.094 113.531 123.034 113.547C122.61 113.657 122.186 113.759 121.76 113.857C121.696 113.872 121.631 113.887 121.565 113.903C120.356 114.181 119.139 114.353 117.907 114.483C117.8 114.495 117.692 114.507 117.585 114.519C116.393 114.656 115.203 114.667 114.005 114.665C113.786 114.665 113.567 114.666 113.348 114.667C110.662 114.683 108.072 114.364 105.442 113.786C105.364 113.769 105.364 113.769 105.285 113.751C104.944 113.675 104.605 113.59 104.267 113.5C104.197 113.481 104.127 113.463 104.054 113.444C100.395 112.459 96.8552 110.924 93.6587 108.831C93.4866 108.718 93.3138 108.608 93.1405 108.497C92.0261 107.785 90.9742 106.993 89.9543 106.143C89.8892 106.089 89.8242 106.035 89.7571 105.979C89.5684 105.821 89.3808 105.661 89.1937 105.5C89.0896 105.412 89.0896 105.412 88.9833 105.321C88.074 104.54 87.2301 103.693 86.3934 102.831C86.3575 102.794 86.3217 102.757 86.2847 102.719C85.8793 102.302 85.4863 101.879 85.1143 101.429C85.0165 101.319 84.9186 101.209 84.8204 101.099C84.4652 100.692 84.1426 100.262 83.8183 99.8298C83.7023 99.6765 83.5828 99.5262 83.4635 99.3757C81.8276 97.2668 80.3768 94.8816 79.298 92.4221C79.2 92.2042 79.0928 91.9915 78.9865 91.7778C78.7775 91.35 78.6018 90.9155 78.4344 90.4693C78.3519 90.2513 78.2643 90.0371 78.174 89.8225C77.7176 88.7005 77.3647 87.5237 77.0172 86.3612C77.0032 86.3146 76.9892 86.268 76.9748 86.22C76.9606 86.1726 76.9464 86.1252 76.9317 86.0763C76.901 85.9775 76.8689 85.8791 76.8355 85.7812C76.6847 85.3379 76.5901 84.8904 76.5016 84.4299C76.4728 84.2826 76.4439 84.1353 76.4149 83.988C76.4011 83.9172 76.3873 83.8464 76.3731 83.7735C76.3376 83.5956 76.3003 83.4183 76.2615 83.2411C76.0508 82.2714 75.9017 81.2894 75.7713 80.3051C75.7603 80.2247 75.7494 80.1442 75.7381 80.0614C75.5335 78.4678 75.4789 76.8745 75.4815 75.2692C75.4819 75.0619 75.4814 74.8547 75.4801 74.6474C75.4692 72.8389 75.5335 71.0315 75.8715 69.2515C75.916 69.0139 75.9489 68.7778 75.9787 68.5378C76.1629 67.1748 76.4747 65.8309 76.8171 64.5023C76.8368 64.4252 76.8368 64.4252 76.8569 64.3466C77.2576 62.8021 77.7809 61.2499 78.4074 59.7882C78.4344 59.7242 78.4614 59.6602 78.4892 59.5943C78.7927 58.8902 79.1213 58.1971 79.4445 57.5026C79.4809 57.4243 79.5173 57.346 79.5547 57.2654C80.1141 56.0861 80.7551 54.9588 81.4497 53.8599C81.4877 53.7994 81.5258 53.7389 81.565 53.6765C82.403 52.3483 83.3 51.0763 84.2845 49.86C84.3355 49.7967 84.3355 49.7967 84.3876 49.7322C85.1934 48.735 86.0628 47.8024 86.9486 46.8813C87.0267 46.8 87.1047 46.7186 87.1827 46.6371C87.6174 46.1829 88.056 45.7532 88.5418 45.357C88.7152 45.2128 88.879 45.061 89.0425 44.9049C89.4658 44.5076 89.9152 44.1478 90.3691 43.7889C90.4132 43.754 90.4573 43.719 90.5027 43.683C92.3376 42.2331 94.3045 40.8889 96.3898 39.8557C96.5791 39.761 96.7666 39.6628 96.9543 39.5647C98.2891 38.8688 99.6698 38.2829 101.086 37.7892C101.156 37.7645 101.226 37.7398 101.298 37.7144C102.642 37.2411 103.968 36.8248 105.359 36.5358C105.704 36.4627 106.047 36.3823 106.39 36.2968C107.173 36.1068 107.965 35.9928 108.761 35.883C108.844 35.8714 108.844 35.8714 108.928 35.8595C110.451 35.6464 111.97 35.6311 113.505 35.6292Z" fill="#EF8035"/>
<path d="M37.1299 37.3599C37.2943 37.6147 37.2971 37.76 37.3197 38.0636C37.3236 38.1123 37.3274 38.1611 37.3314 38.2114C37.3396 38.3163 37.3476 38.4212 37.3553 38.5262C37.3759 38.8029 37.3986 39.0794 37.4213 39.3559C37.428 39.439 37.428 39.439 37.4349 39.5237C37.55 40.9204 37.6921 42.3427 38.042 43.7003C38.0989 43.9354 38.1467 44.171 38.1933 44.4084C38.408 45.5023 38.7132 46.5613 39.0313 47.6273C39.0694 47.7554 39.0694 47.7554 39.1083 47.8861C39.3498 48.6875 39.6031 49.4781 39.9483 50.2389C40.0366 50.4369 40.1178 50.6367 40.1975 50.8384C41.4231 53.9293 43.0363 56.8552 45.0122 59.5018C45.056 59.5606 45.056 59.5606 45.1007 59.6205C45.7037 60.4275 46.332 61.2101 46.9968 61.9637C47.0955 62.076 47.1935 62.1889 47.2907 62.3025C47.6895 62.7675 48.1071 63.2099 48.533 63.6481C48.6468 63.7653 48.7603 63.883 48.8738 64.0006C49.2572 64.3969 49.6457 64.7819 50.0596 65.1444C50.142 65.219 50.2243 65.2938 50.3065 65.3687C50.8392 65.8512 51.3806 66.3172 51.9432 66.7621C52.0622 66.8566 52.1803 66.9521 52.2984 67.0478C53.7026 68.1725 55.2208 69.1705 56.7665 70.0727C56.8251 70.1072 56.8836 70.1417 56.944 70.1772C58.0554 70.8295 59.1922 71.3975 60.3776 71.8907C60.5918 71.9803 60.8013 72.0775 61.0102 72.1798C62.2222 72.7583 63.5247 73.1483 64.8001 73.5458C64.8444 73.5597 64.8888 73.5736 64.9345 73.5878C65.7181 73.8325 66.5028 74.0497 67.3065 74.211C67.365 74.2228 67.4235 74.2346 67.4838 74.2468C67.6066 74.2715 67.7293 74.2962 67.8521 74.3208C68.0342 74.3577 68.2159 74.3962 68.3977 74.435C69.0742 74.577 69.7428 74.6836 70.4316 74.738C70.7182 74.7612 70.993 74.7958 71.2744 74.8571C71.8856 74.9777 72.5116 74.9823 73.1318 75.01C73.2616 75.0162 73.3914 75.0224 73.5212 75.0287C73.8365 75.0439 74.1518 75.0584 74.4671 75.0725C74.4671 75.1197 74.4671 75.1668 74.4671 75.2154C74.4177 75.216 74.3683 75.2167 74.3173 75.2174C72.1781 75.253 70.062 75.4688 67.9677 75.9296C67.8802 75.9487 67.7926 75.9678 67.7024 75.9875C66.6517 76.2179 65.6131 76.4731 64.5891 76.8107C64.4497 76.8555 64.3099 76.8968 64.1691 76.9366C62.5689 77.3905 61.0278 78.0459 59.5236 78.7633C59.3497 78.8462 59.1753 78.9279 59.0007 79.009C57.2825 79.8152 55.6194 80.818 54.0699 81.9294C54.0241 81.962 53.9783 81.9946 53.9311 82.0283C52.907 82.759 51.9111 83.53 50.9585 84.3578C50.9217 84.3897 50.885 84.4216 50.8471 84.4545C50.7255 84.5603 50.6042 84.6666 50.4831 84.773C50.4474 84.8042 50.4117 84.8354 50.3749 84.8676C49.6366 85.5207 48.9386 86.2182 48.2528 86.9292C48.1311 87.0553 48.0091 87.181 47.887 87.3066C47.4902 87.7163 47.1025 88.1284 46.7408 88.5719C46.6735 88.6518 46.6062 88.7316 46.5387 88.8113C44.371 91.3962 42.4529 94.3096 41.0704 97.4208C40.9697 97.6424 40.8603 97.8586 40.7512 98.076C40.5406 98.5061 40.3705 98.9457 40.2056 99.396C40.1002 99.6834 39.99 99.9637 39.861 100.241C39.5948 100.832 39.4039 101.454 39.2042 102.071C39.1833 102.136 39.1623 102.2 39.1408 102.267C38.8606 103.138 38.6165 104.012 38.4124 104.905C38.3762 105.064 38.339 105.222 38.3015 105.38C38.1198 106.154 37.9644 106.932 37.8213 107.714C37.8118 107.765 37.8022 107.817 37.7924 107.87C37.6161 108.838 37.524 109.816 37.4281 110.795C37.412 110.947 37.3914 111.098 37.3683 111.249C37.3185 111.651 37.3114 112.055 37.2984 112.459C37.2954 112.546 37.2924 112.632 37.2893 112.721C37.282 112.933 37.275 113.145 37.2681 113.357C37.2225 113.357 37.1769 113.357 37.1299 113.357C37.1271 113.297 37.1244 113.238 37.1216 113.178C37.0483 111.656 36.9185 110.152 36.715 108.642C36.7049 108.566 36.6947 108.49 36.6843 108.412C36.5574 107.487 36.3685 106.579 36.1619 105.669C36.1503 105.618 36.1387 105.567 36.1268 105.515C35.8911 104.484 35.6079 103.473 35.2819 102.468C35.2327 102.317 35.184 102.165 35.1354 102.013C34.9399 101.407 34.7289 100.809 34.5024 100.214C34.4448 100.057 34.3872 99.8988 34.3296 99.7411C34.1995 99.3918 34.058 99.0511 33.9047 98.7121C33.8179 98.5156 33.737 98.3171 33.6564 98.1178C33.3538 97.3768 32.9795 96.6792 32.6003 95.9775C32.4935 95.7788 32.3881 95.5793 32.2831 95.3797C31.2087 93.3429 29.9264 91.4225 28.487 89.6433C28.4529 89.601 28.4188 89.5588 28.3837 89.5152C28.0187 89.0629 27.6473 88.6172 27.2634 88.1819C27.163 88.0676 27.0632 87.9529 26.9641 87.8375C26.5741 87.384 26.1676 86.9509 25.7515 86.5229C25.6897 86.4588 25.6279 86.3946 25.5642 86.3286C25.2128 85.9661 24.8536 85.62 24.4767 85.2864C24.3655 85.1825 24.2546 85.0783 24.1439 84.9739C23.7812 84.6359 23.4051 84.3171 23.0247 84.0007C22.9733 83.9571 22.922 83.9134 22.8691 83.8684C20.2225 81.6376 17.2339 79.8328 14.1052 78.4295C14.032 78.3964 13.9588 78.3632 13.8834 78.329C13.0007 77.9302 12.1283 77.5589 11.2012 77.2867C10.9358 77.1999 10.6723 77.1089 10.4119 77.0073C9.95771 76.8303 9.50354 76.694 9.03182 76.5769C8.96035 76.5588 8.88888 76.5408 8.81524 76.5221C8.59657 76.467 8.37775 76.4125 8.15889 76.3582C8.02672 76.3251 7.89456 76.292 7.7624 76.2589C7.462 76.1839 7.16128 76.1105 6.86029 76.0381C6.72908 76.0064 6.59804 75.974 6.46704 75.9413C4.54964 75.4854 2.51705 75.2888 0.550613 75.2424C0.152571 75.2301 0.152571 75.2301 0 75.0725C0.0423032 75.0711 0.0846065 75.0697 0.128192 75.0682C0.909395 75.041 1.68891 75.0067 2.46755 74.9341C2.52603 74.9288 2.58451 74.9235 2.64476 74.918C3.12618 74.8707 3.602 74.7939 4.07944 74.7154C4.23005 74.6915 4.38067 74.6677 4.53131 74.644C4.60577 74.6322 4.68024 74.6204 4.75697 74.6083C4.90767 74.5844 5.05838 74.5606 5.2091 74.5368C6.22865 74.3816 6.22865 74.3816 7.2341 74.1529C7.52081 74.0758 7.80706 74.0008 8.09731 73.9392C9.394 73.6637 10.6519 73.2379 11.8883 72.7526C12.1266 72.6592 12.3669 72.5762 12.61 72.4967C12.9724 72.3744 13.3115 72.2161 13.6558 72.0473C13.9246 71.9168 14.1958 71.7932 14.4682 71.6709C14.6011 71.6112 14.7341 71.5515 14.8669 71.4916C14.9595 71.4499 15.0523 71.4085 15.1451 71.3674C18.1348 70.026 20.9609 68.0877 23.4325 65.9036C23.6348 65.7253 23.8415 65.553 24.0488 65.381C24.3205 65.1528 24.5715 64.9151 24.8124 64.6528C24.9412 64.5214 25.073 64.4004 25.2102 64.2786C25.559 63.9658 25.8838 63.6298 26.2096 63.2918C26.269 63.2307 26.3284 63.1696 26.3896 63.1067C26.6973 62.7883 26.9951 62.4654 27.2788 62.1241C27.4072 61.9698 27.5409 61.8208 27.6745 61.6713C27.9886 61.3117 28.2766 60.9348 28.5637 60.5522C28.7322 60.3279 28.9042 60.1069 29.0773 59.8863C29.7638 59.01 30.3802 58.0884 30.9761 57.1448C31.0073 57.0958 31.0384 57.0468 31.0705 56.9963C31.9501 55.6086 32.7389 54.1578 33.4013 52.6465C33.4604 52.5131 33.5219 52.3809 33.5836 52.2488C34.1596 51.0139 34.6572 49.7299 35.0784 48.4301C35.127 48.281 35.177 48.1324 35.2271 47.9839C35.6587 46.6925 35.9783 45.3737 36.261 44.04C36.2965 43.8763 36.3343 43.7134 36.3733 43.5505C36.6152 42.5245 36.7298 41.4779 36.8533 40.4312C36.8648 40.3356 36.8648 40.3356 36.8765 40.238C36.9906 39.2814 37.0596 38.3208 37.1299 37.3599Z" fill="#D92735"/>
<path d="M113.736 36.4327C113.758 36.4327 113.781 36.4327 113.805 36.4327C113.806 36.5062 113.806 36.5062 113.808 36.5812C113.852 38.5495 114.019 40.4939 114.358 42.4325C114.373 42.5209 114.388 42.6093 114.404 42.7005C114.596 43.8097 114.821 44.8984 115.139 45.9771C115.204 46.2033 115.259 46.4314 115.315 46.6601C115.489 47.3762 115.714 48.0667 115.958 48.7604C116.015 48.9262 116.071 49.0926 116.126 49.2595C116.302 49.7932 116.494 50.3068 116.73 50.816C116.849 51.0791 116.958 51.3449 117.066 51.6125C117.352 52.3169 117.67 52.9904 118.025 53.6601C118.117 53.8375 118.201 54.0184 118.286 54.1998C118.852 55.3751 119.529 56.4855 120.235 57.5746C120.268 57.6254 120.3 57.6761 120.334 57.7283C121.006 58.7677 121.74 59.7595 122.517 60.7174C122.547 60.7542 122.576 60.791 122.607 60.8289C123.028 61.349 123.457 61.8599 123.9 62.3601C123.96 62.4296 124.021 62.499 124.084 62.5705C124.479 63.0197 124.885 63.4568 125.3 63.8869C125.345 63.9336 125.39 63.9802 125.436 64.0284C125.703 64.3035 125.978 64.5651 126.264 64.8198C126.419 64.9584 126.57 65.101 126.722 65.2439C127.085 65.5818 127.46 65.9007 127.841 66.2171C127.919 66.2832 127.997 66.3493 128.076 66.4155C130.243 68.2372 132.658 69.8329 135.177 71.0804C135.311 71.1469 135.445 71.2144 135.579 71.2819C136.157 71.5705 136.743 71.8353 137.335 72.0919C137.403 72.1213 137.47 72.1508 137.54 72.1811C137.946 72.3553 138.355 72.5069 138.774 72.6473C138.959 72.7119 139.138 72.7834 139.319 72.86C139.703 73.022 140.094 73.1542 140.49 73.2838C140.565 73.3086 140.641 73.3334 140.719 73.359C141.656 73.6635 142.598 73.9157 143.561 74.118C143.861 74.1811 144.157 74.251 144.452 74.3328C144.846 74.4381 145.241 74.4897 145.644 74.5407C145.842 74.5677 146.033 74.6016 146.229 74.6453C146.709 74.7495 147.197 74.8036 147.685 74.8596C147.739 74.8659 147.792 74.8721 147.848 74.8786C148.875 74.9961 149.902 75.0427 150.935 75.0739C150.738 75.2775 150.595 75.2413 150.319 75.2519C150.217 75.2564 150.116 75.2609 150.015 75.2655C149.961 75.2677 149.908 75.2699 149.852 75.2722C148.924 75.3113 148.002 75.38 147.08 75.498C146.99 75.5092 146.9 75.5205 146.808 75.5321C146.26 75.6045 145.72 75.6994 145.178 75.8078C144.908 75.8618 144.637 75.9122 144.366 75.9622C143.853 76.0598 143.349 76.1877 142.844 76.3233C142.708 76.3591 142.572 76.393 142.435 76.4262C141.827 76.5751 141.239 76.7625 140.648 76.9717C140.408 77.0564 140.167 77.1337 139.924 77.2077C139.508 77.3381 139.1 77.488 138.692 77.6407C138.63 77.6639 138.568 77.687 138.504 77.7108C138.032 77.8891 137.568 78.0849 137.106 78.288C137.004 78.3328 137.004 78.3328 136.9 78.3785C135.987 78.781 135.094 79.2041 134.224 79.6971C134.057 79.7915 133.89 79.8844 133.721 79.9771C132.913 80.4259 132.135 80.9132 131.367 81.4307C131.315 81.4654 131.263 81.5001 131.21 81.5359C129.447 82.7186 127.785 84.0472 126.245 85.5257C126.094 85.6679 125.942 85.8058 125.788 85.9428C125.429 86.2658 125.095 86.6136 124.76 86.9617C124.697 87.0262 124.634 87.0907 124.57 87.1572C124.254 87.4837 123.948 87.8139 123.657 88.1642C123.517 88.3315 123.371 88.4922 123.226 88.6536C122.897 89.0255 122.596 89.4142 122.299 89.8123C122.168 89.9862 122.036 90.1576 121.901 90.3274C121.388 90.9741 120.926 91.648 120.476 92.3435C120.386 92.4826 120.294 92.6207 120.202 92.7583C119.215 94.2389 118.383 95.8235 117.608 97.43C117.563 97.5216 117.563 97.5216 117.518 97.615C115.971 100.82 114.992 104.276 114.358 107.787C114.345 107.857 114.332 107.926 114.319 107.998C113.991 109.832 113.87 111.71 113.805 113.572C113.666 113.429 113.666 113.429 113.65 113.269C113.65 113.202 113.65 113.135 113.65 113.065C113.649 112.987 113.648 112.909 113.647 112.829C113.647 112.743 113.646 112.657 113.645 112.568C113.626 111.651 113.543 110.75 113.433 109.84C113.426 109.779 113.419 109.718 113.411 109.655C113.223 108.082 112.929 106.539 112.56 105.001C112.543 104.931 112.527 104.86 112.509 104.788C112.022 102.776 111.345 100.835 110.555 98.9299C110.528 98.8641 110.501 98.7982 110.472 98.7303C110.129 97.9074 109.748 97.1105 109.335 96.323C109.236 96.135 109.139 95.9464 109.042 95.7576C107.755 93.2687 106.165 90.8839 104.332 88.7875C104.283 88.7306 104.233 88.6737 104.182 88.6151C104.08 88.4983 103.978 88.3817 103.876 88.2652C103.788 88.1637 103.701 88.0619 103.615 87.9578C103.24 87.5029 102.832 87.0838 102.422 86.6623C102.297 86.5334 102.172 86.4042 102.048 86.275C101.645 85.8592 101.242 85.452 100.806 85.0734C100.729 85.0048 100.653 84.9361 100.577 84.8672C98.2641 82.8009 95.7213 81.0277 93.0028 79.5822C92.8619 79.5063 92.7225 79.4282 92.5835 79.3488C92.0427 79.0407 91.4952 78.7849 90.9216 78.5486C90.6768 78.4472 90.4389 78.3345 90.201 78.2166C88.8639 77.5705 87.4166 77.1327 86.0049 76.6988C85.9285 76.6753 85.852 76.6518 85.7733 76.6275C84.7113 76.3049 83.6383 76.0755 82.5521 75.8595C82.488 75.8465 82.4239 75.8335 82.3579 75.8201C80.4391 75.4337 78.4901 75.2453 76.5366 75.2167C76.5366 75.1696 76.5366 75.1224 76.5366 75.0739C76.5826 75.0732 76.6286 75.0725 76.6759 75.0718C78.6526 75.0365 80.6091 74.8073 82.5521 74.431C82.6152 74.4189 82.6784 74.4067 82.7435 74.3942C83.3476 74.2766 83.9472 74.1536 84.538 73.9768C84.6851 73.9341 84.8311 73.9001 84.9807 73.8686C88.3195 73.1149 91.7141 71.5814 94.6521 69.7884C94.7132 69.7512 94.7742 69.7141 94.8372 69.6758C96.6767 68.5505 98.4121 67.2852 100.045 65.86C100.088 65.8234 100.13 65.7867 100.173 65.749C101.106 64.9411 101.984 64.078 102.846 63.1905C102.91 63.1242 102.974 63.058 103.041 62.9898C103.394 62.6246 103.732 62.2525 104.056 61.8602C104.128 61.7751 104.2 61.6901 104.273 61.6052C104.74 61.0548 105.191 60.4955 105.622 59.9144C105.713 59.7915 105.806 59.6695 105.898 59.5475C106.902 58.2103 107.826 56.7693 108.619 55.289C108.651 55.2306 108.682 55.1722 108.715 55.112C109.45 53.7516 110.14 52.3751 110.707 50.9302C110.779 50.7468 110.855 50.565 110.931 50.383C111.579 48.7629 112.139 47.1042 112.505 45.3908C112.551 45.1892 112.604 45.0015 112.673 44.8074C112.786 44.4804 112.827 44.1475 112.874 43.8046C112.931 43.3963 113.01 42.9954 113.111 42.5962C113.19 42.2735 113.24 41.9491 113.286 41.62C113.298 41.5378 113.298 41.5378 113.311 41.454C113.474 40.3193 113.556 39.1896 113.602 38.0443C113.61 37.8462 113.618 37.6482 113.626 37.4501C113.632 37.3284 113.636 37.2066 113.641 37.0848C113.651 36.8523 113.664 36.6548 113.736 36.4327Z" fill="#FEFEFE"/>
<path d="M39.8314 35.6465C63.4472 35.6465 87.063 35.6465 111.394 35.6465C111.394 35.6701 111.394 35.6936 111.394 35.7179C111.275 35.7228 111.275 35.7228 111.153 35.7277C110.351 35.7638 109.562 35.8424 108.767 35.9545C108.71 35.9624 108.653 35.9703 108.594 35.9785C107.817 36.0861 107.05 36.2109 106.287 36.3976C106.062 36.4503 105.835 36.4942 105.608 36.5391C105.08 36.6438 104.564 36.7637 104.049 36.9243C103.853 36.9838 103.659 37.0393 103.462 37.0917C102.704 37.2947 101.961 37.5301 101.222 37.7937C101.098 37.8378 101.098 37.8378 100.971 37.8827C100.515 38.0476 100.067 38.2264 99.6214 38.4217C99.4073 38.5145 99.191 38.5996 98.9735 38.6836C98.3665 38.9189 97.791 39.195 97.2161 39.5036C97.0849 39.5733 96.9529 39.641 96.8204 39.708C94.2518 41.0072 91.8078 42.6031 89.6144 44.5032C89.4877 44.6089 89.3609 44.7146 89.2341 44.8202C88.9083 45.0953 88.596 45.3829 88.2869 45.6778C88.1863 45.7727 88.0853 45.8673 87.9814 45.9583C87.5303 46.3547 87.1156 46.7881 86.6978 47.2211C86.5681 47.3555 86.438 47.4895 86.3078 47.6235C85.8971 48.0475 85.4956 48.4736 85.1201 48.9316C85.0224 49.0419 84.9245 49.1521 84.8262 49.2619C84.4779 49.6612 84.16 50.0816 83.8422 50.5068C83.7353 50.6483 83.6266 50.7882 83.5174 50.9279C82.0621 52.8023 80.7807 54.9059 79.7387 57.0506C79.6618 57.2087 79.5838 57.3662 79.5055 57.5236C79.2107 58.119 78.9408 58.7229 78.6883 59.3386C78.6153 59.5155 78.5406 59.6916 78.4659 59.8678C78.1028 60.7347 77.7854 61.6139 77.4884 62.5069C77.4709 62.5592 77.4535 62.6115 77.4355 62.6653C77.2018 63.3665 76.9995 64.0689 76.8229 64.788C76.8024 64.8695 76.7819 64.9511 76.7607 65.035C76.3587 66.634 76.0524 68.2203 75.8549 69.8592C75.845 69.9404 75.845 69.9404 75.835 70.0232C75.7992 70.3199 75.7662 70.6167 75.7344 70.9138C75.7178 71.0632 75.6995 71.2123 75.6808 71.3615C75.5499 72.4708 75.5537 73.5824 75.5564 74.698C75.5567 74.8608 75.5569 75.0237 75.5571 75.1865C75.5635 79.1034 76.07 82.9045 77.1603 86.6626C77.2063 86.8212 77.2517 86.98 77.2959 87.1392C77.3747 87.4217 77.4622 87.6947 77.5708 87.9667C77.7055 88.3109 77.8269 88.6588 77.9463 89.0089C78.1606 89.6378 78.3755 90.2571 78.6585 90.8569C78.7555 91.0653 78.8442 91.2756 78.9318 91.4883C79.15 92.0173 79.3945 92.5237 79.6613 93.0281C79.7873 93.267 79.9022 93.5104 80.0165 93.7555C80.5707 94.9084 81.2474 96.0031 81.9395 97.0723C81.9703 97.1199 82.0011 97.1676 82.0329 97.2167C82.7742 98.3577 83.5781 99.4445 84.4287 100.501C84.4629 100.543 84.4971 100.586 84.5323 100.63C85.346 101.636 86.225 102.577 87.1209 103.505C87.1548 103.54 87.1888 103.575 87.2237 103.612C87.6163 104.019 88.015 104.414 88.439 104.786C88.5139 104.854 88.5887 104.922 88.6634 104.99C89.239 105.508 89.8366 105.991 90.4465 106.465C90.5674 106.56 90.6869 106.656 90.8058 106.754C92.4031 108.058 94.2325 109.261 96.0577 110.192C96.102 110.215 96.1464 110.238 96.1921 110.261C96.3502 110.341 96.5086 110.421 96.667 110.5C96.7347 110.534 96.8023 110.568 96.872 110.604C97.0974 110.717 97.3229 110.83 97.5486 110.942C97.6197 110.978 97.6909 111.014 97.7642 111.05C98.4023 111.367 99.0485 111.658 99.7179 111.898C99.988 111.994 100.254 112.096 100.519 112.208C100.902 112.367 101.292 112.505 101.684 112.639C101.757 112.664 101.83 112.688 101.906 112.714C103.506 113.257 105.124 113.659 106.779 113.982C106.861 113.998 106.861 113.998 106.944 114.014C107.982 114.216 109.015 114.376 110.068 114.473C110.17 114.483 110.273 114.493 110.375 114.502C110.623 114.526 110.87 114.549 111.118 114.572C111.118 114.595 111.118 114.619 111.118 114.643C87.5705 114.643 64.0231 114.643 39.7622 114.643C39.7622 114.619 39.7622 114.596 39.7622 114.572C39.8422 114.565 39.9221 114.558 40.0045 114.55C41.7597 114.39 43.5485 114.202 45.2637 113.773C45.4483 113.727 45.633 113.684 45.8184 113.642C45.8739 113.63 45.9293 113.617 45.9864 113.605C46.0951 113.58 46.2037 113.556 46.3124 113.532C46.6027 113.466 46.8788 113.384 47.1605 113.286C47.3404 113.238 47.5202 113.192 47.7007 113.147C48.1046 113.045 48.4974 112.931 48.8891 112.786C48.9652 112.759 49.0413 112.732 49.1198 112.705C50.9551 112.057 52.7983 111.325 54.5021 110.362C54.7407 110.227 54.9836 110.104 55.2287 109.982C56.7878 109.182 58.3021 108.186 59.688 107.099C59.8217 106.994 59.9564 106.891 60.0914 106.789C60.6139 106.391 61.1197 105.979 61.6114 105.541C61.8 105.374 61.992 105.214 62.1862 105.054C63.0027 104.364 63.7472 103.587 64.4952 102.82C64.5738 102.739 64.6525 102.659 64.7314 102.578C65.171 102.129 65.587 101.676 65.9706 101.174C66.1102 100.995 66.2571 100.826 66.4082 100.657C66.7927 100.219 67.1425 99.7564 67.4886 99.2865C67.5251 99.2371 67.5615 99.1876 67.5991 99.1367C68.5025 97.9053 69.3576 96.6267 70.1051 95.2874C70.1986 95.1197 70.2931 94.9527 70.3875 94.7856C70.9567 93.7723 71.4692 92.7487 71.9231 91.6752C72.0536 91.3676 72.1915 91.0672 72.3416 90.769C72.5219 90.403 72.6564 90.0313 72.7848 89.6429C72.8538 89.4361 72.9287 89.2325 73.0068 89.0291C73.3961 88.0135 73.7004 86.9806 73.9881 85.9299C74.006 85.8649 74.0239 85.7998 74.0424 85.7328C74.1421 85.3707 74.2407 85.0083 74.3338 84.6443C74.3496 84.5833 74.3655 84.5224 74.3818 84.4596C74.5363 83.8466 74.6462 83.2274 74.753 82.6042C74.7708 82.5012 74.7887 82.3982 74.8066 82.2952C74.8411 82.0962 74.8754 81.8972 74.9095 81.6981C74.9373 81.538 74.9658 81.3781 74.9957 81.2184C75.0958 80.6833 75.1515 80.1466 75.2024 79.6043C75.2111 79.5165 75.2198 79.4286 75.2287 79.338C75.3585 77.9811 75.3839 76.6308 75.3837 75.268C75.3837 75.0678 75.3842 74.8676 75.3852 74.6673C75.3931 72.9495 75.3259 71.2508 75.0684 69.5512C75.0531 69.4474 75.0379 69.3436 75.0227 69.2398C74.9044 68.4425 74.7711 67.6488 74.6103 66.8594C74.599 66.8035 74.5877 66.7476 74.5761 66.6901C74.542 66.5232 74.5072 66.3564 74.4721 66.1898C74.4622 66.1431 74.4524 66.0965 74.4423 66.0484C74.2325 65.083 73.9567 64.1372 73.6683 63.1944C73.6503 63.1354 73.6323 63.0765 73.6137 63.0157C73.1943 61.6471 72.7346 60.2939 72.1199 59.004C72.0413 58.837 71.9655 58.6687 71.8897 58.5004C70.5499 55.5374 68.9038 52.7271 66.8663 50.2173C66.764 50.0864 66.6617 49.9554 66.5595 49.8244C66.2932 49.4879 66.0147 49.1652 65.7292 48.8459C65.6378 48.7424 65.5466 48.6386 65.4589 48.5316C65.0662 48.0541 64.6351 47.6159 64.2058 47.1739C64.0707 47.0347 63.9359 46.8951 63.8012 46.7555C63.3826 46.3229 62.9637 45.8973 62.5103 45.5032C62.427 45.4278 62.3439 45.3521 62.261 45.2764C61.7511 44.814 61.2334 44.3704 60.69 43.9505C60.5718 43.8584 60.4548 43.7649 60.338 43.671C59.0835 42.6706 57.7412 41.7786 56.3729 40.9545C56.2027 40.8511 56.0339 40.7452 55.865 40.6393C55.3978 40.3494 54.9103 40.1066 54.4206 39.8606C54.3293 39.8145 54.3293 39.8145 54.2363 39.7675C52.9837 39.1358 51.7188 38.5704 50.4102 38.0749C50.3193 38.0395 50.2284 38.0039 50.1375 37.9684C49.1622 37.5903 48.1639 37.2903 47.1605 37.0036C47.0909 36.9834 47.0909 36.9834 47.0199 36.9629C46.4724 36.8045 45.9212 36.6663 45.3671 36.5348C45.3079 36.5207 45.2486 36.5066 45.1875 36.492C44.224 36.267 43.2602 36.1048 42.2802 35.9816C42.0995 35.9589 41.9189 35.9355 41.7383 35.9121C41.1033 35.8306 40.4701 35.7595 39.8314 35.7179C39.8314 35.6943 39.8314 35.6708 39.8314 35.6465Z" fill="#D0D0D0"/>
</g>
<defs>
<clipPath id="clip0_8_11">
<rect width="152" height="152" fill="white"/>
</clipPath>
</defs>
</svg>
