<svg width="220" height="218" viewBox="0 0 220 218" fill="none" xmlns="http://www.w3.org/2000/svg">
<path d="M152.318 25.7001C152.557 25.6998 152.796 25.6987 153.034 25.697C154.502 25.6866 155.934 25.732 157.393 25.9152C157.708 25.9545 158.025 25.9893 158.341 26.0241C159.347 26.139 160.334 26.3315 161.323 26.5478C161.408 26.5665 161.494 26.5851 161.581 26.6043C162.487 26.8042 163.384 27.0093 164.265 27.302C164.415 27.3478 164.566 27.3934 164.717 27.4387C165.836 27.7838 166.945 28.1582 168.036 28.5842C168.129 28.6205 168.129 28.6205 168.224 28.6576C168.426 28.7364 168.627 28.8157 168.828 28.8953C168.89 28.9198 168.952 28.9443 169.016 28.9695C169.404 29.1244 169.776 29.298 170.147 29.4892C170.274 29.5521 170.274 29.5521 170.404 29.6162C170.658 29.7422 170.912 29.8693 171.165 29.9971C171.297 30.0638 171.43 30.1303 171.562 30.1966C173.959 31.399 176.239 32.8458 178.33 34.5263C178.432 34.6088 178.536 34.6904 178.64 34.7718C179.404 35.3746 180.138 36.0129 180.852 36.674C181.05 36.857 181.25 37.0364 181.456 37.2103C181.671 37.3926 181.873 37.5775 182.064 37.7854C182.064 37.8352 182.064 37.885 182.064 37.9362C182.114 37.9362 182.163 37.9362 182.215 37.9362C182.318 38.0417 182.318 38.0417 182.441 38.1908C182.657 38.4452 182.882 38.6827 183.12 38.9167C183.381 39.1759 183.632 39.4382 183.872 39.718C183.996 39.8637 184.122 40.0079 184.249 40.1517C184.739 40.7095 185.212 41.2745 185.656 41.87C185.729 41.9687 185.803 42.0672 185.877 42.1655C186.81 43.4029 187.687 44.6767 188.467 46.0158C188.557 46.1683 188.647 46.32 188.738 46.4717C190.698 49.7604 192.1 53.3209 193.075 57.0175C193.093 57.0853 193.111 57.1531 193.129 57.223C193.308 57.9009 193.474 58.5703 193.566 59.2661C193.601 59.4949 193.651 59.7133 193.708 59.9377C193.845 60.5214 193.927 61.1084 194.003 61.7024C194.027 61.8848 194.052 62.0671 194.077 62.2493C194.298 63.9069 194.3 65.5689 194.304 67.2384C194.305 67.4834 194.306 67.7283 194.309 67.9733C194.322 69.329 194.293 70.666 194.144 72.0146C194.137 72.0709 194.131 72.1273 194.125 72.1854C194.045 72.8977 193.935 73.6022 193.805 74.307C193.758 74.566 193.719 74.8247 193.683 75.0853C193.621 75.4986 193.527 75.9001 193.422 76.3041C193.339 76.6207 193.266 76.9376 193.199 77.2578C193.028 78.0773 192.785 78.8712 192.534 79.6694C192.473 79.8645 192.415 80.0601 192.356 80.256C191.895 81.7989 191.895 81.7989 191.566 82.4959C191.472 82.703 191.393 82.9142 191.312 83.1269C190.968 84.0283 190.573 84.8922 190.136 85.7507C190.06 85.9001 189.986 86.05 189.912 86.2003C188.909 88.2444 187.704 90.1735 186.363 92.0124C186.328 92.0598 186.294 92.1073 186.258 92.1562C185.5 93.1911 184.701 94.1957 183.827 95.1355C183.684 95.291 183.546 95.4486 183.408 95.6085C183.134 95.9219 182.847 96.2192 182.553 96.5137C182.5 96.5665 182.448 96.6192 182.394 96.6736C182.283 96.7844 182.173 96.8952 182.062 97.0058C181.895 97.1728 181.729 97.3405 181.563 97.5081C181.052 98.021 180.544 98.5202 179.972 98.966C179.791 99.1102 179.622 99.2639 179.452 99.4224C178.974 99.8575 178.457 100.243 177.94 100.63C177.823 100.717 177.707 100.805 177.591 100.892C176.282 101.881 174.914 102.761 173.501 103.593C173.316 103.702 173.133 103.812 172.95 103.922C172.264 104.331 171.574 104.685 170.839 104.998C170.562 105.117 170.296 105.25 170.03 105.39C169.241 105.792 168.408 106.097 167.583 106.418C167.503 106.449 167.423 106.48 167.341 106.513C165.893 107.076 164.413 107.546 162.907 107.926C162.843 107.942 162.779 107.959 162.712 107.975C162.251 108.091 161.788 108.199 161.323 108.303C161.253 108.319 161.183 108.335 161.111 108.351C159.791 108.645 158.464 108.827 157.12 108.964C157.003 108.976 156.886 108.989 156.769 109.002C155.469 109.147 154.171 109.159 152.864 109.156C152.625 109.156 152.386 109.157 152.148 109.158C149.217 109.175 146.392 108.838 143.524 108.228C143.439 108.21 143.439 108.21 143.353 108.191C142.98 108.111 142.611 108.021 142.242 107.926C142.166 107.906 142.089 107.887 142.01 107.866C138.019 106.827 134.158 105.206 130.671 102.995C130.483 102.877 130.295 102.76 130.106 102.644C128.89 101.891 127.743 101.055 126.63 100.158C126.559 100.101 126.488 100.043 126.415 99.9845C126.209 99.8172 126.005 99.6484 125.801 99.4789C125.687 99.3852 125.687 99.3852 125.571 99.2895C124.579 98.4653 123.659 97.5701 122.746 96.6601C122.707 96.6212 122.668 96.5823 122.627 96.5422C122.185 96.1016 121.757 95.6547 121.351 95.18C121.244 95.0635 121.137 94.9472 121.03 94.8312C120.643 94.4021 120.291 93.9479 119.937 93.4911C119.811 93.3293 119.68 93.1706 119.55 93.0117C117.766 90.7849 116.183 88.2662 115.007 85.6692C114.9 85.4391 114.783 85.2145 114.667 84.9889C114.439 84.5371 114.247 84.0784 114.064 83.6072C113.974 83.377 113.879 83.1508 113.78 82.9243C113.283 81.7395 112.898 80.4968 112.519 79.2693C112.503 79.2201 112.488 79.1709 112.472 79.1203C112.457 79.0702 112.441 79.0201 112.425 78.9685C112.392 78.8641 112.357 78.7602 112.32 78.6568C112.156 78.1888 112.053 77.7162 111.956 77.23C111.925 77.0745 111.893 76.9189 111.862 76.7634C111.847 76.6887 111.832 76.6139 111.816 76.5369C111.777 76.349 111.737 76.1618 111.694 75.9747C111.464 74.9508 111.302 73.9138 111.16 72.8745C111.148 72.7896 111.136 72.7047 111.123 72.6171C110.9 70.9345 110.841 69.2521 110.844 67.557C110.844 67.3381 110.843 67.1193 110.842 66.9004C110.83 64.9908 110.9 63.0823 111.269 61.2027C111.317 60.9518 111.353 60.7025 111.386 60.4491C111.587 59.0098 111.927 57.5909 112.3 56.1879C112.322 56.1065 112.322 56.1065 112.344 56.0235C112.781 54.3927 113.352 52.7536 114.035 51.2102C114.064 51.1426 114.094 51.075 114.124 51.0054C114.455 50.262 114.814 49.5301 115.166 48.7967C115.206 48.7141 115.246 48.6314 115.287 48.5463C115.897 47.3011 116.596 46.1107 117.354 44.9503C117.395 44.8864 117.437 44.8225 117.479 44.7567C118.393 43.3542 119.372 42.0111 120.446 40.7268C120.501 40.6599 120.501 40.6599 120.558 40.5917C121.437 39.5388 122.385 38.5541 123.352 37.5815C123.437 37.4956 123.522 37.4097 123.607 37.3236C124.081 36.844 124.56 36.3903 125.089 35.9719C125.279 35.8196 125.457 35.6594 125.636 35.4945C126.097 35.0749 126.588 34.6951 127.083 34.3161C127.131 34.2792 127.179 34.2423 127.228 34.2043C129.23 32.6733 131.375 31.2539 133.65 30.1629C133.856 30.0629 134.061 29.9592 134.266 29.8557C135.722 29.1208 137.228 28.5022 138.773 27.9808C138.849 27.9547 138.926 27.9287 139.004 27.9018C140.469 27.4021 141.916 26.9625 143.433 26.6574C143.81 26.5801 144.184 26.4952 144.557 26.4049C145.412 26.2044 146.276 26.084 147.144 25.968C147.234 25.9558 147.234 25.9558 147.326 25.9433C148.988 25.7182 150.644 25.7021 152.318 25.7001Z" fill="#EF8035"/>
<path d="M69.0093 27.5283C69.1886 27.7972 69.1918 27.9508 69.2164 28.2713C69.2206 28.3228 69.2248 28.3743 69.2291 28.4273C69.2381 28.5381 69.2468 28.6489 69.2553 28.7598C69.2777 29.0519 69.3025 29.3439 69.3272 29.6359C69.3345 29.7236 69.3345 29.7236 69.3421 29.813C69.4676 31.2879 69.6226 32.7897 70.0042 34.2233C70.0663 34.4715 70.1185 34.7202 70.1693 34.971C70.4035 36.126 70.7364 37.2442 71.0833 38.3699C71.1249 38.5051 71.1249 38.5051 71.1674 38.6431C71.4308 39.4894 71.7071 40.3241 72.0836 41.1275C72.1799 41.3365 72.2685 41.5475 72.3555 41.7605C73.6923 45.0243 75.4519 48.1139 77.6072 50.9084C77.655 50.9705 77.655 50.9705 77.7037 51.0338C78.3615 51.886 79.0468 52.7123 79.772 53.5081C79.8796 53.6267 79.9866 53.7458 80.0926 53.8658C80.5275 54.3568 80.9831 54.8239 81.4476 55.2866C81.5718 55.4104 81.6956 55.5346 81.8193 55.6589C82.2375 56.0773 82.6614 56.4839 83.1128 56.8666C83.2027 56.9454 83.2925 57.0244 83.3821 57.1035C83.9632 57.6129 84.5538 58.1051 85.1674 58.5748C85.2972 58.6745 85.426 58.7754 85.5548 58.8764C87.0866 60.064 88.7425 61.1179 90.4286 62.0706C90.4925 62.107 90.5563 62.1434 90.6222 62.1809C91.8344 62.8696 93.0744 63.4694 94.3675 63.9903C94.6012 64.0849 94.8296 64.1875 95.0575 64.2955C96.3796 64.9063 97.8002 65.3182 99.1914 65.7379C99.2398 65.7525 99.2882 65.7672 99.338 65.7823C100.193 66.0406 101.049 66.2699 101.925 66.4402C101.989 66.4527 102.053 66.4652 102.119 66.4781C102.253 66.5042 102.387 66.5302 102.521 66.5562C102.719 66.5952 102.917 66.6358 103.116 66.6768C103.854 66.8268 104.583 66.9393 105.334 66.9968C105.647 67.0213 105.947 67.0578 106.253 67.1226C106.92 67.2498 107.603 67.2548 108.28 67.284C108.421 67.2905 108.563 67.2971 108.704 67.3037C109.048 67.3197 109.392 67.3351 109.736 67.35C109.736 67.3998 109.736 67.4495 109.736 67.5008C109.682 67.5015 109.628 67.5022 109.573 67.503C107.239 67.5405 104.931 67.7685 102.647 68.255C102.551 68.2752 102.456 68.2953 102.357 68.3161C101.211 68.5594 100.078 68.8289 98.9613 69.1854C98.8093 69.2327 98.6568 69.2763 98.5032 69.3183C96.7577 69.7976 95.0767 70.4896 93.4359 71.2472C93.2463 71.3347 93.0561 71.4209 92.8656 71.5066C90.9914 72.358 89.1774 73.4168 87.4872 74.5903C87.4372 74.6248 87.3872 74.6592 87.3357 74.6947C86.2187 75.4664 85.1324 76.2805 84.0933 77.1546C84.0532 77.1883 84.0131 77.222 83.9718 77.2567C83.8392 77.3684 83.7069 77.4806 83.5748 77.593C83.5358 77.6259 83.4969 77.6589 83.4567 77.6929C82.6514 78.3825 81.89 79.1191 81.142 79.8698C81.0093 80.0029 80.8761 80.1356 80.743 80.2683C80.3101 80.7009 79.8872 81.136 79.4927 81.6044C79.4193 81.6887 79.3459 81.773 79.2723 81.8571C76.9078 84.5866 74.8156 87.6629 73.3075 90.9481C73.1977 91.1821 73.0784 91.4105 72.9594 91.6399C72.7297 92.0941 72.5441 92.5583 72.3643 93.0338C72.2493 93.3373 72.129 93.6333 71.9884 93.9261C71.698 94.5496 71.4897 95.2072 71.2719 95.8587C71.2491 95.9268 71.2263 95.9949 71.2028 96.0651C70.8972 96.9847 70.6309 97.9078 70.4083 98.851C70.3688 99.0183 70.3282 99.1854 70.2873 99.3525C70.0891 100.169 69.9196 100.991 69.7635 101.817C69.7531 101.871 69.7427 101.926 69.732 101.982C69.5396 103.004 69.4392 104.036 69.3346 105.071C69.3171 105.231 69.2945 105.39 69.2694 105.55C69.2151 105.974 69.2074 106.4 69.1931 106.828C69.1899 106.919 69.1866 107.01 69.1833 107.104C69.1753 107.328 69.1676 107.551 69.1601 107.775C69.1104 107.775 69.0606 107.775 69.0093 107.775C69.0063 107.713 69.0033 107.65 69.0002 107.586C68.9203 105.979 68.7788 104.391 68.5568 102.797C68.5457 102.717 68.5347 102.637 68.5233 102.554C68.3849 101.577 68.1789 100.618 67.9534 99.658C67.9408 99.6042 67.9282 99.5503 67.9151 99.4949C67.6581 98.4062 67.3492 97.3384 66.9936 96.278C66.94 96.118 66.8868 95.9578 66.8338 95.7976C66.6205 95.1573 66.3903 94.5261 66.1433 93.8978C66.0805 93.7313 66.0176 93.5647 65.9548 93.3982C65.8129 93.0293 65.6585 92.6696 65.4914 92.3116C65.3966 92.1041 65.3084 91.8946 65.2206 91.6841C64.8904 90.9016 64.4821 90.165 64.0686 89.4241C63.952 89.2143 63.8371 89.0037 63.7225 88.7928C62.5506 86.6421 61.152 84.6144 59.5818 82.7357C59.5446 82.691 59.5075 82.6464 59.4692 82.6004C59.071 82.1228 58.666 81.6522 58.2471 81.1925C58.1377 81.0719 58.0288 80.9507 57.9207 80.8289C57.4953 80.35 57.0519 79.8926 56.598 79.4408C56.5306 79.373 56.4632 79.3053 56.3937 79.2356C56.0104 78.8529 55.6186 78.4874 55.2075 78.135C55.0862 78.0253 54.9652 77.9154 54.8445 77.8051C54.4488 77.4482 54.0386 77.1116 53.6236 76.7775C53.5676 76.7314 53.5116 76.6853 53.4539 76.6378C50.5671 74.2822 47.3072 72.3765 43.8945 70.8947C43.8146 70.8597 43.7347 70.8247 43.6525 70.7886C42.6897 70.3675 41.7381 69.9754 40.7268 69.688C40.4374 69.5964 40.1499 69.5002 39.8659 69.393C39.3705 69.2061 38.8751 69.0621 38.3605 68.9385C38.2826 68.9194 38.2046 68.9004 38.1243 68.8807C37.8858 68.8225 37.6471 68.7649 37.4083 68.7076C37.2642 68.6726 37.12 68.6376 36.9759 68.6027C36.6482 68.5235 36.3202 68.446 35.9919 68.3696C35.8487 68.3361 35.7058 68.3018 35.5629 68.2674C33.4714 67.786 31.2543 67.5783 29.1094 67.5294C28.6752 67.5164 28.6752 67.5164 28.5088 67.35C28.5549 67.3485 28.6011 67.347 28.6486 67.3455C29.5007 67.3167 30.351 67.2805 31.2003 67.2039C31.2641 67.1982 31.3279 67.1926 31.3936 67.1868C31.9188 67.1369 32.4378 67.0558 32.9586 66.9729C33.1228 66.9476 33.2871 66.9225 33.4514 66.8975C33.5327 66.885 33.6139 66.8726 33.6976 66.8598C33.862 66.8346 34.0264 66.8094 34.1908 66.7843C35.3029 66.6205 35.3029 66.6205 36.3996 66.379C36.7123 66.2976 37.0246 66.2184 37.3412 66.1533C38.7556 65.8623 40.1277 65.4128 41.4763 64.9003C41.7363 64.8017 41.9984 64.714 42.2635 64.6302C42.6589 64.5009 43.0288 64.3338 43.4042 64.1555C43.6975 64.0178 43.9933 63.8872 44.2904 63.7581C44.4354 63.6951 44.5804 63.6321 44.7253 63.5688C44.8263 63.5247 44.9275 63.481 45.0288 63.4376C48.2899 62.0212 51.3726 59.9746 54.0685 57.6683C54.2892 57.48 54.5146 57.2981 54.7408 57.1164C55.0371 56.8755 55.3108 56.6245 55.5736 56.3475C55.7142 56.2088 55.8579 56.081 56.0076 55.9524C56.388 55.6221 56.7423 55.2673 57.0977 54.9104C57.1625 54.8459 57.2273 54.7814 57.294 54.7149C57.6297 54.3788 57.9545 54.0378 58.264 53.6774C58.4041 53.5144 58.5499 53.3571 58.6956 53.1993C59.0382 52.8196 59.3523 52.4216 59.6655 52.0176C59.8493 51.7808 60.037 51.5473 60.2258 51.3145C60.9745 50.3892 61.6469 49.416 62.2969 48.4196C62.3309 48.3679 62.3649 48.3161 62.3999 48.2628C63.3593 46.7976 64.2198 45.2655 64.9423 43.6697C65.0067 43.5289 65.0738 43.3893 65.1411 43.2498C65.7694 41.9459 66.3122 40.59 66.7716 39.2175C66.8246 39.0601 66.8791 38.9032 66.9338 38.7464C67.4045 37.3827 67.7532 35.9902 68.0616 34.5819C68.1003 34.409 68.1415 34.237 68.1841 34.065C68.448 32.9817 68.5729 31.8766 68.7076 30.7713C68.7202 30.6703 68.7202 30.6703 68.733 30.5673C68.8574 29.5572 68.9326 28.5428 69.0093 27.5283Z" fill="#D92735"/>
<path d="M152.574 26.5478C152.599 26.5478 152.624 26.5478 152.65 26.5478C152.652 26.6254 152.652 26.6254 152.653 26.7045C152.702 28.7829 152.883 30.8361 153.253 32.8831C153.27 32.9764 153.287 33.0698 153.304 33.166C153.513 34.3373 153.758 35.4869 154.106 36.6259C154.176 36.8648 154.237 37.1056 154.297 37.3471C154.487 38.1033 154.732 38.8324 154.998 39.5649C155.061 39.74 155.122 39.9157 155.182 40.0919C155.374 40.6555 155.583 41.1978 155.841 41.7355C155.97 42.0133 156.089 42.2939 156.208 42.5765C156.519 43.3203 156.866 44.0314 157.253 44.7386C157.353 44.926 157.446 45.117 157.538 45.3085C158.155 46.5495 158.893 47.722 159.664 48.8721C159.7 48.9256 159.735 48.9792 159.772 49.0344C160.505 50.1318 161.305 51.1791 162.153 52.1906C162.185 52.2294 162.218 52.2683 162.251 52.3083C162.71 52.8575 163.178 53.397 163.661 53.9252C163.728 53.9985 163.794 54.0718 163.862 54.1474C164.293 54.6217 164.736 55.0832 165.188 55.5373C165.237 55.5866 165.286 55.6359 165.337 55.6867C165.628 55.9773 165.928 56.2535 166.24 56.5225C166.409 56.6688 166.574 56.8194 166.739 56.9703C167.135 57.3271 167.545 57.6638 167.96 57.9979C168.046 58.0677 168.131 58.1375 168.216 58.2074C170.58 60.1309 173.214 61.8159 175.962 63.1332C176.109 63.2034 176.255 63.2747 176.401 63.3459C177.031 63.6507 177.671 63.9303 178.316 64.2012C178.39 64.2323 178.464 64.2634 178.54 64.2954C178.983 64.4794 179.429 64.6395 179.886 64.7877C180.087 64.8559 180.283 64.9314 180.48 65.0123C180.899 65.1833 181.326 65.3229 181.757 65.4598C181.84 65.486 181.922 65.5122 182.007 65.5392C183.03 65.8608 184.057 66.1271 185.108 66.3407C185.435 66.4072 185.757 66.4811 186.08 66.5675C186.509 66.6787 186.94 66.7331 187.379 66.787C187.595 66.8155 187.804 66.8513 188.017 66.8975C188.542 67.0075 189.074 67.0646 189.606 67.1237C189.664 67.1303 189.723 67.137 189.783 67.1438C190.904 67.2679 192.024 67.317 193.15 67.35C192.935 67.565 192.78 67.5267 192.478 67.5379C192.368 67.5427 192.258 67.5475 192.147 67.5524C192.089 67.5547 192.03 67.557 191.97 67.5594C190.957 67.6007 189.952 67.6733 188.946 67.7978C188.848 67.8097 188.75 67.8216 188.649 67.8338C188.052 67.9103 187.462 68.0105 186.871 68.125C186.576 68.182 186.281 68.2353 185.986 68.288C185.426 68.391 184.876 68.5262 184.326 68.6693C184.177 68.7071 184.028 68.7429 183.879 68.778C183.216 68.9352 182.574 69.1331 181.93 69.3539C181.668 69.4434 181.405 69.525 181.14 69.6032C180.687 69.7408 180.242 69.8991 179.796 70.0604C179.729 70.0848 179.661 70.1093 179.591 70.1344C179.076 70.3226 178.571 70.5294 178.066 70.7439C177.955 70.7912 177.955 70.7912 177.841 70.8394C176.846 71.2644 175.872 71.7112 174.923 72.2317C174.741 72.3315 174.558 72.4295 174.375 72.5274C173.493 73.0013 172.645 73.5159 171.807 74.0624C171.75 74.099 171.693 74.1356 171.635 74.1734C169.712 75.4222 167.899 76.8252 166.219 78.3863C166.055 78.5365 165.889 78.6821 165.721 78.8268C165.33 79.1679 164.965 79.5351 164.599 79.9027C164.531 79.9708 164.462 80.0389 164.392 80.1091C164.048 80.4538 163.713 80.8026 163.396 81.1724C163.244 81.3491 163.085 81.5187 162.926 81.6892C162.568 82.0819 162.24 82.4923 161.915 82.9127C161.773 83.0963 161.628 83.2773 161.481 83.4566C160.921 84.1394 160.417 84.8511 159.927 85.5854C159.828 85.7323 159.728 85.8781 159.628 86.0235C158.551 87.5868 157.644 89.2601 156.798 90.9564C156.749 91.0531 156.749 91.0531 156.7 91.1518C155.013 94.5363 153.945 98.1858 153.253 101.892C153.239 101.966 153.225 102.04 153.211 102.116C152.853 104.052 152.722 106.035 152.65 108.001C152.499 107.85 152.499 107.85 152.481 107.682C152.481 107.611 152.481 107.539 152.481 107.466C152.48 107.384 152.479 107.301 152.478 107.217C152.477 107.126 152.476 107.035 152.475 106.941C152.455 105.973 152.364 105.021 152.245 104.061C152.237 103.996 152.229 103.931 152.22 103.865C152.015 102.204 151.695 100.575 151.292 98.9509C151.274 98.8766 151.256 98.8023 151.237 98.7257C150.705 96.601 149.967 94.5522 149.105 92.5402C149.075 92.4707 149.046 92.4011 149.015 92.3295C148.641 91.4606 148.225 90.6191 147.774 89.7875C147.667 89.589 147.561 89.3898 147.455 89.1905C146.051 86.5624 144.316 84.0442 142.317 81.8306C142.263 81.7705 142.209 81.7104 142.154 81.6485C142.043 81.5252 141.931 81.4021 141.82 81.2791C141.724 81.1719 141.628 81.0643 141.535 80.9545C141.126 80.4742 140.681 80.0315 140.234 79.5865C140.097 79.4505 139.961 79.314 139.825 79.1775C139.387 78.7385 138.946 78.3085 138.471 77.9088C138.387 77.8363 138.304 77.7637 138.221 77.6911C135.698 75.5092 132.925 73.6367 129.959 72.1105C129.806 72.0303 129.654 71.9478 129.502 71.864C128.912 71.5386 128.315 71.2685 127.689 71.019C127.422 70.912 127.163 70.7929 126.903 70.6685C125.445 69.9863 123.866 69.524 122.326 69.0658C122.243 69.041 122.16 69.0161 122.074 68.9905C120.915 68.6498 119.745 68.4076 118.56 68.1796C118.49 68.1659 118.42 68.1521 118.348 68.138C116.255 67.73 114.129 67.531 111.999 67.5008C111.999 67.451 111.999 67.4013 111.999 67.35C112.049 67.3493 112.099 67.3486 112.15 67.3478C114.307 67.3106 116.441 67.0685 118.56 66.6712C118.629 66.6584 118.698 66.6455 118.769 66.6323C119.428 66.5081 120.082 66.3783 120.726 66.1916C120.887 66.1465 121.046 66.1106 121.209 66.0773C124.851 65.2814 128.554 63.6622 131.759 61.7689C131.825 61.7297 131.892 61.6904 131.96 61.65C133.967 60.4618 135.86 59.1257 137.641 57.6208C137.687 57.5821 137.734 57.5435 137.781 57.5036C138.799 56.6505 139.756 55.7392 140.696 54.802C140.766 54.732 140.836 54.6621 140.909 54.5901C141.293 54.2045 141.662 53.8116 142.016 53.3973C142.094 53.3074 142.173 53.2177 142.253 53.128C142.762 52.5469 143.254 51.9563 143.724 51.3427C143.824 51.2129 143.924 51.0841 144.025 50.9553C145.12 49.5433 146.128 48.0217 146.993 46.4587C147.028 46.397 147.062 46.3353 147.098 46.2718C147.9 44.8352 148.652 43.3818 149.271 41.856C149.35 41.6623 149.433 41.4704 149.515 41.2782C150.222 39.5676 150.833 37.816 151.232 36.0068C151.282 35.794 151.34 35.5957 151.415 35.3908C151.538 35.0455 151.583 34.694 151.634 34.332C151.697 33.9008 151.783 33.4775 151.893 33.056C151.979 32.7152 152.034 32.3727 152.084 32.0252C152.098 31.9384 152.098 31.9384 152.111 31.8499C152.289 30.6517 152.379 29.4588 152.428 28.2495C152.437 28.0403 152.446 27.8312 152.455 27.6221C152.461 27.4935 152.466 27.3649 152.471 27.2363C152.482 26.9908 152.496 26.7822 152.574 26.5478Z" fill="#FEFEFE"/>
<path d="M71.9507 25.7182C97.7103 25.7182 123.47 25.7182 150.01 25.7182C150.01 25.7431 150.01 25.768 150.01 25.7936C149.88 25.7988 149.88 25.7988 149.747 25.804C148.872 25.8421 148.012 25.9251 147.144 26.0434C147.082 26.0518 147.019 26.0602 146.955 26.0688C146.108 26.1824 145.272 26.3142 144.44 26.5113C144.194 26.567 143.946 26.6133 143.698 26.6607C143.122 26.7713 142.56 26.8979 141.998 27.0675C141.785 27.1304 141.572 27.1889 141.357 27.2443C140.531 27.4586 139.721 27.7072 138.914 27.9855C138.779 28.0321 138.779 28.0321 138.641 28.0795C138.143 28.2536 137.654 28.4424 137.168 28.6486C136.935 28.7466 136.699 28.8365 136.462 28.9252C135.8 29.1736 135.172 29.4651 134.545 29.791C134.402 29.8646 134.258 29.9361 134.113 30.0068C131.311 31.3787 128.646 33.0639 126.253 35.0703C126.115 35.1819 125.977 35.2934 125.838 35.405C125.483 35.6954 125.142 35.9992 124.805 36.3106C124.695 36.4107 124.585 36.5106 124.472 36.6068C123.98 37.0253 123.527 37.4829 123.072 37.9401C122.93 38.082 122.788 38.2236 122.646 38.365C122.198 38.8128 121.76 39.2627 121.351 39.7463C121.244 39.8628 121.137 39.9791 121.03 40.0951C120.65 40.5168 120.303 40.9606 119.957 41.4096C119.84 41.5591 119.722 41.7068 119.603 41.8542C118.015 43.8335 116.617 46.0548 115.481 48.3193C115.397 48.4863 115.312 48.6526 115.226 48.8188C114.905 49.4475 114.61 50.0852 114.335 50.7353C114.255 50.9221 114.174 51.1081 114.092 51.2941C113.696 52.2096 113.35 53.1379 113.026 54.0808C113.007 54.136 112.988 54.1912 112.968 54.2481C112.714 54.9885 112.493 55.7302 112.3 56.4895C112.278 56.5756 112.256 56.6617 112.232 56.7504C111.794 58.4387 111.46 60.1138 111.244 61.8444C111.234 61.9301 111.234 61.9301 111.223 62.0175C111.184 62.3307 111.148 62.6442 111.113 62.9579C111.095 63.1157 111.075 63.2731 111.055 63.4306C110.912 64.602 110.916 65.7757 110.919 66.9538C110.919 67.1257 110.919 67.2976 110.92 67.4695C110.927 71.6055 111.479 75.6192 112.668 79.5875C112.718 79.755 112.768 79.9226 112.816 80.0907C112.902 80.3891 112.998 80.6773 113.116 80.9645C113.263 81.3279 113.395 81.6953 113.526 82.065C113.759 82.7291 113.994 83.383 114.303 84.0163C114.408 84.2364 114.505 84.4585 114.601 84.6831C114.839 85.2417 115.105 85.7763 115.396 86.309C115.534 86.5612 115.659 86.8182 115.784 87.077C116.388 88.2945 117.126 89.4504 117.881 90.5794C117.915 90.6297 117.949 90.68 117.983 90.7318C118.792 91.9366 119.669 93.0842 120.597 94.1995C120.634 94.2444 120.671 94.2893 120.71 94.3355C121.597 95.3986 122.556 96.3916 123.533 97.3719C123.57 97.4091 123.607 97.4463 123.645 97.4846C124.074 97.9146 124.508 98.3314 124.971 98.7247C125.053 98.7963 125.134 98.868 125.216 98.9398C125.844 99.4873 126.495 99.9965 127.161 100.497C127.293 100.598 127.423 100.699 127.553 100.803C129.295 102.18 131.29 103.45 133.281 104.433C133.33 104.457 133.378 104.481 133.428 104.505C133.6 104.59 133.773 104.674 133.946 104.758C134.02 104.794 134.093 104.83 134.17 104.867C134.415 104.987 134.661 105.106 134.907 105.225C134.985 105.263 135.063 105.3 135.143 105.339C135.839 105.674 136.544 105.981 137.274 106.234C137.568 106.336 137.859 106.444 138.147 106.561C138.566 106.73 138.99 106.875 139.419 107.016C139.498 107.043 139.578 107.069 139.66 107.096C141.405 107.669 143.171 108.094 144.976 108.435C145.065 108.452 145.065 108.452 145.156 108.469C146.289 108.682 147.415 108.851 148.563 108.954C148.675 108.964 148.787 108.974 148.899 108.984C149.169 109.009 149.439 109.033 149.709 109.057C149.709 109.082 149.709 109.107 149.709 109.133C124.024 109.133 98.3386 109.133 71.8752 109.133C71.8752 109.108 71.8752 109.083 71.8752 109.057C71.9625 109.05 72.0497 109.042 72.1395 109.035C74.0541 108.866 76.0053 108.667 77.8761 108.214C78.0775 108.166 78.279 108.12 78.4813 108.076C78.5417 108.063 78.6022 108.05 78.6645 108.036C78.783 108.011 78.9015 107.985 79.0201 107.96C79.3367 107.89 79.6379 107.804 79.9452 107.7C80.1414 107.649 80.3375 107.601 80.5344 107.554C80.9749 107.445 81.4035 107.325 81.8307 107.172C81.9137 107.144 81.9967 107.115 82.0823 107.086C84.0843 106.402 86.0948 105.629 87.9532 104.612C88.2135 104.47 88.4784 104.34 88.7457 104.212C90.4465 103.366 92.0981 102.315 93.6099 101.166C93.7557 101.056 93.9027 100.948 94.0499 100.839C94.6199 100.419 95.1716 99.9843 95.7079 99.5216C95.9137 99.3456 96.1231 99.1761 96.3349 99.0075C97.2255 98.2785 98.0376 97.4587 98.8535 96.6482C98.9393 96.5631 99.0251 96.4781 99.1111 96.3932C99.5907 95.919 100.044 95.4405 100.463 94.9106C100.615 94.7214 100.775 94.5428 100.94 94.3645C101.36 93.9024 101.741 93.4136 102.119 92.9174C102.158 92.8652 102.198 92.813 102.239 92.7592C103.225 91.4589 104.157 90.1088 104.973 88.6946C105.075 88.5176 105.178 88.3412 105.281 88.1647C105.902 87.0948 106.461 86.0139 106.956 84.8805C107.098 84.5556 107.248 84.2384 107.412 83.9235C107.609 83.537 107.756 83.1445 107.896 82.7345C107.971 82.5161 108.053 82.3011 108.138 82.0864C108.562 81.0139 108.894 79.9233 109.208 78.8138C109.228 78.7452 109.247 78.6765 109.267 78.6057C109.376 78.2233 109.484 77.8407 109.585 77.4563C109.603 77.3919 109.62 77.3276 109.638 77.2612C109.806 76.614 109.926 75.9601 110.042 75.3021C110.062 75.1933 110.081 75.0846 110.101 74.9758C110.139 74.7657 110.176 74.5555 110.213 74.3453C110.244 74.1763 110.275 74.0074 110.307 73.8388C110.416 73.2737 110.477 72.7071 110.533 72.1345C110.542 72.0417 110.552 71.9489 110.561 71.8533C110.703 70.4205 110.731 68.9947 110.73 67.5556C110.73 67.3442 110.731 67.1328 110.732 66.9214C110.741 65.1075 110.667 63.3137 110.387 61.5191C110.37 61.4095 110.353 61.2999 110.337 61.1903C110.208 60.3483 110.062 59.5103 109.887 58.6767C109.875 58.6177 109.862 58.5587 109.85 58.498C109.812 58.3217 109.774 58.1456 109.736 57.9697C109.725 57.9204 109.715 57.8712 109.704 57.8204C109.475 56.801 109.174 55.8023 108.859 54.8067C108.84 54.7445 108.82 54.6822 108.8 54.6181C108.342 53.1729 107.841 51.7441 107.17 50.382C107.085 50.2056 107.002 50.028 106.919 49.8502C105.458 46.7216 103.662 43.754 101.44 41.1039C101.328 40.9656 101.217 40.8274 101.105 40.6891C100.815 40.3337 100.511 39.993 100.2 39.6559C100.1 39.5465 100 39.4369 99.9047 39.324C99.4764 38.8197 99.0061 38.357 98.5378 37.8903C98.3904 37.7433 98.2434 37.5959 98.0965 37.4485C97.6399 36.9917 97.1829 36.5423 96.6884 36.1262C96.5976 36.0465 96.507 35.9667 96.4165 35.8866C95.8603 35.3984 95.2956 34.93 94.7029 34.4866C94.5739 34.3894 94.4463 34.2906 94.3189 34.1915C92.9505 33.1351 91.4864 32.1933 89.9939 31.3231C89.8082 31.2138 89.6241 31.102 89.4398 30.9902C88.9303 30.6842 88.3985 30.4277 87.8643 30.168C87.7648 30.1193 87.7648 30.1193 87.6633 30.0697C86.297 29.4027 84.9173 28.8056 83.4899 28.2825C83.3907 28.245 83.2915 28.2075 83.1924 28.1699C82.1286 27.7707 81.0396 27.4539 79.9452 27.1512C79.8693 27.1299 79.8693 27.1299 79.7918 27.1082C79.1946 26.941 78.5934 26.795 77.989 26.6562C77.9243 26.6413 77.8597 26.6264 77.7931 26.611C76.7421 26.3735 75.6907 26.2022 74.6218 26.0721C74.4247 26.0481 74.2277 26.0234 74.0308 25.9987C73.3381 25.9126 72.6474 25.8375 71.9507 25.7936C71.9507 25.7687 71.9507 25.7438 71.9507 25.7182Z" fill="#D0D0D0"/>
<path d="M126.889 124.038C126.981 124.038 127.073 124.038 127.167 124.038C127.995 124.048 128.77 124.17 129.571 124.368C129.648 124.385 129.724 124.402 129.803 124.419C131.142 124.747 132.446 125.302 133.54 126.145C133.583 126.177 133.626 126.21 133.67 126.244C134.049 126.548 134.318 126.871 134.491 127.328C134.464 127.775 134.222 128.076 133.974 128.44C133.927 128.513 133.879 128.585 133.83 128.659C133.575 129.045 133.312 129.424 133.041 129.798C132.75 129.695 132.535 129.562 132.291 129.374C131.466 128.764 130.605 128.34 129.647 127.988C129.587 127.964 129.527 127.94 129.465 127.915C128.122 127.409 126.493 127.506 125.122 127.837C125.055 127.851 124.988 127.866 124.919 127.881C123.968 128.121 123.122 128.693 122.407 129.345C122.353 129.392 122.3 129.439 122.245 129.488C120.066 131.526 119.288 135.041 119.172 137.895C119.094 140.491 119.124 143.084 119.993 145.561C120.01 145.61 120.027 145.66 120.044 145.711C120.735 147.73 121.895 149.402 123.84 150.387C125.855 151.292 128.272 151.228 130.319 150.46C131.256 150.089 132.096 149.572 132.89 148.954C133.15 149.062 133.275 149.187 133.439 149.415C133.484 149.477 133.529 149.538 133.575 149.602C133.621 149.667 133.667 149.732 133.715 149.798C133.761 149.861 133.807 149.925 133.854 149.99C133.944 150.114 134.033 150.239 134.122 150.364C134.202 150.475 134.283 150.584 134.366 150.693C134.627 151.038 134.627 151.038 134.601 151.33C133.936 152.709 131.994 153.499 130.632 153.987C128.643 154.664 126.272 154.914 124.22 154.421C124.055 154.382 123.89 154.347 123.725 154.312C121.265 153.758 119.097 152.185 117.739 150.07C116.41 147.944 115.722 145.62 115.392 143.147C115.379 143.055 115.365 142.964 115.35 142.869C115.206 141.829 115.212 140.787 115.213 139.739C115.213 139.642 115.213 139.544 115.213 139.444C115.216 138.013 115.265 136.635 115.543 135.228C115.57 135.079 115.597 134.929 115.623 134.78C116.089 132.321 117.053 129.82 118.711 127.912C118.765 127.85 118.819 127.787 118.875 127.723C119.044 127.532 119.216 127.345 119.39 127.158C119.466 127.074 119.466 127.074 119.544 126.989C120.76 125.707 122.453 124.785 124.169 124.396C124.234 124.38 124.299 124.365 124.365 124.349C125.209 124.153 126.021 124.036 126.889 124.038Z" fill="#7A7A7A"/>
<path fill-rule="evenodd" clip-rule="evenodd" d="M99.1018 124.292H94.8783C94.8514 124.346 94.833 124.383 94.8164 124.42C94.7811 124.5 94.7534 124.583 94.6671 124.842L94.6108 125.012C94.3692 125.741 94.1302 126.47 93.8917 127.2L93.6481 127.945C93.3619 128.82 93.0768 129.695 92.7949 130.571C92.5186 131.429 92.2405 132.287 91.9584 133.144L91.9072 133.299L91.8979 133.328C91.7475 133.784 91.5971 134.241 91.4464 134.698C91.343 135.011 91.2397 135.324 91.1368 135.637L91.087 135.788C90.8883 136.393 90.6922 136.998 90.5163 137.609C90.387 138.061 90.2423 138.505 90.0865 138.948C89.7162 139.996 89.3701 141.05 89.0332 142.109C88.6264 143.388 88.2164 144.666 87.7976 145.941C87.2658 147.56 86.7349 149.178 86.2098 150.799C86.1432 151.004 86.0765 151.21 86.0096 151.416C85.9304 151.658 85.8514 151.901 85.7728 152.144L85.6845 152.417C85.4468 153.143 85.2598 153.866 85.0737 154.611H88.543C88.6185 154.46 88.6185 154.46 88.6763 154.283L88.7455 154.057L88.8247 153.8C89.0949 152.919 89.3699 152.04 89.6507 151.163L89.7535 150.841C89.8925 150.406 90.0315 149.972 90.1709 149.537C90.2593 149.262 90.3477 148.986 90.4357 148.711L90.5364 148.396L90.6314 148.101L90.7208 147.82C90.7766 147.646 90.8297 147.471 90.8811 147.295L91.1073 146.39L102.42 146.466C102.486 146.675 102.552 146.885 102.618 147.095C102.875 147.914 103.132 148.733 103.372 149.558C103.556 150.189 103.764 150.81 103.974 151.433C104.134 151.908 104.293 152.384 104.451 152.86C104.511 153.038 104.551 153.161 104.592 153.283C104.682 153.553 104.772 153.822 105.06 154.686H108.982C108.854 154.259 108.725 153.832 108.59 153.407L108.531 153.219C108.461 153.001 108.391 152.783 108.322 152.565L108.247 152.329C107.678 150.549 107.095 148.772 106.51 146.997L106.286 146.32C106.234 146.163 106.183 146.005 106.131 145.848C105.967 145.352 105.805 144.856 105.652 144.357L105.65 144.35C105.573 144.1 105.497 143.849 105.417 143.6L105.332 143.339L105.174 142.853L105.117 142.676C104.801 141.705 104.483 140.735 104.164 139.766L104.051 139.422L103.994 139.248L103.701 138.36L103.641 138.179C103.145 136.674 102.651 135.168 102.17 133.658C101.717 132.234 101.257 130.812 100.792 129.392L100.742 129.241C100.2 127.59 99.6537 125.94 99.1018 124.292ZM96.9154 128.493C96.8391 128.289 96.8391 128.289 96.6883 128.214C96.5409 128.758 96.3803 129.296 96.1995 129.83C95.9919 130.441 95.7968 131.052 95.623 131.674C95.4971 132.124 95.3668 132.57 95.2176 133.013C95.0325 133.555 94.8589 134.101 94.6873 134.648C94.6341 134.818 94.5809 134.988 94.527 135.158C94.3558 135.695 94.1913 136.233 94.0388 136.776C93.8682 137.384 93.6866 137.986 93.4829 138.584C93.3027 139.113 93.1381 139.644 92.988 140.182C92.8474 140.687 92.6959 141.185 92.526 141.681C92.3468 142.191 92.22 142.693 92.0876 143.222H101.44C101.44 143.026 101.44 142.957 101.428 142.891C101.422 142.855 101.412 142.821 101.398 142.767L101.34 142.605L101.277 142.425C101.236 142.308 101.197 142.19 101.158 142.072L101.106 141.905L101.052 141.734L100.997 141.559L100.818 140.992L100.761 140.809C100.612 140.335 100.463 139.861 100.317 139.386C100.144 138.821 99.9685 138.256 99.7911 137.692L99.7428 137.538C99.4931 136.743 99.2419 135.948 98.9892 135.154L98.8467 134.706L98.7499 134.401L98.701 134.248L98.4534 133.47C98.4276 133.389 98.4018 133.308 98.376 133.227C98.0865 132.318 97.7969 131.409 97.5188 130.496L97.451 130.273L97.436 130.224C97.3404 129.91 97.2447 129.595 97.151 129.28C97.1164 129.164 97.0816 129.048 97.0465 128.931L96.9988 128.773L96.9154 128.493Z" fill="#7A7A7A"/>
<path d="M105.23 170.958C105.328 170.956 105.427 170.954 105.528 170.952C105.851 170.98 106.004 171.012 106.267 171.203C106.73 171.844 107.053 172.604 107.404 173.31C107.469 173.44 107.534 173.571 107.6 173.701C107.735 173.972 107.871 174.244 108.006 174.515C108.179 174.864 108.353 175.212 108.527 175.56C108.662 175.828 108.795 176.096 108.929 176.365C108.993 176.493 109.058 176.621 109.122 176.75C109.211 176.929 109.3 177.108 109.389 177.286C109.416 177.34 109.442 177.393 109.47 177.447C109.571 177.652 109.664 177.849 109.736 178.066C109.736 177.982 109.737 177.898 109.737 177.811C109.74 177.016 109.744 176.222 109.75 175.427C109.753 175.019 109.755 174.61 109.757 174.202C109.758 173.807 109.76 173.413 109.764 173.019C109.765 172.869 109.766 172.718 109.766 172.568C109.766 172.357 109.768 172.147 109.77 171.936C109.77 171.842 109.77 171.842 109.769 171.747C109.774 171.475 109.787 171.312 109.95 171.089C110.174 170.935 110.334 170.937 110.603 170.939C110.688 170.939 110.773 170.938 110.86 170.937C111.144 170.986 111.217 171.057 111.395 171.279C111.433 171.462 111.433 171.462 111.433 171.67C111.434 171.749 111.435 171.828 111.435 171.909C111.435 171.996 111.434 172.082 111.433 172.171C111.434 172.308 111.434 172.308 111.434 172.448C111.435 172.698 111.435 172.948 111.433 173.198C111.432 173.46 111.433 173.722 111.433 173.984C111.433 174.424 111.432 174.864 111.431 175.304C111.429 175.813 111.428 176.321 111.429 176.829C111.43 177.319 111.43 177.808 111.429 178.298C111.428 178.506 111.428 178.714 111.428 178.922C111.429 179.212 111.427 179.503 111.426 179.794C111.426 179.88 111.426 179.966 111.427 180.055C111.423 180.475 111.419 180.802 111.169 181.159C110.899 181.339 110.756 181.339 110.434 181.347C110.344 181.351 110.254 181.355 110.162 181.359C109.792 181.292 109.611 181.129 109.359 180.857C109.202 180.625 109.08 180.379 108.957 180.128C108.919 180.053 108.882 179.979 108.843 179.902C108.736 179.69 108.63 179.477 108.524 179.264C108.398 179.01 108.27 178.757 108.142 178.504C107.829 177.883 107.518 177.261 107.207 176.639C107.089 176.402 106.971 176.165 106.852 175.929C106.737 175.699 106.623 175.47 106.508 175.241C106.454 175.132 106.399 175.023 106.345 174.915C106.27 174.764 106.194 174.613 106.119 174.463C106.077 174.377 106.034 174.292 105.99 174.204C105.89 173.994 105.89 173.994 105.814 173.768C105.814 173.859 105.813 173.95 105.813 174.044C105.809 174.902 105.803 175.76 105.796 176.617C105.793 177.058 105.79 177.5 105.788 177.941C105.786 178.366 105.783 178.791 105.779 179.217C105.778 179.379 105.777 179.542 105.777 179.705C105.776 179.932 105.774 180.159 105.771 180.386C105.772 180.454 105.772 180.521 105.772 180.591C105.771 180.653 105.77 180.715 105.769 180.778C105.769 180.832 105.768 180.886 105.768 180.941C105.73 181.128 105.662 181.195 105.513 181.31C105.287 181.342 105.287 181.342 105.027 181.343C104.899 181.345 104.899 181.345 104.768 181.347C104.481 181.301 104.41 181.232 104.23 181.008C104.192 180.822 104.192 180.822 104.192 180.61C104.191 180.53 104.19 180.45 104.19 180.367C104.19 180.279 104.191 180.191 104.191 180.1C104.191 180.007 104.19 179.915 104.19 179.819C104.189 179.564 104.189 179.31 104.19 179.056C104.191 178.789 104.19 178.523 104.189 178.256C104.189 177.809 104.19 177.361 104.191 176.914C104.193 176.396 104.192 175.879 104.191 175.362C104.189 174.918 104.189 174.474 104.19 174.03C104.19 173.764 104.19 173.499 104.189 173.234C104.188 172.938 104.19 172.643 104.191 172.347C104.191 172.259 104.19 172.171 104.19 172.081C104.196 171.488 104.196 171.488 104.374 171.188C104.657 170.945 104.86 170.963 105.23 170.958Z" fill="#858585"/>
<path d="M70.6118 170.958C70.7102 170.956 70.8086 170.954 70.91 170.952C71.2333 170.98 71.3862 171.012 71.6489 171.203C72.1125 171.844 72.4349 172.604 72.7863 173.31C72.8514 173.44 72.9166 173.571 72.9817 173.701C73.1173 173.972 73.2528 174.244 73.3881 174.515C73.5615 174.864 73.7354 175.212 73.9095 175.56C74.0436 175.828 74.1775 176.096 74.3115 176.365C74.3756 176.493 74.4397 176.621 74.5039 176.75C74.5932 176.929 74.6823 177.108 74.7714 177.286C74.7979 177.34 74.8244 177.393 74.8517 177.447C74.9534 177.652 75.0458 177.849 75.1182 178.066C75.1184 177.982 75.1187 177.898 75.119 177.811C75.1218 177.016 75.1261 176.222 75.132 175.427C75.135 175.019 75.1374 174.61 75.1386 174.202C75.1397 173.807 75.1423 173.413 75.1459 173.019C75.1471 172.869 75.1477 172.718 75.1477 172.568C75.1479 172.357 75.1499 172.147 75.1524 171.936C75.1518 171.842 75.1518 171.842 75.1513 171.747C75.1562 171.475 75.1695 171.312 75.3324 171.089C75.5561 170.935 75.7158 170.937 75.9855 170.939C76.0703 170.939 76.1551 170.938 76.2424 170.937C76.5264 170.986 76.5993 171.057 76.7774 171.279C76.8152 171.462 76.8152 171.462 76.8152 171.67C76.8159 171.749 76.8167 171.828 76.8175 171.909C76.8167 171.996 76.816 172.082 76.8152 172.171C76.8159 172.308 76.8159 172.308 76.8165 172.448C76.8173 172.698 76.8167 172.948 76.8154 173.198C76.8144 173.46 76.8149 173.722 76.8152 173.984C76.8154 174.424 76.8143 174.864 76.8126 175.304C76.8106 175.813 76.8105 176.321 76.8113 176.829C76.8122 177.319 76.8117 177.808 76.8106 178.298C76.8102 178.506 76.8102 178.714 76.8106 178.922C76.811 179.212 76.8095 179.503 76.8079 179.794C76.8082 179.88 76.8086 179.966 76.8089 180.055C76.805 180.475 76.8011 180.802 76.5511 181.159C76.2809 181.339 76.1376 181.339 75.8158 181.347C75.726 181.351 75.6361 181.355 75.5436 181.359C75.174 181.292 74.9928 181.129 74.7411 180.857C74.5843 180.625 74.462 180.379 74.3389 180.128C74.3013 180.053 74.2638 179.979 74.225 179.902C74.118 179.69 74.0121 179.477 73.9065 179.264C73.7802 179.01 73.6521 178.757 73.5242 178.504C73.2111 177.883 72.9002 177.261 72.5896 176.639C72.4712 176.402 72.3526 176.165 72.2341 175.929C72.1194 175.699 72.0048 175.47 71.8903 175.241C71.8359 175.132 71.7815 175.023 71.727 174.915C71.6516 174.764 71.5764 174.613 71.5013 174.463C71.4587 174.377 71.416 174.292 71.3721 174.204C71.2718 173.994 71.2718 173.994 71.1963 173.768C71.1959 173.859 71.1954 173.95 71.195 174.044C71.1907 174.902 71.1852 175.76 71.1786 176.617C71.1752 177.058 71.1722 177.5 71.1702 177.941C71.1682 178.366 71.1652 178.791 71.1614 179.217C71.1601 179.379 71.1593 179.542 71.1588 179.705C71.1581 179.932 71.156 180.159 71.1535 180.386C71.1536 180.454 71.1537 180.521 71.1538 180.591C71.1529 180.653 71.152 180.715 71.151 180.778C71.1506 180.832 71.1503 180.886 71.1499 180.941C71.1119 181.128 71.0442 181.195 70.8947 181.31C70.6687 181.342 70.6687 181.342 70.4091 181.343C70.2809 181.345 70.2809 181.345 70.1502 181.347C69.8627 181.301 69.7918 181.232 69.6125 181.008C69.5745 180.822 69.5745 180.822 69.5742 180.61C69.5734 180.53 69.5725 180.45 69.5716 180.367C69.5722 180.279 69.5728 180.191 69.5735 180.1C69.5729 180.007 69.5724 179.915 69.5719 179.819C69.5708 179.564 69.571 179.31 69.572 179.056C69.5728 178.789 69.572 178.523 69.5716 178.256C69.571 177.809 69.5717 177.361 69.5732 176.914C69.5748 176.396 69.5743 175.879 69.5726 175.362C69.5713 174.918 69.5711 174.474 69.5719 174.03C69.5723 173.764 69.5724 173.499 69.5714 173.234C69.5704 172.938 69.5718 172.643 69.5735 172.347C69.5729 172.259 69.5723 172.171 69.5716 172.081C69.5779 171.488 69.5779 171.488 69.7564 171.188C70.0389 170.945 70.2426 170.963 70.6118 170.958Z" fill="#858585"/>
<path d="M88.7041 171.541C88.9704 171.758 89.0539 171.954 89.0909 172.291C89.1066 172.669 89.0898 172.933 88.8446 173.24C88.5218 173.219 88.312 173.177 88.0432 172.995C87.1461 172.407 86.1926 172.249 85.1475 172.455C84.4211 172.702 83.9018 173.251 83.5652 173.923C83.2276 174.632 83.1623 175.237 83.1645 176.011C83.1633 176.095 83.1621 176.178 83.1608 176.263C83.1603 177.253 83.4041 178.094 83.9564 178.915C84.5437 179.489 85.1849 179.752 85.9928 179.749C86.0531 179.751 86.1134 179.752 86.1756 179.753C86.6783 179.753 86.9734 179.654 87.487 179.499C87.487 178.628 87.487 177.757 87.487 176.86C86.8022 176.872 86.8022 176.872 86.1174 176.887C86.0323 176.888 85.9471 176.888 85.8593 176.889C85.7284 176.892 85.7284 176.892 85.5948 176.894C85.3753 176.86 85.3753 176.86 85.2336 176.719C85.132 176.526 85.1211 176.398 85.1254 176.181C85.1257 176.117 85.126 176.053 85.1263 175.988C85.1504 175.792 85.1951 175.668 85.2998 175.502C85.4695 175.417 85.5643 175.416 85.7526 175.413C85.8459 175.412 85.8459 175.412 85.9411 175.411C86.0084 175.41 86.0757 175.409 86.1451 175.409C86.2143 175.408 86.2835 175.408 86.3548 175.407C86.5014 175.406 86.6481 175.405 86.7947 175.405C87.0187 175.403 87.2426 175.4 87.4666 175.397C87.609 175.396 87.7514 175.395 87.8939 175.395C87.9942 175.393 87.9942 175.393 88.0965 175.391C88.4111 175.392 88.5751 175.4 88.8474 175.57C89.0778 175.817 89.0812 175.96 89.0854 176.291C89.0866 176.377 89.0878 176.463 89.0891 176.552C89.0924 176.946 89.0955 177.34 89.0973 177.735C89.0983 177.943 89.1004 178.151 89.1034 178.359C89.1079 178.659 89.1092 178.958 89.1103 179.258C89.1129 179.397 89.1129 179.397 89.1155 179.539C89.1137 180.259 89.1137 180.259 88.891 180.535C88.0281 181.284 86.7156 181.47 85.6076 181.398C84.4081 181.297 83.4 180.851 82.5847 179.952C81.4698 178.501 81.2787 176.697 81.4882 174.927C81.682 173.638 82.2868 172.51 83.2756 171.661C84.8398 170.519 87.0825 170.465 88.7041 171.541Z" fill="#858585"/>
<path d="M125.725 189.757C125.912 189.844 126.034 189.915 126.178 190.058C126.185 190.272 126.188 190.484 126.188 190.698C126.189 190.798 126.189 190.798 126.189 190.901C126.19 191.047 126.19 191.194 126.19 191.34C126.191 191.572 126.192 191.804 126.193 192.036C126.197 192.697 126.201 193.357 126.202 194.017C126.203 194.421 126.205 194.824 126.208 195.228C126.209 195.381 126.21 195.535 126.209 195.688C126.196 196.992 126.196 196.992 126.724 198.161C127.21 198.614 127.641 198.7 128.299 198.692C128.86 198.668 129.163 198.532 129.557 198.147C129.957 197.554 130.035 196.954 130.034 196.253C130.034 196.187 130.034 196.12 130.034 196.052C130.034 195.908 130.034 195.764 130.034 195.62C130.035 195.314 130.036 195.008 130.038 194.702C130.041 194.132 130.043 193.562 130.043 192.993C130.043 192.596 130.045 192.2 130.048 191.803C130.048 191.652 130.048 191.501 130.048 191.35C130.047 191.139 130.049 190.928 130.051 190.717C130.05 190.654 130.049 190.592 130.049 190.527C130.054 190.228 130.07 190.09 130.278 189.868C130.505 189.741 130.637 189.72 130.896 189.728C130.966 189.729 131.036 189.73 131.108 189.731C131.31 189.757 131.437 189.798 131.608 189.907C131.731 190.153 131.696 190.423 131.697 190.693C131.697 190.759 131.698 190.825 131.698 190.892C131.7 191.111 131.7 191.33 131.701 191.548C131.702 191.623 131.702 191.698 131.702 191.775C131.704 192.173 131.705 192.57 131.705 192.968C131.706 193.376 131.709 193.784 131.712 194.192C131.714 194.507 131.715 194.823 131.715 195.138C131.715 195.289 131.716 195.439 131.717 195.589C131.729 196.951 131.629 198.316 130.651 199.358C129.924 200.048 129.126 200.267 128.143 200.259C128.036 200.26 128.036 200.26 127.926 200.261C127.033 200.258 126.258 200.023 125.593 199.406C124.578 198.323 124.559 196.97 124.564 195.575C124.564 195.417 124.563 195.258 124.563 195.099C124.563 194.768 124.563 194.437 124.564 194.106C124.566 193.682 124.565 193.257 124.563 192.833C124.563 192.505 124.563 192.178 124.563 191.851C124.564 191.695 124.563 191.538 124.563 191.381C124.562 191.163 124.563 190.945 124.564 190.727C124.564 190.663 124.564 190.598 124.563 190.531C124.568 190.089 124.568 190.089 124.699 189.932C125.001 189.683 125.352 189.722 125.725 189.757Z" fill="#858585"/>
<path d="M97.2163 189.757C97.4034 189.844 97.5251 189.915 97.6688 190.058C97.6766 190.272 97.6796 190.484 97.6795 190.698C97.6799 190.798 97.6799 190.798 97.6803 190.901C97.6808 191.047 97.6812 191.194 97.6815 191.34C97.6821 191.572 97.6832 191.804 97.6846 192.036C97.6886 192.697 97.6922 193.357 97.6934 194.017C97.6941 194.421 97.6964 194.824 97.6995 195.228C97.7004 195.381 97.7008 195.535 97.7007 195.688C97.6868 196.992 97.6868 196.992 98.2156 198.161C98.7014 198.614 99.1322 198.7 99.7903 198.692C100.351 198.668 100.654 198.532 101.049 198.147C101.448 197.554 101.526 196.954 101.525 196.253C101.525 196.187 101.525 196.12 101.525 196.052C101.525 195.908 101.526 195.764 101.526 195.62C101.526 195.314 101.527 195.008 101.529 194.702C101.532 194.132 101.534 193.562 101.534 192.993C101.534 192.596 101.536 192.2 101.539 191.803C101.54 191.652 101.54 191.501 101.539 191.35C101.538 191.139 101.54 190.928 101.542 190.717C101.541 190.654 101.541 190.592 101.54 190.527C101.545 190.228 101.561 190.09 101.769 189.868C101.996 189.741 102.129 189.72 102.387 189.728C102.457 189.729 102.527 189.73 102.6 189.731C102.801 189.757 102.929 189.798 103.099 189.907C103.222 190.153 103.187 190.423 103.188 190.693C103.188 190.759 103.189 190.825 103.189 190.892C103.191 191.111 103.192 191.33 103.192 191.548C103.193 191.623 103.193 191.698 103.193 191.775C103.195 192.173 103.196 192.57 103.197 192.968C103.198 193.376 103.2 193.784 103.203 194.192C103.205 194.507 103.206 194.823 103.206 195.138C103.206 195.289 103.207 195.439 103.209 195.589C103.221 196.951 103.12 198.316 102.142 199.358C101.415 200.048 100.617 200.267 99.6344 200.259C99.5269 200.26 99.5269 200.26 99.4172 200.261C98.5239 200.258 97.7496 200.023 97.0843 199.406C96.0695 198.323 96.0502 196.97 96.0549 195.575C96.0548 195.417 96.0546 195.258 96.0543 195.099C96.0539 194.768 96.0544 194.437 96.0555 194.106C96.0568 193.682 96.056 193.257 96.0547 192.833C96.0539 192.505 96.0541 192.178 96.0547 191.851C96.0548 191.695 96.0547 191.538 96.0541 191.381C96.0536 191.163 96.0544 190.945 96.0557 190.727C96.0552 190.663 96.0548 190.598 96.0543 190.531C96.0591 190.089 96.0591 190.089 96.1905 189.932C96.492 189.683 96.8428 189.722 97.2163 189.757Z" fill="#858585"/>
<path d="M62.5391 189.786C62.6319 189.785 62.7248 189.784 62.8205 189.784C62.9211 189.785 63.0217 189.786 63.1224 189.787C63.2261 189.787 63.3299 189.787 63.4336 189.787C63.6506 189.787 63.8675 189.789 64.0844 189.791C64.3625 189.794 64.6405 189.794 64.9186 189.794C65.1326 189.794 65.3466 189.795 65.5606 189.796C65.6632 189.796 65.7657 189.797 65.8683 189.797C66.0114 189.797 66.1546 189.799 66.2977 189.8C66.4198 189.801 66.4198 189.801 66.5445 189.802C66.7466 189.832 66.7466 189.832 66.8858 189.933C67.0229 190.13 67.0056 190.307 67.0059 190.544C67.0074 190.629 67.0088 190.715 67.0103 190.803C66.9729 191.039 66.9729 191.039 66.868 191.203C66.5613 191.417 66.2647 191.378 65.8993 191.37C65.8244 191.369 65.7495 191.369 65.6724 191.369C65.4333 191.367 65.1944 191.363 64.9554 191.359C64.7933 191.358 64.6312 191.356 64.469 191.355C64.0717 191.352 63.6746 191.346 63.2773 191.34C63.2773 192.236 63.2773 193.132 63.2773 194.056C63.4925 194.052 63.7076 194.049 63.9293 194.045C64.1375 194.043 64.3456 194.041 64.5538 194.039C64.6986 194.037 64.8434 194.035 64.9881 194.033C65.1961 194.029 65.4041 194.027 65.6121 194.026C65.7093 194.024 65.7093 194.024 65.8085 194.021C66.2565 194.021 66.2565 194.021 66.4478 194.196C66.5383 194.397 66.5531 194.551 66.5534 194.772C66.5548 194.843 66.5563 194.914 66.5578 194.987C66.5077 195.255 66.439 195.327 66.2187 195.489C65.9941 195.53 65.7736 195.524 65.5458 195.518C65.4883 195.518 65.4308 195.517 65.3715 195.517C65.1574 195.515 64.9433 195.511 64.7292 195.507C64.2501 195.501 63.771 195.495 63.2773 195.489C63.2773 196.534 63.2773 197.579 63.2773 198.656C63.5306 198.653 63.7838 198.649 64.0448 198.646C64.2896 198.643 64.5345 198.641 64.7794 198.64C64.9498 198.638 65.1201 198.636 65.2905 198.633C65.5352 198.63 65.7798 198.628 66.0246 198.627C66.1391 198.624 66.1391 198.624 66.256 198.622C66.3624 198.622 66.3624 198.622 66.471 198.622C66.5335 198.621 66.5959 198.621 66.6603 198.62C66.8221 198.656 66.8221 198.656 66.9551 198.796C67.0776 199.009 67.081 199.166 67.0813 199.41C67.0828 199.488 67.0842 199.566 67.0857 199.646C67.0385 199.92 66.9629 199.994 66.7466 200.165C66.5382 200.203 66.5382 200.203 66.2961 200.204C66.1598 200.205 66.1598 200.205 66.0207 200.206C65.9228 200.206 65.8249 200.205 65.7241 200.205C65.6222 200.205 65.5204 200.205 65.4186 200.206C65.2054 200.206 64.9922 200.205 64.779 200.204C64.5063 200.202 64.2336 200.203 63.9609 200.205C63.7507 200.206 63.5405 200.206 63.3303 200.205C63.181 200.205 63.0317 200.206 62.8825 200.206C62.7458 200.205 62.7458 200.205 62.6064 200.204C62.5264 200.203 62.4464 200.203 62.364 200.203C62.0925 200.155 61.9659 200.052 61.7689 199.863C61.6748 199.675 61.6832 199.546 61.6819 199.336C61.6813 199.256 61.6806 199.176 61.6799 199.094C61.6796 199.007 61.6793 198.919 61.679 198.829C61.6783 198.736 61.6777 198.644 61.6771 198.549C61.6752 198.244 61.674 197.938 61.6729 197.632C61.6725 197.527 61.6721 197.421 61.6717 197.316C61.67 196.878 61.6686 196.44 61.6678 196.002C61.6666 195.374 61.664 194.747 61.6598 194.119C61.6568 193.678 61.6554 193.236 61.655 192.795C61.6547 192.531 61.6538 192.268 61.6513 192.004C61.6486 191.71 61.6489 191.416 61.6495 191.122C61.6483 191.035 61.647 190.947 61.6458 190.857C61.6503 190.274 61.6503 190.274 61.8555 189.966C62.1066 189.81 62.2445 189.785 62.5391 189.786Z" fill="#858585"/>
<path d="M124.157 170.931C124.25 170.93 124.343 170.929 124.439 170.928C124.539 170.93 124.64 170.931 124.741 170.932C124.844 170.932 124.948 170.932 125.052 170.932C125.269 170.932 125.486 170.934 125.703 170.936C125.981 170.939 126.259 170.939 126.537 170.939C126.751 170.939 126.965 170.94 127.179 170.941C127.281 170.941 127.384 170.942 127.486 170.942C127.63 170.942 127.773 170.943 127.916 170.945C128.038 170.946 128.038 170.946 128.163 170.947C128.365 170.977 128.365 170.977 128.504 171.078C128.641 171.275 128.624 171.452 128.624 171.689C128.626 171.774 128.627 171.86 128.628 171.948C128.591 172.184 128.591 172.184 128.486 172.347C128.18 172.562 127.883 172.523 127.518 172.515C127.443 172.514 127.368 172.514 127.291 172.514C127.052 172.512 126.813 172.508 126.574 172.504C126.411 172.503 126.249 172.501 126.087 172.5C125.69 172.497 125.293 172.491 124.895 172.485C124.895 173.381 124.895 174.277 124.895 175.201C125.111 175.197 125.326 175.194 125.547 175.19C125.756 175.188 125.964 175.186 126.172 175.184C126.317 175.182 126.462 175.18 126.606 175.178C126.814 175.174 127.022 175.172 127.23 175.171C127.328 175.169 127.328 175.169 127.427 175.166C127.875 175.166 127.875 175.166 128.066 175.341C128.156 175.542 128.171 175.696 128.172 175.917C128.173 175.988 128.174 176.059 128.176 176.131C128.126 176.4 128.057 176.471 127.837 176.633C127.612 176.675 127.392 176.669 127.164 176.663C127.106 176.663 127.049 176.662 126.99 176.662C126.776 176.66 126.561 176.656 126.347 176.652C125.868 176.646 125.389 176.64 124.895 176.633C124.895 177.679 124.895 178.724 124.895 179.801C125.149 179.798 125.402 179.794 125.663 179.791C125.908 179.788 126.153 179.786 126.398 179.785C126.568 179.783 126.738 179.781 126.909 179.778C127.153 179.775 127.398 179.773 127.643 179.772C127.757 179.769 127.757 179.769 127.874 179.767C127.981 179.767 127.981 179.767 128.089 179.767C128.152 179.766 128.214 179.766 128.278 179.765C128.44 179.801 128.44 179.801 128.573 179.941C128.696 180.154 128.699 180.311 128.699 180.555C128.701 180.633 128.702 180.711 128.704 180.791C128.657 181.065 128.581 181.139 128.365 181.31C128.156 181.348 128.156 181.348 127.914 181.349C127.778 181.35 127.778 181.35 127.639 181.351C127.541 181.351 127.443 181.35 127.342 181.35C127.24 181.35 127.139 181.35 127.037 181.35C126.824 181.351 126.61 181.35 126.397 181.349C126.124 181.347 125.852 181.348 125.579 181.35C125.369 181.351 125.159 181.351 124.948 181.35C124.799 181.35 124.65 181.351 124.501 181.351C124.364 181.35 124.364 181.35 124.225 181.349C124.145 181.348 124.065 181.348 123.982 181.348C123.711 181.3 123.584 181.197 123.387 181.008C123.293 180.82 123.301 180.691 123.3 180.481C123.299 180.401 123.299 180.321 123.298 180.239C123.298 180.152 123.297 180.064 123.297 179.974C123.297 179.881 123.296 179.789 123.295 179.694C123.293 179.389 123.292 179.083 123.291 178.777C123.291 178.671 123.29 178.566 123.29 178.461C123.288 178.023 123.287 177.585 123.286 177.147C123.285 176.519 123.282 175.892 123.278 175.264C123.275 174.823 123.274 174.381 123.273 173.94C123.273 173.676 123.272 173.413 123.269 173.149C123.267 172.855 123.267 172.561 123.268 172.267C123.266 172.18 123.265 172.092 123.264 172.002C123.268 171.419 123.268 171.419 123.474 171.111C123.725 170.955 123.863 170.93 124.157 170.931Z" fill="#858585"/>
<path d="M94.9697 170.931C95.0626 170.93 95.1555 170.929 95.2511 170.928C95.3518 170.93 95.4524 170.931 95.553 170.932C95.6568 170.932 95.7605 170.932 95.8643 170.932C96.0813 170.932 96.2982 170.934 96.5151 170.936C96.7932 170.939 97.0712 170.939 97.3492 170.939C97.5633 170.939 97.7773 170.94 97.9913 170.941C98.0939 170.941 98.1964 170.942 98.2989 170.942C98.4421 170.942 98.5852 170.943 98.7284 170.945C98.8505 170.946 98.8505 170.946 98.9751 170.947C99.1773 170.977 99.1773 170.977 99.3165 171.078C99.4536 171.275 99.4363 171.452 99.4366 171.689C99.438 171.774 99.4395 171.86 99.441 171.948C99.4036 172.184 99.4036 172.184 99.2986 172.347C98.992 172.562 98.6954 172.523 98.33 172.515C98.2551 172.514 98.1802 172.514 98.103 172.514C97.864 172.512 97.6251 172.508 97.3861 172.504C97.224 172.503 97.0618 172.501 96.8997 172.5C96.5024 172.497 96.1053 172.491 95.708 172.485C95.708 173.381 95.708 174.277 95.708 175.201C95.9231 175.197 96.1383 175.194 96.36 175.19C96.5681 175.188 96.7763 175.186 96.9845 175.184C97.1293 175.182 97.274 175.18 97.4188 175.178C97.6268 175.174 97.8347 175.172 98.0428 175.171C98.14 175.169 98.14 175.169 98.2392 175.166C98.6871 175.166 98.6871 175.166 98.8785 175.341C98.969 175.542 98.9837 175.696 98.984 175.917C98.9855 175.988 98.987 176.059 98.9885 176.131C98.9383 176.4 98.8697 176.471 98.6494 176.633C98.4248 176.675 98.2042 176.669 97.9765 176.663C97.919 176.663 97.8614 176.662 97.8022 176.662C97.588 176.66 97.3739 176.656 97.1598 176.652C96.6807 176.646 96.2016 176.64 95.708 176.633C95.708 177.679 95.708 178.724 95.708 179.801C95.9613 179.798 96.2145 179.794 96.4754 179.791C96.7203 179.788 96.9652 179.786 97.21 179.785C97.3804 179.783 97.5508 179.781 97.7212 179.778C97.9659 179.775 98.2105 179.773 98.4552 179.772C98.5698 179.769 98.5698 179.769 98.6866 179.767C98.7931 179.767 98.7931 179.767 98.9016 179.767C98.9641 179.766 99.0266 179.766 99.0909 179.765C99.2527 179.801 99.2527 179.801 99.3858 179.941C99.5083 180.154 99.5117 180.311 99.512 180.555C99.5134 180.633 99.5149 180.711 99.5164 180.791C99.4691 181.065 99.3935 181.139 99.1773 181.31C98.9689 181.348 98.9689 181.348 98.7267 181.349C98.5904 181.35 98.5904 181.35 98.4514 181.351C98.3535 181.351 98.2556 181.35 98.1547 181.35C98.0529 181.35 97.9511 181.35 97.8493 181.35C97.6361 181.351 97.4229 181.35 97.2097 181.349C96.9369 181.347 96.6643 181.348 96.3916 181.35C96.1813 181.351 95.9711 181.351 95.7609 181.35C95.6116 181.35 95.4624 181.351 95.3131 181.351C95.1765 181.35 95.1765 181.35 95.037 181.349C94.9571 181.348 94.8771 181.348 94.7947 181.348C94.5232 181.3 94.3966 181.197 94.1996 181.008C94.1054 180.82 94.1138 180.691 94.1126 180.481C94.1119 180.401 94.1113 180.321 94.1106 180.239C94.1103 180.152 94.11 180.064 94.1096 179.974C94.109 179.881 94.1084 179.789 94.1078 179.694C94.1059 179.389 94.1046 179.083 94.1035 178.777C94.1031 178.671 94.1027 178.566 94.1023 178.461C94.1007 178.023 94.0993 177.585 94.0984 177.147C94.0972 176.519 94.0947 175.892 94.0904 175.264C94.0875 174.823 94.086 174.381 94.0856 173.94C94.0853 173.676 94.0844 173.413 94.082 173.149C94.0793 172.855 94.0796 172.561 94.0802 172.267C94.0789 172.18 94.0777 172.092 94.0764 172.002C94.081 171.419 94.081 171.419 94.2862 171.111C94.5372 170.955 94.6752 170.93 94.9697 170.931Z" fill="#858585"/>
<path d="M74.5903 190.285C74.7787 190.473 74.8146 190.57 74.8466 190.839C74.846 190.931 74.8455 191.024 74.8449 191.119C74.8457 191.258 74.8457 191.258 74.8466 191.4C74.8166 191.642 74.8166 191.642 74.7252 191.788C74.5377 191.9 74.4289 191.899 74.2132 191.868C74.0247 191.775 74.0247 191.775 73.8361 191.652C73.2334 191.262 72.7431 191.197 72.026 191.265C71.7565 191.356 71.6163 191.517 71.4321 191.732C71.2703 192.136 71.2858 192.532 71.4557 192.934C71.8153 193.548 72.4978 193.859 73.1149 194.159C74.1003 194.656 74.8517 195.239 75.2703 196.295C75.5042 197.081 75.3595 198.001 75.0095 198.733C74.5886 199.448 74.0184 199.895 73.2375 200.173C72.3533 200.401 71.1719 200.39 70.3668 199.938C70.2803 199.891 70.2803 199.891 70.1921 199.842C69.8613 199.647 69.5871 199.485 69.4618 199.109C69.4509 198.96 69.4451 198.81 69.4429 198.661C69.44 198.543 69.44 198.543 69.437 198.423C69.4645 198.18 69.5248 198.08 69.688 197.902C70.0497 197.941 70.286 198.044 70.5931 198.237C71.2828 198.667 71.9112 198.735 72.7048 198.656C73.0466 198.537 73.2414 198.37 73.4543 198.081C73.6698 197.599 73.6909 197.139 73.5062 196.643C73.1191 196.075 72.4305 195.799 71.8375 195.498C71.0348 195.089 70.2672 194.573 69.9001 193.711C69.8635 193.627 69.8635 193.627 69.8262 193.541C69.5824 192.902 69.544 191.953 69.82 191.322C69.8737 191.226 69.9301 191.131 69.9897 191.039C70.0333 190.961 70.0768 190.883 70.1217 190.803C70.6232 190.162 71.1737 189.891 71.9553 189.7C72.8673 189.622 73.8378 189.71 74.5903 190.285Z" fill="#858585"/>
<path d="M112.658 190.377C112.881 190.551 113.028 190.7 113.13 190.963C113.153 191.18 113.153 191.18 113.154 191.416C113.155 191.494 113.156 191.571 113.157 191.652C113.126 191.9 113.092 192.005 112.904 192.17C112.64 192.211 112.501 192.199 112.268 192.065C112.211 192.019 112.153 191.973 112.093 191.925C111.393 191.412 110.761 191.227 109.887 191.34C109.329 191.505 108.919 191.835 108.605 192.321C108.169 193.181 108.051 193.941 108.053 194.895C108.052 194.987 108.051 195.08 108.05 195.176C108.049 196.149 108.151 197.255 108.842 198.002C109.467 198.581 109.98 198.634 110.805 198.615C111.426 198.576 111.885 198.277 112.366 197.907C112.602 197.751 112.602 197.751 112.857 197.756C113.055 197.827 113.055 197.827 113.13 197.977C113.141 198.136 113.147 198.295 113.149 198.453C113.151 198.539 113.153 198.624 113.155 198.712C113.122 199.039 113.012 199.227 112.781 199.457C111.785 200.212 110.716 200.312 109.51 200.24C109.236 200.199 109.007 200.129 108.756 200.014C108.687 199.982 108.618 199.951 108.548 199.919C107.516 199.403 106.947 198.558 106.583 197.482C106.33 196.71 106.242 195.961 106.248 195.149C106.247 195.07 106.247 194.991 106.246 194.909C106.247 194.382 106.307 193.891 106.418 193.377C106.433 193.297 106.448 193.217 106.463 193.135C106.682 192.157 107.133 191.357 107.851 190.662C107.894 190.618 107.937 190.574 107.982 190.528C109.232 189.347 111.302 189.425 112.658 190.377Z" fill="#858585"/>
<path d="M115.516 189.785C115.633 189.783 115.75 189.784 115.866 189.786C115.93 189.785 115.993 189.785 116.059 189.784C116.27 189.783 116.48 189.785 116.691 189.787C116.837 189.787 116.984 189.787 117.13 189.787C117.436 189.787 117.743 189.789 118.05 189.791C118.443 189.794 118.836 189.794 119.23 189.794C119.532 189.794 119.834 189.795 120.136 189.796C120.281 189.796 120.426 189.797 120.571 189.797C120.774 189.797 120.976 189.798 121.179 189.8C121.269 189.8 121.269 189.8 121.361 189.8C121.764 189.806 121.764 189.806 121.953 189.933C122.075 190.133 122.059 190.313 122.058 190.544C122.059 190.672 122.059 190.672 122.06 190.803C122.026 191.069 121.997 191.158 121.803 191.34C121.604 191.367 121.436 191.376 121.237 191.37C121.182 191.369 121.127 191.369 121.07 191.369C120.895 191.367 120.72 191.363 120.545 191.359C120.426 191.358 120.307 191.356 120.188 191.355C119.897 191.352 119.606 191.347 119.314 191.34C119.315 191.385 119.315 191.429 119.315 191.474C119.324 192.547 119.33 193.619 119.334 194.692C119.336 195.21 119.338 195.729 119.343 196.248C119.347 196.748 119.349 197.248 119.35 197.749C119.351 197.94 119.352 198.131 119.354 198.322C119.357 198.589 119.357 198.856 119.357 199.123C119.359 199.203 119.36 199.283 119.361 199.365C119.36 199.563 119.356 199.744 119.314 199.938C119.055 200.176 118.826 200.197 118.48 200.198C118.364 200.2 118.364 200.2 118.246 200.202C118.032 200.165 118.032 200.165 117.87 200.062C117.648 199.745 117.691 199.425 117.696 199.046C117.696 198.963 117.696 198.88 117.696 198.794C117.696 198.519 117.699 198.244 117.701 197.969C117.702 197.779 117.702 197.588 117.702 197.397C117.703 196.947 117.706 196.496 117.709 196.045C117.712 195.532 117.714 195.019 117.715 194.506C117.718 193.451 117.724 192.396 117.731 191.34C117.656 191.342 117.582 191.344 117.506 191.346C117.23 191.353 116.955 191.358 116.68 191.361C116.56 191.363 116.441 191.366 116.322 191.369C116.151 191.373 115.98 191.376 115.808 191.377C115.728 191.38 115.728 191.38 115.647 191.383C115.496 191.383 115.496 191.383 115.242 191.34C115.04 191.094 114.984 190.902 114.987 190.586C114.987 190.524 114.986 190.462 114.985 190.398C115.045 190.023 115.128 189.852 115.516 189.785Z" fill="#848484"/>
<path d="M77.6556 189.785C77.7721 189.783 77.8887 189.784 78.0052 189.786C78.0689 189.785 78.1326 189.785 78.1982 189.784C78.4089 189.783 78.6196 189.785 78.8303 189.787C78.9765 189.787 79.1228 189.787 79.269 189.787C79.5757 189.787 79.8822 189.789 80.1889 189.791C80.5822 189.794 80.9756 189.794 81.3689 189.794C81.671 189.794 81.973 189.795 82.275 189.796C82.4201 189.796 82.5651 189.797 82.7102 189.797C82.9128 189.797 83.1153 189.798 83.3179 189.8C83.4082 189.8 83.4082 189.8 83.5003 189.8C83.9035 189.806 83.9035 189.806 84.0926 189.933C84.2138 190.133 84.1985 190.313 84.1969 190.544C84.1978 190.672 84.1978 190.672 84.1987 190.803C84.1647 191.069 84.1366 191.158 83.9424 191.34C83.7427 191.367 83.5749 191.376 83.3758 191.37C83.3209 191.369 83.266 191.369 83.2094 191.369C83.0341 191.367 82.859 191.363 82.6838 191.359C82.5649 191.358 82.446 191.356 82.3272 191.355C82.0359 191.352 81.7447 191.347 81.4535 191.34C81.4538 191.385 81.4542 191.429 81.4546 191.474C81.4629 192.547 81.4691 193.619 81.473 194.692C81.475 195.21 81.4776 195.729 81.4819 196.248C81.4861 196.748 81.4883 197.248 81.4893 197.749C81.49 197.94 81.4913 198.131 81.4934 198.322C81.4961 198.589 81.4965 198.856 81.4963 199.123C81.4977 199.203 81.499 199.283 81.5004 199.365C81.499 199.563 81.4951 199.744 81.4535 199.938C81.1939 200.176 80.9647 200.197 80.6192 200.198C80.5035 200.2 80.5035 200.2 80.3855 200.202C80.1714 200.165 80.1714 200.165 80.0093 200.062C79.7869 199.745 79.8302 199.425 79.8354 199.046C79.8354 198.963 79.8353 198.88 79.8353 198.794C79.8355 198.519 79.8379 198.244 79.8402 197.969C79.8408 197.779 79.8412 197.588 79.8415 197.397C79.8425 196.947 79.8449 196.496 79.848 196.045C79.8513 195.532 79.853 195.019 79.8545 194.506C79.8577 193.451 79.863 192.396 79.8697 191.34C79.7955 191.342 79.7213 191.344 79.6448 191.346C79.3695 191.353 79.0941 191.358 78.8188 191.361C78.6996 191.363 78.5804 191.366 78.4612 191.369C78.2899 191.373 78.1187 191.376 77.9474 191.377C77.8674 191.38 77.8674 191.38 77.7859 191.383C77.635 191.383 77.635 191.383 77.3808 191.34C77.1789 191.094 77.1233 190.902 77.1263 190.586C77.1257 190.524 77.1251 190.462 77.1245 190.398C77.1843 190.023 77.2667 189.852 77.6556 189.785Z" fill="#848484"/>
<path d="M155.822 189.823C155.969 189.907 155.969 189.907 156.044 190.058C156.051 190.172 156.053 190.286 156.053 190.4C156.053 190.472 156.053 190.544 156.053 190.618C156.053 190.697 156.053 190.776 156.052 190.858C156.053 190.941 156.053 191.024 156.053 191.11C156.052 191.386 156.052 191.661 156.051 191.937C156.051 192.128 156.051 192.319 156.051 192.51C156.051 192.962 156.05 193.413 156.049 193.865C156.049 194.379 156.048 194.893 156.048 195.407C156.047 196.465 156.046 197.523 156.044 198.581C156.138 198.579 156.233 198.577 156.33 198.575C156.68 198.568 157.03 198.564 157.381 198.56C157.532 198.558 157.684 198.556 157.835 198.552C158.053 198.548 158.271 198.546 158.489 198.544C158.557 198.542 158.625 198.54 158.694 198.538C159.165 198.538 159.165 198.538 159.405 198.761C159.57 199.061 159.564 199.304 159.513 199.637C159.356 200.021 159.356 200.021 159.212 200.165C159.079 200.173 158.947 200.177 158.814 200.178C158.73 200.179 158.645 200.18 158.557 200.181C158.419 200.182 158.419 200.182 158.277 200.183C158.183 200.183 158.088 200.184 157.991 200.184C157.791 200.185 157.59 200.186 157.39 200.187C157.134 200.188 156.877 200.19 156.621 200.193C156.377 200.196 156.132 200.196 155.887 200.197C155.795 200.198 155.703 200.199 155.609 200.201C155.523 200.2 155.437 200.2 155.349 200.2C155.236 200.201 155.236 200.201 155.121 200.201C154.855 200.154 154.729 200.047 154.536 199.863C154.441 199.673 154.45 199.542 154.449 199.329C154.448 199.248 154.447 199.167 154.447 199.084C154.446 198.995 154.446 198.905 154.446 198.814C154.445 198.72 154.444 198.626 154.444 198.53C154.442 198.218 154.441 197.907 154.439 197.596C154.439 197.489 154.439 197.382 154.438 197.275C154.437 196.83 154.435 196.384 154.434 195.939C154.433 195.301 154.431 194.662 154.426 194.024C154.423 193.575 154.422 193.126 154.422 192.678C154.421 192.41 154.42 192.142 154.418 191.873C154.415 191.574 154.416 191.275 154.416 190.976C154.415 190.887 154.414 190.798 154.412 190.707C154.417 190.108 154.417 190.108 154.64 189.852C155.023 189.667 155.42 189.708 155.822 189.823Z" fill="#858585"/>
<path d="M145.15 170.873C145.22 170.874 145.291 170.875 145.363 170.876C145.564 170.902 145.692 170.943 145.862 171.052C145.958 171.244 145.948 171.38 145.949 171.595C145.95 171.678 145.95 171.761 145.951 171.847C145.951 171.938 145.952 172.03 145.952 172.124C145.953 172.22 145.953 172.316 145.954 172.415C145.956 172.734 145.957 173.052 145.958 173.371C145.959 173.481 145.959 173.591 145.959 173.7C145.961 174.156 145.962 174.612 145.963 175.069C145.965 175.723 145.967 176.377 145.971 177.031C145.974 177.491 145.976 177.95 145.976 178.41C145.976 178.685 145.977 178.96 145.98 179.234C145.982 179.541 145.982 179.847 145.982 180.153C145.983 180.244 145.984 180.336 145.985 180.43C145.985 180.513 145.984 180.596 145.983 180.682C145.984 180.754 145.984 180.827 145.984 180.902C145.938 181.083 145.938 181.083 145.76 181.219C145.528 181.324 145.358 181.342 145.103 181.343C145.026 181.344 144.949 181.345 144.87 181.347C144.599 181.3 144.524 181.22 144.354 181.008C144.316 180.818 144.316 180.818 144.315 180.601C144.314 180.519 144.313 180.436 144.312 180.351C144.313 180.261 144.313 180.171 144.314 180.078C144.313 179.983 144.312 179.888 144.312 179.79C144.31 179.529 144.31 179.268 144.311 179.007C144.311 178.79 144.311 178.572 144.31 178.354C144.309 177.84 144.309 177.326 144.31 176.813C144.312 176.283 144.31 175.753 144.308 175.223C144.306 174.767 144.305 174.312 144.306 173.857C144.306 173.585 144.306 173.314 144.305 173.042C144.303 172.739 144.304 172.436 144.306 172.133C144.305 172.043 144.304 171.953 144.303 171.86C144.31 171.253 144.31 171.253 144.532 170.997C144.757 170.889 144.903 170.866 145.15 170.873Z" fill="#848484"/>
<path d="M117.321 170.873C117.391 170.874 117.461 170.875 117.533 170.876C117.734 170.902 117.862 170.943 118.032 171.052C118.128 171.244 118.118 171.38 118.119 171.595C118.12 171.678 118.121 171.761 118.121 171.847C118.122 171.938 118.122 172.03 118.122 172.124C118.123 172.22 118.124 172.316 118.124 172.415C118.126 172.734 118.127 173.052 118.128 173.371C118.129 173.481 118.129 173.591 118.13 173.7C118.131 174.156 118.133 174.612 118.133 175.069C118.135 175.723 118.137 176.377 118.141 177.031C118.144 177.491 118.146 177.95 118.146 178.41C118.147 178.685 118.147 178.96 118.15 179.234C118.153 179.541 118.152 179.847 118.152 180.153C118.153 180.244 118.154 180.336 118.155 180.43C118.155 180.513 118.154 180.596 118.154 180.682C118.154 180.754 118.154 180.827 118.154 180.902C118.108 181.083 118.108 181.083 117.93 181.219C117.698 181.324 117.528 181.342 117.273 181.343C117.196 181.344 117.119 181.345 117.04 181.347C116.769 181.3 116.695 181.22 116.524 181.008C116.486 180.818 116.486 180.818 116.485 180.601C116.484 180.519 116.483 180.436 116.482 180.351C116.483 180.261 116.483 180.171 116.484 180.078C116.483 179.983 116.482 179.888 116.482 179.79C116.48 179.529 116.48 179.268 116.481 179.007C116.481 178.79 116.481 178.572 116.48 178.354C116.479 177.84 116.479 177.326 116.48 176.813C116.482 176.283 116.481 175.753 116.478 175.223C116.476 174.767 116.476 174.312 116.476 173.857C116.477 173.585 116.476 173.314 116.475 173.042C116.473 172.739 116.475 172.436 116.476 172.133C116.475 172.043 116.475 171.953 116.474 171.86C116.481 171.253 116.481 171.253 116.702 170.997C116.927 170.889 117.073 170.866 117.321 170.873Z" fill="#848484"/>
<path d="M63.6216 170.873C63.6916 170.874 63.7617 170.875 63.834 170.876C64.0355 170.902 64.1629 170.943 64.3333 171.052C64.4293 171.244 64.4191 171.38 64.4204 171.595C64.421 171.678 64.4217 171.761 64.4223 171.847C64.4226 171.938 64.423 172.03 64.4233 172.124C64.4239 172.22 64.4245 172.316 64.4252 172.415C64.4271 172.734 64.4283 173.052 64.4294 173.371C64.4298 173.481 64.4302 173.591 64.4306 173.7C64.4322 174.156 64.4336 174.612 64.4345 175.069C64.4357 175.723 64.4382 176.377 64.4425 177.031C64.4454 177.491 64.4469 177.95 64.4473 178.41C64.4476 178.685 64.4485 178.96 64.4509 179.234C64.4536 179.541 64.4533 179.847 64.4528 180.153C64.454 180.244 64.4552 180.336 64.4565 180.43C64.4559 180.513 64.4552 180.596 64.4546 180.682C64.4549 180.754 64.4551 180.827 64.4554 180.902C64.4087 181.083 64.4087 181.083 64.2313 181.219C63.9988 181.324 63.8289 181.342 63.5744 181.343C63.4973 181.344 63.4202 181.345 63.3408 181.347C63.07 181.3 62.9956 181.22 62.8249 181.008C62.7868 180.818 62.7868 180.818 62.7861 180.601C62.7852 180.519 62.7842 180.436 62.7832 180.351C62.7837 180.261 62.7842 180.171 62.7847 180.078C62.784 179.983 62.7834 179.888 62.7827 179.79C62.781 179.529 62.7813 179.268 62.7819 179.007C62.7823 178.79 62.7818 178.572 62.7812 178.354C62.7799 177.84 62.7802 177.326 62.7815 176.813C62.7827 176.283 62.7815 175.753 62.7791 175.223C62.7771 174.767 62.7765 174.312 62.7772 173.857C62.7775 173.585 62.7774 173.314 62.7758 173.042C62.7742 172.739 62.7756 172.436 62.7773 172.133C62.7764 172.043 62.7756 171.953 62.7747 171.86C62.7817 171.253 62.7817 171.253 63.0035 170.997C63.2278 170.889 63.3738 170.866 63.6216 170.873Z" fill="#848484"/>
<path fill-rule="evenodd" clip-rule="evenodd" d="M136.485 189.794L136.304 189.793C135.987 189.783 135.751 189.786 135.477 189.966C135.391 190.086 135.34 190.158 135.308 190.239C135.259 190.363 135.257 190.505 135.253 190.865L135.256 191.133C135.254 191.431 135.253 191.729 135.254 192.028C135.256 192.295 135.256 192.562 135.256 192.83C135.255 193.277 135.256 193.725 135.258 194.173C135.26 194.694 135.261 195.215 135.26 195.736C135.259 196.242 135.258 196.747 135.26 197.253L135.26 197.253C135.26 197.467 135.261 197.681 135.26 197.895C135.26 198.152 135.26 198.408 135.261 198.665L135.263 198.948L135.262 199.217L135.265 199.463C135.265 199.575 135.265 199.628 135.271 199.681C135.276 199.728 135.285 199.775 135.303 199.863C135.474 200.075 135.549 200.155 135.819 200.202L136.053 200.198C136.307 200.197 136.478 200.179 136.71 200.075C136.805 200.002 136.849 199.968 136.876 199.924C136.9 199.885 136.911 199.838 136.933 199.751L136.93 199.525L136.93 199.269L136.924 198.992C136.922 198.7 136.92 198.409 136.916 198.117C136.911 197.863 136.909 197.609 136.907 197.355C136.903 196.861 136.897 196.367 136.89 195.874L136.887 195.715L137.094 195.729L137.363 195.748C137.626 195.766 137.844 195.782 138.094 195.866C138.571 196.413 138.814 196.691 138.988 197.008C139.169 197.335 139.276 197.704 139.494 198.453C139.558 198.638 139.622 198.823 139.687 199.008L139.749 199.183C139.851 199.485 139.951 199.745 140.129 200.011C140.2 200.082 140.237 200.12 140.282 200.145C140.335 200.174 140.397 200.185 140.531 200.209L140.809 200.202L141.087 200.2C141.352 200.162 141.469 200.145 141.639 199.938C141.665 199.598 141.629 199.322 141.514 199L141.459 198.854L141.343 198.534C141.281 198.37 141.22 198.206 141.16 198.041C141.118 197.924 141.076 197.804 141.033 197.683C140.777 196.956 140.503 196.177 140.045 195.581C139.917 195.428 139.834 195.292 139.753 195.111C139.956 194.999 140.131 194.885 140.305 194.733C140.843 194.169 141.095 193.612 141.131 192.83C141.149 191.943 140.997 191.255 140.38 190.583C139.506 189.842 138.524 189.819 137.438 189.807C137.311 189.806 137.184 189.805 137.057 189.804L137.055 189.804C136.865 189.799 136.675 189.795 136.485 189.794ZM137.641 191.322L136.887 191.34V194.282C137.037 194.282 137.178 194.285 137.313 194.288C138.026 194.304 138.56 194.317 139.15 193.829C139.363 193.563 139.444 193.316 139.472 192.977C139.478 192.423 139.47 192.058 139.074 191.642C138.689 191.373 138.34 191.308 137.875 191.313L137.641 191.322Z" fill="#848484"/>
<path fill-rule="evenodd" clip-rule="evenodd" d="M87.9146 189.794L87.7334 189.793C87.4165 189.783 87.1804 189.786 86.9064 189.966C86.8209 190.086 86.7691 190.158 86.7373 190.239C86.6885 190.363 86.6868 190.505 86.6826 190.865L86.6853 191.133C86.6836 191.431 86.6822 191.729 86.6838 192.028C86.6853 192.295 86.6855 192.562 86.6851 192.83C86.6845 193.277 86.685 193.725 86.6871 194.173C86.6895 194.694 86.6907 195.215 86.6894 195.736C86.6882 196.242 86.6879 196.747 86.6892 197.253L86.6892 197.253C86.6897 197.467 86.6903 197.681 86.6899 197.895C86.6892 198.152 86.6893 198.408 86.6907 198.665L86.6927 198.948L86.6912 199.217L86.6941 199.463C86.6944 199.575 86.6946 199.628 86.7003 199.681C86.7053 199.728 86.7149 199.775 86.7329 199.863C86.9036 200.075 86.9781 200.155 87.2487 200.202L87.4824 200.198C87.7365 200.197 87.907 200.179 88.1395 200.075C88.234 200.002 88.2781 199.968 88.3056 199.924C88.3296 199.885 88.3409 199.838 88.3621 199.751L88.3595 199.525L88.3594 199.269L88.3535 198.992C88.3519 198.7 88.3497 198.409 88.3452 198.117C88.3409 197.863 88.3382 197.609 88.3362 197.355C88.3325 196.861 88.3268 196.367 88.3192 195.874L88.3167 195.715L88.5232 195.729L88.7928 195.748C89.0555 195.766 89.2734 195.782 89.5234 195.866C90.0006 196.413 90.2435 196.691 90.4178 197.008C90.5984 197.335 90.7054 197.704 90.9234 198.453C90.9873 198.638 91.0513 198.823 91.1163 199.008L91.1782 199.183C91.2808 199.485 91.3802 199.745 91.5586 200.011C91.629 200.082 91.6668 200.12 91.7119 200.145C91.7642 200.174 91.8263 200.185 91.9604 200.209L92.2385 200.202L92.5167 200.2C92.7816 200.162 92.8984 200.145 93.0682 199.938C93.0947 199.598 93.0582 199.322 92.9437 199L92.8887 198.854L92.7722 198.534C92.7108 198.37 92.6495 198.206 92.5896 198.041C92.5472 197.924 92.5049 197.804 92.4622 197.683C92.2064 196.956 91.9323 196.177 91.4745 195.581C91.3464 195.428 91.263 195.292 91.1827 195.111C91.385 194.999 91.56 194.885 91.7345 194.733C92.2727 194.169 92.5243 193.612 92.5603 192.83C92.5785 191.943 92.426 191.255 91.8096 190.583C90.9354 189.842 89.9536 189.819 88.8673 189.807C88.7404 189.806 88.6134 189.805 88.4864 189.804L88.4849 189.804C88.2948 189.799 88.1048 189.795 87.9146 189.794ZM89.0708 191.322L88.3167 191.34V194.282C88.4662 194.282 88.6078 194.285 88.7429 194.288C89.4554 194.304 89.9893 194.317 90.5792 193.829C90.7924 193.563 90.8734 193.316 90.9018 192.977C90.9074 192.423 90.8992 192.058 90.5038 191.642C90.1181 191.373 89.7695 191.308 89.3048 191.313L89.0708 191.322Z" fill="#848484"/>
<path fill-rule="evenodd" clip-rule="evenodd" d="M134.6 170.939L134.418 170.938C134.102 170.928 133.865 170.931 133.591 171.111C133.506 171.231 133.454 171.303 133.422 171.384C133.374 171.508 133.372 171.65 133.368 172.01L133.37 172.278C133.369 172.576 133.367 172.875 133.369 173.173C133.37 173.44 133.371 173.707 133.37 173.975C133.37 174.422 133.37 174.87 133.372 175.318C133.375 175.839 133.376 176.36 133.374 176.881C133.373 177.387 133.373 177.892 133.374 178.398L133.374 178.398C133.375 178.612 133.375 178.826 133.375 179.04C133.374 179.297 133.374 179.553 133.376 179.81L133.378 180.093L133.376 180.362L133.379 180.608C133.379 180.72 133.38 180.773 133.385 180.826C133.39 180.873 133.4 180.92 133.418 181.008C133.589 181.22 133.663 181.3 133.934 181.347L134.167 181.343C134.422 181.342 134.592 181.324 134.825 181.22C134.919 181.147 134.963 181.113 134.991 181.069C135.015 181.03 135.026 180.983 135.047 180.896L135.045 180.67L135.044 180.414L135.039 180.137C135.037 179.845 135.035 179.554 135.03 179.262C135.026 179.008 135.023 178.754 135.021 178.5C135.018 178.006 135.012 177.512 135.004 177.019L135.002 176.86L135.208 176.874L135.478 176.893C135.741 176.911 135.958 176.927 136.208 177.011C136.686 177.558 136.929 177.837 137.103 178.153C137.283 178.48 137.39 178.849 137.608 179.598C137.672 179.783 137.736 179.968 137.801 180.153L137.863 180.328C137.966 180.63 138.065 180.89 138.244 181.156C138.314 181.227 138.352 181.265 138.397 181.29C138.449 181.319 138.511 181.33 138.645 181.354L138.924 181.347L139.202 181.345C139.467 181.307 139.583 181.29 139.753 181.083C139.78 180.743 139.743 180.467 139.629 180.145L139.574 179.999L139.457 179.679C139.396 179.515 139.335 179.351 139.275 179.186C139.232 179.069 139.19 178.949 139.147 178.828C138.891 178.101 138.617 177.322 138.16 176.726C138.031 176.573 137.948 176.437 137.868 176.256C138.07 176.144 138.245 176.03 138.42 175.878C138.958 175.314 139.209 174.757 139.245 173.975C139.264 173.088 139.111 172.4 138.495 171.728C137.62 170.987 136.639 170.964 135.552 170.952C135.425 170.951 135.298 170.95 135.171 170.949L135.17 170.949C134.98 170.944 134.79 170.94 134.6 170.939ZM135.756 172.467L135.002 172.485V175.427C135.151 175.427 135.293 175.43 135.428 175.433C136.14 175.449 136.674 175.462 137.264 174.974C137.478 174.708 137.558 174.461 137.587 174.122C137.592 173.568 137.584 173.203 137.189 172.787C136.803 172.518 136.455 172.453 135.99 172.458L135.756 172.467Z" fill="#848484"/>
<path fill-rule="evenodd" clip-rule="evenodd" d="M149.173 191.333C149.024 190.785 148.853 190.157 148.469 189.823C148.02 189.712 147.499 189.667 147.053 189.81C146.945 189.888 146.876 189.938 146.823 190.001C146.727 190.116 146.682 190.273 146.557 190.716C146.526 190.828 146.495 190.94 146.464 191.051L146.413 191.226C146.301 191.617 146.174 192.003 146.044 192.388C145.952 192.659 145.862 192.929 145.772 193.2C145.635 193.608 145.499 194.016 145.362 194.424C145.158 195.031 144.955 195.637 144.753 196.244L144.728 196.319C144.641 196.582 144.554 196.845 144.466 197.108C144.372 197.386 144.278 197.665 144.186 197.944L144.082 198.259C144.067 198.302 144.052 198.346 144.037 198.389C143.853 198.927 143.679 199.434 143.75 200.014C143.873 200.096 143.929 200.133 143.991 200.154C144.043 200.171 144.099 200.177 144.203 200.187L144.462 200.188C144.597 200.19 144.662 200.191 144.726 200.188C144.785 200.185 144.844 200.178 144.957 200.165C145.259 199.938 145.259 199.938 145.561 199.184L146.013 197.6H149.407L149.77 198.755L149.883 199.119L149.974 199.405C149.977 199.415 149.98 199.424 149.983 199.434C150.054 199.667 150.121 199.885 150.27 200.083C150.325 200.122 150.361 200.146 150.401 200.163C150.473 200.192 150.558 200.192 150.798 200.192L150.953 200.188C150.961 200.188 150.969 200.188 150.977 200.188C151.279 200.19 151.479 200.191 151.745 200.014C151.83 199.611 151.728 199.206 151.603 198.823L151.541 198.643C151.476 198.445 151.41 198.247 151.343 198.049C151.274 197.847 151.207 197.645 151.14 197.444L151.008 197.05C150.901 196.732 150.794 196.413 150.694 196.092C150.536 195.575 150.374 195.059 150.206 194.545L150.066 194.114L149.864 193.497C149.777 193.233 149.691 192.969 149.605 192.706C149.537 192.498 149.469 192.29 149.401 192.082L149.303 191.783C149.259 191.646 149.217 191.493 149.173 191.333ZM147.973 192.697C147.907 192.469 147.851 192.273 147.672 192.095C147.645 192.122 147.627 192.14 147.613 192.16C147.589 192.194 147.575 192.236 147.537 192.348C147.412 192.767 147.285 193.185 147.153 193.601C147.103 193.757 147.054 193.913 147.004 194.069L146.904 194.385C146.853 194.546 146.802 194.706 146.751 194.866L146.703 195.019C146.585 195.388 146.521 195.702 146.466 196.092H148.954C148.954 195.866 148.907 195.692 148.84 195.478C148.805 195.373 148.772 195.267 148.738 195.162L148.685 194.995C148.616 194.781 148.548 194.568 148.482 194.353L148.389 194.056L148.377 194.017C148.3 193.773 148.223 193.529 148.149 193.284L148.098 193.113L147.998 192.783C147.989 192.754 147.981 192.725 147.973 192.697Z" fill="#858585"/>
<path fill-rule="evenodd" clip-rule="evenodd" d="M155.66 172.478C155.51 171.93 155.339 171.302 154.955 170.968C154.506 170.857 153.985 170.812 153.539 170.955C153.431 171.033 153.362 171.083 153.309 171.146C153.213 171.261 153.168 171.418 153.043 171.861C153.012 171.973 152.981 172.085 152.95 172.196L152.899 172.371C152.787 172.762 152.66 173.148 152.53 173.533C152.438 173.804 152.348 174.074 152.258 174.345C152.121 174.753 151.985 175.161 151.848 175.569C151.644 176.176 151.441 176.782 151.239 177.389L151.215 177.464C151.127 177.727 151.04 177.99 150.952 178.253C150.858 178.531 150.764 178.81 150.672 179.089L150.568 179.404C150.553 179.447 150.538 179.491 150.523 179.534C150.339 180.072 150.165 180.579 150.237 181.159C150.359 181.241 150.415 181.278 150.477 181.299C150.529 181.316 150.585 181.322 150.689 181.332L150.948 181.333C151.083 181.335 151.148 181.336 151.212 181.333C151.271 181.33 151.33 181.323 151.443 181.31C151.745 181.083 151.745 181.083 152.047 180.329L152.499 178.745H155.893L156.256 179.9L156.369 180.264L156.46 180.55C156.463 180.56 156.466 180.569 156.469 180.579C156.54 180.812 156.607 181.03 156.756 181.228C156.811 181.267 156.847 181.291 156.887 181.308C156.96 181.337 157.044 181.337 157.284 181.337L157.439 181.333C157.447 181.333 157.455 181.333 157.463 181.333C157.765 181.335 157.965 181.336 158.231 181.159C158.316 180.756 158.214 180.351 158.089 179.968L158.027 179.788C157.962 179.59 157.896 179.392 157.829 179.194C157.76 178.992 157.693 178.79 157.626 178.589L157.495 178.195C157.387 177.877 157.28 177.558 157.181 177.237C157.022 176.72 156.86 176.204 156.692 175.69L156.552 175.259L156.35 174.642C156.263 174.378 156.177 174.114 156.091 173.851C156.023 173.643 155.955 173.435 155.887 173.227L155.789 172.928C155.745 172.791 155.703 172.638 155.66 172.478ZM154.459 173.842C154.393 173.614 154.337 173.418 154.158 173.24C154.131 173.267 154.113 173.285 154.099 173.305C154.075 173.339 154.061 173.381 154.023 173.493C153.898 173.912 153.771 174.33 153.639 174.746C153.589 174.902 153.54 175.058 153.49 175.214L153.39 175.531C153.339 175.691 153.288 175.851 153.237 176.011L153.189 176.164C153.071 176.533 153.007 176.847 152.952 177.237H155.441C155.441 177.011 155.394 176.837 155.326 176.623C155.291 176.518 155.258 176.412 155.224 176.307L155.171 176.14C155.102 175.926 155.035 175.713 154.968 175.498L154.875 175.201L154.863 175.162C154.786 174.918 154.71 174.674 154.636 174.429L154.584 174.258L154.484 173.928C154.475 173.899 154.467 173.87 154.459 173.842Z" fill="#858585"/>
<path d="M146.687 167.937C146.764 167.935 146.841 167.934 146.92 167.933C147.172 167.964 147.315 168.042 147.521 168.187C147.498 168.611 147.323 168.807 147.022 169.082C146.939 169.161 146.856 169.24 146.773 169.32C146.733 169.358 146.693 169.396 146.652 169.436C146.508 169.576 146.378 169.725 146.249 169.879C146.006 170.163 145.748 170.431 145.41 170.6C145.272 170.609 145.133 170.613 144.995 170.614C144.921 170.615 144.847 170.616 144.771 170.617C144.58 170.6 144.58 170.6 144.429 170.449C144.385 170.217 144.389 170.063 144.513 169.858C144.633 169.703 144.758 169.555 144.886 169.407C144.977 169.301 145.067 169.194 145.158 169.087C145.201 169.036 145.245 168.985 145.29 168.933C145.48 168.707 145.654 168.47 145.827 168.232C146.077 167.959 146.328 167.938 146.687 167.937Z" fill="#868686"/>
<path d="M69.0092 27.5283C69.1845 27.7911 69.1985 27.9981 69.2217 28.3031C69.2263 28.3574 69.2309 28.4116 69.2357 28.4675C69.2504 28.6415 69.2642 28.8155 69.2779 28.9895C69.2874 29.1037 69.297 29.2179 69.3066 29.3322C69.3615 29.9876 69.4122 30.6434 69.4618 31.2993C69.4369 31.2993 69.412 31.2993 69.3863 31.2993C69.1654 30.6953 69.1497 30.1247 69.1601 29.4892C69.1103 29.4892 69.0605 29.4892 69.0092 29.4892C69.0092 29.6385 69.0092 29.7878 69.0092 29.9417C68.9346 29.979 68.9346 29.979 68.8584 30.0171C68.869 29.7437 68.8802 29.4703 68.8914 29.1969C68.8944 29.1205 68.8973 29.0441 68.9004 28.9654C68.9204 28.484 68.9552 28.007 69.0092 27.5283Z" fill="#DB3542"/>
<path d="M31.7518 67.1992C31.7518 67.2241 31.7518 67.249 31.7518 67.2746C31.5776 67.2995 31.4034 67.3244 31.2239 67.35C31.2239 67.3749 31.2239 67.3998 31.2239 67.4255C31.423 67.4503 31.6221 67.4752 31.8273 67.5009C31.8273 67.5506 31.8273 67.6004 31.8273 67.6517C31.6833 67.6449 31.6833 67.6449 31.5365 67.6379C31.4414 67.6334 31.4414 67.6334 31.3443 67.6287C31.2032 67.622 31.0621 67.6152 30.921 67.6082C30.5443 67.5899 30.1678 67.5731 29.7909 67.5598C29.683 67.5556 29.683 67.5556 29.573 67.5514C29.434 67.5461 29.2949 67.5413 29.1558 67.5371C29.0929 67.5346 29.03 67.5321 28.9651 67.5294C28.8819 67.5266 28.8819 67.5266 28.797 67.5237C28.6596 67.5009 28.6596 67.5009 28.5088 67.35C28.5597 67.3481 28.6106 67.3463 28.663 67.3443C28.8976 67.3355 29.1321 67.3262 29.3667 67.317C29.4467 67.3141 29.5267 67.3111 29.6092 67.308C30.0464 67.2906 30.4791 67.2618 30.9141 67.2148C31.1943 67.1873 31.4706 67.1947 31.7518 67.1992Z" fill="#DD404D"/>
<path d="M69.16 29.4892C69.2098 29.4892 69.2596 29.4892 69.3109 29.4892C69.3364 29.6918 69.3615 29.8945 69.3863 30.0973C69.3935 30.154 69.4007 30.2107 69.4081 30.2692C69.4501 30.6155 69.4691 30.9504 69.4617 31.2993C69.4368 31.2993 69.4119 31.2993 69.3863 31.2993C69.1653 30.6953 69.1497 30.1247 69.16 29.4892Z" fill="#DF4B57"/>
<path d="M152.047 103.024C152.121 103.061 152.121 103.061 152.198 103.099C152.275 103.479 152.28 103.845 152.273 104.23C152.223 104.205 152.173 104.181 152.122 104.155C152.029 103.781 152.039 103.406 152.047 103.024Z" fill="#F18C48"/>
<path d="M110.867 69.7634C110.892 69.7634 110.917 69.7634 110.943 69.7634C110.957 70.719 110.957 70.719 110.867 71.121C110.716 70.9701 110.716 70.9701 110.698 70.7816C110.722 70.4347 110.792 70.1026 110.867 69.7634Z" fill="#D4C7BE"/>
<path d="M151.519 100.158C151.569 100.158 151.618 100.158 151.67 100.158C151.695 100.382 151.719 100.606 151.745 100.836C151.695 100.836 151.646 100.836 151.594 100.836C151.569 100.612 151.544 100.388 151.519 100.158Z" fill="#F18F4D"/>
</svg>
