<svg width="640" height="338" viewBox="0 0 640 338" fill="none" xmlns="http://www.w3.org/2000/svg">
<g clip-path="url(#clip0_4_36)">
<path fill-rule="evenodd" clip-rule="evenodd" d="M248.75 0.874079C244.488 1.27308 240.479 2.12108 239.843 2.75708L238.685 3.91508L239.965 5.45808C240.796 6.45908 242.944 7.00008 246.087 7.00008H250.93L252.02 9.03608C253.976 12.6921 255.111 46.6141 254.803 92.1781L254.5 136.856L252.397 139.678L250.294 142.5L245.652 143.045C240.485 143.652 238.432 145.078 239.336 147.433L239.937 149H268H296.063L296.694 147.355C297.538 145.155 294.456 143 290.466 143C288.733 143 285.331 141.955 282.907 140.678L278.5 138.357L277.306 134.928C276.516 132.658 276.094 123.329 276.056 107.307L276 83.1131L278.223 81.5571L280.445 80.0001H288.575H296.704L300.065 82.2651C304.909 85.5291 308.219 90.7611 314.966 105.815C324.865 127.903 335.383 141.539 346.418 146.591C359.564 152.61 385.391 149.899 396.756 141.307C401.211 137.939 398.565 137.479 388.966 139.954L379.965 142.275L374.054 141.739C366.943 141.094 359.459 137.299 353.447 131.288C350.725 128.567 346.67 122.087 341.989 112.979C333.119 95.7201 328.067 89.8321 317.305 84.2151L309.589 80.1881L314.044 79.0091C326.512 75.7111 337.9 67.0011 342.07 57.5751C346.354 47.8911 346.162 33.4021 341.619 23.4791C336.839 13.0381 327.287 6.76208 310.453 3.00208L301.5 1.00208L279 0.576079C266.625 0.341079 253.013 0.476079 248.75 0.874079ZM283.004 7.68008C281.081 7.94608 278.944 8.63208 278.254 9.20408L277 10.2451V40.6221V71.0001L279 73.0001L281 75.0001H290.804H300.607L305.623 72.5011C320.915 64.8801 327.147 51.6571 324.063 33.3751C321.944 20.8121 315.386 12.4291 305.295 9.38508C300.041 7.80008 288.508 6.91808 283.004 7.68008ZM526.479 195.333C524.268 196.06 521.241 197.451 519.754 198.425C515.61 201.141 512.133 209.318 510.925 219.192L509.869 227.826L510.952 235.611C512.429 246.23 515.726 253.129 520.987 256.61L525.152 259.367L533.374 259.798L541.596 260.23L546.766 258.005C549.61 256.782 552.477 255.131 553.136 254.336L554.335 252.891L552.329 250.884L550.322 248.877L546.433 251.172L542.544 253.467L537.022 253.436C533.717 253.418 529.94 252.65 527.615 251.525L523.73 249.644L521.882 245.466C518.054 236.811 518.561 213.937 522.739 206.866C526.372 200.715 536.57 199.19 545.685 203.434L550.87 205.848L552.54 203.298L554.211 200.748L552.855 199.802C545.932 194.966 533.837 192.917 526.479 195.333ZM251 226.943V259H255.514H260.028L259.764 227.25L259.5 195.5L255.25 195.193L251 194.885V226.943ZM283.97 197.25C281.52 198.488 278.5 201.029 277.258 202.898L275 206.296V211.698C275 214.669 275.678 218.409 276.506 220.011C278.439 223.749 284.783 227.412 292.956 229.507C304.174 232.382 307 234.979 307 242.412C307 252.322 292.037 256.362 283.405 248.783L279.973 245.769L276.998 247.001L274.024 248.233L275.692 251.055C277.709 254.471 284.964 258.539 290.705 259.475C300.322 261.043 310.999 256.244 313.997 249.007C315.794 244.67 314.858 234.631 312.341 231.237C309.534 227.45 303.789 224.409 295.704 222.427C291.887 221.492 287.559 219.659 285.928 218.286L283 215.822V212.345C283 206.081 285.964 202.558 292.131 201.492C297.547 200.556 302.828 201.91 306.569 205.194L309.903 208.122L311.952 207.026C314.533 205.645 314.517 204.927 311.829 201.509C308.566 197.361 302.55 195.047 294.962 195.022L288.424 195L283.97 197.25ZM337.421 196.834C332.526 199.132 329.374 202.897 327.965 208.131L326.923 212L328.043 216.158C330.004 223.444 334.331 226.371 349.163 230.449C358.244 232.945 362.096 239.306 358.846 246.439C355.485 253.815 342.49 254.891 335.459 248.374L332.623 245.746L330.143 246.623C328.779 247.105 327.502 247.986 327.305 248.581C326.662 250.517 330.848 254.708 335.728 257.015L340.5 259.272L347.165 259.283L353.83 259.294L358.665 256.897L363.5 254.5L365.75 250.038C370.161 241.29 367.586 231.128 359.842 226.722C357.454 225.363 352.385 223.495 348.578 222.571C336.818 219.717 333.196 215.252 336.407 207.568C339.601 199.925 352.937 198.846 359.769 205.678L362.283 208.192L364.671 207.104L367.06 206.016L365.554 203.104C364.726 201.503 362.395 199.171 360.375 197.923L356.701 195.652L349.1 195.286L341.5 194.92L337.421 196.834ZM623.789 197.898L620.545 200.795V205V209.205L623.789 212.102C625.572 213.696 628.172 215 629.565 215C633.195 215 637.722 212.398 638.679 209.761C639.165 208.422 639.714 217.894 640.026 233L640.552 258.5L640.634 226.5C640.679 208.9 640.394 196.3 640 198.5C639.606 200.7 639.22 201.745 639.142 200.823C638.921 198.206 634.096 195 630.381 195C628.098 195 625.998 195.923 623.789 197.898ZM1 227.5V259H5H9V245V231H16.927H24.855L26.863 233.553C27.967 234.957 30.03 239.585 31.446 243.838C34.192 252.083 37.874 257.394 42.847 260.282L45.916 262.063L47.499 259.002L49.082 255.94L45.997 253.344C42.879 250.72 39 244.255 39 241.681C39 240.911 37.723 237.751 36.163 234.657L33.325 229.032L35.08 228.475C40.891 226.63 46 218.777 46 211.688C46 206.532 43.136 201.682 38.078 198.274L34.704 196H17.852H1V227.5ZM64 227.5V259H85H106V255.897V252.794L89.5 253.147L73 253.5L72.998 241L72.997 228.5L85.499 228.832L98 229.163V225.832V222.5L85.5 222.853L73 223.206V211.946V200.687L89 201.347L105 202.006V199.003V196H84.5H64V227.5ZM122 227.5V259H125.91H129.82L130.525 250.546C130.912 245.897 131.056 234.183 130.846 224.516L130.462 206.94L132.481 210.573C133.592 212.57 140.951 224.284 148.836 236.602L163.171 259H168.086H173V227.5V196H168.5H164L163.97 221.75L163.939 247.5L160.72 241.91C158.949 238.836 151.65 227.25 144.5 216.164L131.5 196.007L126.75 196.004L122 196V227.5ZM207.628 196.793C207.358 197.229 202.323 210.842 196.437 227.043C190.552 243.244 185.523 257.063 185.261 257.75L184.786 259H189.261H193.736L197.222 249.75L200.707 240.5L212.25 240.219L223.793 239.938L227.565 249.469L231.338 259H235.776H240.214L239.534 257.25C239.16 256.288 234.196 242.9 228.504 227.5C222.812 212.1 217.847 198.713 217.471 197.75L216.786 196H212.452C210.068 196 207.897 196.357 207.628 196.793ZM399.55 196.918C398.949 197.892 377 257.932 377 258.605C377 258.822 378.958 259 381.352 259H385.703L389.117 249.75L392.53 240.5L404.084 240.22L415.639 239.94L419.411 249.47L423.182 259H427.583H431.983L429.44 252.25C428.042 248.537 422.8 234.363 417.791 220.75L408.684 196H404.401C402.045 196 399.863 196.413 399.55 196.918ZM444 227.5V259H448H452L452.048 232.75L452.096 206.5L455.005 212C456.605 215.025 463.903 226.725 471.224 238L484.535 258.5L489.267 258.805L494 259.11V227.555V196H490H486L485.953 222.25L485.906 248.5L483.203 243.345C481.716 240.51 474.425 228.71 467 217.122L453.5 196.055L448.75 196.027L444 196V227.5ZM570 227.5V259H590.5H611V255.897V252.794L594.5 253.147L578 253.5V241.25V229H590.5H603V225.75V222.5L590.5 222.853L578 223.206V211.946V200.687L594 201.347L610 202.006V199.003V196H590H570V227.5ZM624.455 199.455C619.374 204.535 623.015 213 630.28 213C634.749 213 638 209.572 638 204.86C638 197.696 629.575 194.334 624.455 199.455ZM627 204.5C627 207.525 627.45 210 628 210C628.55 210 629.024 208.988 629.052 207.75L629.105 205.5L630.674 207.75C632.695 210.647 634.437 210.684 632.892 207.798L631.713 205.596L632.857 205.214C636.193 204.102 632.67 199 628.566 199H627V204.5ZM9 213V225L12.25 224.946C14.038 224.916 19.08 224.517 23.455 224.059L31.409 223.226L34.205 220.097L37 216.968V212.121V207.273L34.509 204.782L32.018 202.291L25.259 201.653C21.542 201.301 16.363 201.011 13.75 201.007L9 201V213ZM629 203.083C629 205.52 631.337 205.176 631.823 202.667C632.015 201.68 631.505 201 630.573 201C629.646 201 629 201.855 629 203.083ZM208.063 217.681C205.828 224.769 204 231.115 204 231.784V233H212.898H221.796L217.3 219.25C214.828 211.688 212.652 205.341 212.466 205.146C212.279 204.952 210.298 210.592 208.063 217.681ZM403.24 207C402.691 208.375 400.657 214.787 398.721 221.25L395.2 233H404.53H413.86L409.59 220.25C407.242 213.238 405.077 206.825 404.779 206L404.238 204.5L403.24 207ZM252.415 294.421C245.531 297.419 242.543 304.911 243.2 317.522C243.704 327.212 246.049 332.606 251 335.467L254.5 337.49H260.5H266.5L269.965 335.46C275.22 332.38 277.272 328.007 277.808 318.752C278.624 304.664 275.486 297.011 267.685 294.064C263.843 292.612 256.157 292.792 252.415 294.421ZM414.667 294.011C412.558 294.397 409.633 295.912 408.167 297.379L405.5 300.045V304.942V309.839L407.777 312.263C409.092 313.663 412.685 315.416 416.277 316.413C423.519 318.42 427 321.229 427 325.064C427 331.731 418.833 334.835 409.582 331.683L405.005 330.123L403.99 332.019L402.975 333.916L405.237 335.201C406.631 335.992 411.085 336.488 416.83 336.493L426.16 336.5L429.08 333.234L432 329.968V325.119C432 318.524 429.543 315.591 422.241 313.468C419.098 312.554 415.283 311.163 413.763 310.378L411 308.949V304.997V301.046L413.531 299.388L416.061 297.73L423.531 298.407L431 299.083V297.087V295.091L427.25 294.503C420.047 293.376 418.473 293.314 414.667 294.011ZM200 315.5V337H202.5H205V326.5V316H215H225V326.566V337.133L227.75 336.816L230.5 336.5L230.77 315.25L231.04 294H228.02H225V303V312H215H205V303V294H202.5H200V315.5ZM287 296V298H292.978H298.957L299.228 317.25L299.5 336.5H302H304.5L304.772 317.25L305.043 298H311.022H317V296V294H302H287V296ZM330 315.53V337.06L342.75 336.78L355.5 336.5V334.554V332.609L345.25 332.884L335 333.159V324.47V315.782L342.75 316.141L350.5 316.5L350.832 314.158L351.163 311.817L343.332 312.144L335.5 312.47V305.033V297.595L345.25 297.879L355 298.163V296.081V294H342.5H330V315.53ZM370 315.5V337H382.5H395L395.001 334.75L395.002 332.5L385.001 332.844L375 333.187V313.594V294H372.5H370V315.5ZM256.094 298.295C251.048 300.08 248.875 303.684 248.266 311.278C247.489 320.956 248.647 326.801 252.009 330.163L254.846 333H259.473C265.113 333 269.213 331.022 270.802 327.535C272.721 323.323 273.26 312.071 271.804 306.597C269.812 299.108 263.39 295.715 256.094 298.295Z" fill="black"/>
</g>
<defs>
<clipPath id="clip0_4_36">
<rect width="640" height="338" fill="white"/>
</clipPath>
</defs>
</svg>
