<svg width="1514" height="969" viewBox="0 0 1514 969" fill="none" xmlns="http://www.w3.org/2000/svg">
<path fill-rule="evenodd" clip-rule="evenodd" d="M709.5 0.871019C703.157 1.52402 700.628 2.28102 701.605 3.23102C702.097 3.71002 712.61 7.52501 724.967 11.708L747.435 19.313L750.467 18.653C754.797 17.71 793.332 4.17501 794.344 3.24101C795.79 1.90601 780.914 -0.0319831 773.516 0.527017C769.643 0.820017 762.318 2.09202 757.237 3.35402L748 5.64801L739.245 3.47402C730.441 1.28702 716.933 0.105019 709.5 0.871019ZM656.5 21.276C650.235 22.541 646.549 24.199 647.621 25.271C648.141 25.791 663.627 31.432 682.034 37.806L715.5 49.394L722.5 48.868C732.056 48.149 742.339 46.173 741.329 45.25C740.234 44.248 677.249 22.548 671.761 21.282C666.818 20.142 662.132 20.14 656.5 21.276ZM820 22.695C812.817 24.91 767.319 40.571 758.044 44.021L753.589 45.679L757.544 46.626C759.72 47.146 767.125 47.595 774 47.623L786.5 47.674L818.75 36.325C836.487 30.083 851 24.646 851 24.244C851 22.856 839.349 20.25 833.434 20.316C830.17 20.352 824.125 21.423 820 22.695ZM868.5 47.311C865.114 47.957 848.761 53.353 827.281 60.913C824.41 61.923 821.981 63.199 821.882 63.748C821.664 64.958 831.867 71.24 834.06 71.246C834.918 71.248 846.618 67.384 860.06 62.658C873.502 57.933 885.288 53.83 886.25 53.542C889.043 52.704 888.327 51.737 883.25 49.491C877.348 46.88 873.637 46.331 868.5 47.311ZM613 50.271L608.5 52.383L610.31 53.4C611.305 53.959 623.005 58.237 636.31 62.906L660.5 71.396L664 70.951C667.246 70.538 677 65.474 677 64.203C677 63.583 671.896 61.705 649.5 54.081L634.5 48.975L626 48.566L617.5 48.158L613 50.271ZM591.445 78.318C587.69 79.41 583.234 83.884 584.572 85.222C586.468 87.118 629.466 101.35 631.647 100.802C633.681 100.292 640.69 92.607 639.869 91.786C639.021 90.938 597.574 77.257 596.103 77.34C595.221 77.39 593.125 77.83 591.445 78.318ZM878 84.182L858.5 91.008L858.822 92.379C859.206 94.014 863.849 99.069 866.081 100.281C867.408 101.001 894.371 92.286 912.382 85.315L915.264 84.199L913.384 82.122C907.327 75.428 902.144 75.73 878 84.182ZM569.314 113.2C567.561 114.269 565.631 116.071 565.024 117.206L563.92 119.269L566.71 120.346C573.733 123.057 609.044 135.25 609.871 135.25C610.97 135.25 615 127.808 615 125.778C615 125.003 614.523 124.073 613.939 123.712C611.318 122.093 577.596 111.25 575.19 111.254C573.71 111.256 571.066 112.132 569.314 113.2ZM913.5 112.816C911.3 113.6 903.538 116.319 896.25 118.858L883 123.475L883.004 125.113C883.006 126.013 883.899 128.213 884.989 130L886.971 133.25H889.943C892.325 133.25 932.606 119.936 933.831 118.743C934.013 118.566 933.662 117.487 933.051 116.346C930.469 111.522 921.618 109.924 913.5 112.816ZM729 116.275C709.384 118.575 692.859 126.786 683.767 138.75C678.539 145.629 676 154.291 676 165.25C676 189.329 687.402 201.795 715 207.886C718.702 208.703 732.262 209.737 746.5 210.287C782.322 211.671 795.75 214.421 804.284 222.121C809.416 226.752 811.005 230.633 810.978 238.468C810.95 246.414 808.575 251.794 802.48 257.718C793.261 266.678 780.041 271.101 760 271.93L746.5 272.489L737.525 270.795C719.485 267.391 703.259 258.982 689.192 245.749C684.808 241.625 680.946 238.25 680.61 238.25C680.275 238.25 680 243.413 680 249.724V261.199L682.919 262.708C691.202 266.992 706.474 271.225 723.038 273.829C736.286 275.912 767.93 276.258 776.5 274.413C806.47 267.964 823.673 252.718 826.932 229.721C830.152 207.004 819.008 190.969 795.063 183.861C784.143 180.619 771.275 179.135 746.649 178.278C713.686 177.131 701.236 174.587 693.627 167.446C685.22 159.557 686.261 145.597 696.053 134.882C704.422 125.725 715.978 120.903 733.61 119.208C762.361 116.444 790.704 125.716 811.764 144.774L818 150.418V141.472V132.525L807.281 128.256C781.704 118.069 752.205 113.554 729 116.275ZM558.357 148.242C555.876 149.243 552.996 153.002 553.009 155.223L553.018 156.75L576.052 164.623C588.721 168.953 599.226 172.328 599.395 172.123C599.565 171.918 600.178 169.275 600.757 166.251L601.811 160.751L600.655 160.03C598.736 158.833 563.434 147.245 561.913 147.313C561.136 147.348 559.536 147.766 558.357 148.242ZM917.5 152.237C898.865 158.884 898.146 159.204 897.564 161.108C897.055 162.772 898.371 169.955 899.368 170.951C900.559 172.143 945.008 156.392 945.725 154.524C946.031 153.726 945.137 151.932 943.729 150.525L941.178 147.974L936.339 147.609L931.5 147.244L917.5 152.237ZM928.25 189.587C917.112 193.495 908 196.982 908 197.336C908 198.474 948.486 212.025 948.868 211.015C949.07 210.48 946.383 207.163 942.896 203.645L936.556 197.248L943.38 190.371C947.133 186.589 949.821 183.267 949.352 182.988C948.883 182.71 939.388 185.68 928.25 189.587ZM549 184.132C549 184.735 551.25 187.713 554 190.75C556.75 193.787 559 196.699 559 197.223C559 197.746 556.516 200.958 553.481 204.36C550.445 207.762 548.179 210.763 548.445 211.029C549.012 211.595 588.987 197.997 588.995 197.235C588.998 196.952 580.563 193.838 570.25 190.314C559.938 186.791 550.938 183.712 550.25 183.472C549.563 183.232 549 183.529 549 184.132ZM575.059 230.129C562.716 234.401 552.467 238.35 552.282 238.904C551.646 240.811 556.114 245.204 559.804 246.299L563.5 247.397L580.91 241.377C590.486 238.066 599.002 234.676 599.835 233.843L601.35 232.329L600.425 227.614C599.916 225.021 599.05 222.778 598.5 222.631C597.95 222.483 587.402 225.857 575.059 230.129ZM897.984 228.829C897.346 231.898 897.023 234.607 897.265 234.849C898.446 236.029 932.913 247.324 935.682 247.438C939.486 247.595 943.668 245.072 945.208 241.693C945.822 240.345 946.139 239.098 945.912 238.922C945.082 238.28 901.261 223.25 900.218 223.25C899.626 223.25 898.621 225.761 897.984 228.829ZM586.5 267.164C576.05 270.894 566.712 274.287 565.75 274.705C563.11 275.85 563.635 277.853 567.25 280.432L570.5 282.75L575.5 282.681C578.893 282.635 585.802 280.749 597 276.812C606.075 273.622 613.942 270.601 614.482 270.099C615.114 269.512 614.62 267.597 613.093 264.718L610.722 260.25L608.111 260.316C606.675 260.352 596.95 263.434 586.5 267.164ZM887.923 261.241C887.056 261.744 885.51 264.011 884.487 266.279L882.628 270.402L883.988 271.243C884.737 271.705 893.775 274.881 904.074 278.301C916.883 282.553 923.596 284.317 925.322 283.884C928.35 283.124 934 278.557 934 276.869C934 276.206 924.915 272.471 913.75 268.545C889.259 259.932 889.879 260.108 887.923 261.241ZM603.75 301.998C591.788 306.223 582 310.027 582 310.451C582 310.875 583.799 312.412 585.998 313.867L589.996 316.513L597.248 315.985L604.5 315.457L621.422 309.349C630.728 305.989 638.568 303.015 638.843 302.741C639.118 302.466 637.982 300.555 636.319 298.495L633.296 294.75L629.398 294.533C626.683 294.382 618.899 296.647 603.75 301.998ZM862.711 298.189C859.923 300.797 858.838 302.46 859.5 303.111C861.525 305.102 898.085 317.25 902.052 317.25C906.856 317.25 911.803 315.308 914.386 312.409L916.272 310.292L914.886 309.788C898.331 303.766 869.819 294.25 868.332 294.25C867.557 294.25 865.027 296.022 862.711 298.189ZM634.5 332.312C620.75 337.16 609.05 341.325 608.5 341.568C606.223 342.573 618.606 347.231 623.582 347.24L628.665 347.25L650.582 339.842C676.868 330.957 676.117 331.248 675.473 330.207C674.358 328.402 664.121 323.257 661.878 323.374C660.57 323.442 648.25 327.464 634.5 332.312ZM830.184 325.769C828.36 326.561 825.748 328.09 824.38 329.166L821.893 331.122L824.145 332.328C829.553 335.222 870.757 348.249 874.475 348.24C878.489 348.23 889 344.086 889 342.513C889 342.058 883.712 339.951 877.25 337.831C870.788 335.711 859.684 331.789 852.576 329.114C838.886 323.962 835.506 323.457 830.184 325.769ZM772 346.832C767.325 347.591 761.938 348.484 760.029 348.817L756.559 349.423L758.129 350.302C759.559 351.102 790.881 362.145 817 371.057L827.5 374.64L835 374.655C842.073 374.668 852 372.115 852 370.282C852 369.899 850.538 369.11 848.75 368.53C846.962 367.949 830.904 362.474 813.063 356.362C795.223 350.25 780.598 345.296 780.563 345.352C780.529 345.408 776.675 346.074 772 346.832ZM694 352.693C683.825 356.191 668.55 361.441 660.056 364.36L644.612 369.668L649.056 371.616C655.216 374.317 666.088 374.89 673 372.878C685.846 369.138 739.959 349.819 739.262 349.221C738.289 348.386 721.506 346.237 716.387 346.292C714.249 346.315 704.175 349.195 694 352.693ZM739.5 377.708C736.2 378.461 731.025 380.181 728 381.531C724.975 382.881 717.404 385.677 711.176 387.744L699.853 391.503L700.912 392.562C701.494 393.144 707.039 393.813 713.235 394.048L724.5 394.476L735.33 391.863C748.472 388.692 749.01 388.683 758.739 391.485L766.5 393.72L779.5 393.735C787.332 393.744 793.253 393.305 794.394 392.63L796.288 391.509L789.394 389.254C785.602 388.014 776.875 384.854 770 382.232C755.655 376.761 748.384 375.682 739.5 377.708ZM81.5 498.229C63.819 502.169 51.234 511.12 45.16 524.075L42.5 529.75V540.25V550.75L44.701 555.516C47.629 561.857 55.952 570.011 64.207 574.625C67.896 576.687 77.854 581.22 86.336 584.698C116.474 597.057 126.527 604.025 130.836 615.541C137.271 632.74 129.257 647.384 110.187 653.274L103.789 655.25L93.645 655.226C88.065 655.212 81.488 654.737 79.028 654.171C67.393 651.49 53.012 641.246 47.372 631.621L44.835 627.292L41.667 628.641C35.646 631.206 31 633.623 31.009 634.185C31.039 635.965 37.589 645.734 41.96 650.516C48.706 657.897 56.533 662.959 66.956 666.682L75.5 669.734L92 669.711L108.5 669.688L114.92 667.898C133.829 662.624 145.118 652.095 148.589 636.496L150.268 628.948L149.652 621.656C148.169 604.115 139.036 592.268 119.42 582.439C116.075 580.763 106.046 576.468 97.132 572.894C74.097 563.659 66.345 558.609 61.71 549.818L59.565 545.75L59.607 539.25L59.65 532.75L61.745 528.697C66.408 519.675 75.532 513.898 88.055 512.039L95.054 511L101.244 512.218C111.594 514.255 119.851 519.475 125.63 527.636L127.674 530.522L134.318 526.636C137.972 524.499 140.97 522.447 140.981 522.078C140.991 521.708 139.52 519.458 137.711 517.078C132.624 510.384 123.278 503.869 114.362 500.801L106.5 498.096L96 497.717C90.225 497.509 83.7 497.739 81.5 498.229ZM843.491 507.476C840.817 513.127 835.062 525.175 830.702 534.25C803.019 591.864 775.121 650.088 771.407 658L767.066 667.25H776.01H784.955L797.139 642.25L809.322 617.25H848.592H887.862L900.099 642.25L912.336 667.25H921.168C926.026 667.25 930 666.982 930 666.653C930 666.325 922.334 650.109 912.964 630.616C903.593 611.123 892.87 588.779 889.134 580.963C867.314 535.307 849.592 498.649 849.016 497.976C848.651 497.551 846.165 501.826 843.491 507.476ZM1182.66 498.232C1169.29 500.658 1154.24 506.989 1144 514.497C1128.12 526.14 1117.93 540.46 1111.45 560.25L1108.67 568.75L1108.58 582.75C1108.49 597.629 1109.38 602.93 1113.82 614.25C1124.04 640.309 1146.49 659.882 1175.44 667.991L1181.5 669.688H1198H1214.5L1220.56 667.991C1253.37 658.803 1276.87 635.773 1285.62 604.248L1287.42 597.75L1287.4 583.75L1287.37 569.75L1285.63 563.25C1282.91 553.098 1274.89 537.581 1268.32 529.776C1256.77 516.058 1241.17 505.952 1223.44 500.705L1214.5 498.06L1201 497.707C1193.57 497.512 1185.32 497.749 1182.66 498.232ZM1343 582.667V667.25H1350.99H1358.99L1359.24 601.174L1359.5 535.098L1425.34 602.674C1461.55 639.841 1491.59 670.25 1492.1 670.25C1492.64 670.25 1492.91 636.056 1492.76 585L1492.5 499.75L1483.75 499.461L1475 499.172L1474.98 565.961L1474.96 632.75L1469.25 626.75C1463.61 620.825 1412.14 567.938 1367.55 522.262C1354.93 509.33 1344.24 498.6 1343.8 498.417C1343.36 498.233 1343 536.146 1343 582.667ZM213.667 499.917C213.3 500.283 213 538.083 213 583.917V667.25H222H231V633.75V600.25H285H339V633.75V667.25H348.006H357.011L356.756 583.5L356.5 499.75L347.75 499.461L339 499.172V542.211V585.25H285H231V542.25V499.25H222.667C218.083 499.25 214.033 499.55 213.667 499.917ZM432.667 499.917C432.3 500.283 432 538.083 432 583.917V667.25H483.5H535V660.261V653.271L492.25 653.011L449.5 652.75L449.233 626.5L448.967 600.25H485.983H523V592.75V585.25H486H449V549.75V514.25H491H533V506.75V499.25H483.167C455.758 499.25 433.033 499.55 432.667 499.917ZM601 583.153V667.25H609.5H618V590.75V514.25L639.75 514.27C651.712 514.281 664.65 514.736 668.5 515.281C682.254 517.228 692.421 524.454 697.836 536.13L700.442 541.75L700.471 550.25L700.5 558.75L697.887 564.25C693.062 574.407 682.766 581.898 670.52 584.162C667.282 584.76 658.924 585.25 651.947 585.25H639.261L636.527 591.5C635.023 594.938 633.57 598.301 633.299 598.974L632.806 600.198L648.635 600.474L664.463 600.75L684.526 632.994C695.56 650.728 705.059 665.709 705.634 666.284C706.255 666.905 710.421 667.212 715.904 667.04L725.128 666.75L703.953 633.25C692.307 614.825 682.597 599.296 682.375 598.742C682.153 598.188 685.054 596.298 688.821 594.543C701.468 588.651 710.643 578.111 714.157 565.439C716.45 557.17 716.586 542.92 714.45 534.72C710.443 519.335 696.993 507.162 678.399 502.09L670.5 499.935L635.75 499.495L601 499.056V583.153ZM953 506.75V514.25H978H1003V590.75V667.25H1012H1021V590.75V514.25H1046.5H1072V506.75V499.25H1012.5H953V506.75ZM1185.65 511.847C1150.07 518.276 1125 547.995 1125 583.75C1125 607.469 1135.12 627.902 1153.86 642.022C1178.96 660.934 1214 661.795 1239.68 644.129C1246.61 639.356 1256.27 629.218 1260.48 622.277C1288.21 576.643 1259.89 518.157 1206.74 511.252C1197.51 510.054 1195.22 510.118 1185.65 511.847ZM846.71 535.907C843.407 542.438 816 601.919 816 602.556C816 602.938 830.4 603.25 848 603.25H880V602.071C880 601.104 849.401 534.53 848.441 533.407C848.279 533.218 847.501 534.343 846.71 535.907ZM546.882 740.577C540.54 742.938 536.052 746.305 533.543 750.587C528.664 758.912 528.959 769.856 534.223 775.851C538.456 780.672 542.805 782.671 554.5 785.173C569.032 788.282 573.607 789.994 576.47 793.397L579 796.403L578.996 801.077C578.991 807.48 576.138 811.859 570.285 814.448C560.341 818.847 545.479 817.439 536.002 811.201L531.5 808.237L528.627 811.397L525.755 814.556L528.127 816.404C543.203 828.142 571.733 828.036 582.425 816.201C590.455 807.313 589.668 791.625 580.859 784.987C576.842 781.96 571.848 780.234 558.5 777.257C542.044 773.588 538.336 770.511 539.225 761.26L539.717 756.137L542.955 752.796C547.145 748.474 553.01 746.859 562.347 747.459L569.686 747.929L575.545 751.103L581.404 754.276L583.664 751.513C584.906 749.993 585.812 748.3 585.676 747.75C585.54 747.2 582.313 745.179 578.506 743.259L571.583 739.767L561.042 739.499C554.046 739.321 549.283 739.683 546.882 740.577ZM773 743.693V748.25H777.557H782.115L781.807 744L781.5 739.75L777.25 739.443L773 739.135V743.693ZM733.789 755L733.5 763.75L730.75 764.066L728 764.383V767.816V771.25H731H734V792.782V814.314L735.421 817.716C737.315 822.249 741.477 824.25 749.011 824.25H755.121L754.81 820.5L754.5 816.75L751.5 816.476C742.318 815.637 742 814.753 742 790.101V771.25H748.5H755V767.798V764.345L748.75 764.048L742.5 763.75L742.211 755L741.922 746.25H738H734.078L733.789 755ZM613.748 764.677C610.467 765.848 603 770.729 603 771.703C603 771.896 604.375 772.924 606.055 773.988L609.11 775.922L613.725 773.586L618.339 771.25L624.419 771.265C634.13 771.288 638.771 775.036 639.74 783.636L640.26 788.25L628.88 788.274C611.111 788.311 606.498 790.045 602.179 798.309L599.857 802.75L600.358 808.018C600.995 814.714 603.767 819.189 609.152 822.215L613.402 824.604L620.951 825.026C628.004 825.419 630.973 824.862 638.25 821.778L640 821.036V822.643V824.25H644.581H649.161L648.83 801L648.499 777.75L646.839 774.75C644.516 770.552 640.156 766.63 635.782 764.803C631.196 762.887 618.959 762.817 613.748 764.677ZM684.179 764.468C682.353 765.08 679.54 766.811 677.929 768.316L675 771.052V767.651V764.25H670.5H666V794.25V824.25H670.5H675L675.002 803L675.003 781.75L676.752 778.25C677.73 776.29 680.04 773.956 682 772.946L685.5 771.142L691.718 771.491L697.935 771.841L700.597 774.295C702.06 775.645 703.875 778.198 704.629 779.968L706 783.186V803.718V824.25H710.568H715.135L714.818 801.5L714.5 778.75L712.369 774.142C711.197 771.607 708.532 768.232 706.447 766.642L702.656 763.75L695.078 763.553C690.91 763.445 686.006 763.857 684.179 764.468ZM811.748 764.677C808.467 765.848 801 770.729 801 771.703C801 771.896 802.375 772.924 804.055 773.988L807.11 775.922L811.725 773.586L816.339 771.25L822.419 771.265C832.086 771.288 836.771 775.039 837.727 783.519L838.234 788.017L824.268 788.4L810.303 788.784L806.063 791.59C803.216 793.474 801.156 795.903 799.792 798.988L797.76 803.58L798.341 808.484C799.101 814.894 801.906 819.267 807.152 822.215L811.402 824.604L818.951 825.026C826.004 825.419 828.973 824.862 836.25 821.778L838 821.036V822.643V824.25H842.581H847.161L846.83 801L846.499 777.75L844.839 774.75C842.516 770.552 838.156 766.63 833.782 764.803C829.196 762.887 816.959 762.817 811.748 764.677ZM872.83 765.277C864.883 769.475 862.5 776.158 862.5 794.25C862.5 808.94 863.443 813.247 867.795 818.418C874.617 826.526 890.609 827.657 898.969 820.623L902 818.072V822.295C902 832.608 896.95 839.535 888.509 840.801C882.353 841.724 878.296 840.782 873.431 837.299L869.362 834.386L866.431 836.736L863.5 839.086L866.42 842.15C870.635 846.574 877.123 848.769 885.625 848.65L892.749 848.55L897.376 846.31C902.655 843.755 907.082 838.867 909.016 833.461L910.343 829.75L910.744 797L911.145 764.25H906.573H902V767.694V771.137L898.926 768.33C897.236 766.786 894.146 765.011 892.06 764.386C886.166 762.62 877.061 763.042 872.83 765.277ZM941.176 764.388C936.44 765.752 929.396 773.159 927.839 778.411C927.11 780.87 926.541 787.982 926.526 794.821L926.5 806.893L929.515 812.788L932.531 818.683L937.437 821.717L942.343 824.75L951.422 824.746L960.5 824.742L963.521 823.089C967.952 820.664 972.037 816.294 974.121 811.75L975.956 807.75L975.968 794.25L975.98 780.75L973.598 775.633C971.07 770.204 966.684 766.257 961.101 764.388C957.067 763.038 945.864 763.038 941.176 764.388ZM773 794.25V824.25H777.5H782V794.25V764.25H777.5H773V794.25ZM879.5 772.08C877.222 773.16 874.654 775.435 873.534 777.363L871.568 780.75L871.168 790.485C870.624 803.745 871.483 808.591 875.108 812.72L878.08 816.105L882.623 817.074C890.938 818.847 897.632 815.4 900.51 807.862L902.178 803.495L901.839 791.942L901.5 780.389L899.438 777.631C894.297 770.755 886.735 768.65 879.5 772.08ZM943.256 772.839C941.472 773.749 939.009 776.118 937.782 778.102L935.552 781.711L935.158 791.523C934.916 797.554 935.246 803.058 936.016 805.807C939.783 819.263 958.302 821.418 965.438 809.231L967.376 805.922L967.82 797.464C968.064 792.812 967.738 786.659 967.096 783.79L965.929 778.573L962.457 775.209L958.986 771.844L952.743 771.514L946.5 771.185L943.256 772.839ZM615.295 797.357C611.219 798.536 609 801.701 609 806.338C609 811.786 611.966 814.875 618.631 816.367L624.223 817.618L630.661 816.515C634.202 815.909 637.752 814.871 638.55 814.209L640 813.005V804.628V796.25L629.25 796.34C623.337 796.39 617.058 796.847 615.295 797.357ZM813.295 797.357C809.219 798.536 807 801.701 807 806.338C807 811.786 809.966 814.875 816.631 816.367L822.223 817.618L828.661 816.515C832.202 815.909 835.752 814.871 836.55 814.209L838 813.005V804.628V796.25L827.25 796.34C821.337 796.39 815.058 796.847 813.295 797.357ZM0.714001 882.869C0.321001 883.262 0 902.408 0 925.417V967.25H4.5H9V948.25V929.25H30.5H52V948.25V967.25H56H60V924.75V882.25H56H52V901.75V921.25H30.522H9.043L8.772 902L8.5 882.75L4.964 882.452C3.02 882.289 1.107 882.476 0.714001 882.869ZM248.714 882.869C248.321 883.262 248 899.699 248 919.396V955.21L249.601 959.211C250.554 961.594 252.523 964.028 254.469 965.231L257.736 967.25H263.928H270.121L269.81 963.5L269.5 959.75L264.755 959.205C262.145 958.905 259.445 958.095 258.755 957.406L257.5 956.152L257 919.451L256.5 882.75L252.964 882.452C251.02 882.289 249.107 882.476 248.714 882.869ZM481 898.136V914.137L477.926 911.33C469.645 903.766 452.045 904.68 446.223 912.977C442.446 918.36 441.5 923.223 441.5 937.25C441.5 951.94 442.443 956.247 446.795 961.418C453.617 969.526 469.609 970.657 477.969 963.623L481 961.072V964.161V967.25H485.511H490.022L489.761 925L489.5 882.75L485.25 882.443L481 882.135V898.136ZM556.154 883.781C550.551 886.214 545.55 890.829 542.449 896.426L539.5 901.75V924.75V947.75L541.991 952.627C550.468 969.227 573.336 973.508 587.401 961.128C591.897 957.171 597 949.013 597 945.783V944.25H592.608H588.217L587.583 946.775C585.969 953.205 575.749 960.261 568.072 960.244C558.85 960.224 551.211 954.222 548.489 944.859L546.802 939.057L547.184 922.404L547.566 905.75L549.691 901.75C552.257 896.922 556.498 892.756 560.315 891.314C563.815 889.991 572.034 889.932 575.383 891.205C579.113 892.623 585.564 898.811 587.444 902.773L589.094 906.25H593.047H597V904.446C597 901.049 591.825 892.256 587.795 888.807C585.58 886.91 581.714 884.659 579.205 883.804C573.451 881.843 560.646 881.831 556.154 883.781ZM975 886.693V891.25H979.557H984.115L983.807 887L983.5 882.75L979.25 882.443L975 882.135V886.693ZM1183.15 883.781C1177.55 886.214 1172.55 890.829 1169.45 896.426L1166.5 901.75L1166.18 923.027L1165.86 944.304L1167.58 949.495C1168.78 953.092 1170.9 956.282 1174.51 959.885L1179.7 965.085L1185.03 966.667C1196.02 969.928 1206.69 967.914 1214.4 961.128C1218.9 957.171 1224 949.013 1224 945.783V944.25H1219.61H1215.22L1214.58 946.775C1212.97 953.205 1202.75 960.261 1195.07 960.244C1185.85 960.224 1178.21 954.222 1175.49 944.859L1173.8 939.057L1174.18 922.404L1174.57 905.75L1176.69 901.75C1179.26 896.922 1183.5 892.756 1187.31 891.314C1190.81 889.991 1199.03 889.932 1202.38 891.205C1206.17 892.645 1213.13 899.327 1214.67 903L1216.03 906.25H1220.01H1224V904.446C1224 900.919 1218.74 892.175 1214.57 888.752C1212.23 886.841 1208.4 884.595 1206.04 883.763C1200.58 881.836 1187.61 881.847 1183.15 883.781ZM146.789 898L146.5 906.75L143.75 907.066L141 907.383V910.816V914.25H144H147V935.782V957.314L148.421 960.716C150.315 965.249 154.477 967.25 162.011 967.25H168.121L167.81 963.5L167.5 959.75L164.5 959.476C155.318 958.637 155 957.753 155 933.101V914.25H161.5H168V910.798V907.345L161.75 907.048L155.5 906.75L155.211 898L154.922 889.25H151H147.078L146.789 898ZM935.789 898L935.5 906.75L932.75 907.066L930 907.383V910.816V914.25H933H936V935.782V957.314L937.421 960.716C939.315 965.249 943.477 967.25 951.011 967.25H957.121L956.81 963.5L956.5 959.75L953.5 959.476C944.318 958.637 944 957.753 944 933.101V914.25H950.5H957V910.798V907.345L950.75 907.048L944.5 906.75L944.211 898L943.922 889.25H940H936.078L935.789 898ZM1371.79 898L1371.5 906.75L1368.75 907.066L1366 907.383V910.816V914.25H1369H1372V935.782V957.314L1373.42 960.716C1375.32 965.249 1379.48 967.25 1387.01 967.25H1393.12L1392.81 963.5L1392.5 959.75L1389.5 959.476C1380.32 958.637 1380 957.753 1380 933.101V914.25H1386.5H1393V910.798V907.345L1386.75 907.048L1380.5 906.75L1380.21 898L1379.92 889.25H1376H1372.08L1371.79 898ZM93.5 907.311C88.918 908.656 83.437 913.722 80.854 918.999L78.528 923.75L78.514 936.82L78.5 949.889L81.515 955.786L84.531 961.683L89.437 964.717L94.343 967.75L103.422 967.746L112.5 967.742L115.521 966.089C119.393 963.97 123.737 959.619 125.824 955.771L127.461 952.75L127.824 938.543L128.186 924.335L125.714 918.936C123.098 913.222 118.816 909.302 113.101 907.388C109.166 906.071 97.876 906.026 93.5 907.311ZM196.444 908.136C191.14 910.545 185.578 917.146 183.883 923.042C182.134 929.122 182.116 945.428 183.85 951.394C186.766 961.422 194.734 967.266 206.5 968.007L213.5 968.447L219 966.322C222.025 965.154 225.837 963.101 227.471 961.76L230.443 959.322L227.535 956.287L224.627 953.252L222.535 955.217C219.809 957.778 212.712 960.25 208.086 960.25C203.616 960.25 196.26 956.642 193.815 953.25C192.824 951.875 191.62 948.621 191.139 946.02L190.266 941.29L210.883 941.02L231.5 940.75L231.443 932.75C231.412 928.35 230.801 923.024 230.087 920.914C228.354 915.795 223.428 910.35 218.509 908.115C213.069 905.644 201.907 905.655 196.444 908.136ZM324.748 907.677C321.467 908.848 314 913.729 314 914.703C314 914.896 315.375 915.924 317.055 916.988L320.11 918.922L324.725 916.586L329.339 914.25L335.419 914.265C345.13 914.288 349.771 918.036 350.74 926.636L351.26 931.25L339.88 931.274C322.111 931.311 317.498 933.045 313.179 941.309L310.857 945.75L311.358 951.018C311.995 957.714 314.767 962.189 320.152 965.215L324.402 967.604L331.951 968.026C339.004 968.419 341.973 967.862 349.25 964.778L351 964.036V965.643V967.25H355.581H360.161L359.83 944L359.499 920.75L357.839 917.75C355.516 913.552 351.156 909.63 346.782 907.803C342.196 905.887 329.959 905.817 324.748 907.677ZM395.179 907.468C393.353 908.08 390.54 909.811 388.929 911.316L386 914.052V910.651V907.25H381.5H377V937.25V967.25H381.5H386L386.002 946L386.003 924.75L387.752 921.25C388.73 919.29 391.04 916.956 393 915.946L396.5 914.142L402.718 914.491L408.935 914.841L411.597 917.295C413.06 918.645 414.875 921.198 415.629 922.968L417 926.186V946.718V967.25H421.568H426.135L425.818 944.5L425.5 921.75L423.369 917.142C422.197 914.607 419.532 911.232 417.447 909.642L413.656 906.75L406.078 906.553C401.91 906.445 397.006 906.857 395.179 907.468ZM626.5 907.311C621.918 908.656 616.437 913.722 613.854 918.999L611.528 923.75L611.514 936.82L611.5 949.889L614.515 955.786L617.531 961.683L622.212 964.578L626.893 967.472L633.269 967.984C645.467 968.963 654.825 964.174 659.129 954.75L660.956 950.75L660.968 937.25L660.98 923.75L658.598 918.633C656.07 913.204 651.684 909.257 646.101 907.388C642.166 906.071 630.876 906.026 626.5 907.311ZM696.179 907.468C694.353 908.08 691.54 909.811 689.929 911.316L687 914.052V910.651V907.25H682.5H678V937.25V967.25H682.5H687L687.002 946L687.003 924.75L688.752 921.25C689.73 919.29 692.04 916.956 694 915.946L697.5 914.142L703.718 914.491L709.935 914.841L712.597 917.295C714.06 918.645 715.875 921.198 716.629 922.968L718 926.186V946.718V967.25H722.568H727.135L726.818 944.5L726.5 921.75L724.369 917.142C723.197 914.607 720.532 911.232 718.447 909.642L714.656 906.75L707.078 906.553C702.91 906.445 698.006 906.857 696.179 907.468ZM816.444 908.136C811.14 910.545 805.578 917.146 803.883 923.042C802.127 929.149 802.118 945.437 803.868 951.458C805.862 958.317 810.901 963.691 817.774 966.286L823.5 968.448L830.016 967.999C836.633 967.544 843.465 965.028 847.995 961.381L850.491 959.371L847.609 956.364L844.727 953.356L841.614 955.665C834.827 960.698 826.964 961.548 820.02 958C814.56 955.21 812.265 952.114 811.139 946.02L810.266 941.29L830.883 941.02L851.5 940.75L851.805 935.423C852.515 923.018 847.708 912.894 839.024 908.5L834.576 906.25L827.538 906.272C822.876 906.287 819.131 906.916 816.444 908.136ZM886.278 907.526C884.506 908.199 881.694 909.947 880.028 911.41L877 914.07V910.66V907.25H872.5H868V937.25V967.25H872.5H877L877.002 946L877.003 924.75L878.752 921.25C879.73 919.29 882.04 916.956 884 915.946L887.5 914.142L893.718 914.491L899.935 914.841L902.597 917.295C904.06 918.645 905.875 921.198 906.629 922.968L908 926.186V946.718V967.25H912.568H917.135L916.818 944.5L916.5 921.75L914.148 916.973C912.854 914.345 910.189 910.97 908.226 909.473L904.656 906.75L897.078 906.526C892.91 906.403 888.05 906.853 886.278 907.526ZM1016.5 907.311C1011.92 908.656 1006.44 913.722 1003.85 918.999L1001.53 923.75L1001.51 936.82L1001.5 949.889L1004.52 955.786L1007.53 961.683L1012.44 964.717L1017.34 967.75L1026.42 967.746L1035.5 967.742L1038.52 966.089C1042.95 963.664 1047.04 959.294 1049.12 954.75L1050.96 950.75L1050.97 937.25L1050.98 923.75L1048.6 918.633C1046.07 913.204 1041.68 909.257 1036.1 907.388C1032.17 906.071 1020.88 906.026 1016.5 907.311ZM1086.28 907.526C1084.51 908.199 1081.69 909.947 1080.03 911.41L1077 914.07V910.66V907.25H1072.5H1068V937.25V967.25H1072.5H1077L1077 946L1077 924.75L1078.75 921.25C1079.73 919.29 1082.04 916.956 1084 915.946L1087.5 914.142L1093.72 914.491L1099.94 914.841L1102.6 917.295C1104.06 918.645 1105.88 921.198 1106.63 922.968L1108 926.186V946.718V967.25H1112.57H1117.14L1116.82 944.5L1116.5 921.75L1114.15 916.973C1112.85 914.345 1110.19 910.97 1108.23 909.473L1104.66 906.75L1097.08 906.526C1092.91 906.403 1088.05 906.853 1086.28 907.526ZM1252.44 908.136C1247.14 910.545 1241.58 917.146 1239.88 923.042C1238.13 929.122 1238.12 945.428 1239.85 951.394C1242.77 961.422 1250.73 967.266 1262.5 968.007L1269.5 968.447L1275 966.322C1278.03 965.154 1281.84 963.101 1283.47 961.76L1286.44 959.322L1283.54 956.287L1280.63 953.252L1278.54 955.217C1275.81 957.778 1268.71 960.25 1264.09 960.25C1259.62 960.25 1252.26 956.642 1249.81 953.25C1248.82 951.875 1247.62 948.621 1247.14 946.02L1246.27 941.29L1266.88 941.02L1287.5 940.75L1287.44 932.75C1287.41 928.35 1286.8 923.024 1286.09 920.914C1284.35 915.795 1279.43 910.35 1274.51 908.115C1269.07 905.644 1257.91 905.655 1252.44 908.136ZM1322.18 907.468C1320.35 908.08 1317.54 909.811 1315.93 911.316L1313 914.052V910.651V907.25H1308.5H1304V937.25V967.25H1308.5H1313L1313 946L1313 924.75L1314.75 921.25C1315.73 919.29 1318.04 916.956 1320 915.946L1323.5 914.142L1329.72 914.491L1335.94 914.841L1338.6 917.295C1340.06 918.645 1341.88 921.198 1342.63 922.968L1344 926.186V946.718V967.25H1348.57H1353.14L1352.82 944.5L1352.5 921.75L1350.15 916.973C1348.85 914.345 1346.19 910.97 1344.23 909.473L1340.66 906.75L1333.08 906.553C1328.91 906.445 1324.01 906.857 1322.18 907.468ZM1421.44 908.136C1416.14 910.545 1410.58 917.146 1408.88 923.042C1407.13 929.122 1407.12 945.428 1408.85 951.394C1411.77 961.422 1419.73 967.266 1431.5 968.007L1438.5 968.447L1444 966.322C1447.03 965.154 1450.84 963.101 1452.47 961.76L1455.44 959.322L1452.58 956.339L1449.73 953.356L1446.61 955.665C1439.83 960.698 1431.96 961.548 1425.02 958C1419.56 955.21 1417.27 952.114 1416.14 946.02L1415.27 941.29L1435.88 941.02L1456.5 940.75L1456.44 932.75C1456.41 928.35 1455.8 923.024 1455.09 920.914C1453.35 915.795 1448.43 910.35 1443.51 908.115C1438.07 905.644 1426.91 905.655 1421.44 908.136ZM1491.5 907.639C1489.85 908.36 1487.04 910.182 1485.25 911.689L1482 914.428V910.839V907.25H1477.5H1473V937.25V967.25H1477.5H1482L1482 946L1482 924.75L1483.75 921.25C1486.97 914.797 1497.8 912.161 1505.69 915.906L1509.18 917.562L1511.55 914.656C1514.64 910.884 1514.6 910.586 1510.75 908.239L1507.5 906.257L1501 906.293C1497.42 906.312 1493.15 906.918 1491.5 907.639ZM738.147 908.089C738.341 908.615 743.674 922.142 749.999 938.148L761.497 967.25H765.059H768.622L779.804 938.849C785.955 923.228 791.273 909.701 791.624 908.789L792.26 907.13L787.489 907.44L782.718 907.75L774.181 931C769.485 943.787 765.381 954.25 765.062 954.25C764.742 954.25 761.373 945.813 757.576 935.5C753.779 925.188 749.902 914.725 748.959 912.25L747.246 907.75L742.52 907.441C739.804 907.263 737.944 907.539 738.147 908.089ZM975 937.25V967.25H979.5H984V937.25V907.25H979.5H975V937.25ZM458.394 915.103L454.288 917.023L452.144 921.452L450 925.881L450.006 936.316C450.009 942.055 450.456 948.351 450.999 950.307C453.707 960.055 466.925 963.817 475.306 957.224C476.701 956.127 478.593 953.263 479.51 950.862L481.178 946.495L480.839 934.942L480.5 923.389L478.438 920.631C473.279 913.73 465.764 911.658 458.394 915.103ZM95.256 915.839C93.472 916.749 91.009 919.118 89.782 921.102L87.552 924.711L87.158 934.523C86.916 940.554 87.246 946.058 88.016 948.807C91.783 962.263 110.302 964.418 117.438 952.231L119.376 948.922L119.82 940.464C120.064 935.812 119.738 929.659 119.096 926.79L117.929 921.573L114.457 918.209L110.986 914.844L104.743 914.514L98.5 914.185L95.256 915.839ZM199 916.201C194.828 918.422 192.273 922.465 191.111 928.685L190.258 933.25H207.261H224.263L223.726 929.243C222.939 923.38 219.876 918.189 215.965 916.092C211.51 913.703 203.599 913.754 199 916.201ZM628.256 915.839C626.472 916.749 624.009 919.118 622.782 921.102L620.552 924.711L620.158 934.523C619.916 940.554 620.246 946.058 621.016 948.807C624.783 962.263 643.302 964.418 650.438 952.231L652.376 948.922L652.82 940.464C653.064 935.812 652.738 929.659 652.096 926.79L650.929 921.573L647.457 918.209L643.986 914.844L637.743 914.514L631.5 914.185L628.256 915.839ZM819 916.201C814.828 918.422 812.273 922.465 811.111 928.685L810.258 933.25H827.261H844.263L843.726 929.243C842.939 923.38 839.876 918.189 835.965 916.092C831.51 913.703 823.599 913.754 819 916.201ZM1018.26 915.839C1016.47 916.749 1014.01 919.118 1012.78 921.102L1010.55 924.711L1010.16 934.523C1009.92 940.554 1010.25 946.058 1011.02 948.807C1014.78 962.263 1033.3 964.418 1040.44 952.231L1042.38 948.922L1042.82 940.464C1043.06 935.812 1042.74 929.659 1042.1 926.79L1040.93 921.573L1037.46 918.209L1033.99 914.844L1027.74 914.514L1021.5 914.185L1018.26 915.839ZM1255 916.201C1250.83 918.422 1248.27 922.465 1247.11 928.685L1246.26 933.25H1263.26H1280.26L1279.73 929.243C1278.94 923.38 1275.88 918.189 1271.96 916.092C1267.51 913.703 1259.6 913.754 1255 916.201ZM1424 916.201C1419.83 918.422 1417.27 922.465 1416.11 928.685L1415.26 933.25H1432.26H1449.26L1448.73 929.243C1447.94 923.38 1444.88 918.189 1440.96 916.092C1436.51 913.703 1428.6 913.754 1424 916.201ZM326.295 940.357C322.219 941.536 320 944.701 320 949.338C320 954.786 322.966 957.875 329.631 959.367L335.223 960.618L341.661 959.515C345.202 958.909 348.752 957.871 349.55 957.209L351 956.005V947.628V939.25L340.25 939.34C334.337 939.39 328.058 939.847 326.295 940.357Z" fill="black"/>
</svg>
