<svg width="456" height="457" viewBox="0 0 456 457" fill="none" xmlns="http://www.w3.org/2000/svg">
<path fill-rule="evenodd" clip-rule="evenodd" d="M202 1.54778C163.408 6.94078 135.442 16.9688 105 36.3298C37.837 79.0458 -2.59603 155.915 0.299971 235.378C2.08897 284.467 18.315 329.688 47.886 368C56.313 378.918 77.082 399.687 88 408.114C141.899 449.716 209.021 464.998 276.464 451.022C302.871 445.55 329.854 434.231 353.5 418.707C378.871 402.05 405.389 375.131 420.69 350.5C438.879 321.221 448.974 293.599 453.947 259.5L455.989 245.5L455.99 228C455.992 176.16 438.936 126.917 406.979 86.4998C399.115 76.5548 379.902 57.2808 370.218 49.6218C338.793 24.7708 301.757 8.77578 261 2.45378C246.239 0.164777 215.302 -0.310223 202 1.54778ZM205.5 3.65978C136.406 11.9598 77.558 47.5908 40.605 103.5C22.863 130.344 12.536 155.819 6.35197 188L3.75797 201.5L3.25497 222.245C2.70697 244.848 3.54397 254.759 7.66697 274.5C22.979 347.8 73.801 408.467 144 437.241C175.033 449.962 211.525 455.705 244.5 453.057C346.721 444.851 429.523 371.293 449.438 271C463.611 199.622 441.5 124.967 390.537 72.1308C354.269 34.5288 308.314 11.4018 256.03 4.44078C246.55 3.17878 213.729 2.67178 205.5 3.65978ZM200.131 11.6138C132.249 20.8298 74.299 59.3278 39.628 118.239C26.318 140.855 17.302 166.058 12.333 194.543L10.596 204.5L10.548 228L10.501 251.5L12.332 262.378C19.881 307.216 39.858 347.076 70.923 379.282C98.651 408.028 131.345 427.611 169.5 438.327C189.848 444.042 198.091 445.192 222.5 445.721L244.5 446.198L256.745 444.589C344.679 433.035 417.459 368.568 439.454 282.749C444.231 264.112 446.048 249.01 446.042 228.018C446.03 191.567 439.309 162.79 423.266 130.5C391.03 65.6178 327.01 20.3448 255.03 11.5278C239.814 9.66378 214.197 9.70378 200.131 11.6138ZM260.228 30.2568C257.325 33.3468 257.418 34.0078 260.75 33.9638C263.607 33.9268 270.753 29.0248 268 28.9908C267.175 28.9808 265.59 28.7278 264.478 28.4288C263.146 28.0708 261.695 28.6948 260.228 30.2568ZM225.717 35.2948C225.444 36.0058 225.148 42.5618 225.06 49.8618L224.9 63.1338L228.2 62.8168L231.5 62.4998L231.777 48.2498L232.055 33.9998H229.134C227.528 33.9998 225.99 34.5828 225.717 35.2948ZM201.542 35.9318C200.936 36.9128 201.9 43.7698 203.592 50.5088L204.335 53.4688L197.885 45.4848L191.436 37.4998L188.468 37.8468C186.836 38.0378 185.339 38.3488 185.143 38.5378C184.946 38.7268 185.848 45.0958 187.147 52.6908L189.509 66.4998L192.497 66.1738C194.14 65.9948 195.641 65.6918 195.832 65.5018C196.022 65.3108 195.463 61.6968 194.589 57.4708C193.715 53.2438 193 49.5748 193 49.3158C193 49.0578 194.631 51.0188 196.625 53.6728C202.741 61.8178 205.172 63.9998 208.128 63.9998C209.643 63.9998 211.113 63.6268 211.395 63.1708C211.676 62.7148 210.902 56.3018 209.674 48.9208L207.442 35.4998L204.815 35.1928C203.371 35.0238 201.898 35.3558 201.542 35.9318ZM250.686 38.4148C249.253 39.7428 247.831 41.8798 247.526 43.1648C246.013 49.5378 245.281 55.3768 245.752 57.3288C247.653 65.2088 260.3 68.6288 265.744 62.7348C268.338 59.9268 269.987 53.9898 269.994 47.4388L270 42.3768L267.904 40.1268C263.436 35.3308 254.927 34.4848 250.686 38.4148ZM254.575 44.2498C253.766 45.4868 252.968 48.9498 252.802 51.9438L252.5 57.3878L254.834 58.5778C259.596 61.0068 261.736 58.6668 263.386 49.2288L263.958 45.9578L261.979 43.9788C259.364 41.3638 256.391 41.4718 254.575 44.2498ZM162.498 45.3778L160.614 46.7558L164.457 56.0278L168.3 65.2998L167.333 66.8328C166.802 67.6758 165.609 68.8438 164.683 69.4278L163 70.4898L161.279 69.4038C160.332 68.8068 157.927 64.3088 155.935 59.4088L152.312 50.4998L149.927 50.7788C148.616 50.9318 147.195 51.4048 146.77 51.8298C145.605 52.9948 152.796 70.1018 155.773 73.2498L158.374 75.9998H161.786C167.022 75.9998 172.034 73.1618 173.657 69.2788L175.067 65.9028L174.175 62.7018C172.356 56.1718 166.773 43.9998 165.598 43.9998C164.929 43.9998 163.534 44.6198 162.498 45.3778ZM287.246 48.7498C286.146 51.3618 283.768 57.2528 281.96 61.8398L278.675 70.1808L280.087 71.0958C280.864 71.5998 282.364 71.8958 283.421 71.7558L285.342 71.4998L287.905 64.4998L290.467 57.4998L291.984 66.8988L293.5 76.2988L295.695 77.2778C296.902 77.8158 298.49 78.0258 299.223 77.7448C299.957 77.4628 302.751 71.7118 305.432 64.9648L310.306 52.6968L308.462 51.3488C305.26 49.0068 304.337 49.8108 301.403 57.4958L298.541 64.9918L297.904 63.2458C297.553 62.2858 296.949 58.0698 296.56 53.8768L295.853 46.2538L293.38 45.1268C289.684 43.4428 289.413 43.6038 287.246 48.7498ZM204.45 88.4608C176.088 93.6128 151.233 106.227 130.803 125.836C110.4 145.42 98.121 166.319 90.818 193.891L87.743 205.5L87.249 223.178L86.755 240.857L88.452 251.178C95.493 294.014 122.882 332.394 161 352.838C195.381 371.278 235.926 374.792 272.651 362.515C356.527 334.476 394.66 237.817 352.424 160.31C331.822 122.505 294.324 95.7978 251.619 88.5148C240.782 86.6658 214.493 86.6368 204.45 88.4608ZM287.173 161.419C278.112 164.383 271.62 170.891 268.454 180.182L266.883 184.792L267.191 228.146L267.5 271.5L269.804 276.5C272.737 282.868 276.216 286.514 282.5 289.806L287.5 292.426L297 292.463L306.5 292.5L309.81 290.693C314.881 287.925 320.825 282.154 323.756 277.153L326.401 272.64L326.825 263.779L327.249 254.919L318.374 255.209L309.5 255.5L308.924 261.5C308.193 269.118 307.543 270.501 303.533 272.98C296.971 277.035 289.335 274.795 286.624 268.018L285 263.96V227.923C285 205.068 285.402 190.291 286.098 187.525C287.411 182.31 290.254 179.468 295 178.626C302.591 177.279 309 183.967 309 193.234V198H318H327V191.178C327 178.985 322.433 170.695 312.042 164.027L307.034 160.813L299.267 160.408C294.235 160.146 289.977 160.502 287.173 161.419ZM129.218 216.712L129.5 272.5L131.652 276.5C134.64 282.053 140.661 287.853 146 290.321L150.5 292.401L159 292.439L167.5 292.476L171.795 290.195C178.02 286.888 183.232 281.828 185.887 276.513L188.207 271.866L189.133 260.683C189.642 254.532 189.933 229.7 189.779 205.5L189.5 161.5L180.25 161.212L171 160.925L170.976 211.212C170.963 238.871 170.537 263.3 170.028 265.5C169.518 267.711 167.938 270.506 166.497 271.75L163.888 274H159H154.112L151.306 271.587L148.5 269.174L148 215.337L147.5 161.5L138.218 161.212L128.936 160.924L129.218 216.712ZM203.667 161.667C202.813 162.52 202.811 209.339 203.662 255.836L204.324 292H231.662H259V283V274H240.5H222V217.5V161H213.167C208.308 161 204.033 161.3 203.667 161.667ZM104.116 360.75L95.056 371.5L98.778 374.858C100.825 376.704 104.017 379.387 105.87 380.818L109.241 383.421L111.141 381.074L113.041 378.727L109.021 375.286C106.809 373.393 105 371.455 105 370.979C105 370.503 107.367 367.276 110.259 363.807C113.152 360.338 116.139 356.704 116.897 355.731L118.276 353.962L116.483 351.981C115.497 350.892 114.35 350 113.934 350C113.518 350 109.1 354.837 104.116 360.75ZM332.632 356.417L329.765 358.763L334.991 372.881C337.866 380.647 340.54 387 340.935 387C341.329 387 342.609 385.981 343.78 384.735L345.908 382.469L344.969 380.985C343.39 378.486 343.856 377.348 347.637 374.464L351.273 371.69L353.123 372.845C355.736 374.476 357.433 374.285 359.375 372.138L361.06 370.276L348.471 362.138C341.546 357.662 335.795 354.016 335.691 354.036C335.586 354.056 334.21 355.127 332.632 356.417ZM338 363.48C338 363.744 338.717 365.751 339.593 367.942L341.187 371.924L343.703 370.275L346.219 368.627L342.859 365.84C339.692 363.213 338 362.391 338 363.48ZM130.006 380.215L118.762 390.353L120.572 391.676C122.971 393.43 124.959 393.347 127.109 391.401L128.876 389.802L133.017 392.13L137.159 394.457L136.605 397.223L136.052 399.988L138.557 401.63C139.935 402.532 141.386 402.95 141.781 402.557C142.729 401.615 147.9 374.721 147.321 373.743C147.075 373.326 145.608 372.332 144.062 371.532L141.25 370.078L130.006 380.215ZM304.014 375.029C300.447 376.739 297.359 378.307 297.152 378.515C296.741 378.926 308.636 401.976 309.966 403.343C310.618 404.013 314.113 402.89 315.82 401.461C315.996 401.314 315.177 399.307 314 397C312.823 394.693 312.144 392.522 312.491 392.176C312.838 391.829 315.462 392.812 318.324 394.359L323.526 397.173L326.263 395.926C327.768 395.24 329 394.295 329 393.826C329 393.358 326.975 391.99 324.5 390.788C319.588 388.401 319.545 388.326 320.993 384.517L321.987 381.904L320.648 378.702C317.731 371.723 313.063 370.692 304.014 375.029ZM137.091 382.053L133.682 384.911L134.963 386.456C137.126 389.062 138.708 388.193 139.827 383.782C140.416 381.463 140.808 379.481 140.699 379.38C140.59 379.278 138.966 380.481 137.091 382.053ZM307.669 380.253L305.852 381.581L307.087 384.291C308.55 387.502 309.949 387.681 313.139 385.063L315.5 383.125L314.398 381.313C312.998 379.011 310.011 378.54 307.669 380.253ZM277.5 385.768C273.1 387.119 269.319 388.393 269.097 388.599C268.575 389.083 276.012 414.24 276.996 415.322C277.408 415.774 281.66 414.924 286.445 413.432L295.146 410.719L294.492 408.111C294.132 406.677 293.689 405.355 293.507 405.173C293.325 404.991 290.667 405.633 287.6 406.6C281.536 408.512 281.561 408.516 280.571 405.296L279.894 403.091L284.697 401.665L289.5 400.239L289.228 397.931C288.846 394.68 288.626 394.605 283.381 395.926L278.685 397.108L277.858 395.804C276.242 393.257 277.067 392.344 282.547 390.617L288.093 388.868L287.434 386.684C287.072 385.483 286.488 384.232 286.138 383.905C285.787 383.578 281.9 384.416 277.5 385.768ZM182 388.706C178.243 390.08 176.051 393.508 174.37 400.638L172.626 408.035L173.576 410.736C175.03 414.87 180.422 418 186.089 418C191.266 418 192.483 417.098 191.497 413.991L190.865 412H187.367C179.951 412 178.751 409.568 181.539 400.182L183.077 395H186.074C187.722 395 190.106 395.679 191.373 396.508L193.675 398.017L195.492 396.008L197.31 394L195.505 392.006C192.814 389.032 185.798 387.318 182 388.706ZM243.136 392.721L240.771 393.169L241.32 396.835C241.621 398.851 242.401 405 243.053 410.5C243.706 416 244.523 420.812 244.87 421.193C245.685 422.09 262.28 419.74 262.121 418.75C262.054 418.337 262 417.038 262 415.861V413.722L256.125 414.255L250.25 414.788L249.058 404.189C247.859 393.539 247.466 391.885 246.191 392.136C245.811 392.211 244.436 392.474 243.136 392.721ZM214.092 395.19C213.595 396.46 211.121 402.647 208.594 408.938C206.067 415.23 204 420.742 204 421.188C204 421.635 205.575 422 207.5 422C209.717 422 211 421.52 211 420.691C211 419.971 211.563 418.669 212.25 417.797L213.5 416.211L217.956 416.856L222.412 417.5L222.995 420L223.579 422.5L226.789 422.813C228.933 423.023 229.999 422.69 229.998 421.813C229.997 421.091 228.268 414.425 226.155 407L222.313 393.5L218.655 393.19L214.996 392.879L214.092 395.19ZM216.158 405.866C214.607 411.044 214.593 411 217.861 411H220.723L219.693 406.5C219.126 404.025 218.36 402 217.99 402C217.62 402 216.795 403.74 216.158 405.866Z" fill="black"/>
</svg>
