solid OpenSCAD_Model
  facet normal 0 -0 -1
    outer loop
      vertex 49.9648 0.492188 -2.5
      vertex 50.2324 0.40918 -2.5
      vertex 49.9385 0.332031 -2.5
    endloop
  endfacet
  facet normal 0 -0 -1
    outer loop
      vertex 49.874 0.506836 -2.5
      vertex 49.9385 0.332031 -2.5
      vertex 48.8389 0.271484 -2.5
    endloop
  endfacet
  facet normal -0 0 -1
    outer loop
      vertex 49.9648 0.492188 -2.5
      vertex 49.9385 0.332031 -2.5
      vertex 49.874 0.506836 -2.5
    endloop
  endfacet
  facet normal 0 0 -1
    outer loop
      vertex 48.6318 0.719727 -2.5
      vertex 49.874 0.506836 -2.5
      vertex 48.8389 0.271484 -2.5
    endloop
  endfacet
  facet normal 0 0 -1
    outer loop
      vertex 46.7812 0.227539 -2.5
      vertex 48.6318 0.719727 -2.5
      vertex 48.8389 0.271484 -2.5
    endloop
  endfacet
  facet normal 0 0 -1
    outer loop
      vertex 46.7812 0.227539 -2.5
      vertex 44.9639 1.69238 -2.5
      vertex 48.6318 0.719727 -2.5
    endloop
  endfacet
  facet normal -0 0 -1
    outer loop
      vertex 46.7812 0.227539 -2.5
      vertex 43.6133 0.197266 -2.5
      vertex 44.9639 1.69238 -2.5
    endloop
  endfacet
  facet normal -0 0 -1
    outer loop
      vertex 44.9639 1.69238 -2.5
      vertex 43.6133 0.197266 -2.5
      vertex 40.6455 3.49023 -2.5
    endloop
  endfacet
  facet normal 0 -0 -1
    outer loop
      vertex 40.6455 3.49023 -2.5
      vertex 43.6133 0.197266 -2.5
      vertex 39.1826 0.177734 -2.5
    endloop
  endfacet
  facet normal 0 0 -1
    outer loop
      vertex 36.8135 5.9541 -2.5
      vertex 40.6455 3.49023 -2.5
      vertex 39.1826 0.177734 -2.5
    endloop
  endfacet
  facet normal 0 0 -1
    outer loop
      vertex 33.3389 0.167969 -2.5
      vertex 36.8135 5.9541 -2.5
      vertex 39.1826 0.177734 -2.5
    endloop
  endfacet
  facet normal 0 0 -1
    outer loop
      vertex 33.3389 0.167969 -2.5
      vertex 34.1572 8.27637 -2.5
      vertex 36.8135 5.9541 -2.5
    endloop
  endfacet
  facet normal -0 0 -1
    outer loop
      vertex 33.3389 0.167969 -2.5
      vertex 27.7812 0.164062 -2.5
      vertex 34.1572 8.27637 -2.5
    endloop
  endfacet
  facet normal -0 0 -1
    outer loop
      vertex 34.1572 8.27637 -2.5
      vertex 27.7812 0.164062 -2.5
      vertex 33.3633 9.13184 -2.5
    endloop
  endfacet
  facet normal -0 0 -1
    outer loop
      vertex 33.3633 9.13184 -2.5
      vertex 27.7812 0.164062 -2.5
      vertex 32.7158 9.83203 -2.5
    endloop
  endfacet
  facet normal -0 0 -1
    outer loop
      vertex 32.7158 9.83203 -2.5
      vertex 27.7812 0.164062 -2.5
      vertex 30.96 12.1045 -2.5
    endloop
  endfacet
  facet normal 0 0 -1
    outer loop
      vertex 23.0957 16.2812 -2.5
      vertex 27.6201 18.543 -2.5
      vertex 29.0508 15.2549 -2.5
    endloop
  endfacet
  facet normal 0 0 -1
    outer loop
      vertex 24.0273 18.4062 -2.5
      vertex 24.8271 20.9072 -2.5
      vertex 27.6201 18.543 -2.5
    endloop
  endfacet
  facet normal 0 0 -1
    outer loop
      vertex 24.8271 20.9072 -2.5
      vertex 25.2646 23.5654 -2.5
      vertex 26.6582 21.9248 -2.5
    endloop
  endfacet
  facet normal 0 0 -1
    outer loop
      vertex 1.90723 55.252 -2.5
      vertex 3.1875 54.665 -2.5
      vertex 2.00684 54.8789 -2.5
    endloop
  endfacet
  facet normal 0 0 -1
    outer loop
      vertex 7.71582 53.3623 -2.5
      vertex 5.37695 54.1133 -2.5
      vertex 6.75195 55.332 -2.5
    endloop
  endfacet
  facet normal 0 0 -1
    outer loop
      vertex 9.24414 52.7812 -2.5
      vertex 7.71582 53.3623 -2.5
      vertex 10.3848 55.3604 -2.5
    endloop
  endfacet
  facet normal 0 0 -1
    outer loop
      vertex 13.9766 50.1201 -2.5
      vertex 14.8027 55.3789 -2.5
      vertex 15.8682 48.5967 -2.5
    endloop
  endfacet
  facet normal 0 0 -1
    outer loop
      vertex 17.8594 46.6768 -2.5
      vertex 19.9902 55.3857 -2.5
      vertex 18.3691 46.1592 -2.5
    endloop
  endfacet
  facet normal 0 0 -1
    outer loop
      vertex 18.3691 46.1592 -2.5
      vertex 19.9902 55.3857 -2.5
      vertex 24.4434 55.3848 -2.5
    endloop
  endfacet
  facet normal 0 0 -1
    outer loop
      vertex 27.2607 55.3818 -2.5
      vertex 34.2744 47.249 -2.5
      vertex 31.9521 44.6484 -2.5
    endloop
  endfacet
  facet normal 0 0 -1
    outer loop
      vertex 27.2607 55.3818 -2.5
      vertex 31.2549 55.3779 -2.5
      vertex 34.2744 47.249 -2.5
    endloop
  endfacet
  facet normal 0 0 -1
    outer loop
      vertex 31.2549 55.3779 -2.5
      vertex 36.1445 55.3643 -2.5
      vertex 36.9492 49.5586 -2.5
    endloop
  endfacet
  facet normal 0 0 -1
    outer loop
      vertex 36.9492 49.5586 -2.5
      vertex 36.1445 55.3643 -2.5
      vertex 39.9629 51.5361 -2.5
    endloop
  endfacet
  facet normal 0 0 -1
    outer loop
      vertex 39.9629 51.5361 -2.5
      vertex 40.5059 55.3418 -2.5
      vertex 43.3066 53.1387 -2.5
    endloop
  endfacet
  facet normal 0 0 -1
    outer loop
      vertex 43.3066 53.1387 -2.5
      vertex 44.2539 55.3135 -2.5
      vertex 46.0332 54.0889 -2.5
    endloop
  endfacet
  facet normal 0 0 -1
    outer loop
      vertex 46.0332 54.0889 -2.5
      vertex 44.2539 55.3135 -2.5
      vertex 47.2979 55.2773 -2.5
    endloop
  endfacet
  facet normal 0 0 -1
    outer loop
      vertex 46.9639 54.3232 -2.5
      vertex 47.2979 55.2773 -2.5
      vertex 47.1934 54.3789 -2.5
    endloop
  endfacet
  facet normal 0 0 -1
    outer loop
      vertex 47.1934 54.3789 -2.5
      vertex 47.2979 55.2773 -2.5
      vertex 47.8887 54.5342 -2.5
    endloop
  endfacet
  facet normal 0 0 -1
    outer loop
      vertex 47.8887 54.5342 -2.5
      vertex 47.2979 55.2773 -2.5
      vertex 48.7686 54.7139 -2.5
    endloop
  endfacet
  facet normal 0 0 -1
    outer loop
      vertex 48.7686 54.7139 -2.5
      vertex 49.5518 55.2373 -2.5
      vertex 49.5 54.8447 -2.5
    endloop
  endfacet
  facet normal 0 0 -1
    outer loop
      vertex 49.5 54.8447 -2.5
      vertex 49.5518 55.2373 -2.5
      vertex 49.874 54.8994 -2.5
    endloop
  endfacet
  facet normal -0 0 -1
    outer loop
      vertex 50.9238 55.1914 -2.5
      vertex 50.1631 54.9053 -2.5
      vertex 49.5518 55.2373 -2.5
    endloop
  endfacet
  facet normal -0 0 -1
    outer loop
      vertex 51.3291 55.1436 -2.5
      vertex 51.2559 55.1104 -2.5
      vertex 50.9238 55.1914 -2.5
    endloop
  endfacet
  facet normal 0 0 -1
    outer loop
      vertex 50.1631 54.9053 -2.5
      vertex 50.9238 55.1914 -2.5
      vertex 50.7129 54.9756 -2.5
    endloop
  endfacet
  facet normal 0 -0 -1
    outer loop
      vertex 50.9238 55.1914 -2.5
      vertex 51.2559 55.1104 -2.5
      vertex 50.7129 54.9756 -2.5
    endloop
  endfacet
  facet normal 0 0 -1
    outer loop
      vertex 49.5518 55.2373 -2.5
      vertex 50.1631 54.9053 -2.5
      vertex 49.9805 54.9053 -2.5
    endloop
  endfacet
  facet normal 0 0 -1
    outer loop
      vertex 49.874 54.8994 -2.5
      vertex 49.5518 55.2373 -2.5
      vertex 49.9805 54.9053 -2.5
    endloop
  endfacet
  facet normal 0 0 -1
    outer loop
      vertex 48.7686 54.7139 -2.5
      vertex 47.2979 55.2773 -2.5
      vertex 49.5518 55.2373 -2.5
    endloop
  endfacet
  facet normal -0 0 -1
    outer loop
      vertex 46.9639 54.3232 -2.5
      vertex 46.0332 54.0889 -2.5
      vertex 47.2979 55.2773 -2.5
    endloop
  endfacet
  facet normal 0 0 -1
    outer loop
      vertex 43.3066 53.1387 -2.5
      vertex 40.5059 55.3418 -2.5
      vertex 44.2539 55.3135 -2.5
    endloop
  endfacet
  facet normal 0 0 -1
    outer loop
      vertex 39.9629 51.5361 -2.5
      vertex 36.1445 55.3643 -2.5
      vertex 40.5059 55.3418 -2.5
    endloop
  endfacet
  facet normal 0 0 -1
    outer loop
      vertex 34.2744 47.249 -2.5
      vertex 31.2549 55.3779 -2.5
      vertex 36.9492 49.5586 -2.5
    endloop
  endfacet
  facet normal 0 0 -1
    outer loop
      vertex 25.9297 55.3818 -2.5
      vertex 27.2607 55.3818 -2.5
      vertex 31.9521 44.6484 -2.5
    endloop
  endfacet
  facet normal 0 0 -1
    outer loop
      vertex 15.8682 48.5967 -2.5
      vertex 14.8027 55.3789 -2.5
      vertex 19.9902 55.3857 -2.5
    endloop
  endfacet
  facet normal 0 0 -1
    outer loop
      vertex 10.3105 52.2822 -2.5
      vertex 10.3848 55.3604 -2.5
      vertex 11.9941 51.3926 -2.5
    endloop
  endfacet
  facet normal 0 0 -1
    outer loop
      vertex 17.377 47.1729 -2.5
      vertex 19.9902 55.3857 -2.5
      vertex 17.8594 46.6768 -2.5
    endloop
  endfacet
  facet normal 0 0 -1
    outer loop
      vertex 22.7471 39.9834 -2.5
      vertex 21.418 42.3154 -2.5
      vertex 29.9971 41.8027 -2.5
    endloop
  endfacet
  facet normal 0 0 -1
    outer loop
      vertex 1.43848 54.8789 -2.5
      vertex 0.727539 55.2012 -2.5
      vertex 1.90723 55.252 -2.5
    endloop
  endfacet
  facet normal 0 0 -1
    outer loop
      vertex 0.449219 55.1104 -2.5
      vertex 0.396484 55.1436 -2.5
      vertex 0.727539 55.2012 -2.5
    endloop
  endfacet
  facet normal 0 0 -1
    outer loop
      vertex 26.4531 32.207 -2.5
      vertex 25.2539 32.4668 -2.5
      vertex 24.7373 34.8037 -2.5
    endloop
  endfacet
  facet normal -0 0 -1
    outer loop
      vertex 26.4531 32.207 -2.5
      vertex 25.4717 29.9639 -2.5
      vertex 25.2539 32.4668 -2.5
    endloop
  endfacet
  facet normal 0 0 -1
    outer loop
      vertex 25.4521 26.8594 -2.5
      vertex 26.0879 28.7998 -2.5
      vertex 26.1523 25.3574 -2.5
    endloop
  endfacet
  facet normal 0 0 -1
    outer loop
      vertex 27.6201 18.543 -2.5
      vertex 24.8271 20.9072 -2.5
      vertex 26.6582 21.9248 -2.5
    endloop
  endfacet
  facet normal 0 0 -1
    outer loop
      vertex 30.96 12.1045 -2.5
      vertex 27.7812 0.164062 -2.5
      vertex 19.2402 10.1328 -2.5
    endloop
  endfacet
  facet normal 0 0 -1
    outer loop
      vertex 0.916016 54.9619 -2.5
      vertex 0.449219 55.1104 -2.5
      vertex 0.727539 55.2012 -2.5
    endloop
  endfacet
  facet normal 0 0 -1
    outer loop
      vertex 22.7539 15.5889 -2.5
      vertex 23.0957 16.2812 -2.5
      vertex 29.0508 15.2549 -2.5
    endloop
  endfacet
  facet normal 0 0 -1
    outer loop
      vertex 1.43848 54.8789 -2.5
      vertex 0.916016 54.9619 -2.5
      vertex 0.727539 55.2012 -2.5
    endloop
  endfacet
  facet normal 0 0 -1
    outer loop
      vertex 26.1523 25.3574 -2.5
      vertex 25.4307 26.0371 -2.5
      vertex 25.4521 26.8594 -2.5
    endloop
  endfacet
  facet normal 0 0 -1
    outer loop
      vertex 1.43848 54.8789 -2.5
      vertex 1.90723 55.252 -2.5
      vertex 2.00684 54.8789 -2.5
    endloop
  endfacet
  facet normal 0 0 -1
    outer loop
      vertex 1.90723 55.252 -2.5
      vertex 3.92188 55.2969 -2.5
      vertex 3.1875 54.665 -2.5
    endloop
  endfacet
  facet normal 0 0 -1
    outer loop
      vertex 3.1875 54.665 -2.5
      vertex 3.92188 55.2969 -2.5
      vertex 5.37695 54.1133 -2.5
    endloop
  endfacet
  facet normal 0 0 -1
    outer loop
      vertex 5.37695 54.1133 -2.5
      vertex 3.92188 55.2969 -2.5
      vertex 6.75195 55.332 -2.5
    endloop
  endfacet
  facet normal 0 0 -1
    outer loop
      vertex 10.3848 55.3604 -2.5
      vertex 7.71582 53.3623 -2.5
      vertex 6.75195 55.332 -2.5
    endloop
  endfacet
  facet normal 0 0 -1
    outer loop
      vertex 9.7373 52.5518 -2.5
      vertex 9.24414 52.7812 -2.5
      vertex 10.3848 55.3604 -2.5
    endloop
  endfacet
  facet normal 0 0 -1
    outer loop
      vertex 10.3105 52.2822 -2.5
      vertex 9.7373 52.5518 -2.5
      vertex 10.3848 55.3604 -2.5
    endloop
  endfacet
  facet normal 0 0 -1
    outer loop
      vertex 11.9941 51.3926 -2.5
      vertex 10.3848 55.3604 -2.5
      vertex 14.8027 55.3789 -2.5
    endloop
  endfacet
  facet normal 0 0 -1
    outer loop
      vertex 13.9766 50.1201 -2.5
      vertex 11.9941 51.3926 -2.5
      vertex 14.8027 55.3789 -2.5
    endloop
  endfacet
  facet normal 0 0 -1
    outer loop
      vertex 15.8682 48.5967 -2.5
      vertex 19.9902 55.3857 -2.5
      vertex 17.377 47.1729 -2.5
    endloop
  endfacet
  facet normal 0 0 -1
    outer loop
      vertex 19.8096 44.5117 -2.5
      vertex 18.3691 46.1592 -2.5
      vertex 24.4434 55.3848 -2.5
    endloop
  endfacet
  facet normal -0 0 -1
    outer loop
      vertex 25.9297 55.3818 -2.5
      vertex 19.8096 44.5117 -2.5
      vertex 24.4434 55.3848 -2.5
    endloop
  endfacet
  facet normal 0 -0 -1
    outer loop
      vertex 25.9297 55.3818 -2.5
      vertex 31.9521 44.6484 -2.5
      vertex 19.8096 44.5117 -2.5
    endloop
  endfacet
  facet normal 0 0 -1
    outer loop
      vertex 19.8096 44.5117 -2.5
      vertex 31.9521 44.6484 -2.5
      vertex 21.418 42.3154 -2.5
    endloop
  endfacet
  facet normal 0 0 -1
    outer loop
      vertex 21.418 42.3154 -2.5
      vertex 31.9521 44.6484 -2.5
      vertex 29.9971 41.8027 -2.5
    endloop
  endfacet
  facet normal 0 0 -1
    outer loop
      vertex 29.9971 41.8027 -2.5
      vertex 28.4209 38.752 -2.5
      vertex 22.7471 39.9834 -2.5
    endloop
  endfacet
  facet normal 0 0 -1
    outer loop
      vertex 23.6172 38.0713 -2.5
      vertex 28.4209 38.752 -2.5
      vertex 23.8652 37.417 -2.5
    endloop
  endfacet
  facet normal 0 0 -1
    outer loop
      vertex 22.7471 39.9834 -2.5
      vertex 28.4209 38.752 -2.5
      vertex 23.6172 38.0713 -2.5
    endloop
  endfacet
  facet normal 0 0 -1
    outer loop
      vertex 23.8652 37.417 -2.5
      vertex 28.4209 38.752 -2.5
      vertex 24.1035 36.7715 -2.5
    endloop
  endfacet
  facet normal 0 0 -1
    outer loop
      vertex 24.1035 36.7715 -2.5
      vertex 28.4209 38.752 -2.5
      vertex 27.2344 35.5381 -2.5
    endloop
  endfacet
  facet normal 0 0 -1
    outer loop
      vertex 24.7373 34.8037 -2.5
      vertex 24.1035 36.7715 -2.5
      vertex 27.2344 35.5381 -2.5
    endloop
  endfacet
  facet normal 0 0 -1
    outer loop
      vertex 26.4531 32.207 -2.5
      vertex 24.7373 34.8037 -2.5
      vertex 27.2344 35.5381 -2.5
    endloop
  endfacet
  facet normal 0 0 -1
    outer loop
      vertex 26.4531 32.207 -2.5
      vertex 26.0879 28.7998 -2.5
      vertex 25.4717 29.9639 -2.5
    endloop
  endfacet
  facet normal 0 0 -1
    outer loop
      vertex 25.4775 27.6348 -2.5
      vertex 25.4717 29.9639 -2.5
      vertex 26.0879 28.7998 -2.5
    endloop
  endfacet
  facet normal 0 0 -1
    outer loop
      vertex 25.4521 26.8594 -2.5
      vertex 25.4775 27.6348 -2.5
      vertex 26.0879 28.7998 -2.5
    endloop
  endfacet
  facet normal -0 0 -1
    outer loop
      vertex 26.1523 25.3574 -2.5
      vertex 25.2646 23.5654 -2.5
      vertex 25.4307 26.0371 -2.5
    endloop
  endfacet
  facet normal 0 0 -1
    outer loop
      vertex 26.6582 21.9248 -2.5
      vertex 25.2646 23.5654 -2.5
      vertex 26.1523 25.3574 -2.5
    endloop
  endfacet
  facet normal 0 0 -1
    outer loop
      vertex 23.0957 16.2812 -2.5
      vertex 24.0273 18.4062 -2.5
      vertex 27.6201 18.543 -2.5
    endloop
  endfacet
  facet normal 0 0 -1
    outer loop
      vertex 22.043 14.1426 -2.5
      vertex 22.7539 15.5889 -2.5
      vertex 29.0508 15.2549 -2.5
    endloop
  endfacet
  facet normal 0 0 -1
    outer loop
      vertex 30.96 12.1045 -2.5
      vertex 22.043 14.1426 -2.5
      vertex 29.0508 15.2549 -2.5
    endloop
  endfacet
  facet normal -0 0 -1
    outer loop
      vertex 30.96 12.1045 -2.5
      vertex 19.2402 10.1328 -2.5
      vertex 22.043 14.1426 -2.5
    endloop
  endfacet
  facet normal 0 -0 -1
    outer loop
      vertex 19.2402 10.1328 -2.5
      vertex 27.7812 0.164062 -2.5
      vertex 14.6543 5.76758 -2.5
    endloop
  endfacet
  facet normal 0 -0 -1
    outer loop
      vertex 14.6543 5.76758 -2.5
      vertex 27.7812 0.164062 -2.5
      vertex 9.11035 2.58105 -2.5
    endloop
  endfacet
  facet normal 0 -0 -1
    outer loop
      vertex 9.11035 2.58105 -2.5
      vertex 27.7812 0.164062 -2.5
      vertex 4.35449 0.967773 -2.5
    endloop
  endfacet
  facet normal 0 -0 -1
    outer loop
      vertex 4.35449 0.967773 -2.5
      vertex 27.7812 0.164062 -2.5
      vertex 2.72559 0.666016 -2.5
    endloop
  endfacet
  facet normal 0 -0 -1
    outer loop
      vertex 2.72559 0.666016 -2.5
      vertex 27.7812 0.164062 -2.5
      vertex 0 0.164062 -2.5
    endloop
  endfacet
  facet normal 0 0 1
    outer loop
      vertex 49.9385 0.332031 2.5
      vertex 50.2324 0.40918 2.5
      vertex 49.9648 0.492188 2.5
    endloop
  endfacet
  facet normal 0 0 1
    outer loop
      vertex 48.8389 0.271484 2.5
      vertex 49.9385 0.332031 2.5
      vertex 49.874 0.506836 2.5
    endloop
  endfacet
  facet normal 0 0 1
    outer loop
      vertex 49.874 0.506836 2.5
      vertex 49.9385 0.332031 2.5
      vertex 49.9648 0.492188 2.5
    endloop
  endfacet
  facet normal 0 -0 1
    outer loop
      vertex 48.8389 0.271484 2.5
      vertex 49.874 0.506836 2.5
      vertex 48.6318 0.719727 2.5
    endloop
  endfacet
  facet normal 0 0 1
    outer loop
      vertex 48.8389 0.271484 2.5
      vertex 48.6318 0.719727 2.5
      vertex 46.7812 0.227539 2.5
    endloop
  endfacet
  facet normal 0 0 1
    outer loop
      vertex 48.6318 0.719727 2.5
      vertex 44.9639 1.69238 2.5
      vertex 46.7812 0.227539 2.5
    endloop
  endfacet
  facet normal 0 0 1
    outer loop
      vertex 44.9639 1.69238 2.5
      vertex 43.6133 0.197266 2.5
      vertex 46.7812 0.227539 2.5
    endloop
  endfacet
  facet normal 0 0 1
    outer loop
      vertex 40.6455 3.49023 2.5
      vertex 43.6133 0.197266 2.5
      vertex 44.9639 1.69238 2.5
    endloop
  endfacet
  facet normal 0 0 1
    outer loop
      vertex 39.1826 0.177734 2.5
      vertex 43.6133 0.197266 2.5
      vertex 40.6455 3.49023 2.5
    endloop
  endfacet
  facet normal 0 -0 1
    outer loop
      vertex 39.1826 0.177734 2.5
      vertex 40.6455 3.49023 2.5
      vertex 36.8135 5.9541 2.5
    endloop
  endfacet
  facet normal 0 0 1
    outer loop
      vertex 39.1826 0.177734 2.5
      vertex 36.8135 5.9541 2.5
      vertex 33.3389 0.167969 2.5
    endloop
  endfacet
  facet normal 0 0 1
    outer loop
      vertex 36.8135 5.9541 2.5
      vertex 34.1572 8.27637 2.5
      vertex 33.3389 0.167969 2.5
    endloop
  endfacet
  facet normal 0 0 1
    outer loop
      vertex 34.1572 8.27637 2.5
      vertex 27.7812 0.164062 2.5
      vertex 33.3389 0.167969 2.5
    endloop
  endfacet
  facet normal 0 0 1
    outer loop
      vertex 33.3633 9.13184 2.5
      vertex 27.7812 0.164062 2.5
      vertex 34.1572 8.27637 2.5
    endloop
  endfacet
  facet normal 0 0 1
    outer loop
      vertex 32.7158 9.83203 2.5
      vertex 27.7812 0.164062 2.5
      vertex 33.3633 9.13184 2.5
    endloop
  endfacet
  facet normal 0 0 1
    outer loop
      vertex 30.96 12.1045 2.5
      vertex 27.7812 0.164062 2.5
      vertex 32.7158 9.83203 2.5
    endloop
  endfacet
  facet normal 0 0 1
    outer loop
      vertex 29.0508 15.2549 2.5
      vertex 27.6201 18.543 2.5
      vertex 23.0957 16.2812 2.5
    endloop
  endfacet
  facet normal 0 0 1
    outer loop
      vertex 27.6201 18.543 2.5
      vertex 24.8271 20.9072 2.5
      vertex 24.0273 18.4062 2.5
    endloop
  endfacet
  facet normal 0 0 1
    outer loop
      vertex 26.6582 21.9248 2.5
      vertex 25.2646 23.5654 2.5
      vertex 24.8271 20.9072 2.5
    endloop
  endfacet
  facet normal -0 -0 1
    outer loop
      vertex 2.00684 54.8789 2.5
      vertex 3.1875 54.665 2.5
      vertex 1.90723 55.252 2.5
    endloop
  endfacet
  facet normal 0 0 1
    outer loop
      vertex 6.75195 55.332 2.5
      vertex 5.37695 54.1133 2.5
      vertex 7.71582 53.3623 2.5
    endloop
  endfacet
  facet normal 0 0 1
    outer loop
      vertex 10.3848 55.3604 2.5
      vertex 7.71582 53.3623 2.5
      vertex 9.24414 52.7812 2.5
    endloop
  endfacet
  facet normal 0 0 1
    outer loop
      vertex 15.8682 48.5967 2.5
      vertex 14.8027 55.3789 2.5
      vertex 13.9766 50.1201 2.5
    endloop
  endfacet
  facet normal 0 -0 1
    outer loop
      vertex 18.3691 46.1592 2.5
      vertex 19.9902 55.3857 2.5
      vertex 17.8594 46.6768 2.5
    endloop
  endfacet
  facet normal 0 0 1
    outer loop
      vertex 24.4434 55.3848 2.5
      vertex 19.9902 55.3857 2.5
      vertex 18.3691 46.1592 2.5
    endloop
  endfacet
  facet normal 0 -0 1
    outer loop
      vertex 31.9521 44.6484 2.5
      vertex 34.2744 47.249 2.5
      vertex 27.2607 55.3818 2.5
    endloop
  endfacet
  facet normal 0 0 1
    outer loop
      vertex 34.2744 47.249 2.5
      vertex 31.2549 55.3779 2.5
      vertex 27.2607 55.3818 2.5
    endloop
  endfacet
  facet normal 0 0 1
    outer loop
      vertex 36.9492 49.5586 2.5
      vertex 36.1445 55.3643 2.5
      vertex 31.2549 55.3779 2.5
    endloop
  endfacet
  facet normal 0 0 1
    outer loop
      vertex 39.9629 51.5361 2.5
      vertex 36.1445 55.3643 2.5
      vertex 36.9492 49.5586 2.5
    endloop
  endfacet
  facet normal 0 0 1
    outer loop
      vertex 43.3066 53.1387 2.5
      vertex 40.5059 55.3418 2.5
      vertex 39.9629 51.5361 2.5
    endloop
  endfacet
  facet normal 0 0 1
    outer loop
      vertex 46.0332 54.0889 2.5
      vertex 44.2539 55.3135 2.5
      vertex 43.3066 53.1387 2.5
    endloop
  endfacet
  facet normal 0 0 1
    outer loop
      vertex 47.2979 55.2773 2.5
      vertex 44.2539 55.3135 2.5
      vertex 46.0332 54.0889 2.5
    endloop
  endfacet
  facet normal 0 -0 1
    outer loop
      vertex 47.1934 54.3789 2.5
      vertex 47.2979 55.2773 2.5
      vertex 46.9639 54.3232 2.5
    endloop
  endfacet
  facet normal 0 0 1
    outer loop
      vertex 47.8887 54.5342 2.5
      vertex 47.2979 55.2773 2.5
      vertex 47.1934 54.3789 2.5
    endloop
  endfacet
  facet normal 0 0 1
    outer loop
      vertex 48.7686 54.7139 2.5
      vertex 47.2979 55.2773 2.5
      vertex 47.8887 54.5342 2.5
    endloop
  endfacet
  facet normal 0 -0 1
    outer loop
      vertex 49.5 54.8447 2.5
      vertex 49.5518 55.2373 2.5
      vertex 48.7686 54.7139 2.5
    endloop
  endfacet
  facet normal 0 0 1
    outer loop
      vertex 49.874 54.8994 2.5
      vertex 49.5518 55.2373 2.5
      vertex 49.5 54.8447 2.5
    endloop
  endfacet
  facet normal 0 0 1
    outer loop
      vertex 49.5518 55.2373 2.5
      vertex 50.1631 54.9053 2.5
      vertex 50.9238 55.1914 2.5
    endloop
  endfacet
  facet normal 0 0 1
    outer loop
      vertex 50.9238 55.1914 2.5
      vertex 51.2559 55.1104 2.5
      vertex 51.3291 55.1436 2.5
    endloop
  endfacet
  facet normal 0 -0 1
    outer loop
      vertex 50.7129 54.9756 2.5
      vertex 50.9238 55.1914 2.5
      vertex 50.1631 54.9053 2.5
    endloop
  endfacet
  facet normal 0 0 1
    outer loop
      vertex 50.7129 54.9756 2.5
      vertex 51.2559 55.1104 2.5
      vertex 50.9238 55.1914 2.5
    endloop
  endfacet
  facet normal 0 -0 1
    outer loop
      vertex 49.9805 54.9053 2.5
      vertex 50.1631 54.9053 2.5
      vertex 49.5518 55.2373 2.5
    endloop
  endfacet
  facet normal 0 0 1
    outer loop
      vertex 49.9805 54.9053 2.5
      vertex 49.5518 55.2373 2.5
      vertex 49.874 54.8994 2.5
    endloop
  endfacet
  facet normal 0 0 1
    outer loop
      vertex 49.5518 55.2373 2.5
      vertex 47.2979 55.2773 2.5
      vertex 48.7686 54.7139 2.5
    endloop
  endfacet
  facet normal 0 0 1
    outer loop
      vertex 47.2979 55.2773 2.5
      vertex 46.0332 54.0889 2.5
      vertex 46.9639 54.3232 2.5
    endloop
  endfacet
  facet normal 0 0 1
    outer loop
      vertex 44.2539 55.3135 2.5
      vertex 40.5059 55.3418 2.5
      vertex 43.3066 53.1387 2.5
    endloop
  endfacet
  facet normal 0 0 1
    outer loop
      vertex 40.5059 55.3418 2.5
      vertex 36.1445 55.3643 2.5
      vertex 39.9629 51.5361 2.5
    endloop
  endfacet
  facet normal 0 0 1
    outer loop
      vertex 36.9492 49.5586 2.5
      vertex 31.2549 55.3779 2.5
      vertex 34.2744 47.249 2.5
    endloop
  endfacet
  facet normal 0 0 1
    outer loop
      vertex 31.9521 44.6484 2.5
      vertex 27.2607 55.3818 2.5
      vertex 25.9297 55.3818 2.5
    endloop
  endfacet
  facet normal 0 0 1
    outer loop
      vertex 19.9902 55.3857 2.5
      vertex 14.8027 55.3789 2.5
      vertex 15.8682 48.5967 2.5
    endloop
  endfacet
  facet normal 0 0 1
    outer loop
      vertex 11.9941 51.3926 2.5
      vertex 10.3848 55.3604 2.5
      vertex 10.3105 52.2822 2.5
    endloop
  endfacet
  facet normal 0 -0 1
    outer loop
      vertex 17.8594 46.6768 2.5
      vertex 19.9902 55.3857 2.5
      vertex 17.377 47.1729 2.5
    endloop
  endfacet
  facet normal 0 0 1
    outer loop
      vertex 29.9971 41.8027 2.5
      vertex 21.418 42.3154 2.5
      vertex 22.7471 39.9834 2.5
    endloop
  endfacet
  facet normal 0 0 1
    outer loop
      vertex 1.90723 55.252 2.5
      vertex 0.727539 55.2012 2.5
      vertex 1.43848 54.8789 2.5
    endloop
  endfacet
  facet normal 0 0 1
    outer loop
      vertex 0.727539 55.2012 2.5
      vertex 0.396484 55.1436 2.5
      vertex 0.449219 55.1104 2.5
    endloop
  endfacet
  facet normal 0 0 1
    outer loop
      vertex 24.7373 34.8037 2.5
      vertex 25.2539 32.4668 2.5
      vertex 26.4531 32.207 2.5
    endloop
  endfacet
  facet normal 0 0 1
    outer loop
      vertex 25.2539 32.4668 2.5
      vertex 25.4717 29.9639 2.5
      vertex 26.4531 32.207 2.5
    endloop
  endfacet
  facet normal 0 0 1
    outer loop
      vertex 26.1523 25.3574 2.5
      vertex 26.0879 28.7998 2.5
      vertex 25.4521 26.8594 2.5
    endloop
  endfacet
  facet normal 0 0 1
    outer loop
      vertex 26.6582 21.9248 2.5
      vertex 24.8271 20.9072 2.5
      vertex 27.6201 18.543 2.5
    endloop
  endfacet
  facet normal -0 0 1
    outer loop
      vertex 19.2402 10.1328 2.5
      vertex 27.7812 0.164062 2.5
      vertex 30.96 12.1045 2.5
    endloop
  endfacet
  facet normal 0 0 1
    outer loop
      vertex 0.727539 55.2012 2.5
      vertex 0.449219 55.1104 2.5
      vertex 0.916016 54.9619 2.5
    endloop
  endfacet
  facet normal 0 0 1
    outer loop
      vertex 29.0508 15.2549 2.5
      vertex 23.0957 16.2812 2.5
      vertex 22.7539 15.5889 2.5
    endloop
  endfacet
  facet normal 0 0 1
    outer loop
      vertex 0.727539 55.2012 2.5
      vertex 0.916016 54.9619 2.5
      vertex 1.43848 54.8789 2.5
    endloop
  endfacet
  facet normal 0 0 1
    outer loop
      vertex 25.4521 26.8594 2.5
      vertex 25.4307 26.0371 2.5
      vertex 26.1523 25.3574 2.5
    endloop
  endfacet
  facet normal 0 0 1
    outer loop
      vertex 2.00684 54.8789 2.5
      vertex 1.90723 55.252 2.5
      vertex 1.43848 54.8789 2.5
    endloop
  endfacet
  facet normal 0 -0 1
    outer loop
      vertex 3.1875 54.665 2.5
      vertex 3.92188 55.2969 2.5
      vertex 1.90723 55.252 2.5
    endloop
  endfacet
  facet normal 0 0 1
    outer loop
      vertex 5.37695 54.1133 2.5
      vertex 3.92188 55.2969 2.5
      vertex 3.1875 54.665 2.5
    endloop
  endfacet
  facet normal 0 0 1
    outer loop
      vertex 6.75195 55.332 2.5
      vertex 3.92188 55.2969 2.5
      vertex 5.37695 54.1133 2.5
    endloop
  endfacet
  facet normal -0 0 1
    outer loop
      vertex 6.75195 55.332 2.5
      vertex 7.71582 53.3623 2.5
      vertex 10.3848 55.3604 2.5
    endloop
  endfacet
  facet normal 0 0 1
    outer loop
      vertex 10.3848 55.3604 2.5
      vertex 9.24414 52.7812 2.5
      vertex 9.7373 52.5518 2.5
    endloop
  endfacet
  facet normal 0 0 1
    outer loop
      vertex 10.3848 55.3604 2.5
      vertex 9.7373 52.5518 2.5
      vertex 10.3105 52.2822 2.5
    endloop
  endfacet
  facet normal 0 0 1
    outer loop
      vertex 14.8027 55.3789 2.5
      vertex 10.3848 55.3604 2.5
      vertex 11.9941 51.3926 2.5
    endloop
  endfacet
  facet normal 0 0 1
    outer loop
      vertex 14.8027 55.3789 2.5
      vertex 11.9941 51.3926 2.5
      vertex 13.9766 50.1201 2.5
    endloop
  endfacet
  facet normal 0 -0 1
    outer loop
      vertex 17.377 47.1729 2.5
      vertex 19.9902 55.3857 2.5
      vertex 15.8682 48.5967 2.5
    endloop
  endfacet
  facet normal 0 0 1
    outer loop
      vertex 24.4434 55.3848 2.5
      vertex 18.3691 46.1592 2.5
      vertex 19.8096 44.5117 2.5
    endloop
  endfacet
  facet normal 0 0 1
    outer loop
      vertex 24.4434 55.3848 2.5
      vertex 19.8096 44.5117 2.5
      vertex 25.9297 55.3818 2.5
    endloop
  endfacet
  facet normal 0 0 1
    outer loop
      vertex 19.8096 44.5117 2.5
      vertex 31.9521 44.6484 2.5
      vertex 25.9297 55.3818 2.5
    endloop
  endfacet
  facet normal 0 -0 1
    outer loop
      vertex 21.418 42.3154 2.5
      vertex 31.9521 44.6484 2.5
      vertex 19.8096 44.5117 2.5
    endloop
  endfacet
  facet normal 0 -0 1
    outer loop
      vertex 29.9971 41.8027 2.5
      vertex 31.9521 44.6484 2.5
      vertex 21.418 42.3154 2.5
    endloop
  endfacet
  facet normal -0 0 1
    outer loop
      vertex 22.7471 39.9834 2.5
      vertex 28.4209 38.752 2.5
      vertex 29.9971 41.8027 2.5
    endloop
  endfacet
  facet normal 0 -0 1
    outer loop
      vertex 23.8652 37.417 2.5
      vertex 28.4209 38.752 2.5
      vertex 23.6172 38.0713 2.5
    endloop
  endfacet
  facet normal 0 -0 1
    outer loop
      vertex 23.6172 38.0713 2.5
      vertex 28.4209 38.752 2.5
      vertex 22.7471 39.9834 2.5
    endloop
  endfacet
  facet normal 0 -0 1
    outer loop
      vertex 24.1035 36.7715 2.5
      vertex 28.4209 38.752 2.5
      vertex 23.8652 37.417 2.5
    endloop
  endfacet
  facet normal 0 -0 1
    outer loop
      vertex 27.2344 35.5381 2.5
      vertex 28.4209 38.752 2.5
      vertex 24.1035 36.7715 2.5
    endloop
  endfacet
  facet normal 0 0 1
    outer loop
      vertex 27.2344 35.5381 2.5
      vertex 24.1035 36.7715 2.5
      vertex 24.7373 34.8037 2.5
    endloop
  endfacet
  facet normal 0 0 1
    outer loop
      vertex 27.2344 35.5381 2.5
      vertex 24.7373 34.8037 2.5
      vertex 26.4531 32.207 2.5
    endloop
  endfacet
  facet normal -0 0 1
    outer loop
      vertex 25.4717 29.9639 2.5
      vertex 26.0879 28.7998 2.5
      vertex 26.4531 32.207 2.5
    endloop
  endfacet
  facet normal 0 0 1
    outer loop
      vertex 26.0879 28.7998 2.5
      vertex 25.4717 29.9639 2.5
      vertex 25.4775 27.6348 2.5
    endloop
  endfacet
  facet normal 0 0 1
    outer loop
      vertex 26.0879 28.7998 2.5
      vertex 25.4775 27.6348 2.5
      vertex 25.4521 26.8594 2.5
    endloop
  endfacet
  facet normal 0 0 1
    outer loop
      vertex 25.4307 26.0371 2.5
      vertex 25.2646 23.5654 2.5
      vertex 26.1523 25.3574 2.5
    endloop
  endfacet
  facet normal 0 0 1
    outer loop
      vertex 26.1523 25.3574 2.5
      vertex 25.2646 23.5654 2.5
      vertex 26.6582 21.9248 2.5
    endloop
  endfacet
  facet normal 0 0 1
    outer loop
      vertex 27.6201 18.543 2.5
      vertex 24.0273 18.4062 2.5
      vertex 23.0957 16.2812 2.5
    endloop
  endfacet
  facet normal 0 0 1
    outer loop
      vertex 29.0508 15.2549 2.5
      vertex 22.7539 15.5889 2.5
      vertex 22.043 14.1426 2.5
    endloop
  endfacet
  facet normal 0 0 1
    outer loop
      vertex 29.0508 15.2549 2.5
      vertex 22.043 14.1426 2.5
      vertex 30.96 12.1045 2.5
    endloop
  endfacet
  facet normal 0 0 1
    outer loop
      vertex 22.043 14.1426 2.5
      vertex 19.2402 10.1328 2.5
      vertex 30.96 12.1045 2.5
    endloop
  endfacet
  facet normal -0 0 1
    outer loop
      vertex 14.6543 5.76758 2.5
      vertex 27.7812 0.164062 2.5
      vertex 19.2402 10.1328 2.5
    endloop
  endfacet
  facet normal -0 0 1
    outer loop
      vertex 9.11035 2.58105 2.5
      vertex 27.7812 0.164062 2.5
      vertex 14.6543 5.76758 2.5
    endloop
  endfacet
  facet normal -0 0 1
    outer loop
      vertex 4.35449 0.967773 2.5
      vertex 27.7812 0.164062 2.5
      vertex 9.11035 2.58105 2.5
    endloop
  endfacet
  facet normal -0 0 1
    outer loop
      vertex 2.72559 0.666016 2.5
      vertex 27.7812 0.164062 2.5
      vertex 4.35449 0.967773 2.5
    endloop
  endfacet
  facet normal 0 0 1
    outer loop
      vertex 0 0.164062 2.5
      vertex 27.7812 0.164062 2.5
      vertex 2.72559 0.666016 2.5
    endloop
  endfacet
  facet normal 0.00167103 -0.999999 0
    outer loop
      vertex 39.1826 0.177734 -2.5
      vertex 33.3389 0.167969 2.5
      vertex 33.3389 0.167969 -2.5
    endloop
  endfacet
  facet normal 0.00167103 -0.999999 0
    outer loop
      vertex 39.1826 0.177734 -2.5
      vertex 39.1826 0.177734 2.5
      vertex 33.3389 0.167969 2.5
    endloop
  endfacet
  facet normal 0.00440829 -0.99999 0
    outer loop
      vertex 43.6133 0.197266 -2.5
      vertex 39.1826 0.177734 2.5
      vertex 39.1826 0.177734 -2.5
    endloop
  endfacet
  facet normal 0.00440829 -0.99999 0
    outer loop
      vertex 43.6133 0.197266 -2.5
      vertex 43.6133 0.197266 2.5
      vertex 39.1826 0.177734 2.5
    endloop
  endfacet
  facet normal 0.00955574 -0.999954 0
    outer loop
      vertex 46.7812 0.227539 -2.5
      vertex 43.6133 0.197266 2.5
      vertex 43.6133 0.197266 -2.5
    endloop
  endfacet
  facet normal 0.00955574 -0.999954 0
    outer loop
      vertex 46.7812 0.227539 -2.5
      vertex 46.7812 0.227539 2.5
      vertex 43.6133 0.197266 2.5
    endloop
  endfacet
  facet normal 0.0213515 -0.999772 0
    outer loop
      vertex 48.8389 0.271484 -2.5
      vertex 46.7812 0.227539 2.5
      vertex 46.7812 0.227539 -2.5
    endloop
  endfacet
  facet normal 0.0213515 -0.999772 0
    outer loop
      vertex 48.8389 0.271484 -2.5
      vertex 48.8389 0.271484 2.5
      vertex 46.7812 0.227539 2.5
    endloop
  endfacet
  facet normal 0.0549795 -0.998487 0
    outer loop
      vertex 49.9385 0.332031 -2.5
      vertex 48.8389 0.271484 2.5
      vertex 48.8389 0.271484 -2.5
    endloop
  endfacet
  facet normal 0.0549795 -0.998487 0
    outer loop
      vertex 49.9385 0.332031 -2.5
      vertex 49.9385 0.332031 2.5
      vertex 48.8389 0.271484 2.5
    endloop
  endfacet
  facet normal 0.253899 -0.967231 0
    outer loop
      vertex 50.2324 0.40918 -2.5
      vertex 49.9385 0.332031 2.5
      vertex 49.9385 0.332031 -2.5
    endloop
  endfacet
  facet normal 0.253899 -0.967231 0
    outer loop
      vertex 50.2324 0.40918 -2.5
      vertex 50.2324 0.40918 2.5
      vertex 49.9385 0.332031 2.5
    endloop
  endfacet
  facet normal 0.296268 0.955105 0
    outer loop
      vertex 49.9648 0.492188 -2.5
      vertex 50.2324 0.40918 2.5
      vertex 50.2324 0.40918 -2.5
    endloop
  endfacet
  facet normal 0.296268 0.955105 -0
    outer loop
      vertex 49.9648 0.492188 -2.5
      vertex 49.9648 0.492188 2.5
      vertex 50.2324 0.40918 2.5
    endloop
  endfacet
  facet normal 0.159263 0.987236 0
    outer loop
      vertex 49.874 0.506836 -2.5
      vertex 49.9648 0.492188 2.5
      vertex 49.9648 0.492188 -2.5
    endloop
  endfacet
  facet normal 0.159263 0.987236 -0
    outer loop
      vertex 49.874 0.506836 -2.5
      vertex 49.874 0.506836 2.5
      vertex 49.9648 0.492188 2.5
    endloop
  endfacet
  facet normal 0.168919 0.98563 0
    outer loop
      vertex 48.6318 0.719727 -2.5
      vertex 49.874 0.506836 2.5
      vertex 49.874 0.506836 -2.5
    endloop
  endfacet
  facet normal 0.168919 0.98563 -0
    outer loop
      vertex 48.6318 0.719727 -2.5
      vertex 48.6318 0.719727 2.5
      vertex 49.874 0.506836 2.5
    endloop
  endfacet
  facet normal 0.256321 0.966592 0
    outer loop
      vertex 44.9639 1.69238 -2.5
      vertex 48.6318 0.719727 2.5
      vertex 48.6318 0.719727 -2.5
    endloop
  endfacet
  facet normal 0.256321 0.966592 -0
    outer loop
      vertex 44.9639 1.69238 -2.5
      vertex 44.9639 1.69238 2.5
      vertex 48.6318 0.719727 2.5
    endloop
  endfacet
  facet normal 0.384345 0.923189 0
    outer loop
      vertex 40.6455 3.49023 -2.5
      vertex 44.9639 1.69238 2.5
      vertex 44.9639 1.69238 -2.5
    endloop
  endfacet
  facet normal 0.384345 0.923189 -0
    outer loop
      vertex 40.6455 3.49023 -2.5
      vertex 40.6455 3.49023 2.5
      vertex 44.9639 1.69238 2.5
    endloop
  endfacet
  facet normal 0.540826 0.841134 0
    outer loop
      vertex 36.8135 5.9541 -2.5
      vertex 40.6455 3.49023 2.5
      vertex 40.6455 3.49023 -2.5
    endloop
  endfacet
  facet normal 0.540826 0.841134 -0
    outer loop
      vertex 36.8135 5.9541 -2.5
      vertex 36.8135 5.9541 2.5
      vertex 40.6455 3.49023 2.5
    endloop
  endfacet
  facet normal 0.658185 0.752856 0
    outer loop
      vertex 34.1572 8.27637 -2.5
      vertex 36.8135 5.9541 2.5
      vertex 36.8135 5.9541 -2.5
    endloop
  endfacet
  facet normal 0.658185 0.752856 -0
    outer loop
      vertex 34.1572 8.27637 -2.5
      vertex 34.1572 8.27637 2.5
      vertex 36.8135 5.9541 2.5
    endloop
  endfacet
  facet normal 0.732992 0.680237 0
    outer loop
      vertex 33.3633 9.13184 -2.5
      vertex 34.1572 8.27637 2.5
      vertex 34.1572 8.27637 -2.5
    endloop
  endfacet
  facet normal 0.732992 0.680237 -0
    outer loop
      vertex 33.3633 9.13184 -2.5
      vertex 33.3633 9.13184 2.5
      vertex 34.1572 8.27637 2.5
    endloop
  endfacet
  facet normal 0.734191 0.678943 0
    outer loop
      vertex 32.7158 9.83203 -2.5
      vertex 33.3633 9.13184 2.5
      vertex 33.3633 9.13184 -2.5
    endloop
  endfacet
  facet normal 0.734191 0.678943 -0
    outer loop
      vertex 32.7158 9.83203 -2.5
      vertex 32.7158 9.83203 2.5
      vertex 33.3633 9.13184 2.5
    endloop
  endfacet
  facet normal 0.791319 0.611404 0
    outer loop
      vertex 30.96 12.1045 -2.5
      vertex 32.7158 9.83203 2.5
      vertex 32.7158 9.83203 -2.5
    endloop
  endfacet
  facet normal 0.791319 0.611404 -0
    outer loop
      vertex 30.96 12.1045 -2.5
      vertex 30.96 12.1045 2.5
      vertex 32.7158 9.83203 2.5
    endloop
  endfacet
  facet normal 0.855214 0.518275 0
    outer loop
      vertex 29.0508 15.2549 -2.5
      vertex 30.96 12.1045 2.5
      vertex 30.96 12.1045 -2.5
    endloop
  endfacet
  facet normal 0.855214 0.518275 -0
    outer loop
      vertex 29.0508 15.2549 -2.5
      vertex 29.0508 15.2549 2.5
      vertex 30.96 12.1045 2.5
    endloop
  endfacet
  facet normal 0.916959 0.398982 0
    outer loop
      vertex 27.6201 18.543 -2.5
      vertex 29.0508 15.2549 2.5
      vertex 29.0508 15.2549 -2.5
    endloop
  endfacet
  facet normal 0.916959 0.398982 -0
    outer loop
      vertex 27.6201 18.543 -2.5
      vertex 27.6201 18.543 2.5
      vertex 29.0508 15.2549 2.5
    endloop
  endfacet
  facet normal 0.961848 0.273583 0
    outer loop
      vertex 26.6582 21.9248 -2.5
      vertex 27.6201 18.543 2.5
      vertex 27.6201 18.543 -2.5
    endloop
  endfacet
  facet normal 0.961848 0.273583 -0
    outer loop
      vertex 26.6582 21.9248 -2.5
      vertex 26.6582 21.9248 2.5
      vertex 27.6201 18.543 2.5
    endloop
  endfacet
  facet normal 0.989313 0.145806 0
    outer loop
      vertex 26.1523 25.3574 -2.5
      vertex 26.6582 21.9248 2.5
      vertex 26.6582 21.9248 -2.5
    endloop
  endfacet
  facet normal 0.989313 0.145806 -0
    outer loop
      vertex 26.1523 25.3574 -2.5
      vertex 26.1523 25.3574 2.5
      vertex 26.6582 21.9248 2.5
    endloop
  endfacet
  facet normal 0.999825 0.0187046 0
    outer loop
      vertex 26.0879 28.7998 -2.5
      vertex 26.1523 25.3574 2.5
      vertex 26.1523 25.3574 -2.5
    endloop
  endfacet
  facet normal 0.999825 0.0187046 -0
    outer loop
      vertex 26.0879 28.7998 -2.5
      vertex 26.0879 28.7998 2.5
      vertex 26.1523 25.3574 2.5
    endloop
  endfacet
  facet normal 0.994305 -0.106574 0
    outer loop
      vertex 26.4531 32.207 -2.5
      vertex 26.0879 28.7998 2.5
      vertex 26.0879 28.7998 -2.5
    endloop
  endfacet
  facet normal 0.994305 -0.106574 0
    outer loop
      vertex 26.4531 32.207 -2.5
      vertex 26.4531 32.207 2.5
      vertex 26.0879 28.7998 2.5
    endloop
  endfacet
  facet normal 0.973579 -0.22835 0
    outer loop
      vertex 27.2344 35.5381 -2.5
      vertex 26.4531 32.207 2.5
      vertex 26.4531 32.207 -2.5
    endloop
  endfacet
  facet normal 0.973579 -0.22835 0
    outer loop
      vertex 27.2344 35.5381 -2.5
      vertex 27.2344 35.5381 2.5
      vertex 26.4531 32.207 2.5
    endloop
  endfacet
  facet normal 0.938113 -0.34633 0
    outer loop
      vertex 28.4209 38.752 -2.5
      vertex 27.2344 35.5381 2.5
      vertex 27.2344 35.5381 -2.5
    endloop
  endfacet
  facet normal 0.938113 -0.34633 0
    outer loop
      vertex 28.4209 38.752 -2.5
      vertex 28.4209 38.752 2.5
      vertex 27.2344 35.5381 2.5
    endloop
  endfacet
  facet normal 0.888425 -0.459021 0
    outer loop
      vertex 29.9971 41.8027 -2.5
      vertex 28.4209 38.752 2.5
      vertex 28.4209 38.752 -2.5
    endloop
  endfacet
  facet normal 0.888425 -0.459021 0
    outer loop
      vertex 29.9971 41.8027 -2.5
      vertex 29.9971 41.8027 2.5
      vertex 28.4209 38.752 2.5
    endloop
  endfacet
  facet normal 0.824234 -0.56625 0
    outer loop
      vertex 31.9521 44.6484 -2.5
      vertex 29.9971 41.8027 2.5
      vertex 29.9971 41.8027 -2.5
    endloop
  endfacet
  facet normal 0.824234 -0.56625 0
    outer loop
      vertex 31.9521 44.6484 -2.5
      vertex 31.9521 44.6484 2.5
      vertex 29.9971 41.8027 2.5
    endloop
  endfacet
  facet normal 0.74589 -0.666069 0
    outer loop
      vertex 34.2744 47.249 -2.5
      vertex 31.9521 44.6484 2.5
      vertex 31.9521 44.6484 -2.5
    endloop
  endfacet
  facet normal 0.74589 -0.666069 0
    outer loop
      vertex 34.2744 47.249 -2.5
      vertex 34.2744 47.249 2.5
      vertex 31.9521 44.6484 2.5
    endloop
  endfacet
  facet normal 0.653546 -0.756887 0
    outer loop
      vertex 36.9492 49.5586 -2.5
      vertex 34.2744 47.249 2.5
      vertex 34.2744 47.249 -2.5
    endloop
  endfacet
  facet normal 0.653546 -0.756887 0
    outer loop
      vertex 36.9492 49.5586 -2.5
      vertex 36.9492 49.5586 2.5
      vertex 34.2744 47.249 2.5
    endloop
  endfacet
  facet normal 0.54861 -0.836079 0
    outer loop
      vertex 39.9629 51.5361 -2.5
      vertex 36.9492 49.5586 2.5
      vertex 36.9492 49.5586 -2.5
    endloop
  endfacet
  facet normal 0.54861 -0.836079 0
    outer loop
      vertex 39.9629 51.5361 -2.5
      vertex 39.9629 51.5361 2.5
      vertex 36.9492 49.5586 2.5
    endloop
  endfacet
  facet normal 0.43221 -0.901773 0
    outer loop
      vertex 43.3066 53.1387 -2.5
      vertex 39.9629 51.5361 2.5
      vertex 39.9629 51.5361 -2.5
    endloop
  endfacet
  facet normal 0.43221 -0.901773 0
    outer loop
      vertex 43.3066 53.1387 -2.5
      vertex 43.3066 53.1387 2.5
      vertex 39.9629 51.5361 2.5
    endloop
  endfacet
  facet normal 0.329082 -0.944301 0
    outer loop
      vertex 46.0332 54.0889 -2.5
      vertex 43.3066 53.1387 2.5
      vertex 43.3066 53.1387 -2.5
    endloop
  endfacet
  facet normal 0.329082 -0.944301 0
    outer loop
      vertex 46.0332 54.0889 -2.5
      vertex 46.0332 54.0889 2.5
      vertex 43.3066 53.1387 2.5
    endloop
  endfacet
  facet normal 0.244129 -0.969743 0
    outer loop
      vertex 46.9639 54.3232 -2.5
      vertex 46.0332 54.0889 2.5
      vertex 46.0332 54.0889 -2.5
    endloop
  endfacet
  facet normal 0.244129 -0.969743 0
    outer loop
      vertex 46.9639 54.3232 -2.5
      vertex 46.9639 54.3232 2.5
      vertex 46.0332 54.0889 2.5
    endloop
  endfacet
  facet normal 0.235855 -0.971788 0
    outer loop
      vertex 47.1934 54.3789 -2.5
      vertex 46.9639 54.3232 2.5
      vertex 46.9639 54.3232 -2.5
    endloop
  endfacet
  facet normal 0.235855 -0.971788 0
    outer loop
      vertex 47.1934 54.3789 -2.5
      vertex 47.1934 54.3789 2.5
      vertex 46.9639 54.3232 2.5
    endloop
  endfacet
  facet normal 0.217986 -0.975952 0
    outer loop
      vertex 47.8887 54.5342 -2.5
      vertex 47.1934 54.3789 2.5
      vertex 47.1934 54.3789 -2.5
    endloop
  endfacet
  facet normal 0.217986 -0.975952 0
    outer loop
      vertex 47.8887 54.5342 -2.5
      vertex 47.8887 54.5342 2.5
      vertex 47.1934 54.3789 2.5
    endloop
  endfacet
  facet normal 0.200097 -0.979776 0
    outer loop
      vertex 48.7686 54.7139 -2.5
      vertex 47.8887 54.5342 2.5
      vertex 47.8887 54.5342 -2.5
    endloop
  endfacet
  facet normal 0.200097 -0.979776 0
    outer loop
      vertex 48.7686 54.7139 -2.5
      vertex 48.7686 54.7139 2.5
      vertex 47.8887 54.5342 2.5
    endloop
  endfacet
  facet normal 0.176042 -0.984383 0
    outer loop
      vertex 49.5 54.8447 -2.5
      vertex 48.7686 54.7139 2.5
      vertex 48.7686 54.7139 -2.5
    endloop
  endfacet
  facet normal 0.176042 -0.984383 0
    outer loop
      vertex 49.5 54.8447 -2.5
      vertex 49.5 54.8447 2.5
      vertex 48.7686 54.7139 2.5
    endloop
  endfacet
  facet normal 0.144717 -0.989473 0
    outer loop
      vertex 49.874 54.8994 -2.5
      vertex 49.5 54.8447 2.5
      vertex 49.5 54.8447 -2.5
    endloop
  endfacet
  facet normal 0.144717 -0.989473 0
    outer loop
      vertex 49.874 54.8994 -2.5
      vertex 49.874 54.8994 2.5
      vertex 49.5 54.8447 2.5
    endloop
  endfacet
  facet normal 0.0553142 -0.998469 0
    outer loop
      vertex 49.9805 54.9053 -2.5
      vertex 49.874 54.8994 2.5
      vertex 49.874 54.8994 -2.5
    endloop
  endfacet
  facet normal 0.0553142 -0.998469 0
    outer loop
      vertex 49.9805 54.9053 -2.5
      vertex 49.9805 54.9053 2.5
      vertex 49.874 54.8994 2.5
    endloop
  endfacet
  facet normal 0 -1 0
    outer loop
      vertex 50.1631 54.9053 -2.5
      vertex 49.9805 54.9053 2.5
      vertex 49.9805 54.9053 -2.5
    endloop
  endfacet
  facet normal 0 -1 0
    outer loop
      vertex 50.1631 54.9053 -2.5
      vertex 50.1631 54.9053 2.5
      vertex 49.9805 54.9053 2.5
    endloop
  endfacet
  facet normal 0.126832 -0.991924 0
    outer loop
      vertex 50.7129 54.9756 -2.5
      vertex 50.1631 54.9053 2.5
      vertex 50.1631 54.9053 -2.5
    endloop
  endfacet
  facet normal 0.126832 -0.991924 0
    outer loop
      vertex 50.7129 54.9756 -2.5
      vertex 50.7129 54.9756 2.5
      vertex 50.1631 54.9053 2.5
    endloop
  endfacet
  facet normal 0.240937 -0.970541 0
    outer loop
      vertex 51.2559 55.1104 -2.5
      vertex 50.7129 54.9756 2.5
      vertex 50.7129 54.9756 -2.5
    endloop
  endfacet
  facet normal 0.240937 -0.970541 0
    outer loop
      vertex 51.2559 55.1104 -2.5
      vertex 51.2559 55.1104 2.5
      vertex 50.7129 54.9756 2.5
    endloop
  endfacet
  facet normal 0.413053 -0.910707 0
    outer loop
      vertex 51.3291 55.1436 -2.5
      vertex 51.2559 55.1104 2.5
      vertex 51.2559 55.1104 -2.5
    endloop
  endfacet
  facet normal 0.413053 -0.910707 0
    outer loop
      vertex 51.3291 55.1436 -2.5
      vertex 51.3291 55.1436 2.5
      vertex 51.2559 55.1104 2.5
    endloop
  endfacet
  facet normal 0.117126 0.993117 0
    outer loop
      vertex 50.9238 55.1914 -2.5
      vertex 51.3291 55.1436 2.5
      vertex 51.3291 55.1436 -2.5
    endloop
  endfacet
  facet normal 0.117126 0.993117 -0
    outer loop
      vertex 50.9238 55.1914 -2.5
      vertex 50.9238 55.1914 2.5
      vertex 51.3291 55.1436 2.5
    endloop
  endfacet
  facet normal 0.0334361 0.999441 0
    outer loop
      vertex 49.5518 55.2373 -2.5
      vertex 50.9238 55.1914 2.5
      vertex 50.9238 55.1914 -2.5
    endloop
  endfacet
  facet normal 0.0334361 0.999441 -0
    outer loop
      vertex 49.5518 55.2373 -2.5
      vertex 49.5518 55.2373 2.5
      vertex 50.9238 55.1914 2.5
    endloop
  endfacet
  facet normal 0.0177442 0.999843 0
    outer loop
      vertex 47.2979 55.2773 -2.5
      vertex 49.5518 55.2373 2.5
      vertex 49.5518 55.2373 -2.5
    endloop
  endfacet
  facet normal 0.0177442 0.999843 -0
    outer loop
      vertex 47.2979 55.2773 -2.5
      vertex 47.2979 55.2773 2.5
      vertex 49.5518 55.2373 2.5
    endloop
  endfacet
  facet normal 0.0118914 0.999929 0
    outer loop
      vertex 44.2539 55.3135 -2.5
      vertex 47.2979 55.2773 2.5
      vertex 47.2979 55.2773 -2.5
    endloop
  endfacet
  facet normal 0.0118914 0.999929 -0
    outer loop
      vertex 44.2539 55.3135 -2.5
      vertex 44.2539 55.3135 2.5
      vertex 47.2979 55.2773 2.5
    endloop
  endfacet
  facet normal 0.00755048 0.999971 0
    outer loop
      vertex 40.5059 55.3418 -2.5
      vertex 44.2539 55.3135 2.5
      vertex 44.2539 55.3135 -2.5
    endloop
  endfacet
  facet normal 0.00755048 0.999971 -0
    outer loop
      vertex 40.5059 55.3418 -2.5
      vertex 40.5059 55.3418 2.5
      vertex 44.2539 55.3135 2.5
    endloop
  endfacet
  facet normal 0.00515883 0.999987 0
    outer loop
      vertex 36.1445 55.3643 -2.5
      vertex 40.5059 55.3418 2.5
      vertex 40.5059 55.3418 -2.5
    endloop
  endfacet
  facet normal 0.00515883 0.999987 -0
    outer loop
      vertex 36.1445 55.3643 -2.5
      vertex 36.1445 55.3643 2.5
      vertex 40.5059 55.3418 2.5
    endloop
  endfacet
  facet normal 0.0027814 0.999996 0
    outer loop
      vertex 31.2549 55.3779 -2.5
      vertex 36.1445 55.3643 2.5
      vertex 36.1445 55.3643 -2.5
    endloop
  endfacet
  facet normal 0.0027814 0.999996 -0
    outer loop
      vertex 31.2549 55.3779 -2.5
      vertex 31.2549 55.3779 2.5
      vertex 36.1445 55.3643 2.5
    endloop
  endfacet
  facet normal 0.000976415 1 0
    outer loop
      vertex 27.2607 55.3818 -2.5
      vertex 31.2549 55.3779 2.5
      vertex 31.2549 55.3779 -2.5
    endloop
  endfacet
  facet normal 0.000976415 1 -0
    outer loop
      vertex 27.2607 55.3818 -2.5
      vertex 27.2607 55.3818 2.5
      vertex 31.2549 55.3779 2.5
    endloop
  endfacet
  facet normal 0 1 0
    outer loop
      vertex 25.9297 55.3818 -2.5
      vertex 27.2607 55.3818 2.5
      vertex 27.2607 55.3818 -2.5
    endloop
  endfacet
  facet normal 0 1 0
    outer loop
      vertex 25.9297 55.3818 -2.5
      vertex 25.9297 55.3818 2.5
      vertex 27.2607 55.3818 2.5
    endloop
  endfacet
  facet normal 0.00201843 0.999998 0
    outer loop
      vertex 24.4434 55.3848 -2.5
      vertex 25.9297 55.3818 2.5
      vertex 25.9297 55.3818 -2.5
    endloop
  endfacet
  facet normal 0.00201843 0.999998 -0
    outer loop
      vertex 24.4434 55.3848 -2.5
      vertex 24.4434 55.3848 2.5
      vertex 25.9297 55.3818 2.5
    endloop
  endfacet
  facet normal 0.000202102 1 0
    outer loop
      vertex 19.9902 55.3857 -2.5
      vertex 24.4434 55.3848 2.5
      vertex 24.4434 55.3848 -2.5
    endloop
  endfacet
  facet normal 0.000202102 1 -0
    outer loop
      vertex 19.9902 55.3857 -2.5
      vertex 19.9902 55.3857 2.5
      vertex 24.4434 55.3848 2.5
    endloop
  endfacet
  facet normal -0.00131084 0.999999 0
    outer loop
      vertex 14.8027 55.3789 -2.5
      vertex 19.9902 55.3857 2.5
      vertex 19.9902 55.3857 -2.5
    endloop
  endfacet
  facet normal -0.00131084 0.999999 0
    outer loop
      vertex 14.8027 55.3789 -2.5
      vertex 14.8027 55.3789 2.5
      vertex 19.9902 55.3857 2.5
    endloop
  endfacet
  facet normal -0.00418747 0.999991 0
    outer loop
      vertex 10.3848 55.3604 -2.5
      vertex 14.8027 55.3789 2.5
      vertex 14.8027 55.3789 -2.5
    endloop
  endfacet
  facet normal -0.00418747 0.999991 0
    outer loop
      vertex 10.3848 55.3604 -2.5
      vertex 10.3848 55.3604 2.5
      vertex 14.8027 55.3789 2.5
    endloop
  endfacet
  facet normal -0.00781731 0.999969 0
    outer loop
      vertex 6.75195 55.332 -2.5
      vertex 10.3848 55.3604 2.5
      vertex 10.3848 55.3604 -2.5
    endloop
  endfacet
  facet normal -0.00781731 0.999969 0
    outer loop
      vertex 6.75195 55.332 -2.5
      vertex 6.75195 55.332 2.5
      vertex 10.3848 55.3604 2.5
    endloop
  endfacet
  facet normal -0.0124016 0.999923 0
    outer loop
      vertex 3.92188 55.2969 -2.5
      vertex 6.75195 55.332 2.5
      vertex 6.75195 55.332 -2.5
    endloop
  endfacet
  facet normal -0.0124016 0.999923 0
    outer loop
      vertex 3.92188 55.2969 -2.5
      vertex 3.92188 55.2969 2.5
      vertex 6.75195 55.332 2.5
    endloop
  endfacet
  facet normal -0.0222812 0.999752 0
    outer loop
      vertex 1.90723 55.252 -2.5
      vertex 3.92188 55.2969 2.5
      vertex 3.92188 55.2969 -2.5
    endloop
  endfacet
  facet normal -0.0222812 0.999752 0
    outer loop
      vertex 1.90723 55.252 -2.5
      vertex 1.90723 55.252 2.5
      vertex 3.92188 55.2969 2.5
    endloop
  endfacet
  facet normal -0.0430223 0.999074 0
    outer loop
      vertex 0.727539 55.2012 -2.5
      vertex 1.90723 55.252 2.5
      vertex 1.90723 55.252 -2.5
    endloop
  endfacet
  facet normal -0.0430223 0.999074 0
    outer loop
      vertex 0.727539 55.2012 -2.5
      vertex 0.727539 55.2012 2.5
      vertex 1.90723 55.252 2.5
    endloop
  endfacet
  facet normal -0.171414 0.985199 0
    outer loop
      vertex 0.396484 55.1436 -2.5
      vertex 0.727539 55.2012 2.5
      vertex 0.727539 55.2012 -2.5
    endloop
  endfacet
  facet normal -0.171414 0.985199 0
    outer loop
      vertex 0.396484 55.1436 -2.5
      vertex 0.396484 55.1436 2.5
      vertex 0.727539 55.2012 2.5
    endloop
  endfacet
  facet normal -0.532773 -0.846258 0
    outer loop
      vertex 0.449219 55.1104 -2.5
      vertex 0.396484 55.1436 2.5
      vertex 0.396484 55.1436 -2.5
    endloop
  endfacet
  facet normal -0.532773 -0.846258 0
    outer loop
      vertex 0.449219 55.1104 -2.5
      vertex 0.449219 55.1104 2.5
      vertex 0.396484 55.1436 2.5
    endloop
  endfacet
  facet normal -0.303155 -0.952941 0
    outer loop
      vertex 0.916016 54.9619 -2.5
      vertex 0.449219 55.1104 2.5
      vertex 0.449219 55.1104 -2.5
    endloop
  endfacet
  facet normal -0.303155 -0.952941 0
    outer loop
      vertex 0.916016 54.9619 -2.5
      vertex 0.916016 54.9619 2.5
      vertex 0.449219 55.1104 2.5
    endloop
  endfacet
  facet normal -0.156895 -0.987615 0
    outer loop
      vertex 1.43848 54.8789 -2.5
      vertex 0.916016 54.9619 2.5
      vertex 0.916016 54.9619 -2.5
    endloop
  endfacet
  facet normal -0.156895 -0.987615 0
    outer loop
      vertex 1.43848 54.8789 -2.5
      vertex 1.43848 54.8789 2.5
      vertex 0.916016 54.9619 2.5
    endloop
  endfacet
  facet normal 0 -1 0
    outer loop
      vertex 2.00684 54.8789 -2.5
      vertex 1.43848 54.8789 2.5
      vertex 1.43848 54.8789 -2.5
    endloop
  endfacet
  facet normal 0 -1 0
    outer loop
      vertex 2.00684 54.8789 -2.5
      vertex 2.00684 54.8789 2.5
      vertex 1.43848 54.8789 2.5
    endloop
  endfacet
  facet normal -0.178268 -0.983982 0
    outer loop
      vertex 3.1875 54.665 -2.5
      vertex 2.00684 54.8789 2.5
      vertex 2.00684 54.8789 -2.5
    endloop
  endfacet
  facet normal -0.178268 -0.983982 0
    outer loop
      vertex 3.1875 54.665 -2.5
      vertex 3.1875 54.665 2.5
      vertex 2.00684 54.8789 2.5
    endloop
  endfacet
  facet normal -0.244343 -0.969689 0
    outer loop
      vertex 5.37695 54.1133 -2.5
      vertex 3.1875 54.665 2.5
      vertex 3.1875 54.665 -2.5
    endloop
  endfacet
  facet normal -0.244343 -0.969689 0
    outer loop
      vertex 5.37695 54.1133 -2.5
      vertex 5.37695 54.1133 2.5
      vertex 3.1875 54.665 2.5
    endloop
  endfacet
  facet normal -0.305722 -0.952121 0
    outer loop
      vertex 7.71582 53.3623 -2.5
      vertex 5.37695 54.1133 2.5
      vertex 5.37695 54.1133 -2.5
    endloop
  endfacet
  facet normal -0.305722 -0.952121 0
    outer loop
      vertex 7.71582 53.3623 -2.5
      vertex 7.71582 53.3623 2.5
      vertex 5.37695 54.1133 2.5
    endloop
  endfacet
  facet normal -0.355399 -0.934715 0
    outer loop
      vertex 9.24414 52.7812 -2.5
      vertex 7.71582 53.3623 2.5
      vertex 7.71582 53.3623 -2.5
    endloop
  endfacet
  facet normal -0.355399 -0.934715 0
    outer loop
      vertex 9.24414 52.7812 -2.5
      vertex 9.24414 52.7812 2.5
      vertex 7.71582 53.3623 2.5
    endloop
  endfacet
  facet normal -0.421766 -0.906705 0
    outer loop
      vertex 9.7373 52.5518 -2.5
      vertex 9.24414 52.7812 2.5
      vertex 9.24414 52.7812 -2.5
    endloop
  endfacet
  facet normal -0.421766 -0.906705 0
    outer loop
      vertex 9.7373 52.5518 -2.5
      vertex 9.7373 52.5518 2.5
      vertex 9.24414 52.7812 2.5
    endloop
  endfacet
  facet normal -0.425615 -0.904905 0
    outer loop
      vertex 10.3105 52.2822 -2.5
      vertex 9.7373 52.5518 2.5
      vertex 9.7373 52.5518 -2.5
    endloop
  endfacet
  facet normal -0.425615 -0.904905 0
    outer loop
      vertex 10.3105 52.2822 -2.5
      vertex 10.3105 52.2822 2.5
      vertex 9.7373 52.5518 2.5
    endloop
  endfacet
  facet normal -0.467183 -0.884161 0
    outer loop
      vertex 11.9941 51.3926 -2.5
      vertex 10.3105 52.2822 2.5
      vertex 10.3105 52.2822 -2.5
    endloop
  endfacet
  facet normal -0.467183 -0.884161 0
    outer loop
      vertex 11.9941 51.3926 -2.5
      vertex 11.9941 51.3926 2.5
      vertex 10.3105 52.2822 2.5
    endloop
  endfacet
  facet normal -0.540167 -0.841558 0
    outer loop
      vertex 13.9766 50.1201 -2.5
      vertex 11.9941 51.3926 2.5
      vertex 11.9941 51.3926 -2.5
    endloop
  endfacet
  facet normal -0.540167 -0.841558 0
    outer loop
      vertex 13.9766 50.1201 -2.5
      vertex 13.9766 50.1201 2.5
      vertex 11.9941 51.3926 2.5
    endloop
  endfacet
  facet normal -0.627232 -0.778832 0
    outer loop
      vertex 15.8682 48.5967 -2.5
      vertex 13.9766 50.1201 2.5
      vertex 13.9766 50.1201 -2.5
    endloop
  endfacet
  facet normal -0.627232 -0.778832 0
    outer loop
      vertex 15.8682 48.5967 -2.5
      vertex 15.8682 48.5967 2.5
      vertex 13.9766 50.1201 2.5
    endloop
  endfacet
  facet normal -0.686323 -0.727296 0
    outer loop
      vertex 17.377 47.1729 -2.5
      vertex 15.8682 48.5967 2.5
      vertex 15.8682 48.5967 -2.5
    endloop
  endfacet
  facet normal -0.686323 -0.727296 0
    outer loop
      vertex 17.377 47.1729 -2.5
      vertex 17.377 47.1729 2.5
      vertex 15.8682 48.5967 2.5
    endloop
  endfacet
  facet normal -0.716937 -0.697138 0
    outer loop
      vertex 17.8594 46.6768 -2.5
      vertex 17.377 47.1729 2.5
      vertex 17.377 47.1729 -2.5
    endloop
  endfacet
  facet normal -0.716937 -0.697138 0
    outer loop
      vertex 17.8594 46.6768 -2.5
      vertex 17.8594 46.6768 2.5
      vertex 17.377 47.1729 2.5
    endloop
  endfacet
  facet normal -0.712523 -0.701648 0
    outer loop
      vertex 18.3691 46.1592 -2.5
      vertex 17.8594 46.6768 2.5
      vertex 17.8594 46.6768 -2.5
    endloop
  endfacet
  facet normal -0.712523 -0.701648 0
    outer loop
      vertex 18.3691 46.1592 -2.5
      vertex 18.3691 46.1592 2.5
      vertex 17.8594 46.6768 2.5
    endloop
  endfacet
  facet normal -0.752817 -0.65823 0
    outer loop
      vertex 19.8096 44.5117 -2.5
      vertex 18.3691 46.1592 2.5
      vertex 18.3691 46.1592 -2.5
    endloop
  endfacet
  facet normal -0.752817 -0.65823 0
    outer loop
      vertex 19.8096 44.5117 -2.5
      vertex 19.8096 44.5117 2.5
      vertex 18.3691 46.1592 2.5
    endloop
  endfacet
  facet normal -0.806794 -0.590833 0
    outer loop
      vertex 21.418 42.3154 -2.5
      vertex 19.8096 44.5117 2.5
      vertex 19.8096 44.5117 -2.5
    endloop
  endfacet
  facet normal -0.806794 -0.590833 0
    outer loop
      vertex 21.418 42.3154 -2.5
      vertex 21.418 42.3154 2.5
      vertex 19.8096 44.5117 2.5
    endloop
  endfacet
  facet normal -0.8688 -0.495164 0
    outer loop
      vertex 22.7471 39.9834 -2.5
      vertex 21.418 42.3154 2.5
      vertex 21.418 42.3154 -2.5
    endloop
  endfacet
  facet normal -0.8688 -0.495164 0
    outer loop
      vertex 22.7471 39.9834 -2.5
      vertex 22.7471 39.9834 2.5
      vertex 21.418 42.3154 2.5
    endloop
  endfacet
  facet normal -0.910194 -0.414183 0
    outer loop
      vertex 23.6172 38.0713 -2.5
      vertex 22.7471 39.9834 2.5
      vertex 22.7471 39.9834 -2.5
    endloop
  endfacet
  facet normal -0.910194 -0.414183 0
    outer loop
      vertex 23.6172 38.0713 -2.5
      vertex 23.6172 38.0713 2.5
      vertex 22.7471 39.9834 2.5
    endloop
  endfacet
  facet normal -0.935084 -0.354426 0
    outer loop
      vertex 23.8652 37.417 -2.5
      vertex 23.6172 38.0713 2.5
      vertex 23.6172 38.0713 -2.5
    endloop
  endfacet
  facet normal -0.935084 -0.354426 0
    outer loop
      vertex 23.8652 37.417 -2.5
      vertex 23.8652 37.417 2.5
      vertex 23.6172 38.0713 2.5
    endloop
  endfacet
  facet normal -0.938115 -0.346325 0
    outer loop
      vertex 24.1035 36.7715 -2.5
      vertex 23.8652 37.417 2.5
      vertex 23.8652 37.417 -2.5
    endloop
  endfacet
  facet normal -0.938115 -0.346325 0
    outer loop
      vertex 24.1035 36.7715 -2.5
      vertex 24.1035 36.7715 2.5
      vertex 23.8652 37.417 2.5
    endloop
  endfacet
  facet normal -0.951846 -0.306576 0
    outer loop
      vertex 24.7373 34.8037 -2.5
      vertex 24.1035 36.7715 2.5
      vertex 24.1035 36.7715 -2.5
    endloop
  endfacet
  facet normal -0.951846 -0.306576 0
    outer loop
      vertex 24.7373 34.8037 -2.5
      vertex 24.7373 34.8037 2.5
      vertex 24.1035 36.7715 2.5
    endloop
  endfacet
  facet normal -0.976426 -0.215851 0
    outer loop
      vertex 25.2539 32.4668 -2.5
      vertex 24.7373 34.8037 2.5
      vertex 24.7373 34.8037 -2.5
    endloop
  endfacet
  facet normal -0.976426 -0.215851 0
    outer loop
      vertex 25.2539 32.4668 -2.5
      vertex 25.2539 32.4668 2.5
      vertex 24.7373 34.8037 2.5
    endloop
  endfacet
  facet normal -0.996235 -0.0866914 0
    outer loop
      vertex 25.4717 29.9639 -2.5
      vertex 25.2539 32.4668 2.5
      vertex 25.2539 32.4668 -2.5
    endloop
  endfacet
  facet normal -0.996235 -0.0866914 0
    outer loop
      vertex 25.4717 29.9639 -2.5
      vertex 25.4717 29.9639 2.5
      vertex 25.2539 32.4668 2.5
    endloop
  endfacet
  facet normal -0.999997 -0.00249022 0
    outer loop
      vertex 25.4775 27.6348 -2.5
      vertex 25.4717 29.9639 2.5
      vertex 25.4717 29.9639 -2.5
    endloop
  endfacet
  facet normal -0.999997 -0.00249022 0
    outer loop
      vertex 25.4775 27.6348 -2.5
      vertex 25.4775 27.6348 2.5
      vertex 25.4717 29.9639 2.5
    endloop
  endfacet
  facet normal -0.999464 0.0327397 0
    outer loop
      vertex 25.4521 26.8594 -2.5
      vertex 25.4775 27.6348 2.5
      vertex 25.4775 27.6348 -2.5
    endloop
  endfacet
  facet normal -0.999464 0.0327397 0
    outer loop
      vertex 25.4521 26.8594 -2.5
      vertex 25.4521 26.8594 2.5
      vertex 25.4775 27.6348 2.5
    endloop
  endfacet
  facet normal -0.999662 0.0260158 0
    outer loop
      vertex 25.4307 26.0371 -2.5
      vertex 25.4521 26.8594 2.5
      vertex 25.4521 26.8594 -2.5
    endloop
  endfacet
  facet normal -0.999662 0.0260158 0
    outer loop
      vertex 25.4307 26.0371 -2.5
      vertex 25.4307 26.0371 2.5
      vertex 25.4521 26.8594 2.5
    endloop
  endfacet
  facet normal -0.99775 0.0670495 0
    outer loop
      vertex 25.2646 23.5654 -2.5
      vertex 25.4307 26.0371 2.5
      vertex 25.4307 26.0371 -2.5
    endloop
  endfacet
  facet normal -0.99775 0.0670495 0
    outer loop
      vertex 25.2646 23.5654 -2.5
      vertex 25.2646 23.5654 2.5
      vertex 25.4307 26.0371 2.5
    endloop
  endfacet
  facet normal -0.986725 0.1624 0
    outer loop
      vertex 24.8271 20.9072 -2.5
      vertex 25.2646 23.5654 2.5
      vertex 25.2646 23.5654 -2.5
    endloop
  endfacet
  facet normal -0.986725 0.1624 0
    outer loop
      vertex 24.8271 20.9072 -2.5
      vertex 24.8271 20.9072 2.5
      vertex 25.2646 23.5654 2.5
    endloop
  endfacet
  facet normal -0.952482 0.304596 0
    outer loop
      vertex 24.0273 18.4062 -2.5
      vertex 24.8271 20.9072 2.5
      vertex 24.8271 20.9072 -2.5
    endloop
  endfacet
  facet normal -0.952482 0.304596 0
    outer loop
      vertex 24.0273 18.4062 -2.5
      vertex 24.0273 18.4062 2.5
      vertex 24.8271 20.9072 2.5
    endloop
  endfacet
  facet normal -0.915854 0.401511 0
    outer loop
      vertex 23.0957 16.2812 -2.5
      vertex 24.0273 18.4062 2.5
      vertex 24.0273 18.4062 -2.5
    endloop
  endfacet
  facet normal -0.915854 0.401511 0
    outer loop
      vertex 23.0957 16.2812 -2.5
      vertex 23.0957 16.2812 2.5
      vertex 24.0273 18.4062 2.5
    endloop
  endfacet
  facet normal -0.896669 0.442701 0
    outer loop
      vertex 22.7539 15.5889 -2.5
      vertex 23.0957 16.2812 2.5
      vertex 23.0957 16.2812 -2.5
    endloop
  endfacet
  facet normal -0.896669 0.442701 0
    outer loop
      vertex 22.7539 15.5889 -2.5
      vertex 22.7539 15.5889 2.5
      vertex 23.0957 16.2812 2.5
    endloop
  endfacet
  facet normal -0.897447 0.441122 0
    outer loop
      vertex 22.043 14.1426 -2.5
      vertex 22.7539 15.5889 2.5
      vertex 22.7539 15.5889 -2.5
    endloop
  endfacet
  facet normal -0.897447 0.441122 0
    outer loop
      vertex 22.043 14.1426 -2.5
      vertex 22.043 14.1426 2.5
      vertex 22.7539 15.5889 2.5
    endloop
  endfacet
  facet normal -0.819622 0.572905 0
    outer loop
      vertex 19.2402 10.1328 -2.5
      vertex 22.043 14.1426 2.5
      vertex 22.043 14.1426 -2.5
    endloop
  endfacet
  facet normal -0.819622 0.572905 0
    outer loop
      vertex 19.2402 10.1328 -2.5
      vertex 19.2402 10.1328 2.5
      vertex 22.043 14.1426 2.5
    endloop
  endfacet
  facet normal -0.689464 0.72432 0
    outer loop
      vertex 14.6543 5.76758 -2.5
      vertex 19.2402 10.1328 2.5
      vertex 19.2402 10.1328 -2.5
    endloop
  endfacet
  facet normal -0.689464 0.72432 0
    outer loop
      vertex 14.6543 5.76758 -2.5
      vertex 14.6543 5.76758 2.5
      vertex 19.2402 10.1328 2.5
    endloop
  endfacet
  facet normal -0.498325 0.86699 0
    outer loop
      vertex 9.11035 2.58105 -2.5
      vertex 14.6543 5.76758 2.5
      vertex 14.6543 5.76758 -2.5
    endloop
  endfacet
  facet normal -0.498325 0.86699 0
    outer loop
      vertex 9.11035 2.58105 -2.5
      vertex 9.11035 2.58105 2.5
      vertex 14.6543 5.76758 2.5
    endloop
  endfacet
  facet normal -0.321239 0.946998 0
    outer loop
      vertex 4.35449 0.967773 -2.5
      vertex 9.11035 2.58105 2.5
      vertex 9.11035 2.58105 -2.5
    endloop
  endfacet
  facet normal -0.321239 0.946998 0
    outer loop
      vertex 4.35449 0.967773 -2.5
      vertex 4.35449 0.967773 2.5
      vertex 9.11035 2.58105 2.5
    endloop
  endfacet
  facet normal -0.182153 0.98327 0
    outer loop
      vertex 2.72559 0.666016 -2.5
      vertex 4.35449 0.967773 2.5
      vertex 4.35449 0.967773 -2.5
    endloop
  endfacet
  facet normal -0.182153 0.98327 0
    outer loop
      vertex 2.72559 0.666016 -2.5
      vertex 2.72559 0.666016 2.5
      vertex 4.35449 0.967773 2.5
    endloop
  endfacet
  facet normal -0.181118 0.983461 0
    outer loop
      vertex 0 0.164062 -2.5
      vertex 2.72559 0.666016 2.5
      vertex 2.72559 0.666016 -2.5
    endloop
  endfacet
  facet normal -0.181118 0.983461 0
    outer loop
      vertex 0 0.164062 -2.5
      vertex 0 0.164062 2.5
      vertex 2.72559 0.666016 2.5
    endloop
  endfacet
  facet normal 0 -1 0
    outer loop
      vertex 27.7812 0.164062 -2.5
      vertex 0 0.164062 2.5
      vertex 0 0.164062 -2.5
    endloop
  endfacet
  facet normal 0 -1 0
    outer loop
      vertex 27.7812 0.164062 -2.5
      vertex 27.7812 0.164062 2.5
      vertex 0 0.164062 2.5
    endloop
  endfacet
  facet normal 0.000702988 -1 0
    outer loop
      vertex 33.3389 0.167969 -2.5
      vertex 27.7812 0.164062 2.5
      vertex 27.7812 0.164062 -2.5
    endloop
  endfacet
  facet normal 0.000702988 -1 0
    outer loop
      vertex 33.3389 0.167969 -2.5
      vertex 33.3389 0.167969 2.5
      vertex 27.7812 0.164062 2.5
    endloop
  endfacet
endsolid OpenSCAD_Model
